<?xml version="1.0" encoding="utf-8"?>
<!-- Generator: Adobe Illustrator 23.0.1, SVG Export Plug-In . SVG Version: 6.00 Build 0)  -->
<svg version="1.1" id="Layer_1" xmlns="http://www.w3.org/2000/svg" xmlns:xlink="http://www.w3.org/1999/xlink" x="0px" y="0px"
	 viewBox="0 0 795 1043" enable-background="new 0 0 795 1043" xml:space="preserve">
<linearGradient id="SVGID_1_" gradientUnits="userSpaceOnUse" x1="590.7153" y1="927.4614" x2="624.7096" y2="908.618" gradientTransform="matrix(1 0 0 -1 0 1170)">
	<stop  offset="0" style="stop-color:#000000"/>
	<stop  offset="8.988760e-02" style="stop-color:#65766A"/>
	<stop  offset="0.264" style="stop-color:#FFFFFF"/>
	<stop  offset="0.5112" style="stop-color:#9CA3A1"/>
	<stop  offset="0.7865" style="stop-color:#000000"/>
</linearGradient>
<polygon fill="url(#SVGID_1_)" points="545.2,330.6 576.9,347.6 670.1,173.2 638.5,156.3 "/>
<linearGradient id="SVGID_2_" gradientUnits="userSpaceOnUse" x1="171.3351" y1="909.4938" x2="203.4613" y2="926.5756" gradientTransform="matrix(1 0 0 -1 0 1170)">
	<stop  offset="0" style="stop-color:#000000"/>
	<stop  offset="8.988760e-02" style="stop-color:#65766A"/>
	<stop  offset="0.264" style="stop-color:#FFFFFF"/>
	<stop  offset="0.5112" style="stop-color:#9CA3A1"/>
	<stop  offset="0.7865" style="stop-color:#000000"/>
</linearGradient>
<polygon fill="url(#SVGID_2_)" points="249.8,330.6 218.1,347.6 124.9,173.2 156.5,156.3 "/>
<radialGradient id="SVGID_3_" cx="397.5385" cy="545.253" r="355.8" gradientTransform="matrix(1 0 0 -1 0 1170)" gradientUnits="userSpaceOnUse">
	<stop  offset="0.6854" style="stop-color:#E4E6D4"/>
	<stop  offset="0.8441" style="stop-color:#E0E2D0"/>
	<stop  offset="0.9012" style="stop-color:#D4D8C5"/>
	<stop  offset="0.942" style="stop-color:#C4C9B5"/>
	<stop  offset="0.9747" style="stop-color:#AEB59F"/>
	<stop  offset="1" style="stop-color:#96A088"/>
</radialGradient>
<circle fill="url(#SVGID_3_)" cx="397.5" cy="624.7" r="355.8"/>
<g>
	
		<radialGradient id="SVGID_4_" cx="396.2385" cy="546.303" r="355.775" gradientTransform="matrix(1 0 0 -1 0 1170)" gradientUnits="userSpaceOnUse">
		<stop  offset="0.2753" style="stop-color:#E4E6D4"/>
		<stop  offset="0.569" style="stop-color:#DEE0CF"/>
		<stop  offset="0.7389" style="stop-color:#D0D4C2"/>
		<stop  offset="0.8767" style="stop-color:#BCC2AE"/>
		<stop  offset="0.9973" style="stop-color:#A1AA94"/>
		<stop  offset="1" style="stop-color:#A0A994"/>
	</radialGradient>
	<path fill="url(#SVGID_4_)" d="M396.2,267.9c-196.5,0-355.8,159.3-355.8,355.8c0,196.4,159.3,355.7,355.8,355.7
		S752,820.1,752,623.6C751.9,427.2,592.7,267.9,396.2,267.9z M369,622.4C85.3,882.2,8.6,655.8,88.2,483.9
		c43.4-93.8,159.8-200.1,308-202.5c179.7-2.9,293.6,145.4,320.5,245.2C776.1,747.1,478.3,522.3,369,622.4z"/>
</g>
<g>
	<path d="M446.2,174.8c-3.2-0.6-6.4,1.6-6.9,4.9l-6.5,36.9c-0.6,3.2-3.7,5.8-7,5.7l-15.6-0.6c-3.3-0.1-6.1,2.5-6.2,5.8l-0.1,2.1
		c-0.1,3.3,2.5,6.1,5.8,6.2l13.6,0.5c3.3,0.1,5.5,2.9,4.9,6.1l-0.1,0.3c-0.6,3.2,1.6,6.4,4.9,6.9l2.1,0.4c3.2,0.6,6.4-1.6,6.9-4.9
		l11.1-63c0.6-3.2-1.6-6.4-4.9-6.9L446.2,174.8z"/>
</g>
<linearGradient id="SVGID_5_" gradientUnits="userSpaceOnUse" x1="381.4802" y1="951.203" x2="395.5622" y2="951.203" gradientTransform="matrix(1 0 0 -1 0 1170)">
	<stop  offset="0.1517" style="stop-color:#517382"/>
	<stop  offset="0.9551" style="stop-color:#000000"/>
</linearGradient>
<rect x="381.4" y="190.6" fill="url(#SVGID_5_)" width="14.1" height="56.3"/>
<radialGradient id="SVGID_6_" cx="672.5012" cy="1052.9965" r="22.0256" gradientTransform="matrix(1 0 0 -1 0 1170)" gradientUnits="userSpaceOnUse">
	<stop  offset="0" style="stop-color:#FFFFFF"/>
	<stop  offset="0.3652" style="stop-color:#9CA3A1"/>
	<stop  offset="0.4608" style="stop-color:#888A89"/>
	<stop  offset="0.6617" style="stop-color:#585454"/>
	<stop  offset="0.8708" style="stop-color:#000000"/>
</radialGradient>
<path fill="url(#SVGID_6_)" d="M657.2,126.1c0,9.7,7.9,17.6,17.6,17.6c9.7,0,17.6-7.9,17.6-17.6c0-9.7-7.9-17.6-17.6-17.6
	C665.1,108.6,657.2,116.4,657.2,126.1z"/>
<linearGradient id="SVGID_7_" gradientUnits="userSpaceOnUse" x1="645.3651" y1="1027.0294" x2="677.2119" y2="1009.3765" gradientTransform="matrix(1 0 0 -1 0 1170)">
	<stop  offset="0" style="stop-color:#000000"/>
	<stop  offset="8.988760e-02" style="stop-color:#65766A"/>
	<stop  offset="0.264" style="stop-color:#FFFFFF"/>
	<stop  offset="0.5112" style="stop-color:#9CA3A1"/>
	<stop  offset="0.7865" style="stop-color:#000000"/>
</linearGradient>
<polygon fill="url(#SVGID_7_)" points="637.7,157.7 669.4,174.6 684.8,145.8 653.1,128.9 "/>
<radialGradient id="SVGID_8_" cx="109.1788" cy="1050.9261" r="31.1881" gradientTransform="matrix(1 0 0 -1 0 1170)" gradientUnits="userSpaceOnUse">
	<stop  offset="0" style="stop-color:#FFFFFF"/>
	<stop  offset="0.2978" style="stop-color:#9CA3A1"/>
	<stop  offset="0.3891" style="stop-color:#888A89"/>
	<stop  offset="0.5811" style="stop-color:#585454"/>
	<stop  offset="0.7809" style="stop-color:#000000"/>
</radialGradient>
<path fill="url(#SVGID_8_)" d="M137.8,126.1c0,9.7-7.9,17.6-17.6,17.6c-9.7,0-17.6-7.9-17.6-17.6c0-9.7,7.9-17.6,17.6-17.6
	C129.9,108.6,137.8,116.4,137.8,126.1z"/>
<linearGradient id="SVGID_9_" gradientUnits="userSpaceOnUse" x1="117.8954" y1="1009.7524" x2="149.6816" y2="1026.6534" gradientTransform="matrix(1 0 0 -1 0 1170)">
	<stop  offset="0" style="stop-color:#000000"/>
	<stop  offset="8.988760e-02" style="stop-color:#65766A"/>
	<stop  offset="0.264" style="stop-color:#FFFFFF"/>
	<stop  offset="0.5112" style="stop-color:#9CA3A1"/>
	<stop  offset="0.7865" style="stop-color:#000000"/>
</linearGradient>
<polygon fill="url(#SVGID_9_)" points="157.3,157.7 125.6,174.6 110.2,145.8 141.9,128.9 "/>
<g>
	
		<radialGradient id="SVGID_10_" cx="302.3496" cy="1066.8136" r="208.5967" gradientTransform="matrix(1.0282 0 0 -0.8705 -100.0353 968.5276)" gradientUnits="userSpaceOnUse">
		<stop  offset="0" style="stop-color:#9CA3A1"/>
		<stop  offset="0.1465" style="stop-color:#7C7C7B"/>
		<stop  offset="0.3547" style="stop-color:#555051"/>
		<stop  offset="0.5383" style="stop-color:#362F30"/>
		<stop  offset="0.6886" style="stop-color:#151111"/>
		<stop  offset="0.7865" style="stop-color:#000000"/>
	</radialGradient>
	<path fill="url(#SVGID_10_)" d="M711.2,192.5c3.5-7.5-4.3-11.3-6.2-12c-7.6-2.8-15.3-5.5-22.8-8.1c-25.8-9-48.1-19-57.2-26.6
		c-12.4-10.5-11.9-32.9-11.8-47.6c0.1-11.9,0.2-24.1-5.8-35.5C585.6,21.3,515.9,0.2,400.2,0.2S214.8,21.2,193,62.7
		c-6,11.3-5.9,23.6-5.8,35.5c0.1,14.6,0.7,37-11.8,47.6c-9,7.7-31.4,17.6-57.2,26.6c-7.5,2.6-15.1,5.3-22.7,8.1
		c-2,0.7-7.9,5.4-5.4,11.6c3.3,8,11.9,6.8,13.9,6.1c7.2-2.6,14.5-5.2,21.7-7.7c33.7-11.8,62.7-21.9,75.4-36.3
		c16.8-19,16.6-39.6,16.4-56.1c-0.1-10-0.2-18.6,3.1-24.8c16-30.4,79.8-47.2,179.4-47.2c99.7,0,163.4,16.8,179.4,47.2
		c3.3,6.2,3.2,14.8,3.1,24.8c-0.1,16.5-0.3,37.1,16.4,56.1c12.7,14.4,41.7,24.5,75.4,36.3c6.9,2.4,13.9,4.9,20.8,7.4
		C697.8,198.7,707.1,201.3,711.2,192.5z"/>
	
		<radialGradient id="SVGID_11_" cx="288.4474" cy="1078.0435" r="207.3831" gradientTransform="matrix(1.0235 0 0 -0.892 -83.3205 1002.0466)" gradientUnits="userSpaceOnUse">
		<stop  offset="0" style="stop-color:#ABB1AF"/>
		<stop  offset="5.912214e-02" style="stop-color:#9FA2A0"/>
		<stop  offset="0.2959" style="stop-color:#767373"/>
		<stop  offset="0.5046" style="stop-color:#5B5455"/>
		<stop  offset="0.6752" style="stop-color:#494142"/>
		<stop  offset="0.7865" style="stop-color:#423A3B"/>
	</radialGradient>
	<path fill="url(#SVGID_11_)" d="M194.7,63.2c-5.8,11.1-5.7,23.1-5.6,34.9c0,0.3,0,0.8,0,1c0.1,14.5,0.3,35.9-11.5,46.6
		c-1.6,1.4-3.5,2.9-5.8,4.4c-10.9,7.2-30.4,15.5-50.9,22.7c-3.7,1.3-7.4,2.6-11,3.9c-3.2,1.1-8.4,3-11.6,4.2
		c-1.4,0.5-6.8,3.9-6.7,7.8c-0.1,0.5-0.1,1.1,0.1,1.7c0.1,0.4,0.3,0.8,0.4,1.1c0.1,0.2,0.2,0.4,0.3,0.5c3.5,5.9,13.3,3.8,14.9,3.3
		c7.2-2.6,14.5-5.2,21.6-7.7c21.6-7.6,41-14.6,54.6-22.6c8-4.8,14.3-9.9,18.5-15.4c7.3-9.5,10.8-19.3,12.5-28.8
		c1.8-10,1.8-19.4,2.3-27.8c0.6-9.4,1.4-17.6,5.2-23.7c18.3-29,81.1-45,178.3-45c98.2,0,161.4,16.2,179.2,45.8
		c2.7,4.4,3.7,9.9,4.3,16.1c0.2,2.6,0.4,5.2,0.5,8c0.2,6.6,0.1,13.8,1,21.4c1.3,11.3,4.6,23.3,13.8,34.9c3.3,4.1,7.7,8,13.2,11.6
		c14.1,9.4,36,17.2,60.7,25.8c4.8,1.7,9.6,3.4,14.4,5.1c0.1,0,0.3,0.1,0.4,0.1c1.7,0.6,4.3,1.5,5.9,2.1c1.7,0.6,10.9,3.4,14.6-2
		c0.4-0.4,0.9-0.9,1.2-1.5c0.2-0.4,0.4-0.7,0.5-1.2c0.1-0.2,0.1-0.4,0.2-0.5c0.1-0.5,0.1-1,0-1.4c0.1-4.5-5.6-7.1-7.7-7.9
		c-4.2-1.5-8.4-3-11.6-4.2c-3.6-1.3-7.3-2.6-11-3.9c-20.8-7.3-40.4-15.7-51.3-23c-2.1-1.4-3.9-2.8-5.3-4.1
		c-12.1-11-11.6-33-11.5-47.6c0-0.3,0-0.8,0-1.2c0.1-11.5,0-23.2-5.6-33.9C584.5,22.3,515.3,1.6,400.4,1.6
		C285.4,1.6,216.2,22.3,194.7,63.2z"/>
	
		<radialGradient id="SVGID_12_" cx="274.3717" cy="1088.655" r="206.3334" gradientTransform="matrix(1.0188 0 0 -0.9136 -66.6691 1035.6427)" gradientUnits="userSpaceOnUse">
		<stop  offset="0" style="stop-color:#BAC0BE"/>
		<stop  offset="0.214" style="stop-color:#989797"/>
		<stop  offset="0.4567" style="stop-color:#7B7677"/>
		<stop  offset="0.6563" style="stop-color:#6A6365"/>
		<stop  offset="0.7865" style="stop-color:#645C5E"/>
	</radialGradient>
	<path fill="url(#SVGID_12_)" d="M196.1,63.6c-5.7,10.8-5.6,22.6-5.5,34.3c0,0.2,0,0.8,0,1.1c0.1,14.4,0.3,35.4-11.1,46.7
		c-1.5,1.5-3.4,3.1-5.6,4.6c-10.9,7.5-30.8,16-50.6,23.1c-3.8,1.3-7.5,2.7-11,3.9c-2.6,0.9-9,3.2-11.6,4.2c-1.1,0.4-7.5,3.9-7.4,7
		c-0.1,0.5-0.3,1.1-0.1,1.7c0.2,0.5,0.3,0.8,0.5,1.1c0.1,0.2,0.3,0.3,0.4,0.4c3.4,4.5,14.9,1.6,16.2,1.1c7.2-2.6,14.4-5.1,21.5-7.6
		c21.9-7.8,41.2-14.9,53.8-23.3c7.6-5.1,13.3-10.6,17.1-16.4c6.5-9.7,9.3-19.6,10.6-29.2c1.4-10.2,1.5-19.6,2.7-27.9
		c1.3-8.8,2.9-16.6,7.3-22.6C243.9,38.2,305.7,23,400.5,23c96.7,0,159.4,15.7,179.1,44.5c3,4.3,4.4,9.6,5.4,15.5
		c0.4,2.5,0.7,5.2,0.9,7.9c0.4,6.5,0.4,13.7,1,21.3c1,11.4,3.6,23.5,12.1,35.2c3.1,4.3,7.2,8.3,12.4,12.2c13.1,9.7,35,17.6,60,26.4
		c4.7,1.7,9.5,3.3,14.3,5c0.1,0,0.3,0.1,0.4,0.1c1.3,0.5,4.6,1.6,5.9,2.1c1.4,0.5,11.7,3.8,14.7-0.6c0.5-0.3,1-0.7,1.4-1.1
		c0.2-0.3,0.4-0.7,0.6-1.2c0.1-0.2,0.1-0.4,0.2-0.5c0-0.4-0.1-0.9-0.2-1.3c0-3.6-5.6-6.1-8.4-7.1c-4.5-1.6-9-3.2-11.6-4.1
		c-3.5-1.2-7.2-2.6-11-3.9c-20-7.1-40.1-15.7-50.9-23.3c-2-1.4-3.7-2.8-5.2-4.2c-11.7-11.5-11.3-33.2-11.2-47.6c0-0.3,0-0.9,0-1.2
		c0.1-11.5,0.1-23-5.5-33.5C583.3,23.3,514.6,2.8,400.3,2.8C286.1,2.8,217.4,23.3,196.1,63.6z"/>
	
		<radialGradient id="SVGID_13_" cx="260.1519" cy="1098.7393" r="205.3936" gradientTransform="matrix(1.0141 0 0 -0.9352 -50.0177 1069.2297)" gradientUnits="userSpaceOnUse">
		<stop  offset="0" style="stop-color:#CACFCD"/>
		<stop  offset="8.579090e-02" style="stop-color:#BEC0BF"/>
		<stop  offset="0.383" style="stop-color:#9E9A9B"/>
		<stop  offset="0.6272" style="stop-color:#8B8587"/>
		<stop  offset="0.7865" style="stop-color:#857E80"/>
	</radialGradient>
	<path fill="url(#SVGID_13_)" d="M197.6,64c-5.5,10.5-5.4,22.1-5.3,33.8c0,0.2,0,0.9,0,1.1c0.1,14.2,0.3,35-10.8,46.8
		c-1.5,1.6-3.3,3.2-5.5,4.7c-10.8,7.8-31.2,16.5-50.3,23.4c-3.8,1.4-7.5,2.7-11,3.9c-1.9,0.7-9.7,3.4-11.6,4.1
		c-0.8,0.3-8.2,3.8-8.1,6.2c-0.2,0.4-0.5,1.1-0.3,1.6c0.2,0.6,0.4,0.9,0.5,1.1c0.1,0.1,0.3,0.2,0.5,0.3c3.4,3.1,16.5-0.7,17.5-1.1
		c7.2-2.6,14.4-5.1,21.3-7.6c22.2-7.9,41.4-15.3,52.9-24c7.2-5.5,12.3-11.4,15.7-17.4c5.6-9.9,7.7-20,8.7-29.5
		c1.1-10.4,1.1-19.8,3-28c1.9-8.3,4.3-15.6,9.4-21.4c22.8-26.2,83.8-40.6,176-40.6c95.3,0,157.5,15.2,178.9,43.1
		c3.3,4.3,5.2,9.3,6.6,14.9c0.6,2.5,1.1,5.1,1.3,7.8c0.7,6.4,0.6,13.5,1.1,21.2c0.7,11.4,2.7,23.7,10.3,35.6
		c2.8,4.4,6.6,8.7,11.6,12.8c12.2,9.9,34,18,59.3,26.9c4.7,1.6,9.5,3.3,14.3,5c0.1,0,0.3,0.1,0.4,0.1c1,0.4,4.8,1.7,5.8,2.1
		c1,0.4,12.5,4.2,14.7,0.9c0.5-0.1,1.2-0.4,1.5-0.8c0.2-0.3,0.4-0.6,0.6-1.1c0.1-0.2,0.1-0.4,0.2-0.5c0-0.4-0.3-0.9-0.5-1.2
		c-0.2-2.8-5.7-5.1-9.1-6.3c-4.8-1.7-9.6-3.4-11.6-4.1c-3.5-1.2-7.2-2.5-11-3.9c-19.3-6.9-39.8-15.7-50.6-23.6
		c-1.9-1.4-3.6-2.9-5-4.4c-11.4-11.9-11-33.3-10.9-47.6c0-0.2,0-0.9,0-1.1c0.1-11.5,0.1-22.8-5.3-33.2c-21-39.8-89.2-60-202.7-60
		C286.8,4,218.6,24.2,197.6,64z"/>
	
		<radialGradient id="SVGID_14_" cx="245.7979" cy="1108.3264" r="204.5393" gradientTransform="matrix(1.0094 0 0 -0.9568 -33.3663 1102.8169)" gradientUnits="userSpaceOnUse">
		<stop  offset="0" style="stop-color:#DADDDC"/>
		<stop  offset="0.2509" style="stop-color:#C4C2C3"/>
		<stop  offset="0.5747" style="stop-color:#B0ABAC"/>
		<stop  offset="0.7865" style="stop-color:#A8A3A4"/>
	</radialGradient>
	<path fill="url(#SVGID_14_)" d="M199,64.4c-5.4,10.2-5.3,21.6-5.2,33.2c0,0.1,0,0.9,0,1.1c0.1,14.1,0.3,34.6-10.4,47
		c-1.5,1.7-3.3,3.4-5.3,4.9c-10.7,8.2-31.6,17.1-50,23.8c-3.9,1.4-7.6,2.7-11,3.9c-1.3,0.5-10.3,3.7-11.6,4.1
		c-0.5,0.2-8.9,3.8-8.9,5.3c-0.2,0.4-0.6,1-0.4,1.6s0.5,0.9,0.5,1.1c0.1,0.1,0.3,0.2,0.5,0.2c3.3,1.7,18.1-3,18.8-3.2
		c7.2-2.6,14.3-5,21.2-7.5c22.5-8.1,41.5-15.6,52.1-24.8c6.8-5.9,11.3-12.1,14.3-18.5c4.8-10.1,6.2-20.3,6.8-29.9
		c0.7-10.5,0.7-19.9,3.3-28c2.4-7.7,5.8-14.6,11.5-20.3C250.3,33.5,310.5,20,400.3,20c93.8,0,155.6,14.6,178.7,41.7
		c3.6,4.2,6,9,7.7,14.3c0.8,2.4,1.4,5,1.8,7.7c0.9,6.3,0.9,13.4,1.2,21.1c0.4,11.5,1.7,23.8,8.6,35.9c2.6,4.6,6.1,9.1,10.8,13.4
		c11.2,10.2,33,18.5,58.6,27.5c4.6,1.6,9.4,3.3,14.2,5l0.4,0.1c0.7,0.2,5.1,1.8,5.8,2.1s13.3,4.5,14.7,2.3c0.6,0,1.3-0.1,1.7-0.4
		c0.2-0.2,0.4-0.6,0.6-1.1c0.1-0.2,0.1-0.4,0.2-0.5c-0.1-0.4-0.4-0.8-0.7-1.1c-0.4-1.9-5.7-4.1-9.7-5.5c-5.1-1.8-10.2-3.6-11.5-4.1
		c-3.4-1.2-7.1-2.5-10.9-3.9c-18.5-6.8-39.6-15.7-50.2-23.9c-1.9-1.4-3.5-3-4.9-4.5c-11-12.4-10.8-33.4-10.6-47.6c0-0.1,0-1,0-1.1
		c0.1-11.5,0.1-22.7-5.2-32.8C580.9,25.2,513.1,5.3,400.3,5.3S219.7,25.2,199,64.4z"/>
	
		<radialGradient id="SVGID_15_" cx="231.3177" cy="1117.4424" r="203.7654" gradientTransform="matrix(1.0047 0 0 -0.9784 -16.6514 1136.413)" gradientUnits="userSpaceOnUse">
		<stop  offset="0" style="stop-color:#EAECEB"/>
		<stop  offset="0.4417" style="stop-color:#D7D5D5"/>
		<stop  offset="0.7865" style="stop-color:#CFCCCC"/>
	</radialGradient>
	<path fill="url(#SVGID_15_)" d="M200.5,64.9c-5.2,10-5.1,21-5,32.6c0,0.1,0,1,0,1.1c0.1,14,0.3,34.2-10.1,47.1
		c-1.5,1.8-3.2,3.5-5.1,5.1c-10.5,8.5-32,17.6-49.7,24.1c-3.9,1.5-7.6,2.8-10.9,3.9c-0.6,0.2-10.9,3.9-11.6,4.1
		c-0.3,0.1-9.6,3.7-9.6,4.5c-0.3,0.3-0.8,1-0.6,1.5c0.3,0.7,0.5,0.9,0.6,1s0.4,0.1,0.6,0.1c3.3,0.3,19.8-5.3,20.1-5.4
		c7.2-2.6,14.3-5,21-7.4c22.8-8.2,41.7-16,51.2-25.5c6.3-6.3,10.4-12.9,12.9-19.5c4-10.3,4.6-20.6,4.9-30.3
		c0.3-10.7,0.3-20.1,3.6-28.1c3-7.1,7.3-13.6,13.7-19.2c27-23.5,86.5-36.2,173.8-36.2c92.3,0,153.7,14,178.5,40.4
		c3.9,4.1,6.8,8.7,8.9,13.7c1,2.4,1.7,4.9,2.2,7.5c1.2,6.3,1.1,13.3,1.2,20.9c0.2,11.5,0.8,24,6.9,36.3c2.4,4.7,5.6,9.4,10.1,13.9
		c10.3,10.4,32,18.9,57.9,28.1c4.6,1.6,9.3,3.3,14.1,5l0.4,0.1c0.3,0.1,5.4,1.9,5.8,2c0.3,0.1,14,4.9,14.8,3.8
		c0.7,0.1,1.5,0.1,1.8,0c0.1-0.2,0.4-0.5,0.7-1.1c0.1-0.3,0.2-0.4,0.2-0.5c-0.1-0.3-0.6-0.7-1-1c-0.5-1.1-5.8-3.1-10.4-4.7
		c-5.4-1.9-10.8-3.8-11.5-4.1c-3.3-1.2-7-2.5-10.9-3.9c-17.8-6.6-39.3-15.7-49.9-24.2c-1.8-1.4-3.4-3-4.8-4.7
		c-10.7-12.8-10.5-33.5-10.3-47.6c0-0.1,0-1,0-1.1c0.1-11.5,0.2-22.5-5-32.4C579.6,26.1,512.4,6.5,400.3,6.5
		C288.1,6.5,220.9,26.1,200.5,64.9z"/>
	<path fill="#FFFFFF" d="M700.9,187.2c-1.4-0.5-22.4-7.9-22.5-8c-17-5.9-47.5-17.5-60.3-28.4c-15-12.7-14.8-36.6-14.7-52.4v-1.1
		c0.1-11.5,0.2-22.3-4.9-32C578.4,27.1,511.7,7.7,400.2,7.7S222,27.1,201.9,65.3c-5.1,9.7-5,20.5-4.9,32v1.1
		c0.1,15.8,0.4,39.7-14.7,52.4c-12.9,10.9-43.3,22.5-60.3,28.4l-21.8,7.7c-0.4,0.3-1,1-0.8,1.5c0.3,0.8,0.6,1,0.6,1
		c0.1,0,0.4,0,0.7,0c3.2-1.1,21.4-7.6,21.4-7.6c32.3-11.3,60.2-21,71.3-33.6c14.8-16.8,14.6-35,14.5-51.1c-0.1-10.9-0.2-20.3,4-28.2
		c18-34.1,83.1-52.1,188.4-52.1s170.4,18,188.4,52.1c4.2,7.9,4.1,17.3,4,28.2c-0.1,16.1-0.3,34.3,14.5,51.1
		c11,12.5,38.9,22.3,71.3,33.6l0.4,0.1l20.4,7.5c0.7,0.3,1.6,0.4,2,0.3c0.1-0.1,0.4-0.5,0.7-1.1c0.1-0.3,0.2-0.4,0.2-0.5
		C702,187.8,701.4,187.4,700.9,187.2z"/>
</g>
<g>
	<path d="M698.5,1029.5c0,0,0.3,4.8-9.7,9.7c-9.9,4.8-13.3,3.2-13.3,3.2l4.2-16.6L698.5,1029.5z"/>
	
		<linearGradient id="SVGID_16_" gradientUnits="userSpaceOnUse" x1="6631.5029" y1="212.5779" x2="6714.9531" y2="158.7306" gradientTransform="matrix(-1 0 0 -1 7316.8975 1170)">
		<stop  offset="0" style="stop-color:#65766A"/>
		<stop  offset="0.2809" style="stop-color:#9CA3A1"/>
		<stop  offset="1" style="stop-color:#000000"/>
	</linearGradient>
	<path fill="url(#SVGID_16_)" d="M698.5,1029.5c-14.9-39.8-30.4-81.2-30.4-81.2s-21.9-18.2-39.9-33.2l-17.9,10.1
		c4.1,22.8,9.2,50.7,9.2,50.7s28.5,33.9,56,66.5L698.5,1029.5z"/>
	<g>
		
			<linearGradient id="SVGID_17_" gradientUnits="userSpaceOnUse" x1="6630.189" y1="181.2458" x2="6678.6235" y2="159.6812" gradientTransform="matrix(-1 0 0 -1 7316.8975 1170)">
			<stop  offset="0" style="stop-color:#65766A"/>
			<stop  offset="0.264" style="stop-color:#FFFFFF"/>
			<stop  offset="0.5112" style="stop-color:#9CA3A1"/>
			<stop  offset="0.7865" style="stop-color:#000000"/>
		</linearGradient>
		<path fill="url(#SVGID_17_)" d="M698.5,1029.5l-23,12.9c-27.5-32.6-56-66.5-56-66.5l48.5-27.6C668,948.3,683.6,989.7,698.5,1029.5
			z"/>
		
			<linearGradient id="SVGID_18_" gradientUnits="userSpaceOnUse" x1="6667.9023" y1="242.8595" x2="6703.5459" y2="207.7619" gradientTransform="matrix(-1 0 0 -1 7316.8975 1170)">
			<stop  offset="0" style="stop-color:#65766A"/>
			<stop  offset="0.309" style="stop-color:#FFFFFF"/>
			<stop  offset="0.5112" style="stop-color:#9CA3A1"/>
			<stop  offset="0.7865" style="stop-color:#000000"/>
		</linearGradient>
		<path fill="url(#SVGID_18_)" d="M628.1,915.1c18,15,39.9,33.2,39.9,33.2l-48.5,27.6c0,0-5-27.8-9.2-50.7L628.1,915.1z"/>
	</g>
	
		<linearGradient id="SVGID_19_" gradientUnits="userSpaceOnUse" x1="6646.8979" y1="222.4537" x2="6698.8696" y2="191.054" gradientTransform="matrix(-1 0 0 -1 7316.8975 1170)">
		<stop  offset="1.123600e-02" style="stop-color:#000000"/>
		<stop  offset="0.118" style="stop-color:#ADB9B1"/>
		<stop  offset="0.2528" style="stop-color:#FFFFFF"/>
		<stop  offset="0.2865" style="stop-color:#F3F4F4"/>
		<stop  offset="0.3402" style="stop-color:#DDE0DE"/>
		<stop  offset="0.4068" style="stop-color:#BBC0BE"/>
		<stop  offset="0.4607" style="stop-color:#9CA3A1"/>
		<stop  offset="0.6461" style="stop-color:#000000"/>
	</linearGradient>
	<path fill="url(#SVGID_19_)" d="M668,948.3c0,0-9.3,3.6-21.7,10.7c-12.4,7.1-26.8,16.9-26.8,16.9s16.4-4.1,33.7-15.5
		C670.5,949,668,948.3,668,948.3"/>
</g>
<path d="M96.5,1029.5c0,0-0.3,4.8,9.7,9.7c9.9,4.8,13.3,3.2,13.3,3.2l-4.2-16.6L96.5,1029.5z"/>
<linearGradient id="SVGID_20_" gradientUnits="userSpaceOnUse" x1="109.6638" y1="212.5575" x2="193.1142" y2="158.7102" gradientTransform="matrix(1 0 0 -1 0 1170)">
	<stop  offset="0" style="stop-color:#65766A"/>
	<stop  offset="0.2809" style="stop-color:#9CA3A1"/>
	<stop  offset="1" style="stop-color:#000000"/>
</linearGradient>
<path fill="url(#SVGID_20_)" d="M96.5,1029.5c14.9-39.8,30.4-81.2,30.4-81.2s21.9-18.2,39.9-33.2l17.8,10.1
	c-4.1,22.8-9.2,50.7-9.2,50.7s-28.5,33.9-56,66.5L96.5,1029.5z"/>
<g>
	
		<linearGradient id="SVGID_21_" gradientUnits="userSpaceOnUse" x1="108.3626" y1="181.2484" x2="156.7974" y2="159.6839" gradientTransform="matrix(1 0 0 -1 0 1170)">
		<stop  offset="0" style="stop-color:#65766A"/>
		<stop  offset="0.264" style="stop-color:#FFFFFF"/>
		<stop  offset="0.5112" style="stop-color:#9CA3A1"/>
		<stop  offset="0.7865" style="stop-color:#000000"/>
	</linearGradient>
	<path fill="url(#SVGID_21_)" d="M96.5,1029.5l23,12.9c27.5-32.6,56-66.5,56-66.5L127,948.3C127,948.3,111.4,989.7,96.5,1029.5z"/>
	
		<linearGradient id="SVGID_22_" gradientUnits="userSpaceOnUse" x1="146.0785" y1="242.8626" x2="181.7222" y2="207.7652" gradientTransform="matrix(1 0 0 -1 0 1170)">
		<stop  offset="0" style="stop-color:#65766A"/>
		<stop  offset="0.309" style="stop-color:#FFFFFF"/>
		<stop  offset="0.5112" style="stop-color:#9CA3A1"/>
		<stop  offset="0.7865" style="stop-color:#000000"/>
	</linearGradient>
	<path fill="url(#SVGID_22_)" d="M166.9,915.1c-18,15-39.9,33.2-39.9,33.2l48.5,27.6c0,0,5-27.8,9.2-50.7L166.9,915.1z"/>
</g>
<radialGradient id="SVGID_23_" cx="608.626" cy="924.5452" r="131.8821" gradientTransform="matrix(1 0 0 -1 0 1170)" gradientUnits="userSpaceOnUse">
	<stop  offset="0.1348" style="stop-color:#DFE0E5"/>
	<stop  offset="0.1422" style="stop-color:#DCDEE2"/>
	<stop  offset="0.39" style="stop-color:#A2A4A8"/>
	<stop  offset="0.6081" style="stop-color:#747578"/>
	<stop  offset="0.7885" style="stop-color:#4E4F51"/>
	<stop  offset="0.9243" style="stop-color:#262526"/>
	<stop  offset="1" style="stop-color:#000000"/>
</radialGradient>
<path fill="url(#SVGID_23_)" d="M742.1,354.9c1.2-1.8,2.3-3.6,3.4-5.5c40.3-68.6-11-127.2-89.7-173.4s-154.8-62.5-195.1,6.1
	c-1.1,1.9-2.1,3.7-3.1,5.6L742.1,354.9z"/>
<radialGradient id="SVGID_24_" cx="513.3591" cy="1028.8917" r="78.8963" gradientTransform="matrix(1 0 0 -1 0 1170)" gradientUnits="userSpaceOnUse">
	<stop  offset="0.1348" style="stop-color:#DFE0E5"/>
	<stop  offset="0.1422" style="stop-color:#DCDEE2"/>
	<stop  offset="0.39" style="stop-color:#A2A4A8"/>
	<stop  offset="0.6081" style="stop-color:#747578"/>
	<stop  offset="0.7885" style="stop-color:#4E4F51"/>
	<stop  offset="0.9243" style="stop-color:#262526"/>
	<stop  offset="1" style="stop-color:#000000"/>
</radialGradient>
<path fill="url(#SVGID_24_)" d="M741,357.7c1.2-1.8,2.3-3.6,3.4-5.5c40.3-68.6-11-127.2-89.7-173.4s-154.8-62.5-195.1,6.1
	c-1.1,1.9-2.1,3.7-3.1,5.6L741,357.7z"/>
<radialGradient id="SVGID_25_" cx="397.5385" cy="545.253" r="397.8" gradientTransform="matrix(1 0 0 -1 0 1170)" gradientUnits="userSpaceOnUse">
	<stop  offset="0.8876" style="stop-color:#000000"/>
	<stop  offset="0.9326" style="stop-color:#517382"/>
	<stop  offset="1" style="stop-color:#000000"/>
</radialGradient>
<path fill="url(#SVGID_25_)" d="M795.3,624.7c0,219.7-178.1,397.8-397.8,397.8S-0.3,844.4-0.3,624.7s178.1-397.8,397.8-397.8
	S795.3,405,795.3,624.7z M397.5,269C201,269,41.7,428.3,41.7,624.8S201,980.6,397.5,980.6s355.8-159.3,355.8-355.8
	C753.3,428.2,594,269,397.5,269z"/>
<radialGradient id="SVGID_26_" cx="397.5385" cy="545.2529" r="319.7" gradientTransform="matrix(1 0 0 -1 0 1170)" gradientUnits="userSpaceOnUse">
	<stop  offset="0.8258" style="stop-color:#5A4037"/>
	<stop  offset="1" style="stop-color:#000000"/>
</radialGradient>
<path fill="url(#SVGID_26_)" d="M623.6,398.6C563.2,338.2,482.9,305,397.5,305s-165.7,33.3-226.1,93.6
	C111,459,77.8,539.3,77.8,624.7c0,176.3,143.4,319.7,319.7,319.7S717.2,801,717.2,624.7C717.2,539.3,684,459,623.6,398.6z
	 M712.3,590.9l-21.6,2.3c-1-9.8-2.6-19.5-4.6-29l21.3-4.5C709.5,569.9,711.1,580.3,712.3,590.9z M690.8,624.7
	c0,39.6-7.8,78-23.1,114.2c-14.8,34.9-35.9,66.3-62.9,93.2c-26.9,26.9-58.3,48.1-93.2,62.9c-36.2,15.3-74.6,23-114.2,23
	s-78-7.8-114.2-23c-34.9-14.8-66.3-35.9-93.2-62.9c-26.9-26.9-48.1-58.3-62.9-93.2c-15.3-36.2-23-74.6-23-114.2s7.8-78,23-114.2
	c14.8-34.9,35.9-66.3,62.9-93.2c26.9-26.9,58.3-48.1,93.2-62.9c36.2-15.3,74.6-23,114.2-23s78,7.8,114.2,23
	c34.9,14.8,66.3,35.9,93.2,62.9c26.9,26.9,48.1,58.3,62.9,93.2C683.1,546.7,690.8,585.1,690.8,624.7z M707.1,558.2l-21.3,4.5
	c-2-9.6-4.6-19-7.6-28.4l20.8-6.7C702.1,537.6,704.9,547.8,707.1,558.2z M698.5,526.2l-20.8,6.7c-2.5-7.7-5.4-15.4-8.6-22.9
	c-0.6-1.5-1.3-3-2-4.5l20-8.9C691.4,506.2,695.2,516.1,698.5,526.2z M667.9,460l-12.6,15.9l20.1-3c4,7.3,7.7,14.7,11.1,22.3l-20,8.9
	c-8.3-18.4-18.3-35.8-30.1-52.1l17.6-12.8C659,446,663.6,452.9,667.9,460z M653.2,438l-17.6,12.8c-5.8-7.9-11.9-15.5-18.5-22.8
	l16.2-14.6C640.3,421.4,647,429.6,653.2,438z M621.3,400.9c3.7,3.7,7.4,7.6,10.9,11.5L616,427c-3.3-3.6-6.7-7.2-10.1-10.6
	c-3.5-3.5-7-6.9-10.6-10.1l14.6-16.2C613.8,393.5,617.6,397.1,621.3,400.9z M608.8,389l-14.6,16.2c-7.3-6.6-14.9-12.7-22.8-18.5
	l12.8-17.6C592.7,375.2,600.9,381.9,608.8,389z M549.3,346.8l-3,20.1l15.9-12.6c7.1,4.3,14,8.9,20.7,13.8l-12.8,17.6
	c-16.3-11.8-33.7-21.8-52.1-30.1l8.9-20C534.6,339.1,542,342.8,549.3,346.8z M525.6,335.1l-8.9,20c-1.5-0.7-3-1.3-4.5-2
	c-7.5-3.2-15.2-6-22.9-8.6l6.8-20.8C506.1,327,516,330.8,525.6,335.1z M494.7,323.3l-6.8,20.8c-9.3-3-18.8-5.5-28.4-7.6l4.5-21.3
	C474.4,317.4,484.6,320.1,494.7,323.3z M462.6,314.8l-4.5,21.3c-9.6-2-19.3-3.5-29-4.6l2.3-21.7
	C441.9,311.1,452.3,312.7,462.6,314.8z M390.1,308.3l7.4,18.7l7.4-18.7c8.4,0.2,16.7,0.7,24.9,1.5l-2.3,21.6c-9.9-1-20-1.5-30.1-1.5
	s-20.1,0.5-30.1,1.5l-2.3-21.6C373.4,309,381.7,308.4,390.1,308.3z M363.7,310l2.3,21.7c-9.8,1-19.5,2.6-29,4.6l-4.5-21.3
	C342.7,312.7,353.1,311.1,363.7,310z M330.9,315.2l4.5,21.3c-9.6,2.1-19,4.6-28.4,7.6l-6.8-20.8
	C310.4,320.1,320.6,317.4,330.9,315.2z M298.9,323.7l6.8,20.8c-7.7,2.5-15.4,5.4-22.9,8.6c-1.5,0.6-3,1.3-4.5,2l-8.9-20
	C279,330.8,288.9,327,298.9,323.7z M232.7,354.3l15.9,12.6l-3-20.1c7.3-4,14.7-7.7,22.3-11.1l8.9,20c-18.4,8.3-35.8,18.3-52.1,30.1
	l-12.8-17.6C218.7,363.2,225.7,358.6,232.7,354.3z M210.8,369l12.8,17.6c-7.9,5.8-15.5,11.9-22.8,18.5l-14.6-16.2
	C194.1,381.9,202.3,375.2,210.8,369z M173.7,400.9c3.7-3.7,7.6-7.4,11.5-10.9l14.6,16.2c-3.6,3.3-7.2,6.7-10.6,10.1
	c-3.5,3.5-6.8,7-10.1,10.6l-16.2-14.6C166.3,408.4,169.9,404.6,173.7,400.9z M161.8,413.5l16.2,14.6c-6.6,7.3-12.7,14.9-18.5,22.8
	l-17.6-12.8C148,429.6,154.7,421.4,161.8,413.5z M119.6,472.9l20.1,3L127.1,460c4.3-7.1,8.9-14,13.8-20.7l17.6,12.8
	c-11.8,16.3-21.9,33.7-30.1,52.1l-20-8.9C111.9,487.6,115.6,480.2,119.6,472.9z M107.8,496.6l20,8.9c-0.7,1.5-1.3,3-2,4.5
	c-3.2,7.5-6,15.2-8.6,22.9l-20.8-6.8C99.8,516.1,103.6,506.2,107.8,496.6z M96.1,527.6l20.8,6.7c-3,9.3-5.5,18.8-7.6,28.4L88,558.2
	C90.1,547.8,92.8,537.6,96.1,527.6z M87.6,559.6l21.3,4.5c-2,9.6-3.5,19.3-4.6,29l-21.6-2.3C83.8,580.3,85.5,569.9,87.6,559.6z
	 M81,632.2l18.7-7.4L81,617.4c0.2-8.4,0.7-16.7,1.5-24.9l21.6,2.3c-1,9.9-1.5,20-1.5,30.1s0.5,20.1,1.5,30.1l-21.6,2.3
	C81.7,648.9,81.2,640.5,81,632.2z M82.7,658.5l21.6-2.3c1,9.8,2.6,19.5,4.6,29l-21.3,4.5C85.5,679.6,83.9,669.1,82.7,658.5z
	 M88,691.3l21.3-4.5c2.1,9.6,4.6,19,7.6,28.4l-20.6,6.7C93,711.9,90.2,701.7,88,691.3z M96.7,723.2l20.6-6.7
	c2.5,7.7,5.4,15.4,8.6,22.9c0.6,1.5,1.3,3,2,4.5l-19.8,8.8C103.8,743.2,100,733.3,96.7,723.2z M127.2,789.3l12.5-15.7l-19.9,2.9
	c-4-7.3-7.7-14.7-11.1-22.4l19.8-8.8c8.3,18.4,18.3,35.8,30.1,52.1l-17.5,12.7C136.2,803.4,131.6,796.5,127.2,789.3z M141.9,811.3
	l17.5-12.7c5.8,7.9,11.9,15.5,18.5,22.8l-16.1,14.5C154.8,828,148.2,819.8,141.9,811.3z M162.9,837l16.1-14.5
	c3.3,3.6,6.7,7.2,10.1,10.6c3.5,3.5,7,6.8,10.6,10.1l-14.5,16.2C177.4,852.3,169.9,844.8,162.9,837z M186.3,860.3l14.5-16.1
	c7.3,6.6,14.9,12.7,22.8,18.5l-12.7,17.5C202.4,874,194.2,867.4,186.3,860.3z M245.7,902.5l2.9-19.9l-15.8,12.5
	c-7.1-4.4-14-9-20.8-13.9l12.7-17.5c16.3,11.8,33.7,21.9,52.1,30.1l-8.8,19.8C260.5,910.2,253,906.4,245.7,902.5z M269.4,914.2
	l8.8-19.8c1.5,0.7,3,1.3,4.5,2c7.5,3.2,15.2,6,22.9,8.6l-6.7,20.6C288.9,922.3,279,918.5,269.4,914.2z M300.4,926l6.7-20.6
	c9.3,3,18.8,5.5,28.4,7.6l-4.5,21.3C320.6,932,310.4,929.2,300.4,926z M332.4,934.5l4.5-21.3c9.6,2,19.3,3.5,29,4.6l-2.3,21.6
	C353.1,938.3,342.7,936.7,332.4,934.5z M404.9,941.2l-7.4-18.7l-7.4,18.7c-8.4-0.2-16.7-0.7-24.9-1.5l2.3-21.6
	c9.9,1,20,1.5,30.1,1.5s20.1-0.5,30.1-1.5l2.3,21.6C421.6,940.5,413.3,941,404.9,941.2z M431.3,939.5l-2.3-21.6
	c9.8-1,19.5-2.6,29-4.6l4.5,21.3C452.3,936.7,441.9,938.3,431.3,939.5z M464,934.2l-4.5-21.3c9.6-2.1,19-4.6,28.4-7.6l6.7,20.6
	C484.6,929.2,474.4,932,464,934.2z M496,925.6l-6.7-20.6c7.7-2.5,15.4-5.4,22.9-8.6c1.5-0.6,3-1.3,4.5-2l8.8,19.8
	C516,918.5,506.1,922.3,496,925.6z M562.1,895l-15.8-12.5l2.9,19.9c-7.3,4-14.7,7.7-22.4,11.1l-8.8-19.8
	c18.4-8.3,35.8-18.3,52.1-30.1l12.7,17.5C576.2,886,569.2,890.7,562.1,895z M584.1,880.3l-12.7-17.5c7.9-5.8,15.5-11.9,22.8-18.5
	l14.5,16.1C600.8,867.4,592.6,874,584.1,880.3z M609.8,859.4l-14.5-16.1c3.6-3.3,7.2-6.7,10.6-10.1c3.5-3.5,6.8-7,10.1-10.6
	l16.1,14.5C625.1,844.8,617.6,852.3,609.8,859.4z M633.1,835.9l-16-14.5c6.6-7.3,12.7-14.9,18.5-22.8l17.5,12.7
	C646.8,819.8,640.2,828,633.1,835.9z M675.2,776.5l-19.9-2.9l12.5,15.8c-4.4,7.1-9,14-13.9,20.8l-17.5-12.8
	c11.8-16.3,21.9-33.7,30.1-52.1l19.8,8.8C682.9,761.8,679.2,769.2,675.2,776.5z M687,752.8l-19.8-8.8c0.7-1.5,1.3-3,2-4.5
	c3.2-7.5,6-15.2,8.6-22.9l20.6,6.7C695,733.3,691.2,743.2,687,752.8z M698.8,721.8l-20.6-6.7c3-9.3,5.5-18.8,7.6-28.4l21.2,4.5
	C704.8,701.7,702,711.9,698.8,721.8z M707.3,689.8l-21.3-4.5c2-9.6,3.5-19.3,4.6-29l21.6,2.3C711.1,669.1,709.5,679.6,707.3,689.8z
	 M712.4,657.1l-21.6-2.3c1-9.9,1.5-20,1.5-30.1s-0.5-20.1-1.5-30.1l21.6-2.3c0.8,8.2,1.3,16.6,1.5,24.9l-18.7,7.4l18.7,7.4
	C713.8,640.5,713.3,648.9,712.4,657.1z M422.9,383.6c6.7-5.4,13.9-11.8,13.9-21.2c0-10.2-10-16.7-19.4-16.7
	c-8.8,0-18.6,6.3-18.6,15.9c0,3.5,2,6.8,5.7,6.8c2.7,0,4.8-2.3,4.8-4.8c0-3-2.5-4.6-2.5-7.6c0-4.7,4.8-7.2,9.1-7.2
	c7,0,11.5,6.5,11.5,13.2c0,8.3-5.8,15.3-11.2,21c-7.1,7.8-14.3,15.4-19.3,24.9l0.2,1.2c-3.1,0-6.7-0.3-8.8-2.7
	c-1.9-2.2-1.9-5.9-1.9-10.9v-49.6h-2.8c-4.2,5.6-11.5,8.1-18.2,7.9v3c7.3,0,10.6,0.5,11.7,2.6c1.3,2.4,1.3,7.7,1.3,10.4v25.8
	c0,4.8,0,9.5-2.8,11.9c-2,1.7-6.7,1.7-9.6,1.7v3h66.6l4-17.1l-2.7-0.7c-2.3,5.5-4.8,8.4-7.6,9.5c-3.3,1.2-8.2,1.2-13.9,1.2h-9
	C410.5,394.1,412.7,391.6,422.9,383.6z M529.9,393.5c1.3,2.4,1.3,7.7,1.3,10.4v25.8c0,4.8,0,9.5-2.8,11.9c-2,1.7-6.7,1.7-9.6,1.7v3
	h32.5v-3c-3.3,0-7.7,0-10.1-2.7c-1.9-2.2-1.9-5.9-1.9-10.9v-49.6h-2.8c-4.2,5.6-11.5,8.1-18.2,7.9v3
	C525.5,390.9,528.8,391.5,529.9,393.5z M246.7,441.6c-2,1.7-6.7,1.7-9.6,1.7v3h32.5v-3c-3.3,0-7.7,0-10.1-2.7
	c-1.9-2.2-1.9-5.9-1.9-10.9v-49.6h-2.8c-4.2,5.6-11.5,8.1-18.2,7.9v3c7.3,0,10.6,0.5,11.7,2.6c1.3,2.4,1.3,7.7,1.3,10.4v25.8
	C249.5,434.5,249.5,439.2,246.7,441.6z M294.1,429.7v-49.6h-2.8c-4.2,5.6-11.5,8.1-18.2,7.9v3c7.3,0,10.6,0.5,11.7,2.6
	c1.3,2.4,1.3,7.7,1.3,10.4v25.8c0,4.8,0,9.5-2.8,11.9c-2,1.7-6.7,1.7-9.6,1.7v3h32.5v-3c-3.3,0-7.7,0-10.1-2.7
	C294.1,438.4,294.1,434.7,294.1,429.7z M634.1,512.6l-2.7-0.7c-2.3,5.5-4.8,8.4-7.6,9.5c-3.3,1.2-8.2,1.2-13.9,1.2h-9
	c7-10.8,9.2-13.3,19.4-21.2c6.7-5.4,13.9-11.8,13.9-21.2c0-10.2-10-16.7-19.4-16.7c-8.8,0-18.6,6.3-18.6,15.9c0,3.5,2,6.8,5.7,6.8
	c2.7,0,4.8-2.3,4.8-4.8c0-3-2.5-4.6-2.5-7.6c0-4.7,4.8-7.2,9.1-7.2c7,0,11.5,6.5,11.5,13.2c0,8.3-5.8,15.3-11.2,21
	c-7.1,7.8-14.3,15.4-19.3,24.9l0.5,4.2h34.9L634.1,512.6z M211.4,463.5c-7.6,0-12.9,6.5-16.1,12.7c-3,6.2-4.4,13.9-4.4,20.9
	c0,7.3,1.4,14.7,4.8,21.3c3.2,6.3,8.1,12.3,15.7,12.3c7.8,0,13.3-7,16.3-13.4c2.9-6.4,4.2-13.8,4.2-20.8c0-7.4-1.4-14.8-4.9-21.4
	C223.7,469.2,218.4,463.5,211.4,463.5z M212,527.7c-11.5,0-12.3-22.3-12.3-30.4c0-7.5,0.9-30.9,11.8-30.9
	c10.7,0,11.8,22.9,11.8,30.4C223.3,506.6,221.3,527.7,212,527.7z M180,513.1v-49.6h-2.8c-4.2,5.6-11.5,8.1-18.2,7.9v3
	c7.3,0,10.6,0.5,11.7,2.6c1.3,2.4,1.3,7.7,1.3,10.4v25.8c0,4.8,0,9.5-2.8,11.9c-2,1.7-6.7,1.7-9.6,1.7v3h32.5v-3
	c-3.3,0-7.7,0-10.1-2.7C180,521.8,180,518.1,180,513.1z M639.4,601.8c0,2.7,2.2,5.3,5.1,5.3c2.7,0,4.7-2.3,4.7-4.9
	c0-1.5-0.4-2.9-0.4-4.4c0-3.9,4.3-6,7.9-6c6.9,0,9.7,7.6,9.7,13.5c0,4.5-2.7,13-8.3,13c-1.6,0-3.5-0.7-5.5-0.7
	c-1.8,0-3.5,0.7-3.5,2.7c0,1.8,1.6,2.6,3.2,2.6c2.1,0,4.1-0.8,6.3-0.8c7.4,0,10,8.4,10,14.5c0,7.6-3,16.5-12.1,16.5
	c-3.5,0-8.4-1.6-8.4-5.9c0-1.2,0.5-2.6,0.5-3.7c0-3-1.7-5.4-5-5.4c-3.4,0-4.8,3-4.8,6c0,9,10.5,12.1,17.7,12.1
	c10.6,0,21.7-7,21.7-18.6c0-9.9-8.5-16.1-17.5-17.4v-0.1c7-1.8,14.9-7.9,14.9-15.5c0-10-9.2-15.7-18.4-15.7
	C649.9,588.7,639.4,592.8,639.4,601.8z M156.4,618.7c0-13-5-30-20.8-30c-11.8,0-19.8,12.2-19.8,23c0,9.2,6,18.9,16.1,18.9
	c7,0,11.7-4.2,15.9-9.4c0.7,8.3-3.7,31.7-14.3,31.7c-4,0-5.1-3.6-5.8-6.9c-0.5-2.4-1.2-4.2-4.1-4.2c-3,0-5.1,1.9-5.1,4.9
	c0,6,8.3,9.2,13.3,9.2c8.7,0,15.5-6.6,19.3-13.9C154.6,635.1,156.4,626.4,156.4,618.7z M135.1,626.3c-8.3,0-10.7-8.9-10.7-15.7
	c0-7.4,1.9-18.8,11.4-18.8c11.3,0,11.5,16,11.9,24.2C145,620.2,140.9,626.3,135.1,626.3z M632.7,711.6h-4l-27.1,45.8v4.2h23.1v3.1
	c0,3.3,0,5.8-0.6,7.4c-0.7,2-2.8,2.7-7.3,2.7v3h23.1v-3c-3.8,0.2-5.7-1-6.4-2.9c-0.7-2-0.7-4.9-0.7-8v-2.3h10.1v-4.2h-10.1
	L632.7,711.6L632.7,711.6z M624.7,757.4h-18.6l18.6-31.7V757.4z M177,741.1c5.5-3.6,11.3-7.7,11.3-14.9c0-8.6-9-14.6-16.9-14.6
	c-10.3,0-18.2,7.5-18.2,18c0,7.3,5.4,12.2,11.7,15.2c-6.9,2.8-15.2,8.5-15.2,16.8c0,10.7,9.9,17.3,19.7,17.3
	c5.6,0,11.4-1.8,15.3-5.9c3.4-3.4,5.9-8.9,5.9-13.6C190.7,750.9,184.2,744.6,177,741.1z M159.6,726.2c0-6.4,4.7-11.6,11.2-11.6
	c6.8,0,10.9,5.4,10.9,12c0,5.7-3,10.1-7.8,13.1C168.4,737.6,159.6,732.9,159.6,726.2z M171,775.9c-8,0-13.2-6.8-13.2-14.5
	c0-6.6,4-12.3,9.9-15.3c6.7,4,16.3,6.8,16.3,16.2C184,769.6,178.5,775.9,171,775.9z M536.7,828.2c-4.8,0-9.1,1.7-13,4.5l1.5-21.2
	h25.1l1.4-6.5h-30.5l-2,32.2l3.1,1.4c2.7-3.9,6.3-6.4,11.2-6.4c9.2,0,13,8.7,13,16.8c0,8.4-3.8,19.3-14,19.3c-3.7,0-7.2-2.1-7.2-6
	c0-1.7,0.6-3.4,0.6-5.1c0-2.7-2.1-5-4.8-5c-3.5,0-5,3.3-5,6.3c0,8.1,10.5,12.9,17.5,12.9c12.3,0,21.7-10.4,21.7-22.5
	C555.2,838.4,548,828.2,536.7,828.2z M249.2,805l-3.7,17.6l2.7,0.6c1-3.5,2.6-7.2,5.3-9.7c3.7-3.1,8-2.5,12.4-2.5h14.4
	c-3.8,6.4-12.2,20.1-15.6,27c-5,10-9,20.2-9,27.6c0,3.1,1.1,5.7,4.8,5.7c5.2,0,4.8-5.6,4.8-9.2c0-18.6,10.3-36.8,19.9-51.9l-0.5-5.1
	L249.2,805L249.2,805z M402,864.7c-6.8,0-11.7,4.6-15.8,9.3c0-8,3.6-31.5,14.3-31.5c8.2,0,3.6,11.2,10.2,11.2c2.9,0,5.2-2.2,5.2-5.1
	c0-5.8-8.2-9.1-13.2-9.1c-9.1,0-16,6.7-19.8,14.4c-3.6,7-5.2,15.5-5.2,23.3c0,16,7.3,29.5,20.7,29.5c12,0,20-12,20-23.3
	C418.4,874.3,412,864.7,402,864.7z M398.2,903.7c-10.5,0-11.4-14.8-11.8-22.6v-1.8c2.4-4.3,7.4-10.2,12.7-10.2c7,0,10.6,7,10.6,15.5
	C409.7,891.8,407.4,903.7,398.2,903.7z"/>
<linearGradient id="SVGID_27_" gradientUnits="userSpaceOnUse" x1="125.0725" y1="222.4566" x2="177.0452" y2="191.0564" gradientTransform="matrix(1 0 0 -1 0 1170)">
	<stop  offset="1.123600e-02" style="stop-color:#000000"/>
	<stop  offset="0.118" style="stop-color:#ADB9B1"/>
	<stop  offset="0.2528" style="stop-color:#FFFFFF"/>
	<stop  offset="0.2865" style="stop-color:#F3F4F4"/>
	<stop  offset="0.3402" style="stop-color:#DDE0DE"/>
	<stop  offset="0.4068" style="stop-color:#BBC0BE"/>
	<stop  offset="0.4607" style="stop-color:#9CA3A1"/>
	<stop  offset="0.6461" style="stop-color:#000000"/>
</linearGradient>
<path fill="url(#SVGID_27_)" d="M127,948.3c0,0,9.3,3.6,21.7,10.7c12.4,7.1,26.8,16.9,26.8,16.9s-16.4-4.1-33.7-15.5
	C124.5,949,127,948.3,127,948.3"/>
<path d="M52.3,356c-1.2-1.8-2.3-3.6-3.4-5.5c-40.3-68.6,11-127.2,89.7-173.4s154.8-62.5,195.1,6.1c1.1,1.9,2.1,3.7,3.1,5.6L52.3,356
	z"/>
<radialGradient id="SVGID_28_" cx="50.4025" cy="918.6855" r="90.2963" gradientTransform="matrix(1 0 0 -1 0 1170)" gradientUnits="userSpaceOnUse">
	<stop  offset="0.1348" style="stop-color:#DFE0E5"/>
	<stop  offset="0.1422" style="stop-color:#DCDEE2"/>
	<stop  offset="0.39" style="stop-color:#A2A4A8"/>
	<stop  offset="0.6081" style="stop-color:#747578"/>
	<stop  offset="0.7885" style="stop-color:#4E4F51"/>
	<stop  offset="0.9243" style="stop-color:#262526"/>
	<stop  offset="1" style="stop-color:#000000"/>
</radialGradient>
<path fill="url(#SVGID_28_)" d="M54,357.7c-1.2-1.8-2.3-3.6-3.4-5.5c-40.3-68.6,11-127.2,89.7-173.4s154.8-62.5,195.1,6.1
	c1.1,1.9,2.1,3.7,3.1,5.6L54,357.7z"/>
<radialGradient id="SVGID_29_" cx="64.653" cy="915.9805" r="93.1813" gradientTransform="matrix(1 0 0 -1 0 1170)" gradientUnits="userSpaceOnUse">
	<stop  offset="0" style="stop-color:#FFFFFF"/>
	<stop  offset="0.4831" style="stop-color:#E2E4E7"/>
	<stop  offset="0.5553" style="stop-color:#CACFD2"/>
	<stop  offset="0.707" style="stop-color:#949FA0"/>
	<stop  offset="0.9241" style="stop-color:#4B5959"/>
	<stop  offset="1" style="stop-color:#303E3D"/>
</radialGradient>
<path fill="url(#SVGID_29_)" d="M72.2,295.9c10.2-39.9,33.8-74.3,65.9-96.8c-2.3-1.6-4.6-3.1-7-4.7c-40.1,17.9-71.3,52.3-86.9,94.7
	C53.8,291.8,63.1,294.1,72.2,295.9z"/>
<radialGradient id="SVGID_30_" cx="2472.9314" cy="-1368.0634" r="186.7012" gradientTransform="matrix(0.5235 0.852 0.852 -0.5235 384.0653 -2676.2722)" gradientUnits="userSpaceOnUse">
	<stop  offset="0" style="stop-color:#FFFFFF"/>
	<stop  offset="0.2022" style="stop-color:#E2E4E7"/>
	<stop  offset="0.2752" style="stop-color:#CACFD2"/>
	<stop  offset="0.4286" style="stop-color:#949FA0"/>
	<stop  offset="0.648" style="stop-color:#4B5959"/>
	<stop  offset="0.7247" style="stop-color:#303E3D"/>
</radialGradient>
<path fill="url(#SVGID_30_)" d="M657.2,190.5c-6-5.4-14.5-11.9-19.9-15.4c-36.2-24.8-100.4-45.7-134.1-26.1
	c17.2,18.1,19.2,29,19.2,29c44.4-25.1,102.8-11.6,155.1,37.6L657.2,190.5z"/>
<radialGradient id="SVGID_31_" cx="365.159" cy="2497.4729" r="113.9282" gradientTransform="matrix(0.8788 -0.4771 -0.4771 -0.8788 1156.1129 2624.6738)" gradientUnits="userSpaceOnUse">
	<stop  offset="0" style="stop-color:#FFFFFF"/>
	<stop  offset="0.2865" style="stop-color:#E2E4E7"/>
	<stop  offset="0.3516" style="stop-color:#CACFD2"/>
	<stop  offset="0.4885" style="stop-color:#949FA0"/>
	<stop  offset="0.6843" style="stop-color:#4B5959"/>
	<stop  offset="0.7528" style="stop-color:#303E3D"/>
</radialGradient>
<path fill="url(#SVGID_31_)" d="M325.2,198.4c-27.2-49.1-82.2-38.7-98.5-29.9c-16.4,8.9,12,13,38.4,62.5L325.2,198.4z"/>
<radialGradient id="SVGID_32_" cx="1417.7758" cy="-328.0246" r="113.9271" gradientTransform="matrix(0.8525 0.5227 0.6493 -1.0589 -349.5269 -745.1189)" gradientUnits="userSpaceOnUse">
	<stop  offset="0" style="stop-color:#FFFFFF"/>
	<stop  offset="0.2865" style="stop-color:#E2E4E7"/>
	<stop  offset="0.3516" style="stop-color:#CACFD2"/>
	<stop  offset="0.4885" style="stop-color:#949FA0"/>
	<stop  offset="0.6843" style="stop-color:#4B5959"/>
	<stop  offset="0.7528" style="stop-color:#303E3D"/>
</radialGradient>
<path fill="url(#SVGID_32_)" d="M719.6,342.8c36.1-59.6,1.8-105.7-14.1-115.4c-15.9-9.7-7.4,20.5-44.2,79.6L719.6,342.8z"/>
<radialGradient id="SVGID_33_" cx="107.8556" cy="845.7847" r="66.9674" gradientTransform="matrix(1 0 0 -1 0 1170)" gradientUnits="userSpaceOnUse">
	<stop  offset="0.1348" style="stop-color:#DFE0E5"/>
	<stop  offset="0.1422" style="stop-color:#DCDEE2"/>
	<stop  offset="0.39" style="stop-color:#A2A4A8"/>
	<stop  offset="0.6081" style="stop-color:#747578"/>
	<stop  offset="0.7885" style="stop-color:#4E4F51"/>
	<stop  offset="0.9243" style="stop-color:#262526"/>
	<stop  offset="1" style="stop-color:#000000"/>
</radialGradient>
<path fill="url(#SVGID_33_)" d="M341.2,188c0.9,1.5,0.4,3.4-1.1,4.3L54.9,359.9c-1.5,0.9-3.4,0.4-4.3-1.1l0,0
	c-0.9-1.5-0.4-3.4,1.1-4.3l285.2-167.6C338.4,186,340.4,186.5,341.2,188L341.2,188z"/>
<radialGradient id="SVGID_34_" cx="-811.8151" cy="2190.6875" r="66.9678" gradientTransform="matrix(0.8214 -0.2437 0.2437 -0.5497 249.1993 1326.4688)" gradientUnits="userSpaceOnUse">
	<stop  offset="0.427" style="stop-color:#DFE0E5"/>
	<stop  offset="0.512" style="stop-color:#DCDDE1"/>
	<stop  offset="0.5858" style="stop-color:#D5D6DA"/>
	<stop  offset="0.6555" style="stop-color:#C9CBCF"/>
	<stop  offset="0.7226" style="stop-color:#B9BBBF"/>
	<stop  offset="0.788" style="stop-color:#A3A5A9"/>
	<stop  offset="0.852" style="stop-color:#888A8D"/>
	<stop  offset="0.9149" style="stop-color:#696A6D"/>
	<stop  offset="0.9754" style="stop-color:#3D3D3F"/>
	<stop  offset="1" style="stop-color:#000000"/>
</radialGradient>
<path fill="url(#SVGID_34_)" d="M341.1,188.3c0.4,0.6-0.5,1.8-2,2.6L64,352.6c-1.4,0.8-2.9,1-3.3,0.4l0,0c-0.4-0.6,0.5-1.8,2-2.6
	l275.1-161.6C339.3,187.9,340.8,187.7,341.1,188.3L341.1,188.3z"/>
<radialGradient id="SVGID_35_" cx="524.3434" cy="939.5875" r="93.8053" gradientTransform="matrix(1 0 0 -1 0 1170)" gradientUnits="userSpaceOnUse">
	<stop  offset="0.1348" style="stop-color:#DFE0E5"/>
	<stop  offset="0.1422" style="stop-color:#DCDEE2"/>
	<stop  offset="0.39" style="stop-color:#A2A4A8"/>
	<stop  offset="0.6081" style="stop-color:#747578"/>
	<stop  offset="0.7885" style="stop-color:#4E4F51"/>
	<stop  offset="0.9243" style="stop-color:#262526"/>
	<stop  offset="1" style="stop-color:#000000"/>
</radialGradient>
<path fill="url(#SVGID_35_)" d="M453.8,188c-0.9,1.5-0.4,3.4,1.1,4.3l285.2,167.6c1.5,0.9,3.4,0.4,4.3-1.1l0,0
	c0.9-1.5,0.4-3.4-1.1-4.3L458.1,186.9C456.6,186,454.6,186.5,453.8,188L453.8,188z"/>
<radialGradient id="SVGID_36_" cx="522.4197" cy="940.7114" r="88.5698" gradientTransform="matrix(1 0 0 -1 0 1170)" gradientUnits="userSpaceOnUse">
	<stop  offset="0.5393" style="stop-color:#DFE0E5"/>
	<stop  offset="0.5433" style="stop-color:#DCDEE2"/>
	<stop  offset="0.6752" style="stop-color:#A2A4A8"/>
	<stop  offset="0.7913" style="stop-color:#747578"/>
	<stop  offset="0.8874" style="stop-color:#4E4F51"/>
	<stop  offset="0.9597" style="stop-color:#262526"/>
	<stop  offset="1" style="stop-color:#000000"/>
</radialGradient>
<path fill="url(#SVGID_36_)" d="M455.5,188.6c-0.8,1.4,0.3,1.5,1.7,2.3l269.6,158.9c1.4,0.8,3.2,2,4.1,0.6l0,0
	c0.8-1.4-1-2.7-2.4-3.6L459.6,189.7C458.1,188.9,456.3,187.2,455.5,188.6L455.5,188.6z"/>
<g>
	
		<linearGradient id="SVGID_37_" gradientUnits="userSpaceOnUse" x1="361.5385" y1="1001.4529" x2="361.5385" y2="965.553" gradientTransform="matrix(1 0 0 -1 0 1170)">
		<stop  offset="0" style="stop-color:#65766A"/>
		<stop  offset="1.353998e-02" style="stop-color:#77887C"/>
		<stop  offset="4.119457e-02" style="stop-color:#9BA89F"/>
		<stop  offset="6.974103e-02" style="stop-color:#BBC5BE"/>
		<stop  offset="9.896567e-02" style="stop-color:#D5DCD7"/>
		<stop  offset="0.1291" style="stop-color:#E9EDEA"/>
		<stop  offset="0.1609" style="stop-color:#F8F9F8"/>
		<stop  offset="0.1966" style="stop-color:#FFFFFF"/>
		<stop  offset="0.3826" style="stop-color:#FBFCFB"/>
		<stop  offset="0.465" style="stop-color:#F2F3F3"/>
		<stop  offset="0.527" style="stop-color:#E6E8E7"/>
		<stop  offset="0.5788" style="stop-color:#D5D9D7"/>
		<stop  offset="0.6242" style="stop-color:#C0C5C3"/>
		<stop  offset="0.6644" style="stop-color:#A7AEAB"/>
		<stop  offset="0.6798" style="stop-color:#9CA3A1"/>
		<stop  offset="1" style="stop-color:#000000"/>
	</linearGradient>
	<polygon fill="url(#SVGID_37_)" points="371,186 355.2,204.4 352,201.2 352,171.8 355.2,168.5 	"/>
	
		<linearGradient id="SVGID_38_" gradientUnits="userSpaceOnUse" x1="6886.4072" y1="1001.4529" x2="6886.4072" y2="965.553" gradientTransform="matrix(-1 0 0 -1 7306.0459 1170)">
		<stop  offset="0" style="stop-color:#65766A"/>
		<stop  offset="1.353998e-02" style="stop-color:#77887C"/>
		<stop  offset="4.119457e-02" style="stop-color:#9BA89F"/>
		<stop  offset="6.974103e-02" style="stop-color:#BBC5BE"/>
		<stop  offset="9.896567e-02" style="stop-color:#D5DCD7"/>
		<stop  offset="0.1291" style="stop-color:#E9EDEA"/>
		<stop  offset="0.1609" style="stop-color:#F8F9F8"/>
		<stop  offset="0.1966" style="stop-color:#FFFFFF"/>
		<stop  offset="0.3826" style="stop-color:#FBFCFB"/>
		<stop  offset="0.465" style="stop-color:#F2F3F3"/>
		<stop  offset="0.527" style="stop-color:#E6E8E7"/>
		<stop  offset="0.5788" style="stop-color:#D5D9D7"/>
		<stop  offset="0.6242" style="stop-color:#C0C5C3"/>
		<stop  offset="0.6644" style="stop-color:#A7AEAB"/>
		<stop  offset="0.6798" style="stop-color:#9CA3A1"/>
		<stop  offset="1" style="stop-color:#000000"/>
	</linearGradient>
	<polygon fill="url(#SVGID_38_)" points="410.1,186 426,204.4 429.1,201.2 429.1,171.8 426,168.5 	"/>
	
		<linearGradient id="SVGID_39_" gradientUnits="userSpaceOnUse" x1="390.6385" y1="1001.4529" x2="390.6385" y2="965.553" gradientTransform="matrix(1 0 0 -1 0 1170)">
		<stop  offset="5.617980e-03" style="stop-color:#000000"/>
		<stop  offset="0.191" style="stop-color:#65766A"/>
		<stop  offset="0.1945" style="stop-color:#748479"/>
		<stop  offset="0.2024" style="stop-color:#93A198"/>
		<stop  offset="0.211" style="stop-color:#B1BCB4"/>
		<stop  offset="0.2203" style="stop-color:#CAD3CC"/>
		<stop  offset="0.2308" style="stop-color:#DEE4E0"/>
		<stop  offset="0.2429" style="stop-color:#EEF1EF"/>
		<stop  offset="0.2581" style="stop-color:#FAFBFA"/>
		<stop  offset="0.2865" style="stop-color:#FFFFFF"/>
		<stop  offset="0.3605" style="stop-color:#FAFBFA"/>
		<stop  offset="0.409" style="stop-color:#F0F2F1"/>
		<stop  offset="0.4502" style="stop-color:#E1E4E3"/>
		<stop  offset="0.4873" style="stop-color:#CED3D1"/>
		<stop  offset="0.5214" style="stop-color:#B6BCBA"/>
		<stop  offset="0.5506" style="stop-color:#9CA3A1"/>
		<stop  offset="0.8034" style="stop-color:#000000"/>
	</linearGradient>
	<rect x="355.2" y="168.5" fill="url(#SVGID_39_)" width="70.8" height="35.9"/>
	
		<linearGradient id="SVGID_40_" gradientUnits="userSpaceOnUse" x1="375.2095" y1="1003.7344" x2="415.9923" y2="965.0529" gradientTransform="matrix(1 0 0 -1 0 1170)">
		<stop  offset="0.2865" style="stop-color:#FFFFFF"/>
		<stop  offset="0.4439" style="stop-color:#EAECEB"/>
		<stop  offset="0.7578" style="stop-color:#BFC4C2"/>
		<stop  offset="1" style="stop-color:#9CA3A1"/>
	</linearGradient>
	<path fill="url(#SVGID_40_)" d="M426,195.4c0,0-10.5-8.8-25.1-13.7c-27.1-8.9-45.6,4.7-45.6,4.7v-13c0,0,17.1,4.6,39.5,1.2
		c12.1-1.9,19.8-6.2,31.2,0.8V195.4z"/>
</g>
</svg>
