<?xml version="1.0" encoding="utf-8"?>
<!-- Generator: Adobe Illustrator 23.0.1, SVG Export Plug-In . SVG Version: 6.00 Build 0)  -->
<svg version="1.1" id="Layer_1" xmlns="http://www.w3.org/2000/svg" xmlns:xlink="http://www.w3.org/1999/xlink" x="0px" y="0px"
	 viewBox="0 0 796 1042" enable-background="new 0 0 796 1042" xml:space="preserve">
<linearGradient id="SVGID_1_" gradientUnits="userSpaceOnUse" x1="591.1594" y1="242.3449" x2="625.1412" y2="261.1814">
	<stop  offset="0" style="stop-color:#150508"/>
	<stop  offset="8.988760e-02" style="stop-color:#66766A"/>
	<stop  offset="0.264" style="stop-color:#FFFFFF"/>
	<stop  offset="0.5112" style="stop-color:#9CA3A0"/>
	<stop  offset="0.7865" style="stop-color:#150508"/>
</linearGradient>
<polygon fill="url(#SVGID_1_)" points="545.7,330.5 577.3,347.4 670.6,173.1 639,156.1 "/>
<linearGradient id="SVGID_2_" gradientUnits="userSpaceOnUse" x1="171.7355" y1="260.3084" x2="203.8807" y2="243.2165">
	<stop  offset="0" style="stop-color:#150508"/>
	<stop  offset="8.988760e-02" style="stop-color:#66766A"/>
	<stop  offset="0.264" style="stop-color:#FFFFFF"/>
	<stop  offset="0.5112" style="stop-color:#9CA3A0"/>
	<stop  offset="0.7865" style="stop-color:#150508"/>
</linearGradient>
<polygon fill="url(#SVGID_2_)" points="250.3,330.5 218.6,347.4 125.3,173.1 157,156.1 "/>
<radialGradient id="SVGID_3_" cx="397.9807" cy="624.5764" r="355.7571" gradientUnits="userSpaceOnUse">
	<stop  offset="0.6854" style="stop-color:#E3E5D3"/>
	<stop  offset="0.8341" style="stop-color:#E1E3D1"/>
	<stop  offset="0.8877" style="stop-color:#DADDCB"/>
	<stop  offset="0.9259" style="stop-color:#CFD3BF"/>
	<stop  offset="0.9567" style="stop-color:#BEC3AF"/>
	<stop  offset="0.9829" style="stop-color:#A8B09A"/>
	<stop  offset="1" style="stop-color:#959F88"/>
</radialGradient>
<circle fill="url(#SVGID_3_)" cx="398" cy="624.6" r="355.8"/>
<g>
	<radialGradient id="SVGID_4_" cx="396.674" cy="623.501" r="355.7572" gradientUnits="userSpaceOnUse">
		<stop  offset="0.2753" style="stop-color:#E3E5D3"/>
		<stop  offset="0.5335" style="stop-color:#E1E3D1"/>
		<stop  offset="0.6829" style="stop-color:#D8DBC9"/>
		<stop  offset="0.8044" style="stop-color:#CACFBC"/>
		<stop  offset="0.9103" style="stop-color:#B7BDA9"/>
		<stop  offset="1" style="stop-color:#9FA893"/>
	</radialGradient>
	<path fill="url(#SVGID_4_)" d="M396.7,267.7C200.2,267.7,40.9,427,40.9,623.5c0,196.5,159.3,355.8,355.8,355.8
		c196.5,0,355.8-159.3,355.8-355.8C752.4,427,593.2,267.7,396.7,267.7z M369.4,622.3C85.8,882.1,9.1,655.7,88.7,483.7
		c43.4-93.8,159.8-200.1,308-202.5c179.7-2.9,293.6,145.4,320.5,245.2C776.6,746.9,478.7,522.1,369.4,622.3z"/>
</g>
<g>
	<path fill="#0F0000" d="M446.7,174.6c-3.2-0.6-6.4,1.6-6.9,4.9l-6.5,36.9c-0.6,3.2-3.7,5.8-7,5.7l-15.6-0.6
		c-3.3-0.1-6.1,2.5-6.2,5.8l-0.1,2.1c-0.1,3.3,2.5,6.1,5.8,6.2l13.6,0.5c3.3,0.1,5.5,2.9,4.9,6.1l-0.1,0.3c-0.6,3.2,1.6,6.4,4.9,6.9
		l2.1,0.4c3.2,0.6,6.4-1.6,6.9-4.9l11.1-63c0.6-3.2-1.6-6.4-4.9-6.9L446.7,174.6z"/>
</g>
<linearGradient id="SVGID_5_" gradientUnits="userSpaceOnUse" x1="381.9238" y1="218.6543" x2="396.0058" y2="218.6543">
	<stop  offset="0.1517" style="stop-color:#517381"/>
	<stop  offset="0.9551" style="stop-color:#0F0000"/>
</linearGradient>
<rect x="381.9" y="190.5" fill="url(#SVGID_5_)" width="14.1" height="56.3"/>
<radialGradient id="SVGID_6_" cx="672.9448" cy="116.8106" r="22.0256" gradientUnits="userSpaceOnUse">
	<stop  offset="0" style="stop-color:#FFFFFF"/>
	<stop  offset="0.3652" style="stop-color:#9CA3A0"/>
	<stop  offset="0.4567" style="stop-color:#888C8A"/>
	<stop  offset="0.6492" style="stop-color:#555051"/>
	<stop  offset="0.8708" style="stop-color:#150508"/>
</radialGradient>
<path fill="url(#SVGID_6_)" d="M657.7,126c0,9.7,7.9,17.6,17.6,17.6c9.7,0,17.6-7.9,17.6-17.6s-7.9-17.6-17.6-17.6
	C665.6,108.4,657.7,116.3,657.7,126z"/>
<linearGradient id="SVGID_7_" gradientUnits="userSpaceOnUse" x1="645.8204" y1="142.7887" x2="677.6443" y2="160.429">
	<stop  offset="0" style="stop-color:#150508"/>
	<stop  offset="8.988760e-02" style="stop-color:#66766A"/>
	<stop  offset="0.264" style="stop-color:#FFFFFF"/>
	<stop  offset="0.5112" style="stop-color:#9CA3A0"/>
	<stop  offset="0.7865" style="stop-color:#150508"/>
</linearGradient>
<polygon fill="url(#SVGID_7_)" points="638.2,157.6 669.8,174.5 685.3,145.7 653.6,128.7 "/>
<radialGradient id="SVGID_8_" cx="109.6225" cy="118.8809" r="31.1881" gradientUnits="userSpaceOnUse">
	<stop  offset="0" style="stop-color:#FFFFFF"/>
	<stop  offset="0.2978" style="stop-color:#9CA3A0"/>
	<stop  offset="0.3852" style="stop-color:#888C8A"/>
	<stop  offset="0.5691" style="stop-color:#555051"/>
	<stop  offset="0.7809" style="stop-color:#150508"/>
</radialGradient>
<path fill="url(#SVGID_8_)" d="M138.3,126c0,9.7-7.9,17.6-17.6,17.6c-9.7,0-17.6-7.9-17.6-17.6s7.9-17.6,17.6-17.6
	C130.4,108.4,138.3,116.3,138.3,126z"/>
<linearGradient id="SVGID_9_" gradientUnits="userSpaceOnUse" x1="118.3404" y1="160.0551" x2="150.1128" y2="143.1614">
	<stop  offset="0" style="stop-color:#150508"/>
	<stop  offset="8.988760e-02" style="stop-color:#66766A"/>
	<stop  offset="0.264" style="stop-color:#FFFFFF"/>
	<stop  offset="0.5112" style="stop-color:#9CA3A0"/>
	<stop  offset="0.7865" style="stop-color:#150508"/>
</linearGradient>
<polygon fill="url(#SVGID_9_)" points="157.8,157.6 126.1,174.5 110.7,145.7 142.3,128.7 "/>
<g>
	
		<radialGradient id="SVGID_10_" cx="244.1604" cy="-53.7931" r="208.5967" gradientTransform="matrix(1.0282 0 0 0.8705 -39.7627 86.4883)" gradientUnits="userSpaceOnUse">
		<stop  offset="0" style="stop-color:#9CA3A0"/>
		<stop  offset="0.1682" style="stop-color:#757574"/>
		<stop  offset="0.3693" style="stop-color:#4C4546"/>
		<stop  offset="0.5468" style="stop-color:#2E2224"/>
		<stop  offset="0.6919" style="stop-color:#1C0D0F"/>
		<stop  offset="0.7865" style="stop-color:#150508"/>
	</radialGradient>
	<path fill="url(#SVGID_10_)" d="M711.7,192.4c3.5-7.5-4.3-11.3-6.2-12c-7.6-2.8-15.3-5.5-22.8-8.1c-25.8-9-48.1-19-57.2-26.6
		c-12.4-10.5-11.9-32.9-11.8-47.6c0.1-11.9,0.2-24.1-5.8-35.5C586.3,21.2,516.5,0.2,400.9,0.2c-115.7,0-185.4,21-207.2,62.5
		c-6,11.3-5.9,23.6-5.8,35.5c0.1,14.6,0.7,37-11.8,47.6c-9,7.7-31.4,17.6-57.2,26.6c-7.5,2.6-15.1,5.3-22.7,8.1
		c-2,0.7-7.9,5.4-5.4,11.6c3.3,8,11.9,6.8,13.9,6.1c7.2-2.6,14.5-5.2,21.7-7.7c33.7-11.8,62.7-21.9,75.4-36.3
		c16.8-19,16.6-39.6,16.4-56.1c-0.1-10-0.2-18.6,3.1-24.8c16-30.4,79.8-47.2,179.4-47.2c99.7,0,163.4,16.8,179.4,47.2
		c3.3,6.2,3.2,14.8,3.1,24.8c-0.1,16.5-0.3,37.1,16.4,56.1c12.7,14.4,41.7,24.5,75.4,36.3c6.9,2.4,13.9,4.9,20.8,7.4
		C698.3,198.5,707.6,201.2,711.7,192.4z"/>
	
		<radialGradient id="SVGID_11_" cx="239.7943" cy="-35.6759" r="207.3889" gradientTransform="matrix(1.0235 0 0 0.892 -33.1356 72.0736)" gradientUnits="userSpaceOnUse">
		<stop  offset="0" style="stop-color:#ADB2B0"/>
		<stop  offset="8.121902e-02" style="stop-color:#9D9F9E"/>
		<stop  offset="0.3107" style="stop-color:#736F6F"/>
		<stop  offset="0.5131" style="stop-color:#554C4D"/>
		<stop  offset="0.6786" style="stop-color:#433739"/>
		<stop  offset="0.7865" style="stop-color:#3C2F31"/>
	</radialGradient>
	<path fill="url(#SVGID_11_)" d="M195.2,63.1c-5.8,11.1-5.7,23.1-5.6,34.9c0,0.3,0,0.8,0,1.1c0.1,14.5,0.3,35.8-11.4,46.6
		c-1.6,1.4-3.5,2.9-5.8,4.4c-11,7.2-30.4,15.5-50.9,22.7c-3.7,1.3-7.4,2.6-11,3.9c-3.2,1.1-8.4,3-11.6,4.2c-1.4,0.5-6.8,3.9-6.7,7.8
		c-0.1,0.5-0.1,1.1,0.1,1.7c0.1,0.4,0.3,0.8,0.4,1.1c0.1,0.2,0.2,0.3,0.3,0.5c3.4,5.9,13.3,3.9,14.9,3.3c7.2-2.6,14.5-5.2,21.6-7.7
		c21.6-7.6,41-14.6,54.6-22.6c8-4.8,14.3-9.9,18.5-15.4c7.3-9.5,10.8-19.3,12.5-28.8c1.8-10,1.8-19.5,2.3-27.8
		c0.6-9.4,1.4-17.6,5.2-23.7c18.3-29,81.1-45,178.3-45c98.2,0,161.4,16.2,179.3,45.8c2.6,4.4,3.7,9.8,4.3,16
		c0.2,2.6,0.4,5.3,0.5,8.1c0.2,6.6,0.1,13.8,1,21.4c1.3,11.4,4.6,23.4,13.8,35c3.3,4.1,7.6,7.9,13.1,11.5
		c14.1,9.4,36.1,17.2,60.8,25.9c4.8,1.7,9.6,3.4,14.4,5.1c0.1,0,0.3,0.1,0.4,0.1c1.7,0.6,4.3,1.5,5.9,2.1c1.7,0.6,10.9,3.4,14.6-2
		c0.4-0.4,0.9-0.9,1.2-1.5c0.2-0.4,0.4-0.8,0.5-1.2c0.1-0.2,0.1-0.4,0.2-0.6c0.1-0.5,0-1,0-1.4c0-4.4-5.6-7-7.7-7.8
		c-4.2-1.5-8.5-3.1-11.8-4.2c-3.6-1.3-7.2-2.5-10.9-3.8c-20.8-7.4-40.5-15.8-51.4-23.1c-2-1.4-3.8-2.7-5.2-4
		c-12.1-11-11.6-33.1-11.5-47.6c0-0.3,0-0.8,0-1.1c0.1-11.5,0-23.2-5.6-33.9C585,22.1,515.8,1.4,400.9,1.4
		C285.9,1.4,216.7,22.1,195.2,63.1z"/>
	
		<radialGradient id="SVGID_12_" cx="235.3515" cy="-18.3885" r="206.3406" gradientTransform="matrix(1.0188 0 0 0.9136 -26.5085 57.6589)" gradientUnits="userSpaceOnUse">
		<stop  offset="0" style="stop-color:#BDC2C0"/>
		<stop  offset="0.2347" style="stop-color:#999898"/>
		<stop  offset="0.4693" style="stop-color:#7C7576"/>
		<stop  offset="0.6613" style="stop-color:#6A6061"/>
		<stop  offset="0.7865" style="stop-color:#63585A"/>
	</radialGradient>
	<path fill="url(#SVGID_12_)" d="M196.6,63.5c-5.7,10.8-5.6,22.6-5.5,34.3c0,0.2,0,0.8,0,1.1c0.1,14.4,0.3,35.4-11.1,46.7
		c-1.5,1.5-3.4,3.1-5.6,4.6c-10.9,7.5-30.8,16-50.6,23.1c-3.8,1.3-7.5,2.6-11,3.9c-2.6,0.9-9,3.2-11.6,4.2c-1.1,0.4-7.5,3.9-7.4,7
		c-0.1,0.5-0.3,1.1-0.1,1.7c0.2,0.5,0.3,0.8,0.5,1.1c0.1,0.1,0.3,0.3,0.4,0.4c3.4,4.5,14.9,1.6,16.2,1.1c7.2-2.6,14.4-5.1,21.5-7.6
		c21.9-7.8,41.2-14.9,53.8-23.3c7.6-5.1,13.3-10.6,17.1-16.4c6.4-9.7,9.2-19.6,10.6-29.1c1.4-10.2,1.5-19.6,2.7-27.9
		c1.3-8.8,2.9-16.6,7.3-22.6c20.6-27.6,82.4-42.8,177.2-42.8c96.7,0,159.5,15.7,179.1,44.5c3,4.3,4.4,9.6,5.4,15.4
		c0.4,2.5,0.7,5.2,0.9,8c0.4,6.5,0.4,13.6,1,21.2c1,11.4,3.6,23.6,12.1,35.3c3,4.2,7.1,8.3,12.3,12.1c13.1,9.7,35.1,17.6,60.1,26.4
		c4.7,1.7,9.5,3.3,14.3,5c0.1,0,0.3,0.1,0.4,0.1c1.3,0.5,4.6,1.6,5.9,2.1c1.4,0.5,11.7,3.8,14.7-0.6c0.5-0.3,1-0.6,1.4-1.1
		c0.2-0.3,0.4-0.7,0.6-1.2c0.1-0.2,0.1-0.4,0.2-0.6c0-0.4-0.1-0.9-0.3-1.3c-0.1-3.6-5.6-6-8.4-7c-4.5-1.6-9.1-3.3-11.7-4.2
		c-3.5-1.2-7.1-2.5-10.8-3.8c-20.1-7.2-40.2-15.8-51.1-23.4c-2-1.4-3.7-2.8-5.1-4.2c-11.8-11.5-11.4-33.2-11.2-47.6
		c0-0.3,0-0.9,0-1.1c0.1-11.5,0.1-23-5.5-33.6c-21.2-40.4-90-60.8-204.2-60.8C286.6,2.6,217.9,23.1,196.6,63.5z"/>
	
		<radialGradient id="SVGID_13_" cx="230.8586" cy="-1.8649" r="205.3987" gradientTransform="matrix(1.0141 0 0 0.9352 -19.8814 43.2442)" gradientUnits="userSpaceOnUse">
		<stop  offset="0" style="stop-color:#CED1D0"/>
		<stop  offset="0.1095" style="stop-color:#C1C2C1"/>
		<stop  offset="0.3966" style="stop-color:#A39FA0"/>
		<stop  offset="0.6326" style="stop-color:#918A8B"/>
		<stop  offset="0.7865" style="stop-color:#8A8284"/>
	</radialGradient>
	<path fill="url(#SVGID_13_)" d="M198.1,63.9c-5.5,10.5-5.4,22.1-5.3,33.8c0,0.2,0,0.9,0,1.1c0.1,14.2,0.3,35-10.7,46.8
		c-1.5,1.6-3.4,3.2-5.5,4.8c-10.8,7.8-31.2,16.5-50.3,23.4c-3.8,1.4-7.5,2.7-11,3.9c-1.9,0.7-9.6,3.4-11.6,4.1
		c-0.8,0.3-8.2,3.8-8.2,6.2c-0.2,0.4-0.5,1.1-0.3,1.6c0.2,0.6,0.4,0.9,0.5,1.1c0.1,0.1,0.3,0.2,0.5,0.3c3.4,3.1,16.5-0.7,17.5-1.1
		c7.2-2.6,14.4-5.1,21.3-7.6c22.2-7.9,41.4-15.3,52.9-24c7.2-5.5,12.3-11.4,15.7-17.5c5.6-9.9,7.7-19.9,8.7-29.5
		c1.1-10.4,1.1-19.8,3-28c1.9-8.3,4.3-15.6,9.4-21.4c22.8-26.2,83.8-40.6,176-40.6c95.3,0,157.5,15.2,178.9,43.1
		c3.3,4.3,5.2,9.3,6.6,14.9c0.6,2.5,1.1,5.1,1.3,7.8c0.7,6.4,0.6,13.5,1.1,21.1c0.7,11.4,2.7,23.7,10.4,35.7
		c2.8,4.4,6.6,8.7,11.6,12.7c12.2,9.9,34.1,18,59.4,27c4.7,1.6,9.4,3.3,14.3,5c0.1,0,0.3,0.1,0.4,0.1c1,0.4,4.8,1.7,5.8,2.1
		c1,0.4,12.5,4.2,14.7,0.9c0.5-0.1,1.2-0.4,1.5-0.7c0.2-0.3,0.4-0.7,0.6-1.2c0.1-0.2,0.1-0.4,0.2-0.5c0-0.4-0.3-0.9-0.5-1.2
		c-0.2-2.7-5.6-5-9-6.2c-4.8-1.7-9.7-3.5-11.7-4.2c-3.4-1.2-7-2.5-10.8-3.8c-19.3-7-40-15.8-50.7-23.7c-1.9-1.4-3.6-2.8-5-4.3
		c-11.4-11.9-11.1-33.3-11-47.6c0-0.2,0-0.9,0-1.1c0.1-11.5,0.1-22.9-5.3-33.2c-21-39.8-89.2-60-202.7-60
		C287.2,3.9,219,24.1,198.1,63.9z"/>
	
		<radialGradient id="SVGID_14_" cx="226.3186" cy="13.9552" r="204.5431" gradientTransform="matrix(1.0094 0 0 0.9568 -13.2542 28.8294)" gradientUnits="userSpaceOnUse">
		<stop  offset="0" style="stop-color:#DEE0DF"/>
		<stop  offset="0.2644" style="stop-color:#CAC9C9"/>
		<stop  offset="0.58" style="stop-color:#B8B4B4"/>
		<stop  offset="0.7865" style="stop-color:#B1ACAD"/>
	</radialGradient>
	<path fill="url(#SVGID_14_)" d="M199.5,64.3c-5.4,10.2-5.3,21.6-5.2,33.2c0,0.1,0,1,0,1.1c0.1,14.1,0.3,34.6-10.4,46.9
		c-1.5,1.7-3.3,3.4-5.3,5c-10.7,8.2-31.6,17.1-50,23.8c-3.9,1.4-7.6,2.7-10.9,3.9c-1.3,0.5-10.3,3.6-11.6,4.1
		c-0.5,0.2-8.9,3.8-8.9,5.3c-0.2,0.4-0.6,1-0.4,1.6c0.2,0.6,0.5,0.9,0.5,1.1c0.1,0.1,0.3,0.2,0.5,0.2c3.3,1.7,18.1-3,18.8-3.2
		c7.2-2.6,14.3-5,21.2-7.5c22.5-8.1,41.5-15.6,52.1-24.8c6.8-5.9,11.3-12.1,14.3-18.5c4.8-10.1,6.2-20.3,6.8-29.9
		c0.7-10.5,0.7-19.9,3.3-28c2.4-7.7,5.8-14.6,11.5-20.3c24.9-24.9,85.1-38.5,174.9-38.5c93.8,0,155.6,14.6,178.7,41.7
		c3.6,4.2,6,9,7.7,14.3c0.8,2.4,1.4,5,1.8,7.7c0.9,6.3,0.9,13.4,1.1,21c0.4,11.5,1.7,23.9,8.7,36c2.6,4.6,6.1,9,10.8,13.3
		c11.2,10.2,33.1,18.5,58.7,27.5c4.6,1.6,9.4,3.3,14.2,5c0,0,0.4,0.1,0.4,0.1c0.7,0.2,5.1,1.8,5.8,2.1c0.7,0.3,13.3,4.5,14.7,2.3
		c0.6,0,1.3-0.1,1.7-0.4c0.2-0.2,0.4-0.6,0.6-1.2c0.1-0.2,0.1-0.4,0.2-0.5c-0.1-0.4-0.5-0.8-0.7-1.1c-0.4-1.9-5.7-4-9.6-5.5
		c-5.1-1.8-10.3-3.7-11.7-4.2c-3.3-1.2-7-2.5-10.8-3.8c-18.6-6.8-39.7-15.8-50.4-24c-1.8-1.4-3.4-2.9-4.8-4.4
		c-11.1-12.4-10.8-33.4-10.7-47.7c0-0.1,0-1,0-1.1c0.1-11.5,0.1-22.7-5.2-32.8C581.3,25,513.6,5.1,400.8,5.1
		C287.9,5.1,220.2,25,199.5,64.3z"/>
	
		<radialGradient id="SVGID_15_" cx="221.7336" cy="29.1276" r="203.7673" gradientTransform="matrix(1.0047 0 0 0.9784 -6.6271 14.4147)" gradientUnits="userSpaceOnUse">
		<stop  offset="0" style="stop-color:#EEF0EF"/>
		<stop  offset="0.4592" style="stop-color:#DEDDDD"/>
		<stop  offset="0.7865" style="stop-color:#D8D5D6"/>
	</radialGradient>
	<path fill="url(#SVGID_15_)" d="M201,64.7c-5.2,10-5.1,21-5,32.6c0,0.1,0,1,0,1.1c0.1,14,0.3,34.2-10,47c-1.5,1.8-3.2,3.5-5.1,5.1
		c-10.5,8.5-32,17.6-49.7,24.1c-3.9,1.5-7.6,2.8-10.9,3.9c-0.6,0.2-10.9,3.9-11.5,4.1c-0.3,0.1-9.6,3.7-9.6,4.5
		c-0.3,0.3-0.8,1-0.6,1.5c0.3,0.7,0.5,1,0.6,1c0.1,0.1,0.4,0.1,0.6,0.1c3.3,0.3,19.8-5.3,20.1-5.4c7.2-2.6,14.3-5,21-7.4
		c22.8-8.2,41.7-16,51.2-25.5c6.4-6.3,10.4-12.9,12.9-19.5c3.9-10.3,4.6-20.6,4.9-30.2c0.3-10.7,0.3-20.1,3.6-28.1
		c3-7.1,7.3-13.6,13.6-19.2c27-23.6,86.4-36.3,173.8-36.3c92.3,0,153.7,14,178.5,40.4c3.9,4.1,6.8,8.7,8.9,13.7
		c1,2.4,1.8,4.9,2.2,7.6c1.2,6.3,1.1,13.2,1.2,20.9c0.2,11.5,0.8,24.1,6.9,36.3c2.4,4.7,5.6,9.4,10,13.9
		c10.3,10.4,32.1,18.9,58,28.1c4.6,1.6,9.3,3.3,14.1,5c0,0,0.4,0.1,0.4,0.1c0.3,0.1,5.4,1.9,5.8,2c0.3,0.1,14,4.9,14.8,3.8
		c0.6,0.1,1.5,0.1,1.8,0c0.2-0.2,0.4-0.5,0.7-1.1c0.1-0.3,0.2-0.4,0.2-0.5c-0.1-0.3-0.6-0.7-1-1c-0.5-1.1-5.7-3-10.3-4.7
		c-5.4-1.9-10.9-3.9-11.6-4.1c-3.2-1.1-6.9-2.4-10.7-3.9c-17.8-6.6-39.5-15.7-50-24.3c-1.8-1.4-3.3-2.9-4.7-4.6
		c-10.8-12.8-10.5-33.6-10.4-47.7c0-0.1,0-1,0-1.1c0.1-11.5,0.2-22.5-5-32.4C580.1,26,512.9,6.3,400.7,6.3
		C288.6,6.3,221.4,26,201,64.7z"/>
	<path fill="#FFFFFF" d="M701.4,187.1c-1.4-0.5-22.4-7.9-22.5-8c-17-5.9-47.5-17.5-60.3-28.4c-15-12.7-14.8-36.6-14.7-52.4
		c0,0,0-1.1,0-1.1c0.1-11.5,0.2-22.3-4.9-32C578.9,26.9,512.2,7.6,400.7,7.6c-111.5,0-178.2,19.4-198.3,57.6c-5.1,9.7-5,20.5-4.9,32
		l0,1.1c0.1,15.8,0.4,39.7-14.7,52.4c-12.9,10.9-43.3,22.5-60.3,28.4l-21.8,7.7c-0.4,0.3-1,1-0.8,1.5c0.3,0.8,0.6,1,0.6,1
		c0.1,0,0.4,0,0.7,0c3.2-1.1,21.4-7.6,21.4-7.6c32.3-11.3,60.2-21,71.3-33.6c14.8-16.8,14.6-35,14.5-51.1c-0.1-10.9-0.2-20.3,4-28.2
		c18-34.1,83.1-52.1,188.4-52.1c105.3,0,170.4,18,188.4,52.1c4.2,7.9,4.1,17.3,4,28.2c-0.1,16.1-0.3,34.3,14.5,51.1
		c11,12.5,38.9,22.3,71.3,33.6l0.4,0.1l20.6,7.3c0.7,0.3,1.6,0.4,2,0.3c0.1-0.1,0.4-0.5,0.7-1.1c0.1-0.3,0.2-0.4,0.2-0.5
		C702.4,187.7,701.8,187.3,701.4,187.1z"/>
</g>
<g>
	<path fill="#150508" d="M698.9,1029.4c0,0,0.3,4.8-9.7,9.7c-9.9,4.8-13.3,3.2-13.3,3.2l4.2-16.6L698.9,1029.4z"/>
	
		<linearGradient id="SVGID_16_" gradientUnits="userSpaceOnUse" x1="2354.6687" y1="957.2238" x2="2438.1189" y2="1011.0711" gradientTransform="matrix(-1 0 0 1 3040.5039 0)">
		<stop  offset="0" style="stop-color:#66766A"/>
		<stop  offset="0.2809" style="stop-color:#9CA3A0"/>
		<stop  offset="1" style="stop-color:#150508"/>
	</linearGradient>
	<path fill="url(#SVGID_16_)" d="M698.9,1029.4c-14.9-39.8-30.4-81.2-30.4-81.2s-21.9-18.2-39.9-33.2L610.8,925
		c4.1,22.8,9.2,50.7,9.2,50.7s28.5,33.9,56,66.5L698.9,1029.4z"/>
	<g>
		
			<linearGradient id="SVGID_17_" gradientUnits="userSpaceOnUse" x1="2353.3596" y1="988.5428" x2="2401.7944" y2="1010.1074" gradientTransform="matrix(-1 0 0 1 3040.5039 0)">
			<stop  offset="0" style="stop-color:#66766A"/>
			<stop  offset="0.264" style="stop-color:#FFFFFF"/>
			<stop  offset="0.5112" style="stop-color:#9CA3A0"/>
			<stop  offset="0.7865" style="stop-color:#150508"/>
		</linearGradient>
		<path fill="url(#SVGID_17_)" d="M698.9,1029.4l-23,12.9c-27.5-32.6-56-66.5-56-66.5l48.5-27.6C668.5,948.1,684,989.5,698.9,1029.4
			z"/>
		
			<linearGradient id="SVGID_18_" gradientUnits="userSpaceOnUse" x1="2391.0625" y1="926.9502" x2="2426.7061" y2="962.0476" gradientTransform="matrix(-1 0 0 1 3040.5039 0)">
			<stop  offset="0" style="stop-color:#66766A"/>
			<stop  offset="0.309" style="stop-color:#FFFFFF"/>
			<stop  offset="0.5112" style="stop-color:#9CA3A0"/>
			<stop  offset="0.7865" style="stop-color:#150508"/>
		</linearGradient>
		<path fill="url(#SVGID_18_)" d="M628.6,914.9c18,15,39.9,33.2,39.9,33.2L620,975.7c0,0-5-27.8-9.2-50.7L628.6,914.9z"/>
	</g>
	
		<linearGradient id="SVGID_19_" gradientUnits="userSpaceOnUse" x1="2370.0764" y1="947.3271" x2="2422.0483" y2="978.7267" gradientTransform="matrix(-1 0 0 1 3040.5039 0)">
		<stop  offset="1.123600e-02" style="stop-color:#150508"/>
		<stop  offset="0.118" style="stop-color:#ADB9B1"/>
		<stop  offset="0.2528" style="stop-color:#FFFFFF"/>
		<stop  offset="0.2879" style="stop-color:#F7F7F7"/>
		<stop  offset="0.3437" style="stop-color:#DFE2E1"/>
		<stop  offset="0.413" style="stop-color:#BABFBD"/>
		<stop  offset="0.4607" style="stop-color:#9CA3A0"/>
		<stop  offset="0.6461" style="stop-color:#150508"/>
	</linearGradient>
	<path fill="url(#SVGID_19_)" d="M668.5,948.1c0,0-9.3,3.6-21.7,10.7c-12.4,7.1-26.8,16.9-26.8,16.9s16.4-4.1,33.7-15.5
		C671,948.8,668.5,948.1,668.5,948.1"/>
</g>
<path fill="#150508" d="M97,1029.4c0,0-0.3,4.8,9.7,9.7c9.9,4.8,13.3,3.2,13.3,3.2l-4.2-16.6L97,1029.4z"/>
<linearGradient id="SVGID_20_" gradientUnits="userSpaceOnUse" x1="110.1236" y1="957.2247" x2="193.5739" y2="1011.072">
	<stop  offset="0" style="stop-color:#66766A"/>
	<stop  offset="0.2809" style="stop-color:#9CA3A0"/>
	<stop  offset="1" style="stop-color:#150508"/>
</linearGradient>
<path fill="url(#SVGID_20_)" d="M97,1029.4c14.9-39.8,30.4-81.2,30.4-81.2s21.9-18.2,39.9-33.2l17.8,10.1
	c-4.1,22.8-9.2,50.7-9.2,50.7s-28.5,33.9-56,66.5L97,1029.4z"/>
<g>
	<linearGradient id="SVGID_21_" gradientUnits="userSpaceOnUse" x1="108.8134" y1="988.5427" x2="157.2482" y2="1010.1072">
		<stop  offset="0" style="stop-color:#66766A"/>
		<stop  offset="0.264" style="stop-color:#FFFFFF"/>
		<stop  offset="0.5112" style="stop-color:#9CA3A0"/>
		<stop  offset="0.7865" style="stop-color:#150508"/>
	</linearGradient>
	<path fill="url(#SVGID_21_)" d="M97,1029.4l23,12.9c27.5-32.6,56-66.5,56-66.5l-48.5-27.6C127.4,948.1,111.9,989.5,97,1029.4z"/>
	<linearGradient id="SVGID_22_" gradientUnits="userSpaceOnUse" x1="146.5164" y1="926.9504" x2="182.16" y2="962.0479">
		<stop  offset="0" style="stop-color:#66766A"/>
		<stop  offset="0.309" style="stop-color:#FFFFFF"/>
		<stop  offset="0.5112" style="stop-color:#9CA3A0"/>
		<stop  offset="0.7865" style="stop-color:#150508"/>
	</linearGradient>
	<path fill="url(#SVGID_22_)" d="M167.3,914.9c-18,15-39.9,33.2-39.9,33.2l48.5,27.6c0,0,5-27.8,9.2-50.7L167.3,914.9z"/>
</g>
<radialGradient id="SVGID_23_" cx="609.0535" cy="245.2658" r="131.8874" gradientUnits="userSpaceOnUse">
	<stop  offset="0.1348" style="stop-color:#DEDFE4"/>
	<stop  offset="0.2553" style="stop-color:#BEBEC2"/>
	<stop  offset="0.5195" style="stop-color:#7C7A7D"/>
	<stop  offset="0.7405" style="stop-color:#4C494B"/>
	<stop  offset="0.9071" style="stop-color:#2E2A2C"/>
	<stop  offset="1" style="stop-color:#231F20"/>
</radialGradient>
<path fill="url(#SVGID_23_)" d="M742.6,354.7c1.2-1.8,2.3-3.6,3.4-5.5c40.3-68.6-11-127.2-89.7-173.4
	c-78.7-46.2-154.8-62.5-195.1,6.1c-1.1,1.9-2.1,3.7-3.1,5.6L742.6,354.7z"/>
<radialGradient id="SVGID_24_" cx="513.8027" cy="140.9155" r="78.8963" gradientUnits="userSpaceOnUse">
	<stop  offset="0.1348" style="stop-color:#DEDFE4"/>
	<stop  offset="0.2553" style="stop-color:#BEBEC2"/>
	<stop  offset="0.5195" style="stop-color:#7C7A7D"/>
	<stop  offset="0.7405" style="stop-color:#4C494B"/>
	<stop  offset="0.9071" style="stop-color:#2E2A2C"/>
	<stop  offset="1" style="stop-color:#231F20"/>
</radialGradient>
<path fill="url(#SVGID_24_)" d="M741.5,357.6c1.2-1.8,2.3-3.6,3.4-5.5c40.3-68.6-11-127.2-89.7-173.4
	c-78.7-46.2-154.8-62.5-195.1,6.1c-1.1,1.9-2.1,3.7-3.1,5.6L741.5,357.6z"/>
<radialGradient id="SVGID_25_" cx="397.979" cy="624.576" r="397.7758" gradientUnits="userSpaceOnUse">
	<stop  offset="0.8876" style="stop-color:#0F0000"/>
	<stop  offset="0.9326" style="stop-color:#517381"/>
	<stop  offset="1" style="stop-color:#0F0000"/>
</radialGradient>
<path fill="url(#SVGID_25_)" d="M795.8,624.6c0,219.7-178.1,397.8-397.8,397.8c-219.7,0-397.8-178.1-397.8-397.8
	c0-219.7,178.1-397.8,397.8-397.8C617.7,226.8,795.8,404.9,795.8,624.6z M398,268.8c-196.5,0-355.8,159.3-355.8,355.8
	c0,196.5,159.3,355.8,355.8,355.8c196.5,0,355.8-159.3,355.8-355.8C753.7,428.1,594.5,268.8,398,268.8z"/>
<radialGradient id="SVGID_26_" cx="397.9788" cy="624.5754" r="319.7273" gradientUnits="userSpaceOnUse">
	<stop  offset="0.8258" style="stop-color:#5A4036"/>
	<stop  offset="1" style="stop-color:#0F0000"/>
</radialGradient>
<path fill="url(#SVGID_26_)" d="M624.1,398.5c-60.4-60.4-140.7-93.6-226.1-93.6c-85.4,0-165.7,33.3-226.1,93.6
	c-60.4,60.4-93.6,140.7-93.6,226.1c0,176.3,143.4,319.7,319.7,319.7c176.3,0,319.7-143.4,319.7-319.7
	C717.7,539.2,684.4,458.9,624.1,398.5z M712.7,590.7l-21.6,2.3c-1-9.8-2.6-19.5-4.6-29l21.3-4.5C710,569.8,711.6,580.2,712.7,590.7z
	 M691.3,624.6c0,39.6-7.8,78-23.1,114.2c-14.8,34.9-35.9,66.3-62.9,93.2c-26.9,26.9-58.3,48.1-93.2,62.9
	c-36.2,15.3-74.6,23-114.2,23c-39.6,0-78-7.8-114.2-23c-34.9-14.8-66.3-35.9-93.2-62.9c-26.9-26.9-48.1-58.3-62.9-93.2
	c-15.3-36.2-23-74.6-23-114.2s7.8-78,23-114.2c14.8-34.9,35.9-66.3,62.9-93.2c26.9-26.9,58.3-48.1,93.2-62.9
	c36.2-15.3,74.6-23,114.2-23c39.6,0,78,7.8,114.2,23c34.9,14.8,66.3,35.9,93.2,62.9c26.9,26.9,48.1,58.3,62.9,93.2
	C683.5,546.6,691.3,585,691.3,624.6z M707.6,558l-21.3,4.5c-2-9.6-4.6-19-7.6-28.4l20.8-6.7C702.6,537.4,705.3,547.7,707.6,558z
	 M699,526l-20.8,6.7c-2.5-7.7-5.4-15.4-8.6-22.9c-0.6-1.5-1.3-3-2-4.5l20-8.9C691.9,506.1,695.7,516,699,526z M668.4,459.8
	l-12.6,15.9l20.1-3c4,7.3,7.7,14.7,11.1,22.3l-20,8.9c-8.3-18.4-18.3-35.8-30.1-52.1l17.6-12.8C659.5,445.8,664.1,452.7,668.4,459.8
	z M653.7,437.9l-17.6,12.8c-5.8-7.9-11.9-15.5-18.5-22.8l16.2-14.6C640.8,421.2,647.5,429.4,653.7,437.9z M621.8,400.7
	c3.7,3.7,7.4,7.6,10.9,11.5l-16.2,14.6c-3.3-3.6-6.7-7.2-10.1-10.6c-3.5-3.5-7-6.9-10.6-10.1l14.6-16.2
	C614.3,393.3,618.1,397,621.8,400.7z M609.2,388.8L594.7,405c-7.3-6.6-14.9-12.7-22.8-18.5l12.8-17.6
	C593.1,375.1,601.3,381.7,609.2,388.8z M549.8,346.6l-3,20.1l15.9-12.6c7.1,4.3,14,8.9,20.7,13.8l-12.8,17.6
	c-16.3-11.8-33.7-21.8-52.1-30.1l8.9-20C535.1,338.9,542.5,342.7,549.8,346.6z M526.1,334.9l-8.9,20c-1.5-0.7-3-1.3-4.5-2
	c-7.5-3.2-15.2-6-22.9-8.6l6.8-20.8C506.6,326.9,516.5,330.7,526.1,334.9z M495.1,323.1l-6.8,20.8c-9.3-3-18.8-5.5-28.4-7.6
	l4.5-21.3C474.9,317.2,485.1,319.9,495.1,323.1z M463.1,314.7l-4.5,21.3c-9.6-2-19.3-3.5-29-4.6l2.3-21.7
	C442.4,310.9,452.8,312.6,463.1,314.7z M390.5,308.1l7.4,18.7l7.4-18.7c8.4,0.2,16.7,0.7,24.9,1.5l-2.3,21.6c-9.9-1-20-1.5-30.1-1.5
	c-10.1,0-20.1,0.5-30.1,1.5l-2.3-21.6C373.9,308.8,382.2,308.3,390.5,308.1z M364.2,309.8l2.3,21.7c-9.8,1-19.5,2.6-29,4.6
	l-4.5-21.3C343.2,312.6,353.6,310.9,364.2,309.8z M331.4,315l4.5,21.3c-9.6,2.1-19,4.6-28.4,7.6l-6.8-20.8
	C310.8,319.9,321.1,317.2,331.4,315z M299.4,323.6l6.8,20.8c-7.7,2.5-15.4,5.4-22.9,8.6c-1.5,0.6-3,1.3-4.5,2l-8.9-20
	C279.5,330.7,289.4,326.9,299.4,323.6z M233.2,354.2l15.9,12.6l-3-20.1c7.3-4,14.7-7.7,22.3-11.1l8.9,20
	c-18.4,8.3-35.8,18.3-52.1,30.1L212.5,368C219.2,363.1,226.1,358.5,233.2,354.2z M211.3,368.9l12.8,17.6
	c-7.9,5.8-15.5,11.9-22.8,18.5l-14.6-16.2C194.6,381.7,202.8,375.1,211.3,368.9z M174.1,400.7c3.7-3.7,7.6-7.4,11.5-10.9l14.6,16.2
	c-3.6,3.3-7.2,6.7-10.6,10.1c-3.5,3.5-6.8,7-10.1,10.6l-16.2-14.6C166.7,408.3,170.4,404.5,174.1,400.7z M162.2,413.3l16.2,14.6
	c-6.6,7.3-12.7,14.9-18.5,22.8l-17.6-12.8C148.5,429.4,155.1,421.2,162.2,413.3z M120.1,472.8l20.1,3l-12.6-15.9
	c4.3-7.1,8.9-14,13.8-20.7l17.6,12.8c-11.8,16.3-21.9,33.7-30.1,52.1l-20-8.9C112.3,487.5,116.1,480.1,120.1,472.8z M108.3,496.4
	l20,8.9c-0.7,1.5-1.3,3-2,4.5c-3.2,7.5-6,15.2-8.6,22.9L97,526C100.3,516,104.1,506.1,108.3,496.4z M96.6,527.4l20.8,6.7
	c-3,9.3-5.5,18.8-7.6,28.4L88.4,558C90.6,547.7,93.3,537.4,96.6,527.4z M88.1,559.5l21.3,4.5c-2,9.6-3.5,19.3-4.6,29l-21.6-2.3
	C84.3,580.2,86,569.8,88.1,559.5z M81.5,632l18.7-7.4l-18.7-7.4c0.2-8.4,0.7-16.7,1.5-24.9l21.6,2.3c-1,9.9-1.5,20-1.5,30.1
	c0,10.1,0.5,20.1,1.5,30.1l-21.6,2.3C82.2,648.7,81.7,640.4,81.5,632z M83.2,658.4l21.6-2.3c1,9.8,2.6,19.5,4.6,29l-21.3,4.5
	C86,679.4,84.4,669,83.2,658.4z M88.5,691.1l21.3-4.5c2.1,9.6,4.6,19,7.6,28.4l-20.6,6.7C93.5,711.7,90.7,701.5,88.5,691.1z
	 M97.1,723.1l20.6-6.7c2.5,7.7,5.4,15.4,8.6,22.9c0.6,1.5,1.3,3,2,4.5l-19.8,8.8C104.2,743,100.4,733.2,97.1,723.1z M127.7,789.2
	l12.5-15.7l-19.9,2.9c-4-7.3-7.7-14.7-11.1-22.4l19.8-8.8c8.3,18.4,18.3,35.8,30.1,52.1L141.6,810
	C136.7,803.2,132,796.3,127.7,789.2z M142.4,811.2l17.5-12.7c5.8,7.9,11.9,15.5,18.5,22.8l-16.1,14.5
	C155.3,827.9,148.7,819.7,142.4,811.2z M163.3,836.8l16.1-14.5c3.3,3.6,6.7,7.2,10.1,10.6c3.5,3.5,7,6.8,10.6,10.1l-14.5,16.1
	C177.9,852.1,170.4,844.7,163.3,836.8z M186.8,860.2l14.5-16.1c7.3,6.6,14.9,12.7,22.8,18.5l-12.7,17.5
	C202.9,873.9,194.7,867.2,186.8,860.2z M246.2,902.3l2.9-19.9l-15.8,12.5c-7.1-4.4-14-9-20.8-13.9l12.7-17.5
	c16.3,11.8,33.7,21.9,52.1,30.1l-8.8,19.8C260.9,910,253.5,906.3,246.2,902.3z M269.9,914l8.8-19.8c1.5,0.7,3,1.3,4.5,2
	c7.5,3.2,15.2,6,22.9,8.6l-6.7,20.6C289.4,922.1,279.5,918.3,269.9,914z M300.9,925.9l6.7-20.6c9.3,3,18.8,5.5,28.4,7.6l-4.5,21.3
	C321,931.8,310.8,929.1,300.9,925.9z M332.9,934.4l4.5-21.3c9.6,2,19.3,3.5,29,4.6l-2.3,21.6C353.6,938.2,343.1,936.5,332.9,934.4z
	 M405.4,941l-7.4-18.7l-7.4,18.7c-8.4-0.2-16.7-0.7-24.9-1.5l2.3-21.6c9.9,1,20,1.5,30.1,1.5c10.1,0,20.1-0.5,30.1-1.5l2.3,21.6
	C422.1,940.3,413.8,940.8,405.4,941z M431.8,939.3l-2.3-21.6c9.8-1,19.5-2.6,29-4.6l4.5,21.3C452.8,936.5,442.4,938.2,431.8,939.3z
	 M464.5,934.1l-4.5-21.3c9.6-2.1,19-4.6,28.4-7.6l6.7,20.6C485.1,929.1,474.9,931.8,464.5,934.1z M496.5,925.4l-6.7-20.6
	c7.7-2.5,15.4-5.4,22.9-8.6c1.5-0.6,3-1.3,4.5-2L526,914C516.4,918.3,506.6,922.1,496.5,925.4z M562.6,894.9l-15.8-12.5l2.9,19.9
	c-7.3,4-14.7,7.7-22.4,11.1l-8.8-19.8c18.4-8.3,35.8-18.3,52.1-30.1l12.7,17.5C576.6,885.9,569.7,890.5,562.6,894.9z M584.6,880.1
	l-12.7-17.5c7.9-5.8,15.5-11.9,22.8-18.5l14.5,16.1C601.3,867.2,593.1,873.9,584.6,880.1z M610.2,859.2l-14.5-16.1
	c3.6-3.3,7.2-6.7,10.6-10.1c3.5-3.5,6.8-7,10.1-10.6l16.1,14.5C625.5,844.7,618.1,852.1,610.2,859.2z M633.6,835.7l-16.1-14.5
	c6.6-7.3,12.7-14.9,18.5-22.8l17.5,12.7C647.3,819.7,640.6,827.9,633.6,835.7z M675.7,776.4l-19.9-2.9l12.5,15.8
	c-4.4,7.1-9,14-13.9,20.8l-17.5-12.7c11.8-16.3,21.9-33.7,30.1-52.1l19.8,8.8C683.4,761.6,679.7,769.1,675.7,776.4z M687.4,752.6
	l-19.8-8.8c0.7-1.5,1.3-3,2-4.5c3.2-7.5,6-15.2,8.6-22.9l20.6,6.7C695.5,733.2,691.7,743,687.4,752.6z M699.3,721.7l-20.6-6.7
	c3-9.3,5.5-18.8,7.6-28.4l21.2,4.5C705.2,701.5,702.5,711.7,699.3,721.7z M707.8,689.7l-21.3-4.5c2-9.6,3.5-19.3,4.6-29l21.6,2.3
	C711.6,669,709.9,679.4,707.8,689.7z M712.9,656.9l-21.6-2.3c1-9.9,1.5-20,1.5-30.1c0-10.1-0.5-20.1-1.5-30.1l21.6-2.3
	c0.8,8.2,1.3,16.6,1.5,24.9l-18.7,7.4l18.7,7.4C714.3,640.4,713.7,648.7,712.9,656.9z M423.4,383.5c6.7-5.4,13.9-11.8,13.9-21.2
	c0-10.2-10-16.7-19.4-16.7c-8.8,0-18.6,6.3-18.6,15.9c0,3.5,2,6.8,5.7,6.8c2.7,0,4.8-2.3,4.8-4.8c0-3-2.5-4.6-2.5-7.6
	c0-4.7,4.8-7.2,9.1-7.2c7,0,11.5,6.5,11.5,13.2c0,8.3-5.8,15.3-11.2,21c-7.1,7.8-14.3,15.4-19.3,24.9l0.2,1.2
	c-3.1,0-6.7-0.3-8.8-2.7c-1.9-2.2-1.9-5.9-1.9-10.9v-49.6h-2.8c-4.2,5.6-11.5,8.1-18.2,7.9v3c7.3,0,10.6,0.5,11.7,2.6
	c1.3,2.4,1.3,7.7,1.3,10.4v25.8c0,4.8,0,9.5-2.8,11.9c-2,1.7-6.7,1.7-9.6,1.7v3H433l4-17.1l-2.7-0.7c-2.3,5.5-4.8,8.4-7.6,9.5
	c-3.3,1.2-8.2,1.2-13.9,1.2h-9C411,393.9,413.2,391.4,423.4,383.5z M530.4,393.3c1.3,2.4,1.3,7.7,1.3,10.4v25.8
	c0,4.8,0,9.5-2.8,11.9c-2,1.7-6.7,1.7-9.6,1.7v3h32.5v-3c-3.3,0-7.7,0-10.1-2.7c-1.9-2.2-1.9-5.9-1.9-10.9v-49.6h-2.8
	c-4.2,5.6-11.5,8.1-18.2,7.9v3C526,390.8,529.3,391.3,530.4,393.3z M247.1,441.4c-2,1.7-6.7,1.7-9.6,1.7v3h32.5v-3
	c-3.3,0-7.7,0-10.1-2.7c-1.9-2.2-1.9-5.9-1.9-10.9v-49.6h-2.8c-4.2,5.6-11.5,8.1-18.2,7.9v3c7.3,0,10.6,0.5,11.7,2.6
	c1.3,2.4,1.3,7.7,1.3,10.4v25.8C250,434.4,250,439,247.1,441.4z M294.6,429.5v-49.6h-2.8c-4.2,5.6-11.5,8.1-18.2,7.9v3
	c7.3,0,10.6,0.5,11.7,2.6c1.3,2.4,1.3,7.7,1.3,10.4v25.8c0,4.8,0,9.5-2.8,11.9c-2,1.7-6.7,1.7-9.6,1.7v3h32.5v-3
	c-3.3,0-7.7,0-10.1-2.7C294.6,438.2,294.6,434.6,294.6,429.5z M634.6,512.5l-2.7-0.7c-2.3,5.5-4.8,8.4-7.6,9.5
	c-3.3,1.2-8.2,1.2-13.9,1.2h-9c7-10.8,9.2-13.3,19.4-21.2c6.7-5.4,13.9-11.8,13.9-21.2c0-10.2-10-16.7-19.4-16.7
	c-8.8,0-18.6,6.3-18.6,15.9c0,3.5,2,6.8,5.7,6.8c2.7,0,4.8-2.3,4.8-4.8c0-3-2.5-4.6-2.5-7.6c0-4.7,4.8-7.2,9.1-7.2
	c7,0,11.5,6.5,11.5,13.2c0,8.3-5.8,15.3-11.2,21c-7.1,7.8-14.3,15.4-19.3,24.9l0.5,4.2h34.9L634.6,512.5z M211.9,463.3
	c-7.6,0-12.9,6.5-16.1,12.7c-3,6.2-4.4,13.9-4.4,20.9c0,7.3,1.4,14.7,4.8,21.3c3.2,6.3,8.1,12.3,15.7,12.3c7.8,0,13.3-7,16.3-13.4
	c2.9-6.4,4.2-13.8,4.2-20.8c0-7.4-1.4-14.8-4.9-21.4C224.1,469.1,218.9,463.3,211.9,463.3z M212.4,527.6
	c-11.5,0-12.3-22.3-12.3-30.4c0-7.5,0.9-30.9,11.8-30.9c10.7,0,11.8,22.9,11.8,30.4C223.8,506.5,221.8,527.6,212.4,527.6z
	 M180.4,513v-49.6h-2.8c-4.2,5.6-11.5,8.1-18.2,7.9v3c7.3,0,10.6,0.5,11.7,2.6c1.3,2.4,1.3,7.7,1.3,10.4V513c0,4.8,0,9.5-2.8,11.9
	c-2,1.7-6.7,1.7-9.6,1.7v3h32.5v-3c-3.3,0-7.7,0-10.1-2.7C180.4,521.6,180.4,518,180.4,513z M639.9,601.6c0,2.7,2.2,5.3,5.1,5.3
	c2.7,0,4.7-2.3,4.7-4.9c0-1.5-0.4-2.9-0.4-4.4c0-3.9,4.3-6,7.9-6c6.9,0,9.7,7.6,9.7,13.5c0,4.5-2.7,13-8.3,13
	c-1.6,0-3.5-0.7-5.5-0.7c-1.8,0-3.5,0.7-3.5,2.7c0,1.8,1.6,2.6,3.2,2.6c2.1,0,4.1-0.8,6.3-0.8c7.4,0,10,8.4,10,14.5
	c0,7.6-3,16.5-12.1,16.5c-3.5,0-8.4-1.6-8.4-5.9c0-1.2,0.5-2.6,0.5-3.7c0-3-1.7-5.4-5-5.4c-3.4,0-4.8,3-4.8,6
	c0,9,10.5,12.1,17.7,12.1c10.6,0,21.7-7,21.7-18.6c0-9.9-8.5-16.1-17.5-17.4v-0.1c7-1.8,14.9-7.9,14.9-15.5c0-10-9.2-15.7-18.4-15.7
	C650.4,588.5,639.9,592.7,639.9,601.6z M156.9,618.5c0-13-5-30-20.8-30c-11.8,0-19.8,12.2-19.8,23c0,9.2,6,18.9,16.1,18.9
	c7,0,11.7-4.2,15.9-9.4c0.7,8.3-3.7,31.7-14.3,31.7c-4,0-5.1-3.6-5.8-6.9c-0.5-2.4-1.2-4.2-4.1-4.2c-3,0-5.1,1.9-5.1,4.9
	c0,6,8.3,9.2,13.3,9.2c8.7,0,15.5-6.6,19.3-13.9C155.1,635,156.9,626.3,156.9,618.5z M135.6,626.1c-8.3,0-10.7-8.9-10.7-15.7
	c0-7.4,1.9-18.8,11.4-18.8c11.3,0,11.5,16,11.9,24.2C145.5,620.1,141.4,626.1,135.6,626.1z M633.2,711.4h-4L602,757.2v4.2h23.1v3.1
	c0,3.3,0,5.8-0.6,7.4c-0.7,2-2.8,2.7-7.3,2.7v3h23.1v-3c-3.8,0.2-5.7-1-6.4-2.9c-0.7-2-0.7-4.9-0.7-8v-2.3h10.1v-4.2h-10.1V711.4z
	 M625.2,757.2h-18.6l18.6-31.7V757.2z M177.5,741c5.5-3.6,11.3-7.7,11.3-14.9c0-8.6-9-14.6-16.9-14.6c-10.3,0-18.2,7.5-18.2,18
	c0,7.3,5.4,12.2,11.7,15.2c-6.9,2.8-15.2,8.5-15.2,16.8c0,10.7,9.9,17.3,19.7,17.3c5.6,0,11.4-1.8,15.3-5.9
	c3.4-3.4,5.9-8.9,5.9-13.6C191.2,750.8,184.7,744.5,177.5,741z M160,726.1c0-6.4,4.7-11.6,11.2-11.6c6.8,0,10.9,5.4,10.9,12
	c0,5.7-3,10.1-7.8,13.1C168.9,737.4,160,732.7,160,726.1z M171.5,775.7c-8,0-13.2-6.8-13.2-14.5c0-6.6,4-12.3,9.9-15.3
	c6.7,4,16.3,6.8,16.3,16.2C184.5,769.4,179,775.7,171.5,775.7z M537.2,828.1c-4.8,0-9.1,1.7-13,4.5l1.5-21.2h25.1l1.4-6.5h-30.5
	l-2,32.2l3.1,1.4c2.7-3.9,6.3-6.4,11.2-6.4c9.2,0,13,8.7,13,16.8c0,8.4-3.8,19.3-14,19.3c-3.7,0-7.2-2.1-7.2-6
	c0-1.7,0.6-3.4,0.6-5.1c0-2.7-2.1-5-4.8-5c-3.5,0-5,3.3-5,6.3c0,8.1,10.5,12.9,17.5,12.9c12.3,0,21.7-10.4,21.7-22.5
	C555.7,838.2,548.5,828.1,537.2,828.1z M249.6,804.9l-3.7,17.6l2.7,0.6c1-3.5,2.6-7.2,5.3-9.7c3.7-3.1,8-2.5,12.4-2.5h14.5
	c-3.8,6.4-12.2,20.1-15.6,27c-5,10-9,20.2-9,27.6c0,3.1,1.1,5.7,4.8,5.7c5.2,0,4.8-5.6,4.8-9.2c0-18.6,10.3-36.8,19.9-51.9l-0.5-5.1
	H249.6z M402.5,864.5c-6.8,0-11.7,4.6-15.8,9.3c0-8,3.6-31.5,14.3-31.5c8.2,0,3.6,11.2,10.2,11.2c2.9,0,5.2-2.2,5.2-5.1
	c0-5.8-8.2-9.1-13.2-9.1c-9.1,0-16,6.7-19.8,14.4c-3.6,7-5.2,15.5-5.2,23.3c0,16,7.3,29.5,20.7,29.5c12,0,20-12,20-23.3
	C418.8,874.1,412.4,864.5,402.5,864.5z M398.6,903.6c-10.5,0-11.4-14.8-11.8-22.6v-1.8c2.4-4.3,7.4-10.2,12.7-10.2
	c7,0,10.6,7,10.6,15.5C410.2,891.6,407.9,903.6,398.6,903.6z"/>
<g>
	<g>
		<g>
			<g>
				<radialGradient id="SVGID_27_" cx="400.4101" cy="630.0513" r="324.7245" gradientUnits="userSpaceOnUse">
					<stop  offset="0.8258" style="stop-color:#5A4036"/>
					<stop  offset="1" style="stop-color:#0F0000"/>
				</radialGradient>
				<polygon fill="url(#SVGID_27_)" points="456.6,533.4 461.6,536.3 459.6,539.8 454.6,537 				"/>
				<radialGradient id="SVGID_28_" cx="400.4131" cy="630.0532" r="324.7638" gradientUnits="userSpaceOnUse">
					<stop  offset="0.8258" style="stop-color:#5A4036"/>
					<stop  offset="1" style="stop-color:#0F0000"/>
				</radialGradient>
				<polygon fill="url(#SVGID_28_)" points="336.4,464 341.4,466.8 339.3,470.4 334.3,467.5 				"/>
			</g>
			<g>
				<radialGradient id="SVGID_29_" cx="400.3984" cy="630.0483" r="324.7318" gradientUnits="userSpaceOnUse">
					<stop  offset="0.8258" style="stop-color:#5A4036"/>
					<stop  offset="1" style="stop-color:#0F0000"/>
				</radialGradient>
				<polygon fill="url(#SVGID_29_)" points="433,558.5 435.9,563.5 432.3,565.6 429.5,560.6 				"/>
				<radialGradient id="SVGID_30_" cx="400.3847" cy="630.0464" r="324.7383" gradientUnits="userSpaceOnUse">
					<stop  offset="0.8258" style="stop-color:#5A4036"/>
					<stop  offset="1" style="stop-color:#0F0000"/>
				</radialGradient>
				<polygon fill="url(#SVGID_30_)" points="363.6,438.2 366.5,443.2 362.9,445.3 360,440.3 				"/>
			</g>
			<g>
				<radialGradient id="SVGID_31_" cx="400.3935" cy="630.0464" r="324.7344" gradientUnits="userSpaceOnUse">
					<stop  offset="0.8258" style="stop-color:#5A4036"/>
					<stop  offset="1" style="stop-color:#0F0000"/>
				</radialGradient>
				<rect x="395.9" y="568.4" fill="url(#SVGID_31_)" width="4.1" height="5.8"/>
				<radialGradient id="SVGID_32_" cx="400.3935" cy="630.0562" r="324.7576" gradientUnits="userSpaceOnUse">
					<stop  offset="0.8258" style="stop-color:#5A4036"/>
					<stop  offset="1" style="stop-color:#0F0000"/>
				</radialGradient>
				<rect x="395.9" y="429.6" fill="url(#SVGID_32_)" width="4.1" height="5.8"/>
			</g>
			<g>
				<radialGradient id="SVGID_33_" cx="400.3965" cy="630.0483" r="324.7414" gradientUnits="userSpaceOnUse">
					<stop  offset="0.8258" style="stop-color:#5A4036"/>
					<stop  offset="1" style="stop-color:#0F0000"/>
				</radialGradient>
				<polygon fill="url(#SVGID_33_)" points="366.5,560.6 363.6,565.6 360,563.5 362.9,558.5 				"/>
				<radialGradient id="SVGID_34_" cx="400.3984" cy="630.0483" r="324.7421" gradientUnits="userSpaceOnUse">
					<stop  offset="0.8258" style="stop-color:#5A4036"/>
					<stop  offset="1" style="stop-color:#0F0000"/>
				</radialGradient>
				<polygon fill="url(#SVGID_34_)" points="435.9,440.3 433,445.3 429.5,443.2 432.3,438.2 				"/>
			</g>
			<g>
				<radialGradient id="SVGID_35_" cx="400.3701" cy="630.0513" r="324.7119" gradientUnits="userSpaceOnUse">
					<stop  offset="0.8258" style="stop-color:#5A4036"/>
					<stop  offset="1" style="stop-color:#0F0000"/>
				</radialGradient>
				<polygon fill="url(#SVGID_35_)" points="341.4,537 336.4,539.8 334.3,536.3 339.3,533.4 				"/>
				<radialGradient id="SVGID_36_" cx="400.3945" cy="630.0532" r="324.7523" gradientUnits="userSpaceOnUse">
					<stop  offset="0.8258" style="stop-color:#5A4036"/>
					<stop  offset="1" style="stop-color:#0F0000"/>
				</radialGradient>
				<polygon fill="url(#SVGID_36_)" points="461.6,467.5 456.6,470.4 454.6,466.8 459.6,464 				"/>
			</g>
			<g>
				<radialGradient id="SVGID_37_" cx="400.4004" cy="630.0444" r="324.7412" gradientUnits="userSpaceOnUse">
					<stop  offset="0.8258" style="stop-color:#5A4036"/>
					<stop  offset="1" style="stop-color:#0F0000"/>
				</radialGradient>
				<rect x="325.7" y="499.8" fill="url(#SVGID_37_)" width="5.8" height="4.1"/>
				<radialGradient id="SVGID_38_" cx="400.4043" cy="630.0444" r="324.728" gradientUnits="userSpaceOnUse">
					<stop  offset="0.8258" style="stop-color:#5A4036"/>
					<stop  offset="1" style="stop-color:#0F0000"/>
				</radialGradient>
				<rect x="464.5" y="499.8" fill="url(#SVGID_38_)" width="5.8" height="4.1"/>
			</g>
		</g>
		<g>
			<g>
				<radialGradient id="SVGID_39_" cx="400.4013" cy="630.0327" r="324.7052" gradientUnits="userSpaceOnUse">
					<stop  offset="0.8258" style="stop-color:#5A4036"/>
					<stop  offset="1" style="stop-color:#0F0000"/>
				</radialGradient>
				<polygon fill="url(#SVGID_39_)" points="464.1,509.6 469.8,510.3 469.5,512.4 463.8,511.6 				"/>
				<radialGradient id="SVGID_40_" cx="400.4267" cy="630.0405" r="324.7574" gradientUnits="userSpaceOnUse">
					<stop  offset="0.8258" style="stop-color:#5A4036"/>
					<stop  offset="1" style="stop-color:#0F0000"/>
				</radialGradient>
				<polygon fill="url(#SVGID_40_)" points="326.4,491.4 332.1,492.2 331.9,494.2 326.1,493.5 				"/>
			</g>
			<g>
				<radialGradient id="SVGID_41_" cx="400.4228" cy="630.0386" r="324.686" gradientUnits="userSpaceOnUse">
					<stop  offset="0.8258" style="stop-color:#5A4036"/>
					<stop  offset="1" style="stop-color:#0F0000"/>
				</radialGradient>
				<polygon fill="url(#SVGID_41_)" points="462.5,518.1 468.1,519.6 467.6,521.6 462,520.1 				"/>
				<radialGradient id="SVGID_42_" cx="400.4013" cy="630.0454" r="324.7427" gradientUnits="userSpaceOnUse">
					<stop  offset="0.8258" style="stop-color:#5A4036"/>
					<stop  offset="1" style="stop-color:#0F0000"/>
				</radialGradient>
				<polygon fill="url(#SVGID_42_)" points="328.4,482.2 334,483.7 333.4,485.7 327.9,484.2 				"/>
			</g>
			<g>
				<radialGradient id="SVGID_43_" cx="400.3789" cy="630.0483" r="324.7683" gradientUnits="userSpaceOnUse">
					<stop  offset="0.8258" style="stop-color:#5A4036"/>
					<stop  offset="1" style="stop-color:#0F0000"/>
				</radialGradient>
				<polygon fill="url(#SVGID_43_)" points="459.9,526.4 465.2,528.6 464.4,530.5 459.1,528.3 				"/>
				<radialGradient id="SVGID_44_" cx="400.4228" cy="630.0562" r="324.7766" gradientUnits="userSpaceOnUse">
					<stop  offset="0.8258" style="stop-color:#5A4036"/>
					<stop  offset="1" style="stop-color:#0F0000"/>
				</radialGradient>
				<polygon fill="url(#SVGID_44_)" points="331.6,473.3 336.9,475.5 336.1,477.4 330.8,475.2 				"/>
			</g>
			<g>
				<radialGradient id="SVGID_45_" cx="400.418" cy="630.0503" r="324.7083" gradientUnits="userSpaceOnUse">
					<stop  offset="0.8258" style="stop-color:#5A4036"/>
					<stop  offset="1" style="stop-color:#0F0000"/>
				</radialGradient>
				<polygon fill="url(#SVGID_45_)" points="456.1,534.3 461.1,537.2 460.1,539 455.1,536.1 				"/>
				<radialGradient id="SVGID_46_" cx="400.4023" cy="630.0601" r="324.7683" gradientUnits="userSpaceOnUse">
					<stop  offset="0.8258" style="stop-color:#5A4036"/>
					<stop  offset="1" style="stop-color:#0F0000"/>
				</radialGradient>
				<polygon fill="url(#SVGID_46_)" points="335.9,464.8 340.9,467.7 339.8,469.5 334.8,466.6 				"/>
			</g>
			<g>
				<radialGradient id="SVGID_47_" cx="400.3789" cy="630.0483" r="324.7742" gradientUnits="userSpaceOnUse">
					<stop  offset="0.8258" style="stop-color:#5A4036"/>
					<stop  offset="1" style="stop-color:#0F0000"/>
				</radialGradient>
				<polygon fill="url(#SVGID_47_)" points="451.4,541.6 456,545.1 454.7,546.7 450.1,543.2 				"/>
				<radialGradient id="SVGID_48_" cx="400.3935" cy="630.0718" r="324.7832" gradientUnits="userSpaceOnUse">
					<stop  offset="0.8258" style="stop-color:#5A4036"/>
					<stop  offset="1" style="stop-color:#0F0000"/>
				</radialGradient>
				<polygon fill="url(#SVGID_48_)" points="341.2,457.1 345.8,460.6 344.6,462.2 340,458.7 				"/>
			</g>
			<g>
				<radialGradient id="SVGID_49_" cx="400.414" cy="630.0483" r="324.7074" gradientUnits="userSpaceOnUse">
					<stop  offset="0.8258" style="stop-color:#5A4036"/>
					<stop  offset="1" style="stop-color:#0F0000"/>
				</radialGradient>
				<polygon fill="url(#SVGID_49_)" points="445.8,548.2 449.8,552.3 448.4,553.8 444.3,549.7 				"/>
				<radialGradient id="SVGID_50_" cx="400.4121" cy="630.0396" r="324.7366" gradientUnits="userSpaceOnUse">
					<stop  offset="0.8258" style="stop-color:#5A4036"/>
					<stop  offset="1" style="stop-color:#0F0000"/>
				</radialGradient>
				<polygon fill="url(#SVGID_50_)" points="347.6,450 351.7,454.1 350.2,455.6 346.1,451.5 				"/>
			</g>
			<g>
				<radialGradient id="SVGID_51_" cx="400.3974" cy="630.0464" r="324.7289" gradientUnits="userSpaceOnUse">
					<stop  offset="0.8258" style="stop-color:#5A4036"/>
					<stop  offset="1" style="stop-color:#0F0000"/>
				</radialGradient>
				<polygon fill="url(#SVGID_51_)" points="439.3,554.1 442.8,558.6 441.2,559.9 437.7,555.3 				"/>
				<radialGradient id="SVGID_52_" cx="400.4111" cy="630.0444" r="324.7429" gradientUnits="userSpaceOnUse">
					<stop  offset="0.8258" style="stop-color:#5A4036"/>
					<stop  offset="1" style="stop-color:#0F0000"/>
				</radialGradient>
				<polygon fill="url(#SVGID_52_)" points="354.8,443.9 358.3,448.5 356.7,449.7 353.1,445.2 				"/>
			</g>
			<g>
				<radialGradient id="SVGID_53_" cx="400.374" cy="630.0532" r="324.8089" gradientUnits="userSpaceOnUse">
					<stop  offset="0.8258" style="stop-color:#5A4036"/>
					<stop  offset="1" style="stop-color:#0F0000"/>
				</radialGradient>
				<polygon fill="url(#SVGID_53_)" points="432.1,559 435,564 433.2,565 430.4,560 				"/>
				<radialGradient id="SVGID_54_" cx="400.3984" cy="630.0308" r="324.7148" gradientUnits="userSpaceOnUse">
					<stop  offset="0.8258" style="stop-color:#5A4036"/>
					<stop  offset="1" style="stop-color:#0F0000"/>
				</radialGradient>
				<polygon fill="url(#SVGID_54_)" points="362.7,438.8 365.6,443.8 363.8,444.8 360.9,439.8 				"/>
			</g>
			<g>
				<radialGradient id="SVGID_55_" cx="400.3828" cy="630.0474" r="324.766" gradientUnits="userSpaceOnUse">
					<stop  offset="0.8258" style="stop-color:#5A4036"/>
					<stop  offset="1" style="stop-color:#0F0000"/>
				</radialGradient>
				<polygon fill="url(#SVGID_55_)" points="424.4,563 426.6,568.3 424.7,569.1 422.5,563.8 				"/>
				<radialGradient id="SVGID_56_" cx="400.4121" cy="630.0347" r="324.7247" gradientUnits="userSpaceOnUse">
					<stop  offset="0.8258" style="stop-color:#5A4036"/>
					<stop  offset="1" style="stop-color:#0F0000"/>
				</radialGradient>
				<polygon fill="url(#SVGID_56_)" points="371.3,434.7 373.5,440 371.6,440.8 369.3,435.5 				"/>
			</g>
			<g>
				<radialGradient id="SVGID_57_" cx="400.3906" cy="630.0503" r="324.7603" gradientUnits="userSpaceOnUse">
					<stop  offset="0.8258" style="stop-color:#5A4036"/>
					<stop  offset="1" style="stop-color:#0F0000"/>
				</radialGradient>
				<polygon fill="url(#SVGID_57_)" points="416.2,565.9 417.7,571.5 415.7,572 414.2,566.4 				"/>
				<radialGradient id="SVGID_58_" cx="400.3955" cy="630.0425" r="324.7333" gradientUnits="userSpaceOnUse">
					<stop  offset="0.8258" style="stop-color:#5A4036"/>
					<stop  offset="1" style="stop-color:#0F0000"/>
				</radialGradient>
				<polygon fill="url(#SVGID_58_)" points="380.3,431.8 381.8,437.4 379.8,437.9 378.3,432.3 				"/>
			</g>
			<g>
				<radialGradient id="SVGID_59_" cx="400.3974" cy="630.0474" r="324.7351" gradientUnits="userSpaceOnUse">
					<stop  offset="0.8258" style="stop-color:#5A4036"/>
					<stop  offset="1" style="stop-color:#0F0000"/>
				</radialGradient>
				<polygon fill="url(#SVGID_59_)" points="407.7,567.7 408.4,573.5 406.4,573.7 405.6,568 				"/>
				<radialGradient id="SVGID_60_" cx="400.3935" cy="630.0356" r="324.7234" gradientUnits="userSpaceOnUse">
					<stop  offset="0.8258" style="stop-color:#5A4036"/>
					<stop  offset="1" style="stop-color:#0F0000"/>
				</radialGradient>
				<polygon fill="url(#SVGID_60_)" points="389.6,430.1 390.3,435.8 388.3,436.1 387.5,430.3 				"/>
			</g>
			<g>
				<radialGradient id="SVGID_61_" cx="400.3965" cy="630.0464" r="324.7338" gradientUnits="userSpaceOnUse">
					<stop  offset="0.8258" style="stop-color:#5A4036"/>
					<stop  offset="1" style="stop-color:#0F0000"/>
				</radialGradient>
				<rect x="396.9" y="568.4" fill="url(#SVGID_61_)" width="2.1" height="5.8"/>
				<radialGradient id="SVGID_62_" cx="400.3974" cy="630.0425" r="324.7354" gradientUnits="userSpaceOnUse">
					<stop  offset="0.8258" style="stop-color:#5A4036"/>
					<stop  offset="1" style="stop-color:#0F0000"/>
				</radialGradient>
				<polygon fill="url(#SVGID_62_)" points="399,429.6 399,435.4 396.9,435.4 396.9,429.6 				"/>
			</g>
			<g>
				<radialGradient id="SVGID_63_" cx="400.3926" cy="630.0444" r="324.7221" gradientUnits="userSpaceOnUse">
					<stop  offset="0.8258" style="stop-color:#5A4036"/>
					<stop  offset="1" style="stop-color:#0F0000"/>
				</radialGradient>
				<polygon fill="url(#SVGID_63_)" points="390.3,568 389.6,573.7 387.5,573.5 388.3,567.7 				"/>
				<radialGradient id="SVGID_64_" cx="400.3974" cy="630.0356" r="324.7233" gradientUnits="userSpaceOnUse">
					<stop  offset="0.8258" style="stop-color:#5A4036"/>
					<stop  offset="1" style="stop-color:#0F0000"/>
				</radialGradient>
				<polygon fill="url(#SVGID_64_)" points="408.4,430.3 407.7,436.1 405.6,435.8 406.4,430.1 				"/>
			</g>
			<g>
				<radialGradient id="SVGID_65_" cx="400.3945" cy="630.0523" r="324.7607" gradientUnits="userSpaceOnUse">
					<stop  offset="0.8258" style="stop-color:#5A4036"/>
					<stop  offset="1" style="stop-color:#0F0000"/>
				</radialGradient>
				<polygon fill="url(#SVGID_65_)" points="381.8,566.4 380.3,572 378.3,571.5 379.8,565.9 				"/>
				<radialGradient id="SVGID_66_" cx="400.3828" cy="630.0425" r="324.7356" gradientUnits="userSpaceOnUse">
					<stop  offset="0.8258" style="stop-color:#5A4036"/>
					<stop  offset="1" style="stop-color:#0F0000"/>
				</radialGradient>
				<polygon fill="url(#SVGID_66_)" points="417.7,432.3 416.2,437.9 414.2,437.4 415.7,431.8 				"/>
			</g>
			<g>
				<radialGradient id="SVGID_67_" cx="400.4101" cy="630.0493" r="324.7744" gradientUnits="userSpaceOnUse">
					<stop  offset="0.8258" style="stop-color:#5A4036"/>
					<stop  offset="1" style="stop-color:#0F0000"/>
				</radialGradient>
				<polygon fill="url(#SVGID_67_)" points="373.5,563.8 371.3,569.1 369.3,568.3 371.6,563 				"/>
				<radialGradient id="SVGID_68_" cx="400.3945" cy="630.0366" r="324.725" gradientUnits="userSpaceOnUse">
					<stop  offset="0.8258" style="stop-color:#5A4036"/>
					<stop  offset="1" style="stop-color:#0F0000"/>
				</radialGradient>
				<polygon fill="url(#SVGID_68_)" points="426.6,435.5 424.4,440.8 422.5,440 424.7,434.7 				"/>
			</g>
			<g>
				<radialGradient id="SVGID_69_" cx="400.3965" cy="630.0532" r="324.7614" gradientUnits="userSpaceOnUse">
					<stop  offset="0.8258" style="stop-color:#5A4036"/>
					<stop  offset="1" style="stop-color:#0F0000"/>
				</radialGradient>
				<polygon fill="url(#SVGID_69_)" points="365.6,560 362.7,565 360.9,564 363.8,559 				"/>
				<radialGradient id="SVGID_70_" cx="400.3945" cy="630.0347" r="324.7223" gradientUnits="userSpaceOnUse">
					<stop  offset="0.8258" style="stop-color:#5A4036"/>
					<stop  offset="1" style="stop-color:#0F0000"/>
				</radialGradient>
				<polygon fill="url(#SVGID_70_)" points="435,439.8 432.1,444.8 430.4,443.8 433.2,438.8 				"/>
			</g>
			<g>
				<radialGradient id="SVGID_71_" cx="400.3926" cy="630.0523" r="324.7487" gradientUnits="userSpaceOnUse">
					<stop  offset="0.8258" style="stop-color:#5A4036"/>
					<stop  offset="1" style="stop-color:#0F0000"/>
				</radialGradient>
				<polygon fill="url(#SVGID_71_)" points="358.3,555.3 354.8,559.9 353.1,558.6 356.7,554.1 				"/>
				<radialGradient id="SVGID_72_" cx="400.3984" cy="630.062" r="324.7652" gradientUnits="userSpaceOnUse">
					<stop  offset="0.8258" style="stop-color:#5A4036"/>
					<stop  offset="1" style="stop-color:#0F0000"/>
				</radialGradient>
				<polygon fill="url(#SVGID_72_)" points="442.8,445.2 439.3,449.7 437.7,448.5 441.2,443.9 				"/>
			</g>
			<g>
				<radialGradient id="SVGID_73_" cx="400.3916" cy="630.0493" r="324.7412" gradientUnits="userSpaceOnUse">
					<stop  offset="0.8258" style="stop-color:#5A4036"/>
					<stop  offset="1" style="stop-color:#0F0000"/>
				</radialGradient>
				<polygon fill="url(#SVGID_73_)" points="351.7,549.7 347.6,553.8 346.1,552.3 350.2,548.2 				"/>
				<radialGradient id="SVGID_74_" cx="400.3994" cy="630.0542" r="324.7535" gradientUnits="userSpaceOnUse">
					<stop  offset="0.8258" style="stop-color:#5A4036"/>
					<stop  offset="1" style="stop-color:#0F0000"/>
				</radialGradient>
				<polygon fill="url(#SVGID_74_)" points="449.8,451.5 445.8,455.6 444.3,454.1 448.4,450 				"/>
			</g>
			<g>
				<radialGradient id="SVGID_75_" cx="400.375" cy="630.0523" r="324.7177" gradientUnits="userSpaceOnUse">
					<stop  offset="0.8258" style="stop-color:#5A4036"/>
					<stop  offset="1" style="stop-color:#0F0000"/>
				</radialGradient>
				<polygon fill="url(#SVGID_75_)" points="345.8,543.2 341.2,546.7 340,545.1 344.6,541.6 				"/>
				<radialGradient id="SVGID_76_" cx="400.414" cy="630.0562" r="324.7449" gradientUnits="userSpaceOnUse">
					<stop  offset="0.8258" style="stop-color:#5A4036"/>
					<stop  offset="1" style="stop-color:#0F0000"/>
				</radialGradient>
				<polygon fill="url(#SVGID_76_)" points="456,458.7 451.4,462.2 450.1,460.6 454.7,457.1 				"/>
			</g>
			<g>
				<radialGradient id="SVGID_77_" cx="400.4004" cy="630.0444" r="324.7412" gradientUnits="userSpaceOnUse">
					<stop  offset="0.8258" style="stop-color:#5A4036"/>
					<stop  offset="1" style="stop-color:#0F0000"/>
				</radialGradient>
				<polygon fill="url(#SVGID_77_)" points="340.9,536.1 335.9,539 334.8,537.2 339.8,534.3 				"/>
				<radialGradient id="SVGID_78_" cx="400.3721" cy="630.0601" r="324.7818" gradientUnits="userSpaceOnUse">
					<stop  offset="0.8258" style="stop-color:#5A4036"/>
					<stop  offset="1" style="stop-color:#0F0000"/>
				</radialGradient>
				<polygon fill="url(#SVGID_78_)" points="461.1,466.6 456.1,469.5 455.1,467.7 460.1,464.8 				"/>
			</g>
			<g>
				<radialGradient id="SVGID_79_" cx="400.4209" cy="630.0523" r="324.7872" gradientUnits="userSpaceOnUse">
					<stop  offset="0.8258" style="stop-color:#5A4036"/>
					<stop  offset="1" style="stop-color:#0F0000"/>
				</radialGradient>
				<polygon fill="url(#SVGID_79_)" points="336.9,528.3 331.6,530.5 330.8,528.6 336.1,526.4 				"/>
				<radialGradient id="SVGID_80_" cx="400.4189" cy="630.0562" r="324.7375" gradientUnits="userSpaceOnUse">
					<stop  offset="0.8258" style="stop-color:#5A4036"/>
					<stop  offset="1" style="stop-color:#0F0000"/>
				</radialGradient>
				<polygon fill="url(#SVGID_80_)" points="465.2,475.2 459.9,477.4 459.1,475.5 464.4,473.3 				"/>
			</g>
			<g>
				<radialGradient id="SVGID_81_" cx="400.3984" cy="630.0415" r="324.7321" gradientUnits="userSpaceOnUse">
					<stop  offset="0.8258" style="stop-color:#5A4036"/>
					<stop  offset="1" style="stop-color:#0F0000"/>
				</radialGradient>
				<polygon fill="url(#SVGID_81_)" points="334,520.1 328.4,521.6 327.9,519.6 333.4,518.1 				"/>
				<radialGradient id="SVGID_82_" cx="400.3926" cy="630.0435" r="324.7368" gradientUnits="userSpaceOnUse">
					<stop  offset="0.8258" style="stop-color:#5A4036"/>
					<stop  offset="1" style="stop-color:#0F0000"/>
				</radialGradient>
				<polygon fill="url(#SVGID_82_)" points="468.1,484.2 462.5,485.7 462,483.7 467.6,482.2 				"/>
			</g>
			<g>
				<radialGradient id="SVGID_83_" cx="400.4248" cy="630.0366" r="324.7527" gradientUnits="userSpaceOnUse">
					<stop  offset="0.8258" style="stop-color:#5A4036"/>
					<stop  offset="1" style="stop-color:#0F0000"/>
				</radialGradient>
				<polygon fill="url(#SVGID_83_)" points="332.1,511.6 326.4,512.4 326.1,510.3 331.9,509.6 				"/>
				<radialGradient id="SVGID_84_" cx="400.3691" cy="630.0386" r="324.7517" gradientUnits="userSpaceOnUse">
					<stop  offset="0.8258" style="stop-color:#5A4036"/>
					<stop  offset="1" style="stop-color:#0F0000"/>
				</radialGradient>
				<polygon fill="url(#SVGID_84_)" points="469.8,493.5 464.1,494.2 463.8,492.2 469.5,491.4 				"/>
			</g>
			<g>
				<radialGradient id="SVGID_85_" cx="400.373" cy="630.0347" r="324.6929" gradientUnits="userSpaceOnUse">
					<stop  offset="0.8258" style="stop-color:#5A4036"/>
					<stop  offset="1" style="stop-color:#0F0000"/>
				</radialGradient>
				<rect x="325.7" y="500.9" fill="url(#SVGID_85_)" width="5.8" height="2.1"/>
				<radialGradient id="SVGID_86_" cx="400.4023" cy="630.0347" r="324.707" gradientUnits="userSpaceOnUse">
					<stop  offset="0.8258" style="stop-color:#5A4036"/>
					<stop  offset="1" style="stop-color:#0F0000"/>
				</radialGradient>
				<rect x="464.5" y="500.9" fill="url(#SVGID_86_)" width="5.8" height="2.1"/>
			</g>
		</g>
		<g>
			<g>
				<radialGradient id="SVGID_87_" cx="400.4053" cy="630.0503" r="324.7342" gradientUnits="userSpaceOnUse">
					<stop  offset="0.8258" style="stop-color:#5A4036"/>
					<stop  offset="1" style="stop-color:#0F0000"/>
				</radialGradient>
				<polygon fill="url(#SVGID_87_)" points="458.4,517 468.1,519.6 467.6,521.6 457.9,519 				"/>
				<radialGradient id="SVGID_88_" cx="400.4062" cy="630.0327" r="324.7236" gradientUnits="userSpaceOnUse">
					<stop  offset="0.8258" style="stop-color:#5A4036"/>
					<stop  offset="1" style="stop-color:#0F0000"/>
				</radialGradient>
				<polygon fill="url(#SVGID_88_)" points="328.4,482.2 338,484.8 337.5,486.8 327.9,484.2 				"/>
			</g>
			<g>
				<radialGradient id="SVGID_89_" cx="400.3818" cy="630.0503" r="324.7792" gradientUnits="userSpaceOnUse">
					<stop  offset="0.8258" style="stop-color:#5A4036"/>
					<stop  offset="1" style="stop-color:#0F0000"/>
				</radialGradient>
				<polygon fill="url(#SVGID_89_)" points="442.8,545.2 449.8,552.3 448.4,553.8 441.3,546.7 				"/>
				<radialGradient id="SVGID_90_" cx="400.4043" cy="630.0454" r="324.7427" gradientUnits="userSpaceOnUse">
					<stop  offset="0.8258" style="stop-color:#5A4036"/>
					<stop  offset="1" style="stop-color:#0F0000"/>
				</radialGradient>
				<polygon fill="url(#SVGID_90_)" points="347.6,450 354.6,457.1 353.2,458.6 346.1,451.5 				"/>
			</g>
			<g>
				<radialGradient id="SVGID_91_" cx="400.3965" cy="630.0523" r="324.7622" gradientUnits="userSpaceOnUse">
					<stop  offset="0.8258" style="stop-color:#5A4036"/>
					<stop  offset="1" style="stop-color:#0F0000"/>
				</radialGradient>
				<polygon fill="url(#SVGID_91_)" points="415.1,561.8 417.7,571.5 415.7,572 413.1,562.4 				"/>
				<radialGradient id="SVGID_92_" cx="400.3955" cy="630.0405" r="324.7319" gradientUnits="userSpaceOnUse">
					<stop  offset="0.8258" style="stop-color:#5A4036"/>
					<stop  offset="1" style="stop-color:#0F0000"/>
				</radialGradient>
				<polygon fill="url(#SVGID_92_)" points="380.3,431.8 382.8,441.4 380.9,442 378.3,432.3 				"/>
			</g>
			<g>
				<radialGradient id="SVGID_93_" cx="400.3984" cy="630.0493" r="324.7489" gradientUnits="userSpaceOnUse">
					<stop  offset="0.8258" style="stop-color:#5A4036"/>
					<stop  offset="1" style="stop-color:#0F0000"/>
				</radialGradient>
				<polygon fill="url(#SVGID_93_)" points="382.8,562.4 380.3,572 378.3,571.5 380.9,561.8 				"/>
				<radialGradient id="SVGID_94_" cx="400.3935" cy="630.0425" r="324.7338" gradientUnits="userSpaceOnUse">
					<stop  offset="0.8258" style="stop-color:#5A4036"/>
					<stop  offset="1" style="stop-color:#0F0000"/>
				</radialGradient>
				<polygon fill="url(#SVGID_94_)" points="417.7,432.3 415.1,442 413.1,441.4 415.7,431.8 				"/>
			</g>
			<g>
				<radialGradient id="SVGID_95_" cx="400.3926" cy="630.0483" r="324.7403" gradientUnits="userSpaceOnUse">
					<stop  offset="0.8258" style="stop-color:#5A4036"/>
					<stop  offset="1" style="stop-color:#0F0000"/>
				</radialGradient>
				<polygon fill="url(#SVGID_95_)" points="354.6,546.7 347.6,553.8 346.1,552.3 353.2,545.2 				"/>
				<radialGradient id="SVGID_96_" cx="400.3926" cy="630.0425" r="324.7351" gradientUnits="userSpaceOnUse">
					<stop  offset="0.8258" style="stop-color:#5A4036"/>
					<stop  offset="1" style="stop-color:#0F0000"/>
				</radialGradient>
				<polygon fill="url(#SVGID_96_)" points="449.8,451.5 442.8,458.6 441.3,457.1 448.4,450 				"/>
			</g>
			<g>
				<radialGradient id="SVGID_97_" cx="400.3789" cy="630.0444" r="324.7171" gradientUnits="userSpaceOnUse">
					<stop  offset="0.8258" style="stop-color:#5A4036"/>
					<stop  offset="1" style="stop-color:#0F0000"/>
				</radialGradient>
				<polygon fill="url(#SVGID_97_)" points="338,519 328.4,521.6 327.9,519.6 337.5,517 				"/>
				<radialGradient id="SVGID_98_" cx="400.3916" cy="630.0396" r="324.7307" gradientUnits="userSpaceOnUse">
					<stop  offset="0.8258" style="stop-color:#5A4036"/>
					<stop  offset="1" style="stop-color:#0F0000"/>
				</radialGradient>
				<polygon fill="url(#SVGID_98_)" points="468.1,484.2 458.4,486.8 457.9,484.8 467.6,482.2 				"/>
			</g>
		</g>
		<g>
			<radialGradient id="SVGID_99_" cx="400.3974" cy="630.0523" r="324.7521" gradientUnits="userSpaceOnUse">
				<stop  offset="0.8258" style="stop-color:#5A4036"/>
				<stop  offset="1" style="stop-color:#0F0000"/>
			</radialGradient>
			<path fill="url(#SVGID_99_)" d="M394.5,438.2v16.5h-3v-11.3h-3.8v-2.3h0.4c2.5,0,3.8-1.3,4.2-2.9H394.5z"/>
			<radialGradient id="SVGID_100_" cx="400.3955" cy="630.0483" r="324.7448" gradientUnits="userSpaceOnUse">
				<stop  offset="0.8258" style="stop-color:#5A4036"/>
				<stop  offset="1" style="stop-color:#0F0000"/>
			</radialGradient>
			<path fill="url(#SVGID_100_)" d="M405.9,454.7h-9.1v-0.9c0-4.6,3.4-6.7,4.8-8.1c1.5-1.5,1.7-2.1,1.7-3.2c0-1.5-0.6-2.1-1.7-2.1
				c-1,0-1.7,0.6-1.7,2.5v0.9h-3v-1c0-3.4,2.4-5,4.6-5c2.6,0,4.6,1.7,4.6,4.4c0,1.7-0.8,3.5-2.2,4.9c-1.7,1.6-3.7,2.9-3.9,4.9h5.7
				V454.7z"/>
		</g>
		<g>
			<radialGradient id="SVGID_101_" cx="400.3887" cy="630.0523" r="324.7538" gradientUnits="userSpaceOnUse">
				<stop  offset="0.8258" style="stop-color:#5A4036"/>
				<stop  offset="1" style="stop-color:#0F0000"/>
			</radialGradient>
			<path fill="url(#SVGID_101_)" d="M428.5,447.3v16.5h-3v-11.3h-3.8v-2.3h0.4c2.5,0,3.8-1.3,4.2-2.9H428.5z"/>
		</g>
		<g>
			<radialGradient id="SVGID_102_" cx="400.3838" cy="630.0474" r="324.738" gradientUnits="userSpaceOnUse">
				<stop  offset="0.8258" style="stop-color:#5A4036"/>
				<stop  offset="1" style="stop-color:#0F0000"/>
			</radialGradient>
			<path fill="url(#SVGID_102_)" d="M366.8,446.7v16.5h-3v-11.3H360v-2.3h0.4c2.5,0,3.8-1.3,4.2-2.9H366.8z"/>
			<radialGradient id="SVGID_103_" cx="400.3955" cy="630.0474" r="324.7416" gradientUnits="userSpaceOnUse">
				<stop  offset="0.8258" style="stop-color:#5A4036"/>
				<stop  offset="1" style="stop-color:#0F0000"/>
			</radialGradient>
			<path fill="url(#SVGID_103_)" d="M375.4,446.7v16.5h-3v-11.3h-3.8v-2.3h0.4c2.5,0,3.8-1.3,4.2-2.9H375.4z"/>
		</g>
		<g>
			<radialGradient id="SVGID_104_" cx="400.3945" cy="630.0503" r="324.7484" gradientUnits="userSpaceOnUse">
				<stop  offset="0.8258" style="stop-color:#5A4036"/>
				<stop  offset="1" style="stop-color:#0F0000"/>
			</radialGradient>
			<path fill="url(#SVGID_104_)" d="M453.1,482.9H444v-0.9c0-4.6,3.4-6.7,4.8-8.1c1.5-1.5,1.7-2.1,1.7-3.2c0-1.5-0.6-2.1-1.7-2.1
				c-1,0-1.7,0.6-1.7,2.5v0.9h-3v-1c0-3.4,2.4-5,4.6-5c2.6,0,4.6,1.7,4.6,4.4c0,1.7-0.8,3.5-2.2,4.9c-1.7,1.6-3.7,2.9-3.9,4.9h5.7
				V482.9z"/>
		</g>
		<g>
			<radialGradient id="SVGID_105_" cx="400.3769" cy="630.0425" r="324.7212" gradientUnits="userSpaceOnUse">
				<stop  offset="0.8258" style="stop-color:#5A4036"/>
				<stop  offset="1" style="stop-color:#0F0000"/>
			</radialGradient>
			<path fill="url(#SVGID_105_)" d="M347,468.2v16.5h-3v-11.3h-3.8v-2.3h0.4c2.5,0,3.8-1.3,4.2-2.9H347z"/>
			<radialGradient id="SVGID_106_" cx="400.3935" cy="630.0483" r="324.7449" gradientUnits="userSpaceOnUse">
				<stop  offset="0.8258" style="stop-color:#5A4036"/>
				<stop  offset="1" style="stop-color:#0F0000"/>
			</radialGradient>
			<path fill="url(#SVGID_106_)" d="M358.8,472.3v8.3c0,2.7-1.8,4.5-4.6,4.5c-2.6,0-4.6-1.8-4.6-4.5v-8.3c0-2.6,2.1-4.4,4.6-4.4
				C357,467.9,358.8,469.6,358.8,472.3z M352.6,472v8.9c0,1,0.8,1.6,1.7,1.6c0.8,0,1.6-0.7,1.6-1.7V472c0-1-0.8-1.5-1.6-1.5
				C353.4,470.5,352.6,471,352.6,472z"/>
		</g>
		<g>
			<radialGradient id="SVGID_107_" cx="400.3935" cy="630.0483" r="324.7445" gradientUnits="userSpaceOnUse">
				<stop  offset="0.8258" style="stop-color:#5A4036"/>
				<stop  offset="1" style="stop-color:#0F0000"/>
			</radialGradient>
			<path fill="url(#SVGID_107_)" d="M451,521.4V532h1.5v2.6H451v3.3h-3v-3.3h-5.2v-3l4.6-10.2H451z M448,525.2l-3,6.8h3V525.2z"/>
		</g>
		<g>
			<radialGradient id="SVGID_108_" cx="400.3838" cy="630.0513" r="324.7365" gradientUnits="userSpaceOnUse">
				<stop  offset="0.8258" style="stop-color:#5A4036"/>
				<stop  offset="1" style="stop-color:#0F0000"/>
			</radialGradient>
			<path fill="url(#SVGID_108_)" d="M344.4,526c0-2.8,1.9-4.1,4.3-4.1s4.3,1.3,4.3,4.1c0,2.2-0.8,3.3-1.9,3.8
				c1.5,0.7,2.2,1.9,2.2,4.1c0,3.6-1.4,5.1-4.6,5.1c-3.1,0-4.6-1.5-4.6-5.1c0-2.3,1-3.4,2.3-4.1C345.3,529.3,344.4,528.3,344.4,526z
				 M347.1,533.4v0.9c0,1.5,0.6,2.3,1.6,2.3s1.6-0.8,1.6-2.3v-0.9c0-1.4-0.5-2.2-1.6-2.2C347.6,531.2,347.1,532,347.1,533.4z
				 M347.2,526.7c0,1.4,0.5,2.2,1.4,2.2c1,0,1.4-0.7,1.4-2.2c0-1.6-0.4-2.2-1.4-2.2C347.7,524.4,347.2,525.1,347.2,526.7z"/>
		</g>
		<g>
			<radialGradient id="SVGID_109_" cx="400.3945" cy="630.0483" r="324.7434" gradientUnits="userSpaceOnUse">
				<stop  offset="0.8258" style="stop-color:#5A4036"/>
				<stop  offset="1" style="stop-color:#0F0000"/>
			</radialGradient>
			<path fill="url(#SVGID_109_)" d="M432.4,541.3v2.5H427l-0.2,3.6c0.7-0.8,1.5-1.1,2.3-1.1c2.7,0,4,1.8,4,4.8v1.6
				c0,3.7-1.4,5.5-4.6,5.5c-3,0-4.7-1.6-4.7-4.7v-0.7h2.9c0,2.4,0.6,2.9,1.7,2.9c1.2,0,1.7-0.5,1.7-2.7v-1.7c0-1.6-0.6-2.4-1.8-2.4
				c-0.7,0-1.3,0.5-1.5,1.2H424l0.3-8.7H432.4z"/>
		</g>
		<g>
			<radialGradient id="SVGID_110_" cx="400.3887" cy="630.0483" r="324.7341" gradientUnits="userSpaceOnUse">
				<stop  offset="0.8258" style="stop-color:#5A4036"/>
				<stop  offset="1" style="stop-color:#0F0000"/>
			</radialGradient>
			<path fill="url(#SVGID_110_)" d="M372.1,541.3v2.4c-1.7,3.4-3.6,7.9-4,14.1h-3.3c0.6-5.1,2.3-10.5,4.2-13.9h-6.5v-2.6H372.1z"/>
		</g>
		<g>
			<radialGradient id="SVGID_111_" cx="400.3945" cy="630.0483" r="324.7442" gradientUnits="userSpaceOnUse">
				<stop  offset="0.8258" style="stop-color:#5A4036"/>
				<stop  offset="1" style="stop-color:#0F0000"/>
			</radialGradient>
			<path fill="url(#SVGID_111_)" d="M401,553.2c0-1-0.5-1.4-1.5-1.4c-1,0-1.5,0.6-1.5,2.2v1.9c0.6-0.6,1.7-1.2,2.6-1.2
				c2,0,3.4,1.3,3.4,3.7v3.9c0,2.8-2,4-4.6,4c-2.3,0-4.4-1.2-4.4-4v-8.5c0-2.6,1.5-4.6,4.4-4.6c2.7,0,4.6,1.5,4.6,3.9H401z
				 M398,559.1v3.3c0,1.1,0.5,1.7,1.4,1.7c0.9,0,1.6-0.6,1.6-1.7V559c0-1-0.8-1.6-1.5-1.6C398.7,557.4,398,557.9,398,559.1z"/>
		</g>
		<g>
			<radialGradient id="SVGID_112_" cx="400.3955" cy="630.0483" r="324.7441" gradientUnits="userSpaceOnUse">
				<stop  offset="0.8258" style="stop-color:#5A4036"/>
				<stop  offset="1" style="stop-color:#0F0000"/>
			</radialGradient>
			<path fill="url(#SVGID_112_)" d="M455.5,501.4h0.9c2.1,0,2.2-1.7,2.2-2.7c0-1.1-0.4-1.7-1.5-1.7c-1,0-1.6,0.7-1.6,2v0.6h-2.8
				v-0.7c0-2.5,1.6-4.3,4.4-4.3c2.8,0,4.5,1.5,4.5,4.1c0,2.2-0.9,3.3-2.3,3.8c1.7,0.4,2.6,1.8,2.6,4.2c0,3.6-1.7,5.1-4.8,5.1
				c-3.1,0-4.3-2-4.3-4.5v-1h2.8v0.6c0,1.4,0.4,2.4,1.6,2.4c1.5,0,1.6-1.1,1.6-2.7c0-2.1-0.5-2.8-1.9-2.8h-1.3V501.4z"/>
		</g>
		<g>
			<radialGradient id="SVGID_113_" cx="400.3984" cy="630.0483" r="324.7469" gradientUnits="userSpaceOnUse">
				<stop  offset="0.8258" style="stop-color:#5A4036"/>
				<stop  offset="1" style="stop-color:#0F0000"/>
			</radialGradient>
			<path fill="url(#SVGID_113_)" d="M345.1,498.5v8.5c0,2.6-1.5,4.6-4.4,4.6c-2.7,0-4.6-1.5-4.6-3.9h3c0,1,0.5,1.4,1.5,1.4
				c1,0,1.5-0.6,1.5-2.2v-2c-0.6,0.6-1.7,1.2-2.6,1.2c-1.9,0-3.4-1.3-3.4-3.7v-3.9c0-2.8,2-4,4.6-4
				C343,494.5,345.1,495.7,345.1,498.5z M339.2,498.6v3.3c0,1,0.8,1.6,1.5,1.6c0.8,0,1.5-0.5,1.5-1.6v-3.3c0-1.1-0.5-1.7-1.4-1.7
				C339.8,497,339.2,497.5,339.2,498.6z"/>
		</g>
	</g>
</g>
<linearGradient id="SVGID_114_" gradientUnits="userSpaceOnUse" x1="125.5307" y1="947.3265" x2="177.5034" y2="978.7267">
	<stop  offset="1.123600e-02" style="stop-color:#150508"/>
	<stop  offset="0.118" style="stop-color:#ADB9B1"/>
	<stop  offset="0.2528" style="stop-color:#FFFFFF"/>
	<stop  offset="0.2879" style="stop-color:#F7F7F7"/>
	<stop  offset="0.3437" style="stop-color:#DFE2E1"/>
	<stop  offset="0.413" style="stop-color:#BABFBD"/>
	<stop  offset="0.4607" style="stop-color:#9CA3A0"/>
	<stop  offset="0.6461" style="stop-color:#150508"/>
</linearGradient>
<path fill="url(#SVGID_114_)" d="M127.4,948.1c0,0,9.3,3.6,21.7,10.7c12.4,7.1,26.8,16.9,26.8,16.9s-16.4-4.1-33.7-15.5
	C125,948.8,127.4,948.1,127.4,948.1"/>
<path fill="#231F20" d="M52.8,355.9c-1.2-1.8-2.3-3.6-3.4-5.5c-40.3-68.6,11-127.2,89.7-173.4c78.7-46.2,154.8-62.5,195.1,6.1
	c1.1,1.9,2.1,3.7,3.1,5.6L52.8,355.9z"/>
<radialGradient id="SVGID_115_" cx="50.8462" cy="251.1216" r="90.2963" gradientUnits="userSpaceOnUse">
	<stop  offset="0.1348" style="stop-color:#DEDFE4"/>
	<stop  offset="0.2553" style="stop-color:#BEBEC2"/>
	<stop  offset="0.5195" style="stop-color:#7C7A7D"/>
	<stop  offset="0.7405" style="stop-color:#4C494B"/>
	<stop  offset="0.9071" style="stop-color:#2E2A2C"/>
	<stop  offset="1" style="stop-color:#231F20"/>
</radialGradient>
<path fill="url(#SVGID_115_)" d="M54.4,357.6c-1.2-1.8-2.3-3.6-3.4-5.5c-40.3-68.6,11-127.2,89.7-173.4
	c78.7-46.2,154.8-62.5,195.1,6.1c1.1,1.9,2.1,3.7,3.1,5.6L54.4,357.6z"/>
<radialGradient id="SVGID_116_" cx="65.0967" cy="253.8267" r="93.1813" gradientUnits="userSpaceOnUse">
	<stop  offset="0" style="stop-color:#FFFFFF"/>
	<stop  offset="0.4831" style="stop-color:#E1E3E6"/>
	<stop  offset="0.5674" style="stop-color:#CACED0"/>
	<stop  offset="0.7445" style="stop-color:#8E9698"/>
	<stop  offset="0.9981" style="stop-color:#303F3E"/>
	<stop  offset="1" style="stop-color:#2F3E3D"/>
</radialGradient>
<path fill="url(#SVGID_116_)" d="M72.7,295.8c10.2-39.9,33.8-74.3,65.9-96.8c-2.3-1.6-4.6-3.1-7-4.7c-40.1,17.9-71.3,52.3-86.9,94.7
	C54.2,291.7,63.6,293.9,72.7,295.8z"/>
<radialGradient id="SVGID_117_" cx="556.8595" cy="1217.6007" r="186.7012" gradientTransform="matrix(0.5235 0.852 -0.852 0.5235 1259.2927 -965.123)" gradientUnits="userSpaceOnUse">
	<stop  offset="0" style="stop-color:#FFFFFF"/>
	<stop  offset="0.2022" style="stop-color:#E1E3E6"/>
	<stop  offset="0.2874" style="stop-color:#CACED0"/>
	<stop  offset="0.4664" style="stop-color:#8E9698"/>
	<stop  offset="0.7228" style="stop-color:#303F3E"/>
	<stop  offset="0.7247" style="stop-color:#2F3E3D"/>
</radialGradient>
<path fill="url(#SVGID_117_)" d="M657.7,190.4c-6-5.4-14.5-11.9-19.9-15.4c-36.2-24.8-100.4-45.7-134.1-26.1
	c17.2,18.1,19.2,29,19.2,29c44.4-25.1,102.8-11.6,155.1,37.6L657.7,190.4z"/>
<radialGradient id="SVGID_118_" cx="609.0289" cy="-179.588" r="113.9282" gradientTransform="matrix(0.8788 -0.4771 0.4771 0.8788 -163.678 703.8834)" gradientUnits="userSpaceOnUse">
	<stop  offset="0" style="stop-color:#FFFFFF"/>
	<stop  offset="0.2865" style="stop-color:#E1E3E6"/>
	<stop  offset="0.3625" style="stop-color:#CACED0"/>
	<stop  offset="0.5223" style="stop-color:#8E9698"/>
	<stop  offset="0.7511" style="stop-color:#303F3E"/>
	<stop  offset="0.7528" style="stop-color:#2F3E3D"/>
</radialGradient>
<path fill="url(#SVGID_118_)" d="M325.7,198.3c-27.2-49.1-82.2-38.7-98.5-29.9c-16.4,8.9,12,13,38.4,62.5L325.7,198.3z"/>
<radialGradient id="SVGID_119_" cx="552.2709" cy="928.2557" r="113.9271" gradientTransform="matrix(0.8525 0.5227 -0.6493 1.0589 778.517 -928.4781)" gradientUnits="userSpaceOnUse">
	<stop  offset="0" style="stop-color:#FFFFFF"/>
	<stop  offset="0.2865" style="stop-color:#E1E3E6"/>
	<stop  offset="0.3625" style="stop-color:#CACED0"/>
	<stop  offset="0.5223" style="stop-color:#8E9698"/>
	<stop  offset="0.7511" style="stop-color:#303F3E"/>
	<stop  offset="0.7528" style="stop-color:#2F3E3D"/>
</radialGradient>
<path fill="url(#SVGID_119_)" d="M720.1,342.7C756.1,283,721.8,237,706,227.3c-15.9-9.7-7.4,20.5-44.2,79.6L720.1,342.7z"/>
<radialGradient id="SVGID_120_" cx="108.2993" cy="324.0225" r="66.9674" gradientUnits="userSpaceOnUse">
	<stop  offset="0.1348" style="stop-color:#DEDFE4"/>
	<stop  offset="0.2553" style="stop-color:#BEBEC2"/>
	<stop  offset="0.5195" style="stop-color:#7C7A7D"/>
	<stop  offset="0.7405" style="stop-color:#4C494B"/>
	<stop  offset="0.9071" style="stop-color:#2E2A2C"/>
	<stop  offset="1" style="stop-color:#231F20"/>
</radialGradient>
<path fill="url(#SVGID_120_)" d="M341.7,187.9c0.9,1.5,0.4,3.4-1.1,4.3L55.3,359.7c-1.5,0.9-3.4,0.4-4.3-1.1l0,0
	c-0.9-1.5-0.4-3.4,1.1-4.3l285.2-167.6C338.9,185.9,340.8,186.4,341.7,187.9L341.7,187.9z"/>
<radialGradient id="SVGID_121_" cx="-606.6674" cy="-844.8538" r="66.9678" gradientTransform="matrix(0.8214 -0.2437 -0.2437 0.5497 409.0709 636.4341)" gradientUnits="userSpaceOnUse">
	<stop  offset="0.427" style="stop-color:#DEDFE4"/>
	<stop  offset="0.5223" style="stop-color:#DBDCE1"/>
	<stop  offset="0.6051" style="stop-color:#D1D1D6"/>
	<stop  offset="0.6832" style="stop-color:#C0C0C4"/>
	<stop  offset="0.7585" style="stop-color:#A8A7AB"/>
	<stop  offset="0.8318" style="stop-color:#89878A"/>
	<stop  offset="0.9036" style="stop-color:#636063"/>
	<stop  offset="0.9728" style="stop-color:#363334"/>
	<stop  offset="1" style="stop-color:#231F20"/>
</radialGradient>
<path fill="url(#SVGID_121_)" d="M341.6,188.2c0.4,0.6-0.5,1.8-2,2.6L64.5,352.4c-1.4,0.8-2.9,1-3.3,0.4l0,0c-0.4-0.6,0.5-1.8,2-2.6
	l275.1-161.6C339.8,187.7,341.2,187.6,341.6,188.2L341.6,188.2z"/>
<radialGradient id="SVGID_122_" cx="524.7871" cy="230.2197" r="93.8053" gradientUnits="userSpaceOnUse">
	<stop  offset="0.1348" style="stop-color:#DEDFE4"/>
	<stop  offset="0.2553" style="stop-color:#BEBEC2"/>
	<stop  offset="0.5195" style="stop-color:#7C7A7D"/>
	<stop  offset="0.7405" style="stop-color:#4C494B"/>
	<stop  offset="0.9071" style="stop-color:#2E2A2C"/>
	<stop  offset="1" style="stop-color:#231F20"/>
</radialGradient>
<path fill="url(#SVGID_122_)" d="M454.2,187.9c-0.9,1.5-0.4,3.4,1.1,4.3l285.2,167.6c1.5,0.9,3.4,0.4,4.3-1.1l0,0
	c0.9-1.5,0.4-3.4-1.1-4.3L458.5,186.7C457,185.9,455.1,186.4,454.2,187.9L454.2,187.9z"/>
<radialGradient id="SVGID_123_" cx="522.8633" cy="229.0957" r="88.5698" gradientUnits="userSpaceOnUse">
	<stop  offset="0.5393" style="stop-color:#DEDFE4"/>
	<stop  offset="0.6035" style="stop-color:#BEBEC2"/>
	<stop  offset="0.7441" style="stop-color:#7C7A7D"/>
	<stop  offset="0.8618" style="stop-color:#4C494B"/>
	<stop  offset="0.9505" style="stop-color:#2E2A2C"/>
	<stop  offset="1" style="stop-color:#231F20"/>
</radialGradient>
<path fill="url(#SVGID_123_)" d="M456,188.5c-0.8,1.4,0.3,1.5,1.7,2.3l269.6,158.9c1.4,0.8,3.2,2,4.1,0.6l0,0c0.8-1.4-1-2.7-2.4-3.6
	L460.1,189.6C458.6,188.7,456.8,187,456,188.5L456,188.5z"/>
<g>
	<linearGradient id="SVGID_124_" gradientUnits="userSpaceOnUse" x1="362" y1="168.3555" x2="362" y2="204.2715">
		<stop  offset="0" style="stop-color:#66766A"/>
		<stop  offset="1.353998e-02" style="stop-color:#7C8A80"/>
		<stop  offset="4.119457e-02" style="stop-color:#A4AEA6"/>
		<stop  offset="6.974103e-02" style="stop-color:#C5CBC7"/>
		<stop  offset="9.896567e-02" style="stop-color:#DFE2DF"/>
		<stop  offset="0.1291" style="stop-color:#F1F2F1"/>
		<stop  offset="0.1609" style="stop-color:#FBFCFC"/>
		<stop  offset="0.1966" style="stop-color:#FFFFFF"/>
		<stop  offset="0.3851" style="stop-color:#FDFDFD"/>
		<stop  offset="0.4686" style="stop-color:#F6F6F6"/>
		<stop  offset="0.5314" style="stop-color:#E9EBEA"/>
		<stop  offset="0.5839" style="stop-color:#D7DAD9"/>
		<stop  offset="0.6299" style="stop-color:#C0C4C2"/>
		<stop  offset="0.6707" style="stop-color:#A3AAA7"/>
		<stop  offset="0.6798" style="stop-color:#9CA3A0"/>
		<stop  offset="1" style="stop-color:#150508"/>
	</linearGradient>
	<polygon fill="url(#SVGID_124_)" points="371.5,185.8 355.7,204.3 352.5,201 352.5,171.6 355.7,168.4 	"/>
	
		<linearGradient id="SVGID_125_" gradientUnits="userSpaceOnUse" x1="2609.5532" y1="168.3555" x2="2609.5532" y2="204.2715" gradientTransform="matrix(-1 0 0 1 3029.6523 0)">
		<stop  offset="0" style="stop-color:#66766A"/>
		<stop  offset="1.353998e-02" style="stop-color:#7C8A80"/>
		<stop  offset="4.119457e-02" style="stop-color:#A4AEA6"/>
		<stop  offset="6.974103e-02" style="stop-color:#C5CBC7"/>
		<stop  offset="9.896567e-02" style="stop-color:#DFE2DF"/>
		<stop  offset="0.1291" style="stop-color:#F1F2F1"/>
		<stop  offset="0.1609" style="stop-color:#FBFCFC"/>
		<stop  offset="0.1966" style="stop-color:#FFFFFF"/>
		<stop  offset="0.3851" style="stop-color:#FDFDFD"/>
		<stop  offset="0.4686" style="stop-color:#F6F6F6"/>
		<stop  offset="0.5314" style="stop-color:#E9EBEA"/>
		<stop  offset="0.5839" style="stop-color:#D7DAD9"/>
		<stop  offset="0.6299" style="stop-color:#C0C4C2"/>
		<stop  offset="0.6707" style="stop-color:#A3AAA7"/>
		<stop  offset="0.6798" style="stop-color:#9CA3A0"/>
		<stop  offset="1" style="stop-color:#150508"/>
	</linearGradient>
	<polygon fill="url(#SVGID_125_)" points="410.6,185.8 426.4,204.3 429.6,201 429.6,171.6 426.4,168.4 	"/>
	<linearGradient id="SVGID_126_" gradientUnits="userSpaceOnUse" x1="391.0484" y1="168.3555" x2="391.0484" y2="204.2715">
		<stop  offset="5.617980e-03" style="stop-color:#150508"/>
		<stop  offset="0.191" style="stop-color:#66766A"/>
		<stop  offset="0.1945" style="stop-color:#78867C"/>
		<stop  offset="0.2024" style="stop-color:#9CA79F"/>
		<stop  offset="0.211" style="stop-color:#BBC2BD"/>
		<stop  offset="0.2203" style="stop-color:#D4D8D5"/>
		<stop  offset="0.2308" style="stop-color:#E7EAE8"/>
		<stop  offset="0.2429" style="stop-color:#F5F6F5"/>
		<stop  offset="0.2581" style="stop-color:#FDFDFD"/>
		<stop  offset="0.2865" style="stop-color:#FFFFFF"/>
		<stop  offset="0.3619" style="stop-color:#FCFCFC"/>
		<stop  offset="0.4113" style="stop-color:#F4F4F4"/>
		<stop  offset="0.4533" style="stop-color:#E5E6E6"/>
		<stop  offset="0.4912" style="stop-color:#CFD3D1"/>
		<stop  offset="0.5259" style="stop-color:#B4BAB7"/>
		<stop  offset="0.5506" style="stop-color:#9CA3A0"/>
		<stop  offset="0.8034" style="stop-color:#150508"/>
	</linearGradient>
	<rect x="355.7" y="168.4" fill="url(#SVGID_126_)" width="70.8" height="35.9"/>
	<linearGradient id="SVGID_127_" gradientUnits="userSpaceOnUse" x1="375.5695" y1="166.1609" x2="416.3523" y2="204.8425">
		<stop  offset="0.2865" style="stop-color:#FFFFFF"/>
		<stop  offset="0.4515" style="stop-color:#EDEEEE"/>
		<stop  offset="0.7806" style="stop-color:#BEC3C1"/>
		<stop  offset="1" style="stop-color:#9CA3A0"/>
	</linearGradient>
	<path fill="url(#SVGID_127_)" d="M426.4,195.3c0,0-10.5-8.8-25.1-13.7c-27.1-8.9-45.6,4.7-45.6,4.7v-13c0,0,17.1,4.6,39.5,1.2
		c12.1-1.9,19.8-6.2,31.2,0.8V195.3z"/>
</g>
</svg>
