<?xml version="1.0" encoding="iso-8859-1"?>
<!-- Generator: Adobe Illustrator 23.0.1, SVG Export Plug-In . SVG Version: 6.00 Build 0)  -->
<svg version="1.1" id="Layer_1" xmlns="http://www.w3.org/2000/svg" xmlns:xlink="http://www.w3.org/1999/xlink" x="0px" y="0px"
	 viewBox="0 0 78 100" style="enable-background:new 0 0 78 100;" xml:space="preserve">
<linearGradient id="SVGID_1_" gradientUnits="userSpaceOnUse" x1="56.7491" y1="21.364" x2="59.9465" y2="23.1364" gradientTransform="matrix(1 0 0 1 0 2)">
	<stop  offset="0" style="stop-color:#000000"/>
	<stop  offset="0.0899" style="stop-color:#65766A"/>
	<stop  offset="0.264" style="stop-color:#FFFFFF"/>
	<stop  offset="0.5112" style="stop-color:#9CA3A1"/>
	<stop  offset="0.7865" style="stop-color:#000000"/>
</linearGradient>
<polygon style="fill:url(#SVGID_1_);" points="52.47,31.656 55.449,33.25 64.226,16.844 61.246,15.251 "/>
<linearGradient id="SVGID_2_" gradientUnits="userSpaceOnUse" x1="17.2842" y1="23.0542" x2="20.3088" y2="21.446" gradientTransform="matrix(1 0 0 1 0 2)">
	<stop  offset="0" style="stop-color:#000000"/>
	<stop  offset="0.0899" style="stop-color:#65766A"/>
	<stop  offset="0.264" style="stop-color:#FFFFFF"/>
	<stop  offset="0.5112" style="stop-color:#9CA3A1"/>
	<stop  offset="0.7865" style="stop-color:#000000"/>
</linearGradient>
<polygon style="fill:url(#SVGID_2_);" points="24.674,31.656 21.695,33.25 12.919,16.844 15.898,15.251 "/>
<radialGradient id="SVGID_3_" cx="38.5721" cy="57.3292" r="33.4743" gradientTransform="matrix(1 0 0 1 0 2)" gradientUnits="userSpaceOnUse">
	<stop  offset="0.6854" style="stop-color:#E4E6D4"/>
	<stop  offset="0.8441" style="stop-color:#E0E2D0"/>
	<stop  offset="0.9012" style="stop-color:#D4D8C5"/>
	<stop  offset="0.942" style="stop-color:#C4C9B5"/>
	<stop  offset="0.9747" style="stop-color:#AEB59F"/>
	<stop  offset="1" style="stop-color:#96A088"/>
</radialGradient>
<circle style="fill:url(#SVGID_3_);" cx="38.572" cy="59.329" r="33.474"/>
<g>
	
		<radialGradient id="SVGID_4_" cx="38.4492" cy="57.228" r="33.4742" gradientTransform="matrix(1 0 0 1 0 2)" gradientUnits="userSpaceOnUse">
		<stop  offset="0.2753" style="stop-color:#E4E6D4"/>
		<stop  offset="0.569" style="stop-color:#DEE0CF"/>
		<stop  offset="0.7389" style="stop-color:#D0D4C2"/>
		<stop  offset="0.8767" style="stop-color:#BCC2AE"/>
		<stop  offset="0.9973" style="stop-color:#A1AA94"/>
		<stop  offset="1" style="stop-color:#A0A994"/>
	</radialGradient>
	<path style="fill:url(#SVGID_4_);" d="M38.449,25.754c-18.487,0-33.474,14.987-33.474,33.474c0,18.487,14.987,33.474,33.474,33.474
		s33.474-14.987,33.474-33.474C71.924,40.741,56.937,25.754,38.449,25.754z M35.887,59.111C9.201,83.557,1.984,62.254,9.469,46.076
		c4.084-8.826,15.035-18.833,28.98-19.053c16.909-0.268,27.623,13.684,30.153,23.074C74.194,70.842,46.171,49.69,35.887,59.111z"/>
</g>
<path style="fill:#CDCFC0;" d="M17.115,46.11c3.852,3.008,15.14,11.823,15.14,11.823s2.989,1.78,5.44,3.24l0.405-0.476
	c-2.135-1.83-4.739-4.061-4.739-4.061S21.312,48.714,17.2,46.01L17.115,46.11z"/>
<path style="fill:#CDCFC0;" d="M55.373,51.109c-3.048,1.452-11.981,5.708-11.981,5.708s-1.749,1.574-3.182,2.865l0.561,0.793
	c1.87-0.674,4.151-1.496,4.151-1.496s7.881-5.743,10.57-7.702L55.373,51.109z"/>
<g>
	<path d="M43.154,16.99c-0.305-0.054-0.598,0.152-0.652,0.457l-0.611,3.475c-0.054,0.305-0.351,0.545-0.66,0.534l-1.464-0.054
		c-0.309-0.011-0.572,0.233-0.583,0.542l-0.007,0.199c-0.011,0.309,0.233,0.572,0.542,0.583l1.28,0.047
		c0.309,0.011,0.519,0.27,0.465,0.575l-0.005,0.028c-0.054,0.305,0.152,0.598,0.457,0.652l0.196,0.034
		c0.305,0.054,0.598-0.152,0.652-0.457l1.043-5.929c0.054-0.305-0.152-0.598-0.457-0.652L43.154,16.99z"/>
</g>
<linearGradient id="SVGID_5_" gradientUnits="userSpaceOnUse" x1="37.0613" y1="19.1348" x2="38.3863" y2="19.1348" gradientTransform="matrix(1 0 0 1 0 2)">
	<stop  offset="0.1517" style="stop-color:#517382"/>
	<stop  offset="0.9551" style="stop-color:#000000"/>
</linearGradient>
<rect x="37.061" y="18.484" style="fill:url(#SVGID_5_);" width="1.325" height="5.301"/>
<radialGradient id="SVGID_6_" cx="64.4444" cy="9.5521" r="2.0724" gradientTransform="matrix(1 0 0 1 0 2)" gradientUnits="userSpaceOnUse">
	<stop  offset="0" style="stop-color:#FFFFFF"/>
	<stop  offset="0.3652" style="stop-color:#9CA3A1"/>
	<stop  offset="0.4608" style="stop-color:#888A89"/>
	<stop  offset="0.6617" style="stop-color:#585454"/>
	<stop  offset="0.8708" style="stop-color:#000000"/>
</radialGradient>
<path style="fill:url(#SVGID_6_);" d="M63.01,12.416c0,0.913,0.74,1.652,1.652,1.652c0.913,0,1.652-0.74,1.652-1.652
	s-0.74-1.652-1.652-1.652C63.75,10.763,63.01,11.503,63.01,12.416z"/>
<linearGradient id="SVGID_7_" gradientUnits="userSpaceOnUse" x1="61.8923" y1="11.9964" x2="64.8867" y2="13.6562" gradientTransform="matrix(1 0 0 1 0 2)">
	<stop  offset="0" style="stop-color:#000000"/>
	<stop  offset="0.0899" style="stop-color:#65766A"/>
	<stop  offset="0.264" style="stop-color:#FFFFFF"/>
	<stop  offset="0.5112" style="stop-color:#9CA3A1"/>
	<stop  offset="0.7865" style="stop-color:#000000"/>
</linearGradient>
<polygon style="fill:url(#SVGID_7_);" points="61.174,15.387 64.153,16.98 65.605,14.266 62.626,12.672 "/>
<radialGradient id="SVGID_8_" cx="11.4398" cy="9.7469" r="2.9346" gradientTransform="matrix(1 0 0 1 0 2)" gradientUnits="userSpaceOnUse">
	<stop  offset="0" style="stop-color:#FFFFFF"/>
	<stop  offset="0.2978" style="stop-color:#9CA3A1"/>
	<stop  offset="0.3891" style="stop-color:#888A89"/>
	<stop  offset="0.5811" style="stop-color:#585454"/>
	<stop  offset="0.7809" style="stop-color:#000000"/>
</radialGradient>
<path style="fill:url(#SVGID_8_);" d="M14.134,12.416c0,0.913-0.74,1.652-1.652,1.652s-1.652-0.74-1.652-1.652
	s0.74-1.652,1.652-1.652S14.134,11.503,14.134,12.416z"/>
<linearGradient id="SVGID_9_" gradientUnits="userSpaceOnUse" x1="12.2602" y1="13.6211" x2="15.2496" y2="12.0316" gradientTransform="matrix(1 0 0 1 0 2)">
	<stop  offset="0" style="stop-color:#000000"/>
	<stop  offset="0.0899" style="stop-color:#65766A"/>
	<stop  offset="0.264" style="stop-color:#FFFFFF"/>
	<stop  offset="0.5112" style="stop-color:#9CA3A1"/>
	<stop  offset="0.7865" style="stop-color:#000000"/>
</linearGradient>
<polygon style="fill:url(#SVGID_9_);" points="15.97,15.387 12.991,16.98 11.54,14.266 14.518,12.672 "/>
<g>
	
		<radialGradient id="SVGID_10_" cx="73.8155" cy="-157.3052" r="19.6275" gradientTransform="matrix(1.0282 0 0 0.8705 -54.8901 141.2309)" gradientUnits="userSpaceOnUse">
		<stop  offset="0" style="stop-color:#9CA3A1"/>
		<stop  offset="0.1465" style="stop-color:#7C7C7B"/>
		<stop  offset="0.3547" style="stop-color:#555051"/>
		<stop  offset="0.5383" style="stop-color:#362F30"/>
		<stop  offset="0.6886" style="stop-color:#151111"/>
		<stop  offset="0.7865" style="stop-color:#000000"/>
	</radialGradient>
	<path style="fill:url(#SVGID_10_);" d="M68.09,18.663c0.329-0.701-0.409-1.065-0.581-1.128c-0.712-0.26-1.435-0.513-2.141-0.76
		c-2.424-0.847-4.527-1.786-5.377-2.506c-1.171-0.991-1.122-3.099-1.11-4.477c0.01-1.117,0.02-2.272-0.541-3.338
		c-2.053-3.9-8.612-5.877-19.495-5.877c-10.883,0-17.442,1.977-19.495,5.877c-0.561,1.066-0.551,2.221-0.541,3.338
		c0.012,1.378,0.062,3.486-1.109,4.477c-0.851,0.72-2.953,1.659-5.378,2.506c-0.705,0.246-1.425,0.498-2.136,0.758
		c-0.184,0.067-0.747,0.51-0.505,1.09c0.312,0.749,1.118,0.638,1.304,0.57c0.677-0.247,1.369-0.489,2.046-0.725
		c3.166-1.107,5.901-2.062,7.092-3.413c1.576-1.787,1.559-3.725,1.545-5.281c-0.008-0.938-0.015-1.748,0.293-2.334
		c1.508-2.865,7.504-4.442,16.884-4.442c9.38,0,15.376,1.577,16.884,4.442c0.309,0.587,0.302,1.397,0.293,2.334
		c-0.014,1.556-0.031,3.494,1.545,5.281c1.191,1.351,3.926,2.307,7.092,3.413c0.648,0.227,1.31,0.458,1.959,0.694
		C66.832,19.239,67.703,19.489,68.09,18.663z"/>
	
		<radialGradient id="SVGID_11_" cx="65.2692" cy="-127.4103" r="19.5133" gradientTransform="matrix(1.0235 0 0 0.892 -45.6966 117.9947)" gradientUnits="userSpaceOnUse">
		<stop  offset="0" style="stop-color:#ABB1AF"/>
		<stop  offset="0.0591" style="stop-color:#9FA2A0"/>
		<stop  offset="0.2959" style="stop-color:#767373"/>
		<stop  offset="0.5046" style="stop-color:#5B5455"/>
		<stop  offset="0.6752" style="stop-color:#494142"/>
		<stop  offset="0.7865" style="stop-color:#423A3B"/>
	</radialGradient>
	<path style="fill:url(#SVGID_11_);" d="M19.488,6.494c-0.547,1.04-0.537,2.172-0.528,3.284c0,0.027,0.001,0.071,0.001,0.099
		c0.013,1.365,0.033,3.373-1.078,4.389c-0.147,0.135-0.33,0.274-0.544,0.414c-1.03,0.679-2.858,1.459-4.79,2.14
		c-0.349,0.123-0.697,0.246-1.038,0.366c-0.304,0.107-0.791,0.281-1.094,0.392c-0.128,0.047-0.638,0.369-0.631,0.738
		c-0.005,0.05-0.009,0.107,0.008,0.163c0.012,0.041,0.026,0.073,0.039,0.104c0.009,0.018,0.021,0.034,0.032,0.05
		c0.325,0.552,1.249,0.362,1.4,0.307c0.677-0.245,1.364-0.485,2.032-0.72c2.034-0.716,3.859-1.371,5.138-2.128
		c0.757-0.448,1.344-0.93,1.743-1.448c0.689-0.897,1.017-1.818,1.178-2.709c0.168-0.939,0.168-1.83,0.219-2.615
		c0.057-0.885,0.128-1.653,0.492-2.228c1.726-2.729,7.63-4.236,16.777-4.236c9.241,0,15.187,1.529,16.866,4.313
		c0.249,0.414,0.348,0.927,0.402,1.511c0.022,0.241,0.035,0.493,0.042,0.757c0.018,0.619,0.011,1.301,0.092,2.017
		c0.119,1.066,0.431,2.197,1.297,3.284c0.308,0.386,0.723,0.75,1.239,1.092c1.327,0.881,3.391,1.614,5.714,2.429
		c0.447,0.157,0.902,0.316,1.357,0.477c0.01,0.004,0.027,0.01,0.037,0.013c0.156,0.055,0.401,0.143,0.555,0.199
		c0.163,0.059,1.025,0.322,1.375-0.188c0.041-0.039,0.083-0.086,0.114-0.14c0.017-0.034,0.034-0.071,0.048-0.11
		c0.007-0.019,0.011-0.035,0.015-0.05c0.008-0.047,0.005-0.094,0-0.136c0.01-0.42-0.524-0.67-0.726-0.743
		c-0.393-0.143-0.788-0.284-1.095-0.392c-0.342-0.12-0.69-0.243-1.039-0.366c-1.956-0.69-3.803-1.479-4.828-2.164
		c-0.196-0.13-0.365-0.259-0.502-0.385c-1.138-1.035-1.094-3.11-1.082-4.477c0-0.031,0.001-0.079,0.001-0.11
		c0.009-1.082,0.003-2.181-0.529-3.191c-2.026-3.849-8.538-5.8-19.355-5.8C28.026,0.694,21.514,2.645,19.488,6.494z"/>
	
		<radialGradient id="SVGID_12_" cx="56.7011" cy="-98.9458" r="19.4145" gradientTransform="matrix(1.0188 0 0 0.9136 -36.5708 94.7998)" gradientUnits="userSpaceOnUse">
		<stop  offset="0" style="stop-color:#BAC0BE"/>
		<stop  offset="0.214" style="stop-color:#989797"/>
		<stop  offset="0.4567" style="stop-color:#7B7677"/>
		<stop  offset="0.6563" style="stop-color:#6A6365"/>
		<stop  offset="0.7865" style="stop-color:#645C5E"/>
	</radialGradient>
	<path style="fill:url(#SVGID_12_);" d="M19.625,6.533c-0.534,1.014-0.524,2.124-0.515,3.23c0,0.021,0.001,0.077,0.001,0.099
		c0.013,1.352,0.03,3.333-1.045,4.398c-0.145,0.144-0.322,0.288-0.528,0.431c-1.022,0.707-2.896,1.508-4.762,2.173
		c-0.354,0.127-0.702,0.25-1.036,0.367c-0.244,0.086-0.85,0.302-1.093,0.39c-0.102,0.037-0.704,0.364-0.699,0.659
		c-0.01,0.046-0.026,0.104-0.008,0.159c0.015,0.047,0.032,0.077,0.043,0.102c0.01,0.015,0.025,0.028,0.038,0.04
		c0.32,0.42,1.401,0.147,1.523,0.102c0.677-0.245,1.359-0.482,2.019-0.715c2.061-0.731,3.877-1.403,5.058-2.195
		c0.718-0.482,1.25-1.001,1.611-1.545c0.607-0.917,0.871-1.849,0.998-2.743c0.132-0.956,0.138-1.845,0.25-2.622
		c0.119-0.831,0.269-1.558,0.69-2.122c1.937-2.596,7.756-4.03,16.669-4.03c9.102,0,15.002,1.478,16.849,4.184
		c0.278,0.408,0.418,0.901,0.51,1.455c0.039,0.237,0.068,0.485,0.084,0.746c0.041,0.611,0.034,1.288,0.097,2.006
		c0.093,1.07,0.343,2.211,1.135,3.316c0.287,0.401,0.674,0.785,1.167,1.147c1.236,0.909,3.297,1.655,5.648,2.482
		c0.443,0.156,0.896,0.314,1.35,0.475c0.008,0.003,0.029,0.01,0.038,0.013c0.124,0.045,0.428,0.153,0.552,0.197
		c0.131,0.047,1.099,0.357,1.379-0.052c0.046-0.026,0.097-0.061,0.129-0.106c0.017-0.03,0.034-0.065,0.052-0.109
		c0.008-0.02,0.012-0.036,0.016-0.05c0.002-0.042-0.011-0.088-0.023-0.125c-0.005-0.341-0.529-0.575-0.789-0.668
		c-0.421-0.152-0.846-0.303-1.092-0.39c-0.334-0.118-0.681-0.24-1.035-0.367c-1.885-0.672-3.775-1.481-4.793-2.192
		c-0.189-0.132-0.353-0.265-0.488-0.398c-1.103-1.08-1.067-3.12-1.055-4.477c0-0.025,0.001-0.084,0.001-0.109
		c0.009-1.082,0.007-2.165-0.515-3.156C56.056,2.736,49.591,0.81,38.84,0.81C28.089,0.81,21.624,2.735,19.625,6.533z"/>
	
		<radialGradient id="SVGID_13_" cx="48.0524" cy="-71.7861" r="19.3261" gradientTransform="matrix(1.0141 0 0 0.9352 -27.445 71.5982)" gradientUnits="userSpaceOnUse">
		<stop  offset="0" style="stop-color:#CACFCD"/>
		<stop  offset="0.0858" style="stop-color:#BEC0BF"/>
		<stop  offset="0.383" style="stop-color:#9E9A9B"/>
		<stop  offset="0.6272" style="stop-color:#8B8587"/>
		<stop  offset="0.7865" style="stop-color:#857E80"/>
	</radialGradient>
	<path style="fill:url(#SVGID_13_);" d="M19.762,6.572c-0.52,0.988-0.511,2.076-0.501,3.176c0,0.016,0.001,0.083,0.001,0.1
		c0.013,1.34,0.029,3.295-1.012,4.408c-0.143,0.152-0.314,0.302-0.513,0.447c-1.013,0.736-2.935,1.557-4.734,2.206
		c-0.359,0.13-0.707,0.254-1.033,0.368c-0.183,0.065-0.909,0.323-1.091,0.389c-0.077,0.028-0.77,0.359-0.766,0.58
		c-0.016,0.041-0.043,0.1-0.024,0.154c0.018,0.053,0.038,0.081,0.047,0.101c0.01,0.012,0.029,0.022,0.044,0.031
		c0.316,0.288,1.554-0.069,1.645-0.102c0.677-0.244,1.354-0.478,2.005-0.71c2.089-0.746,3.893-1.436,4.979-2.262
		c0.679-0.517,1.157-1.071,1.479-1.641c0.527-0.935,0.727-1.878,0.819-2.778c0.099-0.974,0.105-1.86,0.28-2.63
		c0.176-0.777,0.409-1.464,0.888-2.016c2.141-2.466,7.882-3.824,16.562-3.824c8.963,0,14.82,1.427,16.831,4.055
		c0.308,0.402,0.489,0.875,0.618,1.4c0.057,0.233,0.1,0.477,0.126,0.734c0.064,0.604,0.058,1.275,0.103,1.994
		c0.068,1.074,0.255,2.226,0.974,3.347c0.266,0.415,0.625,0.82,1.094,1.202c1.146,0.935,3.203,1.696,5.582,2.535
		c0.44,0.155,0.89,0.312,1.343,0.472c0.006,0.002,0.031,0.011,0.038,0.013c0.093,0.033,0.456,0.162,0.549,0.196
		c0.098,0.036,1.173,0.391,1.383,0.085c0.051-0.014,0.11-0.037,0.144-0.071c0.016-0.026,0.035-0.06,0.055-0.107
		c0.009-0.022,0.013-0.037,0.016-0.049c-0.003-0.038-0.027-0.082-0.046-0.114c-0.02-0.261-0.534-0.48-0.852-0.593
		c-0.449-0.161-0.902-0.323-1.089-0.388c-0.326-0.114-0.673-0.238-1.032-0.367c-1.814-0.654-3.749-1.48-4.759-2.221
		c-0.182-0.134-0.341-0.272-0.475-0.412c-1.071-1.124-1.04-3.13-1.027-4.477c0-0.018,0.001-0.089,0.001-0.107
		c0.01-1.082,0.01-2.149-0.502-3.121c-1.972-3.747-8.39-5.646-19.075-5.646C28.153,0.926,21.735,2.825,19.762,6.572z"/>
	
		<radialGradient id="SVGID_14_" cx="39.323" cy="-45.8488" r="19.2457" gradientTransform="matrix(1.0094 0 0 0.9568 -18.3193 48.3966)" gradientUnits="userSpaceOnUse">
		<stop  offset="0" style="stop-color:#DADDDC"/>
		<stop  offset="0.2509" style="stop-color:#C4C2C3"/>
		<stop  offset="0.5747" style="stop-color:#B0ABAC"/>
		<stop  offset="0.7865" style="stop-color:#A8A3A4"/>
	</radialGradient>
	<path style="fill:url(#SVGID_14_);" d="M19.9,6.611c-0.507,0.963-0.498,2.028-0.488,3.123c0,0.011,0.001,0.089,0.001,0.1
		c0.013,1.327,0.029,3.258-0.979,4.418c-0.14,0.161-0.306,0.316-0.497,0.463c-1.003,0.767-2.973,1.606-4.707,2.239
		c-0.364,0.134-0.713,0.257-1.031,0.369c-0.122,0.043-0.969,0.344-1.09,0.388c-0.051,0.019-0.836,0.354-0.833,0.501
		c-0.022,0.037-0.059,0.097-0.039,0.15c0.022,0.059,0.043,0.085,0.051,0.099c0.011,0.009,0.033,0.016,0.05,0.021
		c0.312,0.156,1.707-0.284,1.768-0.306c0.678-0.243,1.349-0.475,1.991-0.705c2.116-0.761,3.909-1.472,4.899-2.329
		c0.639-0.553,1.065-1.141,1.346-1.738c0.448-0.951,0.58-1.909,0.64-2.813c0.062-0.992,0.069-1.876,0.311-2.638
		c0.23-0.724,0.548-1.372,1.087-1.91c2.341-2.341,8.008-3.618,16.455-3.618c8.824,0,14.639,1.373,16.814,3.926
		c0.337,0.396,0.562,0.849,0.727,1.345c0.076,0.229,0.132,0.469,0.169,0.722c0.087,0.597,0.081,1.262,0.109,1.983
		c0.042,1.078,0.165,2.242,0.812,3.379c0.245,0.43,0.576,0.854,1.021,1.257c1.057,0.959,3.109,1.737,5.516,2.588
		c0.437,0.154,0.884,0.311,1.336,0.47c0.004,0.002,0.033,0.012,0.037,0.013c0.062,0.022,0.484,0.172,0.545,0.194
		c0.065,0.024,1.247,0.425,1.387,0.221c0.056-0.001,0.124-0.013,0.159-0.037c0.015-0.021,0.037-0.054,0.059-0.106
		c0.01-0.023,0.014-0.038,0.016-0.049c-0.008-0.033-0.042-0.076-0.069-0.104c-0.035-0.182-0.539-0.385-0.914-0.519
		c-0.477-0.171-0.959-0.342-1.086-0.387c-0.317-0.111-0.665-0.235-1.028-0.368c-1.743-0.636-3.724-1.479-4.725-2.249
		c-0.176-0.135-0.33-0.278-0.461-0.425c-1.038-1.167-1.012-3.141-1-4.477c0-0.012,0.001-0.094,0.001-0.106
		c0.01-1.082,0.013-2.134-0.488-3.086c-1.945-3.696-8.316-5.569-18.935-5.569S21.845,2.915,19.9,6.611z"/>
	
		<radialGradient id="SVGID_15_" cx="30.4504" cy="-21.0582" r="19.1729" gradientTransform="matrix(1.0047 0 0 0.9784 -9.1258 25.2017)" gradientUnits="userSpaceOnUse">
		<stop  offset="0" style="stop-color:#EAECEB"/>
		<stop  offset="0.4417" style="stop-color:#D7D5D5"/>
		<stop  offset="0.7865" style="stop-color:#CFCCCC"/>
	</radialGradient>
	<path style="fill:url(#SVGID_15_);" d="M20.037,6.65c-0.493,0.937-0.484,1.98-0.475,3.069c0,0.005,0.001,0.095,0.001,0.101
		c0.012,1.314,0.031,3.222-0.946,4.427c-0.137,0.17-0.297,0.331-0.482,0.479c-0.99,0.8-3.011,1.655-4.679,2.271
		c-0.369,0.137-0.718,0.261-1.029,0.37c-0.061,0.021-1.028,0.365-1.089,0.387c-0.026,0.009-0.901,0.348-0.9,0.422
		c-0.027,0.033-0.076,0.093-0.055,0.145c0.026,0.065,0.049,0.089,0.055,0.098c0.011,0.007,0.036,0.01,0.055,0.012
		c0.307,0.024,1.86-0.499,1.891-0.51c0.678-0.242,1.344-0.471,1.978-0.701c2.143-0.775,3.922-1.509,4.82-2.397
		c0.597-0.59,0.974-1.21,1.214-1.834c0.372-0.967,0.434-1.939,0.46-2.847c0.026-1.01,0.028-1.894,0.342-2.646
		c0.28-0.673,0.686-1.28,1.285-1.804c2.537-2.221,8.134-3.412,16.348-3.412c8.686,0,14.464,1.315,16.796,3.798
		c0.368,0.389,0.637,0.822,0.836,1.29c0.096,0.225,0.164,0.461,0.211,0.71c0.11,0.589,0.104,1.249,0.115,1.971
		c0.016,1.082,0.073,2.258,0.65,3.411c0.223,0.446,0.529,0.887,0.948,1.311c0.97,0.982,3.015,1.778,5.449,2.641
		c0.433,0.153,0.878,0.309,1.33,0.467c0.002,0.001,0.035,0.012,0.037,0.013c0.031,0.011,0.511,0.181,0.542,0.192
		c0.033,0.012,1.321,0.46,1.391,0.357c0.061,0.012,0.138,0.012,0.173-0.003c0.014-0.017,0.037-0.049,0.063-0.105
		c0.011-0.025,0.015-0.039,0.017-0.048c-0.014-0.029-0.058-0.069-0.093-0.092c-0.05-0.102-0.545-0.29-0.977-0.444
		c-0.506-0.18-1.016-0.361-1.083-0.385c-0.31-0.108-0.657-0.232-1.024-0.369c-1.673-0.618-3.7-1.476-4.691-2.278
		c-0.17-0.136-0.318-0.284-0.448-0.439c-1.008-1.208-0.985-3.151-0.973-4.477c0-0.006,0.001-0.099,0.001-0.105
		c0.005-1.082,0.016-2.118-0.475-3.051c-1.918-3.645-8.242-5.493-18.795-5.493C28.279,1.158,21.956,3.006,20.037,6.65z"/>
	<path style="fill:#FFFFFF;" d="M67.122,18.165c-0.135-0.048-2.107-0.748-2.12-0.752c-1.601-0.559-4.467-1.651-5.677-2.675
		c-1.414-1.197-1.393-3.443-1.379-4.93c0,0,0.001-0.103,0.001-0.104c0.01-1.082,0.019-2.103-0.461-3.015
		c-1.891-3.594-8.168-5.416-18.655-5.416c-10.487,0-16.764,1.822-18.656,5.416c-0.479,0.911-0.471,1.932-0.461,3.015l0.001,0.101
		c0.014,1.487,0.035,3.734-1.38,4.932c-1.21,1.024-4.076,2.116-5.677,2.675l-2.054,0.729c-0.033,0.028-0.092,0.089-0.071,0.141
		c0.029,0.071,0.055,0.093,0.058,0.096c0.012,0.004,0.04,0.004,0.061,0.002c0.303-0.108,2.013-0.714,2.014-0.714
		c3.04-1.062,5.665-1.98,6.705-3.159c1.391-1.577,1.376-3.294,1.363-4.812c-0.009-1.027-0.016-1.914,0.373-2.654
		c1.689-3.208,7.818-4.903,17.723-4.903c9.906,0,16.035,1.695,17.723,4.903c0.39,0.741,0.382,1.629,0.373,2.658
		c-0.013,1.515-0.028,3.232,1.363,4.809c1.04,1.179,3.665,2.097,6.706,3.159l0.037,0.013l1.934,0.685
		c0.066,0.024,0.152,0.036,0.188,0.032c0.013-0.013,0.038-0.044,0.066-0.103c0.012-0.026,0.016-0.039,0.017-0.047
		C67.219,18.223,67.164,18.184,67.122,18.165z"/>
</g>
<g>
	<path d="M66.891,97.416c0,0,0.025,0.453-0.909,0.909c-0.933,0.456-1.251,0.303-1.251,0.303l0.391-1.562L66.891,97.416z"/>
	
		<linearGradient id="SVGID_16_" gradientUnits="userSpaceOnUse" x1="4048.8467" y1="88.629" x2="4056.6987" y2="93.6956" gradientTransform="matrix(-1 0 0 1 4114.5039 2)">
		<stop  offset="0" style="stop-color:#65766A"/>
		<stop  offset="0.2809" style="stop-color:#9CA3A1"/>
		<stop  offset="1" style="stop-color:#000000"/>
	</linearGradient>
	<path style="fill:url(#SVGID_16_);" d="M66.891,97.416c-1.403-3.746-2.864-7.644-2.864-7.644s-2.062-1.716-3.754-3.123
		l-1.675,0.952c0.389,2.148,0.863,4.767,0.863,4.767s2.685,3.19,5.27,6.259L66.891,97.416z"/>
	<g>
		
			<linearGradient id="SVGID_17_" gradientUnits="userSpaceOnUse" x1="4048.7234" y1="91.5759" x2="4053.2808" y2="93.605" gradientTransform="matrix(-1 0 0 1 4114.5039 2)">
			<stop  offset="0" style="stop-color:#65766A"/>
			<stop  offset="0.264" style="stop-color:#FFFFFF"/>
			<stop  offset="0.5112" style="stop-color:#9CA3A1"/>
			<stop  offset="0.7865" style="stop-color:#000000"/>
		</linearGradient>
		<path style="fill:url(#SVGID_17_);" d="M66.891,97.416l-2.16,1.212c-2.584-3.07-5.27-6.259-5.27-6.259l4.566-2.597
			C64.027,89.772,65.488,93.669,66.891,97.416z"/>
		
			<linearGradient id="SVGID_18_" gradientUnits="userSpaceOnUse" x1="4052.2712" y1="85.7804" x2="4055.6248" y2="89.0828" gradientTransform="matrix(-1 0 0 1 4114.5039 2)">
			<stop  offset="0" style="stop-color:#65766A"/>
			<stop  offset="0.309" style="stop-color:#FFFFFF"/>
			<stop  offset="0.5112" style="stop-color:#9CA3A1"/>
			<stop  offset="0.7865" style="stop-color:#000000"/>
		</linearGradient>
		<path style="fill:url(#SVGID_18_);" d="M60.273,86.649c1.692,1.408,3.754,3.123,3.754,3.123l-4.566,2.597
			c0,0-0.474-2.619-0.863-4.767L60.273,86.649z"/>
	</g>
	
		<linearGradient id="SVGID_19_" gradientUnits="userSpaceOnUse" x1="4050.2964" y1="87.6978" x2="4055.1865" y2="90.6523" gradientTransform="matrix(-1 0 0 1 4114.5039 2)">
		<stop  offset="0.0112" style="stop-color:#000000"/>
		<stop  offset="0.118" style="stop-color:#ADB9B1"/>
		<stop  offset="0.2528" style="stop-color:#FFFFFF"/>
		<stop  offset="0.2865" style="stop-color:#F3F4F4"/>
		<stop  offset="0.3402" style="stop-color:#DDE0DE"/>
		<stop  offset="0.4068" style="stop-color:#BBC0BE"/>
		<stop  offset="0.4607" style="stop-color:#9CA3A1"/>
		<stop  offset="0.6461" style="stop-color:#000000"/>
	</linearGradient>
	<path style="fill:url(#SVGID_19_);" d="M64.027,89.772c0,0-0.878,0.338-2.043,1.005c-1.165,0.668-2.523,1.592-2.523,1.592
		s1.539-0.381,3.168-1.456C64.258,89.838,64.027,89.772,64.027,89.772"/>
</g>
<path d="M10.253,97.416c0,0-0.025,0.453,0.909,0.909c0.933,0.456,1.251,0.303,1.251,0.303l-0.391-1.562L10.253,97.416z"/>
<linearGradient id="SVGID_20_" gradientUnits="userSpaceOnUse" x1="11.487" y1="88.629" x2="19.339" y2="93.6957" gradientTransform="matrix(1 0 0 1 0 2)">
	<stop  offset="0" style="stop-color:#65766A"/>
	<stop  offset="0.2809" style="stop-color:#9CA3A1"/>
	<stop  offset="1" style="stop-color:#000000"/>
</linearGradient>
<path style="fill:url(#SVGID_20_);" d="M10.253,97.416c1.403-3.746,2.864-7.644,2.864-7.644s2.062-1.716,3.754-3.123l1.675,0.952
	c-0.389,2.148-0.863,4.767-0.863,4.767s-2.685,3.19-5.27,6.259L10.253,97.416z"/>
<g>
	
		<linearGradient id="SVGID_21_" gradientUnits="userSpaceOnUse" x1="11.3637" y1="91.5758" x2="15.9211" y2="93.6049" gradientTransform="matrix(1 0 0 1 0 2)">
		<stop  offset="0" style="stop-color:#65766A"/>
		<stop  offset="0.264" style="stop-color:#FFFFFF"/>
		<stop  offset="0.5112" style="stop-color:#9CA3A1"/>
		<stop  offset="0.7865" style="stop-color:#000000"/>
	</linearGradient>
	<path style="fill:url(#SVGID_21_);" d="M10.253,97.416l2.16,1.212c2.584-3.07,5.27-6.259,5.27-6.259l-4.566-2.597
		C13.117,89.772,11.656,93.669,10.253,97.416z"/>
	
		<linearGradient id="SVGID_22_" gradientUnits="userSpaceOnUse" x1="14.9112" y1="85.7805" x2="18.265" y2="89.0829" gradientTransform="matrix(1 0 0 1 0 2)">
		<stop  offset="0" style="stop-color:#65766A"/>
		<stop  offset="0.309" style="stop-color:#FFFFFF"/>
		<stop  offset="0.5112" style="stop-color:#9CA3A1"/>
		<stop  offset="0.7865" style="stop-color:#000000"/>
	</linearGradient>
	<path style="fill:url(#SVGID_22_);" d="M16.871,86.649c-1.692,1.408-3.754,3.123-3.754,3.123l4.566,2.597
		c0,0,0.474-2.619,0.863-4.767L16.871,86.649z"/>
</g>
<radialGradient id="SVGID_23_" cx="58.4326" cy="21.6388" r="12.4097" gradientTransform="matrix(1 0 0 1 0 2)" gradientUnits="userSpaceOnUse">
	<stop  offset="0.1348" style="stop-color:#DFE0E5"/>
	<stop  offset="0.1422" style="stop-color:#DCDEE2"/>
	<stop  offset="0.39" style="stop-color:#A2A4A8"/>
	<stop  offset="0.6081" style="stop-color:#747578"/>
	<stop  offset="0.7885" style="stop-color:#4E4F51"/>
	<stop  offset="0.9243" style="stop-color:#262526"/>
	<stop  offset="1" style="stop-color:#000000"/>
</radialGradient>
<path style="fill:url(#SVGID_23_);" d="M70.998,33.94c0.11-0.167,0.217-0.339,0.319-0.513c3.792-6.455-1.038-11.969-8.439-16.317
	c-7.401-4.348-14.569-5.883-18.361,0.572c-0.102,0.174-0.2,0.351-0.293,0.528L70.998,33.94z"/>
<radialGradient id="SVGID_24_" cx="49.4702" cy="11.8202" r="7.4236" gradientTransform="matrix(1 0 0 1 0 2)" gradientUnits="userSpaceOnUse">
	<stop  offset="0.1348" style="stop-color:#DFE0E5"/>
	<stop  offset="0.1422" style="stop-color:#DCDEE2"/>
	<stop  offset="0.39" style="stop-color:#A2A4A8"/>
	<stop  offset="0.6081" style="stop-color:#747578"/>
	<stop  offset="0.7885" style="stop-color:#4E4F51"/>
	<stop  offset="0.9243" style="stop-color:#262526"/>
	<stop  offset="1" style="stop-color:#000000"/>
</radialGradient>
<path style="fill:url(#SVGID_24_);" d="M70.896,34.204c0.11-0.167,0.217-0.339,0.319-0.513c3.792-6.455-1.038-11.969-8.439-16.317
	c-7.401-4.348-14.569-5.883-18.361,0.572c-0.102,0.174-0.2,0.351-0.293,0.528L70.896,34.204z"/>
<radialGradient id="SVGID_25_" cx="38.5721" cy="57.3293" r="37.4279" gradientTransform="matrix(1 0 0 1 0 2)" gradientUnits="userSpaceOnUse">
	<stop  offset="0.8876" style="stop-color:#000000"/>
	<stop  offset="0.9326" style="stop-color:#517382"/>
	<stop  offset="1" style="stop-color:#000000"/>
</radialGradient>
<path style="fill:url(#SVGID_25_);" d="M76,59.329C76,80,59.243,96.757,38.572,96.757C17.901,96.757,1.144,80,1.144,59.329
	c0-20.671,16.757-37.428,37.428-37.428C59.243,21.901,76,38.658,76,59.329z M38.572,25.855c-18.487,0-33.474,14.987-33.474,33.474
	c0,18.487,14.987,33.474,33.474,33.474s33.474-14.987,33.474-33.474C72.046,40.842,57.06,25.855,38.572,25.855z"/>
<radialGradient id="SVGID_26_" cx="38.5721" cy="57.3291" r="30.0841" gradientTransform="matrix(1 0 0 1 0 2)" gradientUnits="userSpaceOnUse">
	<stop  offset="0.8258" style="stop-color:#5A4037"/>
	<stop  offset="1" style="stop-color:#000000"/>
</radialGradient>
<path style="fill:url(#SVGID_26_);" d="M59.845,38.056c-5.682-5.682-13.237-8.811-21.273-8.811c-8.036,0-15.59,3.129-21.273,8.811
	c-5.682,5.682-8.811,13.237-8.811,21.273c0,16.589,13.496,30.084,30.084,30.084s30.084-13.496,30.084-30.084
	C68.656,51.293,65.527,43.739,59.845,38.056z M68.189,56.146l-2.037,0.214c-0.097-0.92-0.24-1.831-0.428-2.732l2.005-0.426
	C67.93,54.171,68.085,55.153,68.189,56.146z M66.171,59.329c0,3.726-0.73,7.34-2.169,10.743c-1.39,3.287-3.38,6.238-5.915,8.773
	c-2.535,2.535-5.486,4.525-8.772,5.914c-3.402,1.439-7.017,2.169-10.743,2.169c-3.726,0-7.34-0.73-10.743-2.169
	c-3.286-1.39-6.238-3.38-8.773-5.914c-2.535-2.535-4.525-5.486-5.915-8.773c-1.439-3.402-2.169-7.017-2.169-10.743
	s0.73-7.34,2.169-10.743c1.39-3.286,3.38-6.238,5.915-8.772c2.535-2.535,5.486-4.525,8.773-5.915
	c3.402-1.439,7.017-2.169,10.743-2.169c3.726,0,7.34,0.73,10.743,2.169c3.287,1.39,6.238,3.38,8.772,5.915
	c2.535,2.535,4.525,5.486,5.915,8.772C65.442,51.989,66.171,55.603,66.171,59.329z M67.701,53.067l-2.006,0.426
	c-0.193-0.901-0.431-1.792-0.715-2.671l1.954-0.635C67.237,51.131,67.493,52.092,67.701,53.067z M66.892,50.054l-1.955,0.635
	c-0.239-0.727-0.506-1.447-0.807-2.157c-0.06-0.142-0.123-0.283-0.186-0.424l1.881-0.837C66.228,48.18,66.583,49.109,66.892,50.054z
	 M64.017,43.826l-1.184,1.496l1.89-0.278c0.377,0.687,0.726,1.387,1.045,2.1l-1.879,0.836c-0.778-1.734-1.726-3.372-2.834-4.901
	l1.659-1.205C63.175,42.51,63.61,43.161,64.017,43.826z M62.633,41.762l-1.659,1.205c-0.543-0.742-1.124-1.458-1.742-2.147
	l1.523-1.371C61.422,40.194,62.048,40.965,62.633,41.762z M59.634,38.267c0.352,0.353,0.695,0.712,1.027,1.079l-1.523,1.371
	c-0.309-0.341-0.626-0.674-0.953-1.001c-0.327-0.327-0.661-0.645-1.002-0.953l1.371-1.522
	C58.922,37.572,59.282,37.915,59.634,38.267z M58.451,37.148L57.08,38.67c-0.689-0.618-1.405-1.199-2.146-1.742l1.206-1.659
	C56.936,35.853,57.708,36.48,58.451,37.148z M52.857,33.178l-0.278,1.89l1.496-1.184c0.666,0.407,1.316,0.842,1.951,1.303
	l-1.205,1.659c-1.529-1.108-3.167-2.056-4.901-2.834l0.837-1.879C51.47,32.453,52.17,32.802,52.857,33.178z M50.63,32.075
	l-0.838,1.881c-0.141-0.062-0.281-0.125-0.423-0.185c-0.71-0.3-1.43-0.568-2.158-0.807l0.636-1.955
	C48.793,31.318,49.722,31.673,50.63,32.075z M47.714,30.967l-0.635,1.955c-0.879-0.283-1.77-0.522-2.671-0.715l0.427-2.006
	C45.809,30.408,46.77,30.664,47.714,30.967z M44.699,30.172l-0.426,2.006c-0.901-0.188-1.812-0.331-2.732-0.429l0.215-2.037
	C42.748,29.817,43.73,29.971,44.699,30.172z M37.872,29.552l0.7,1.764l0.7-1.764c0.787,0.018,1.569,0.067,2.345,0.145l-0.215,2.037
	c-0.935-0.094-1.879-0.142-2.83-0.142c-0.951,0-1.895,0.048-2.831,0.142l-0.214-2.037C36.303,29.618,37.085,29.57,37.872,29.552z
	 M35.389,29.712l0.214,2.037c-0.919,0.097-1.831,0.24-2.731,0.428l-0.427-2.005C33.414,29.971,34.396,29.817,35.389,29.712z
	 M32.31,30.201l0.427,2.006c-0.901,0.193-1.792,0.432-2.671,0.715l-0.635-1.954C30.374,30.664,31.335,30.408,32.31,30.201z
	 M29.297,31.009l0.636,1.955c-0.728,0.238-1.448,0.506-2.158,0.807c-0.142,0.06-0.283,0.123-0.423,0.185l-0.838-1.881
	C27.423,31.673,28.352,31.318,29.297,31.009z M23.069,33.884l1.496,1.184l-0.278-1.89c0.687-0.376,1.387-0.726,2.1-1.045
	l0.837,1.879c-1.735,0.778-3.372,1.726-4.901,2.834l-1.205-1.659C21.753,34.726,22.404,34.291,23.069,33.884z M21.005,35.269
	l1.206,1.659c-0.742,0.543-1.458,1.124-2.147,1.742l-1.371-1.522C19.436,36.48,20.208,35.853,21.005,35.269z M17.51,38.267
	c0.353-0.353,0.712-0.695,1.079-1.027l1.371,1.523c-0.341,0.309-0.675,0.626-1.002,0.953c-0.327,0.327-0.644,0.661-0.953,1.001
	l-1.523-1.371C16.815,38.979,17.157,38.62,17.51,38.267z M16.39,39.45l1.523,1.371c-0.618,0.689-1.199,1.405-1.742,2.146
	l-1.659-1.205C15.096,40.965,15.722,40.194,16.39,39.45z M12.421,45.045l1.89,0.278l-1.184-1.497
	c0.407-0.665,0.842-1.316,1.303-1.951l1.659,1.205c-1.108,1.529-2.056,3.167-2.834,4.901l-1.879-0.836
	C11.696,46.432,12.045,45.732,12.421,45.045z M11.318,47.271l1.881,0.837c-0.063,0.141-0.125,0.282-0.186,0.424
	c-0.3,0.71-0.568,1.43-0.807,2.157l-1.955-0.635C10.561,49.109,10.916,48.18,11.318,47.271z M10.21,50.187l1.954,0.635
	c-0.283,0.879-0.522,1.77-0.715,2.671l-2.006-0.426C9.651,52.092,9.907,51.131,10.21,50.187z M9.415,53.203l2.006,0.426
	c-0.188,0.901-0.331,1.812-0.429,2.732l-2.037-0.214C9.06,55.153,9.214,54.171,9.415,53.203z M8.795,60.029l1.764-0.7l-1.764-0.7
	c0.018-0.787,0.067-1.569,0.145-2.345l2.037,0.214c-0.094,0.935-0.142,1.879-0.142,2.831c0,0.951,0.048,1.895,0.142,2.83
	L8.94,62.373C8.861,61.6,8.813,60.818,8.795,60.029z M8.956,62.512l2.036-0.214c0.097,0.92,0.24,1.831,0.429,2.732l-2,0.425
	C9.218,64.49,9.063,63.508,8.956,62.512z M9.45,65.59l1.999-0.425c0.193,0.901,0.431,1.792,0.715,2.671l-1.943,0.631
	C9.918,67.528,9.66,66.568,9.45,65.59z M10.265,68.6l1.942-0.631c0.239,0.727,0.506,1.447,0.807,2.157
	c0.06,0.142,0.123,0.283,0.186,0.424l-1.864,0.83C10.934,70.476,10.576,69.548,10.265,68.6z M13.139,74.818l1.173-1.482
	l-1.872,0.275c-0.376-0.685-0.726-1.387-1.049-2.104l1.864-0.83c0.778,1.734,1.726,3.372,2.834,4.901l-1.645,1.195
	C13.984,76.14,13.548,75.488,13.139,74.818z M14.526,76.886l1.645-1.195c0.543,0.742,1.124,1.458,1.742,2.147l-1.511,1.361
	C15.739,78.46,15.113,77.687,14.526,76.886z M16.494,79.302l1.511-1.361c0.309,0.34,0.626,0.675,0.953,1.002
	c0.327,0.327,0.661,0.644,1.001,0.953l-1.361,1.511C17.863,80.741,17.16,80.038,16.494,79.302z M18.703,81.5l1.361-1.512
	c0.689,0.618,1.405,1.199,2.147,1.742l-1.194,1.645C20.214,82.788,19.442,82.162,18.703,81.5z M24.291,85.462l0.275-1.872
	l-1.482,1.173c-0.67-0.41-1.322-0.846-1.955-1.305l1.195-1.645c1.529,1.108,3.167,2.056,4.901,2.834l-0.83,1.864
	C25.678,86.188,24.976,85.838,24.291,85.462z M26.521,86.566l0.83-1.864c0.141,0.062,0.282,0.125,0.424,0.185
	c0.71,0.3,1.43,0.568,2.157,0.807l-0.631,1.943C28.353,87.325,27.426,86.968,26.521,86.566z M29.434,87.679l0.631-1.943
	c0.879,0.283,1.77,0.522,2.671,0.715l-0.425,2C31.333,88.241,30.373,87.983,29.434,87.679z M32.447,88.481l0.425-2
	c0.901,0.188,1.812,0.331,2.732,0.429l-0.214,2.036C34.393,88.839,33.412,88.683,32.447,88.481z M39.272,89.106l-0.7-1.764
	l-0.7,1.764c-0.789-0.018-1.572-0.067-2.345-0.146l0.214-2.036c0.935,0.094,1.879,0.142,2.831,0.142
	c0.951,0,1.895-0.048,2.831-0.142l0.214,2.036C40.844,89.04,40.061,89.088,39.272,89.106z M41.755,88.945l-0.214-2.036
	c0.919-0.097,1.831-0.241,2.732-0.429l0.425,2C43.733,88.683,42.751,88.839,41.755,88.945z M44.833,88.451l-0.425-2
	c0.901-0.193,1.792-0.432,2.671-0.715l0.631,1.943C46.771,87.983,45.811,88.241,44.833,88.451z M47.843,87.636l-0.631-1.943
	c0.727-0.239,1.447-0.506,2.157-0.807c0.142-0.06,0.283-0.123,0.424-0.185l0.83,1.864C49.719,86.968,48.791,87.325,47.843,87.636z
	 M54.061,84.762l-1.482-1.173l0.275,1.872c-0.685,0.376-1.387,0.726-2.104,1.049l-0.83-1.864c1.734-0.778,3.372-1.726,4.901-2.834
	l1.195,1.645C55.382,83.917,54.731,84.353,54.061,84.762z M56.129,83.375l-1.195-1.645c0.741-0.543,1.458-1.124,2.147-1.742
	l1.361,1.511C57.703,82.162,56.931,82.788,56.129,83.375z M58.545,81.407l-1.361-1.511c0.341-0.309,0.674-0.626,1.001-0.953
	c0.327-0.327,0.644-0.661,0.953-1.001l1.511,1.361C59.984,80.038,59.281,80.741,58.545,81.407z M60.743,79.198l-1.511-1.361
	c0.618-0.689,1.199-1.405,1.742-2.147l1.645,1.195C62.031,77.687,61.405,78.46,60.743,79.198z M64.704,73.611l-1.872-0.275
	l1.173,1.482c-0.41,0.67-0.846,1.322-1.305,1.955l-1.645-1.195c1.108-1.53,2.056-3.167,2.834-4.901l1.864,0.83
	C65.431,72.224,65.08,72.925,64.704,73.611z M65.809,71.38l-1.864-0.83c0.063-0.141,0.125-0.282,0.186-0.424
	c0.3-0.71,0.568-1.43,0.807-2.157L66.88,68.6C66.568,69.548,66.21,70.476,65.809,71.38z M66.922,68.467l-1.943-0.631
	c0.284-0.879,0.522-1.77,0.715-2.672l1.999,0.425C67.484,66.568,67.226,67.528,66.922,68.467z M67.724,65.454l-2-0.425
	c0.188-0.901,0.331-1.812,0.428-2.732l2.035,0.215C68.082,63.508,67.926,64.49,67.724,65.454z M68.204,62.373l-2.036-0.214
	c0.094-0.935,0.142-1.879,0.142-2.83c0-0.951-0.048-1.896-0.142-2.831l2.037-0.214c0.079,0.775,0.127,1.558,0.145,2.345l-1.764,0.7
	l1.763,0.7C68.331,60.818,68.283,61.6,68.204,62.373z M40.96,36.644c0.628-0.508,1.307-1.11,1.307-1.996
	c0-0.963-0.938-1.574-1.824-1.574c-0.826,0-1.746,0.594-1.746,1.497c0,0.327,0.189,0.637,0.533,0.637
	c0.249,0,0.456-0.215,0.456-0.456c0-0.284-0.232-0.43-0.232-0.714c0-0.439,0.456-0.68,0.86-0.68c0.663,0,1.084,0.611,1.084,1.239
	c0,0.783-0.542,1.437-1.05,1.978c-0.671,0.731-1.342,1.454-1.815,2.34l0.014,0.111c-0.289-0.004-0.629-0.032-0.832-0.257
	c-0.181-0.207-0.181-0.551-0.181-1.024v-4.671H37.27c-0.396,0.525-1.084,0.766-1.712,0.74v0.284c0.688,0,0.998,0.052,1.101,0.241
	c0.12,0.223,0.12,0.723,0.12,0.98v2.426c0,0.456,0,0.895-0.267,1.118c-0.189,0.164-0.628,0.164-0.903,0.164v0.284h6.263l0.379-1.609
	l-0.25-0.069c-0.215,0.516-0.447,0.791-0.714,0.895c-0.31,0.112-0.774,0.112-1.307,0.112h-0.843
	C39.799,37.625,40.005,37.393,40.96,36.644z M51.033,37.57c0.121,0.224,0.121,0.723,0.121,0.981v2.426c0,0.456,0,0.895-0.267,1.118
	c-0.189,0.163-0.628,0.163-0.903,0.163v0.284h3.062v-0.284c-0.309,0-0.723,0-0.955-0.258c-0.181-0.207-0.181-0.551-0.181-1.024
	v-4.671h-0.267c-0.396,0.525-1.084,0.766-1.712,0.74v0.284C50.62,37.329,50.93,37.381,51.033,37.57z M24.379,42.095
	c-0.189,0.163-0.628,0.163-0.903,0.163v0.284h3.062v-0.284c-0.31,0-0.723,0-0.955-0.258c-0.181-0.207-0.181-0.551-0.181-1.024
	v-4.671h-0.267c-0.396,0.525-1.084,0.766-1.712,0.74v0.284c0.688,0,0.998,0.052,1.101,0.241c0.121,0.224,0.121,0.723,0.121,0.981
	v2.426C24.646,41.433,24.646,41.871,24.379,42.095z M28.843,40.977v-4.671h-0.267c-0.396,0.525-1.084,0.766-1.712,0.74v0.284
	c0.688,0,0.998,0.052,1.101,0.241c0.12,0.224,0.12,0.723,0.12,0.981v2.426c0,0.456,0,0.895-0.267,1.118
	c-0.189,0.163-0.628,0.163-0.903,0.163v0.284h3.062v-0.284c-0.309,0-0.723,0-0.955-0.258C28.843,41.794,28.843,41.45,28.843,40.977z
	 M60.835,48.784l-0.249-0.069c-0.215,0.516-0.447,0.791-0.714,0.895c-0.31,0.112-0.774,0.112-1.307,0.112h-0.843
	c0.663-1.015,0.869-1.247,1.824-1.996c0.628-0.508,1.307-1.11,1.307-1.996c0-0.963-0.938-1.574-1.824-1.574
	c-0.826,0-1.746,0.593-1.746,1.497c0,0.327,0.189,0.636,0.533,0.636c0.249,0,0.456-0.215,0.456-0.456
	c0-0.284-0.232-0.43-0.232-0.714c0-0.439,0.456-0.68,0.86-0.68c0.662,0,1.084,0.611,1.084,1.239c0,0.783-0.542,1.436-1.05,1.978
	c-0.671,0.731-1.342,1.454-1.815,2.34l0.052,0.396h3.286L60.835,48.784z M21.062,44.156c-0.714,0-1.213,0.611-1.514,1.196
	c-0.284,0.585-0.413,1.308-0.413,1.97c0,0.688,0.129,1.385,0.448,2.004c0.301,0.593,0.765,1.161,1.479,1.161
	c0.731,0,1.247-0.663,1.531-1.264c0.275-0.602,0.396-1.299,0.396-1.962c0-0.697-0.129-1.393-0.464-2.013
	C22.215,44.698,21.725,44.156,21.062,44.156z M21.114,50.203c-1.084,0-1.161-2.099-1.161-2.856c0-0.705,0.086-2.907,1.11-2.907
	c1.006,0,1.11,2.159,1.11,2.856C22.18,48.216,21.991,50.203,21.114,50.203z M18.103,48.827v-4.671h-0.267
	c-0.396,0.525-1.084,0.766-1.712,0.74v0.284c0.688,0,0.998,0.052,1.101,0.241c0.12,0.224,0.12,0.723,0.12,0.981v2.426
	c0,0.456,0,0.895-0.267,1.118c-0.189,0.164-0.628,0.164-0.903,0.164v0.284h3.062v-0.284c-0.309,0-0.722,0-0.954-0.258
	C18.103,49.644,18.103,49.3,18.103,48.827z M61.331,57.168c0,0.258,0.206,0.499,0.482,0.499c0.258,0,0.439-0.215,0.439-0.464
	c0-0.138-0.034-0.275-0.034-0.413c0-0.37,0.404-0.568,0.74-0.568c0.653,0,0.911,0.714,0.911,1.273c0,0.422-0.249,1.221-0.783,1.221
	c-0.155,0-0.327-0.069-0.516-0.069c-0.172,0-0.327,0.069-0.327,0.249c0,0.172,0.146,0.241,0.301,0.241
	c0.198,0,0.387-0.077,0.593-0.077c0.697,0,0.938,0.791,0.938,1.368c0,0.714-0.284,1.557-1.136,1.557
	c-0.327,0-0.791-0.155-0.791-0.559c0-0.112,0.043-0.241,0.043-0.352c0-0.284-0.164-0.508-0.473-0.508
	c-0.319,0-0.447,0.284-0.447,0.568c0,0.851,0.989,1.135,1.669,1.135c0.998,0,2.039-0.663,2.039-1.746c0-0.929-0.8-1.514-1.643-1.634
	V58.88c0.662-0.172,1.402-0.74,1.402-1.462c0-0.938-0.869-1.48-1.729-1.48C62.32,55.938,61.331,56.325,61.331,57.168z M15.888,58.76
	c0-1.221-0.473-2.821-1.961-2.821c-1.11,0-1.867,1.144-1.867,2.168c0,0.869,0.568,1.78,1.514,1.78c0.663,0,1.101-0.396,1.497-0.886
	c0.069,0.783-0.353,2.985-1.35,2.985c-0.379,0-0.482-0.335-0.542-0.654c-0.043-0.224-0.112-0.396-0.387-0.396
	c-0.284,0-0.482,0.181-0.482,0.464c0,0.568,0.783,0.869,1.256,0.869c0.817,0,1.463-0.619,1.815-1.307
	C15.717,60.308,15.888,59.491,15.888,58.76z M13.884,59.474c-0.783,0-1.006-0.834-1.006-1.48c0-0.697,0.181-1.772,1.075-1.772
	c1.067,0,1.084,1.505,1.118,2.28C14.813,58.906,14.426,59.474,13.884,59.474z M60.706,67.503h-0.379l-2.555,4.31v0.396h2.176v0.292
	c0,0.31,0,0.542-0.06,0.697c-0.069,0.189-0.267,0.258-0.688,0.258v0.284h2.177v-0.284c-0.361,0.017-0.533-0.095-0.603-0.275
	c-0.069-0.189-0.069-0.465-0.069-0.757v-0.215h0.955v-0.396h-0.955L60.706,67.503L60.706,67.503z M59.949,71.813h-1.755l1.755-2.985
	V71.813z M17.827,70.282c0.516-0.335,1.067-0.723,1.067-1.402c0-0.809-0.843-1.376-1.591-1.376c-0.972,0-1.712,0.705-1.712,1.695
	c0,0.688,0.508,1.144,1.101,1.428c-0.654,0.267-1.428,0.8-1.428,1.583c0,1.006,0.929,1.626,1.858,1.626
	c0.525,0,1.075-0.172,1.437-0.551c0.318-0.318,0.559-0.834,0.559-1.282C19.118,71.202,18.507,70.608,17.827,70.282z M16.184,68.88
	c0-0.602,0.439-1.092,1.05-1.092c0.636,0,1.024,0.507,1.024,1.127c0,0.533-0.284,0.946-0.731,1.23
	C17.019,69.946,16.184,69.507,16.184,68.88z M17.26,73.55c-0.757,0-1.239-0.636-1.239-1.368c0-0.619,0.379-1.153,0.929-1.437
	c0.628,0.379,1.531,0.637,1.531,1.523C18.481,72.957,17.965,73.55,17.26,73.55z M51.674,78.478c-0.456,0-0.86,0.164-1.221,0.422
	l0.138-1.996h2.365l0.129-0.611h-2.873l-0.189,3.028l0.292,0.129c0.249-0.37,0.594-0.602,1.058-0.602
	c0.869,0,1.222,0.817,1.222,1.583c0,0.791-0.361,1.815-1.316,1.815c-0.344,0-0.68-0.198-0.68-0.568c0-0.163,0.06-0.318,0.06-0.482
	c0-0.258-0.198-0.473-0.456-0.473c-0.327,0-0.473,0.31-0.473,0.594c0,0.765,0.99,1.213,1.643,1.213c1.153,0,2.039-0.981,2.039-2.116
	C53.411,79.433,52.732,78.478,51.674,78.478z M24.614,76.293l-0.353,1.652l0.249,0.06c0.095-0.327,0.241-0.679,0.499-0.912
	c0.344-0.292,0.749-0.232,1.17-0.232h1.368c-0.361,0.602-1.144,1.893-1.471,2.538c-0.473,0.938-0.843,1.901-0.843,2.598
	c0,0.292,0.103,0.533,0.447,0.533c0.49,0,0.456-0.525,0.456-0.869c0-1.746,0.972-3.458,1.875-4.886l-0.052-0.482L24.614,76.293
	L24.614,76.293z M38.995,81.909c-0.636,0-1.101,0.43-1.488,0.877c0-0.757,0.335-2.968,1.342-2.968c0.774,0,0.335,1.058,0.964,1.058
	c0.275,0,0.49-0.206,0.49-0.482c0-0.542-0.774-0.86-1.239-0.86c-0.86,0-1.506,0.628-1.867,1.359c-0.335,0.663-0.49,1.454-0.49,2.194
	c0,1.505,0.688,2.778,1.944,2.778c1.127,0,1.884-1.127,1.884-2.194C40.535,82.812,39.933,81.909,38.995,81.909z M38.634,85.582
	c-0.99,0-1.076-1.393-1.11-2.125v-0.172c0.223-0.404,0.697-0.964,1.195-0.964c0.663,0,0.998,0.663,0.998,1.454
	C39.718,84.455,39.503,85.582,38.634,85.582z"/>
<g>
	<g>
		<g>
			<g>
				
					<radialGradient id="SVGID_27_" cx="38.8008" cy="57.8444" r="30.5543" gradientTransform="matrix(1 0 0 1 0 2)" gradientUnits="userSpaceOnUse">
					<stop  offset="0.8258" style="stop-color:#5A4037"/>
					<stop  offset="1" style="stop-color:#000000"/>
				</radialGradient>
				<polygon style="fill:url(#SVGID_27_);" points="44.091,50.748 44.562,51.02 44.367,51.357 43.897,51.085 				"/>
				
					<radialGradient id="SVGID_28_" cx="38.8011" cy="57.8446" r="30.558" gradientTransform="matrix(1 0 0 1 0 2)" gradientUnits="userSpaceOnUse">
					<stop  offset="0.8258" style="stop-color:#5A4037"/>
					<stop  offset="1" style="stop-color:#000000"/>
				</radialGradient>
				<polygon style="fill:url(#SVGID_28_);" points="32.776,44.215 33.247,44.487 33.052,44.824 32.582,44.552 				"/>
			</g>
			<g>
				
					<radialGradient id="SVGID_29_" cx="38.7997" cy="57.8441" r="30.5549" gradientTransform="matrix(1 0 0 1 0 2)" gradientUnits="userSpaceOnUse">
					<stop  offset="0.8258" style="stop-color:#5A4037"/>
					<stop  offset="1" style="stop-color:#000000"/>
				</radialGradient>
				<polygon style="fill:url(#SVGID_29_);" points="41.871,53.111 42.143,53.582 41.806,53.776 41.534,53.306 				"/>
				
					<radialGradient id="SVGID_30_" cx="38.7984" cy="57.8439" r="30.5556" gradientTransform="matrix(1 0 0 1 0 2)" gradientUnits="userSpaceOnUse">
					<stop  offset="0.8258" style="stop-color:#5A4037"/>
					<stop  offset="1" style="stop-color:#000000"/>
				</radialGradient>
				<polygon style="fill:url(#SVGID_30_);" points="35.338,41.796 35.61,42.267 35.273,42.461 35.001,41.99 				"/>
			</g>
			<g>
				
					<radialGradient id="SVGID_31_" cx="38.7993" cy="57.8439" r="30.5552" gradientTransform="matrix(1 0 0 1 0 2)" gradientUnits="userSpaceOnUse">
					<stop  offset="0.8258" style="stop-color:#5A4037"/>
					<stop  offset="1" style="stop-color:#000000"/>
				</radialGradient>
				<rect x="38.378" y="54.048" style="fill:url(#SVGID_31_);" width="0.389" height="0.543"/>
				
					<radialGradient id="SVGID_32_" cx="38.7993" cy="57.8448" r="30.5574" gradientTransform="matrix(1 0 0 1 0 2)" gradientUnits="userSpaceOnUse">
					<stop  offset="0.8258" style="stop-color:#5A4037"/>
					<stop  offset="1" style="stop-color:#000000"/>
				</radialGradient>
				<rect x="38.378" y="40.982" style="fill:url(#SVGID_32_);" width="0.389" height="0.543"/>
			</g>
			<g>
				
					<radialGradient id="SVGID_33_" cx="38.7995" cy="57.8441" r="30.5559" gradientTransform="matrix(1 0 0 1 0 2)" gradientUnits="userSpaceOnUse">
					<stop  offset="0.8258" style="stop-color:#5A4037"/>
					<stop  offset="1" style="stop-color:#000000"/>
				</radialGradient>
				<polygon style="fill:url(#SVGID_33_);" points="35.61,53.306 35.338,53.776 35.001,53.582 35.273,53.111 				"/>
				
					<radialGradient id="SVGID_34_" cx="38.7997" cy="57.8441" r="30.5559" gradientTransform="matrix(1 0 0 1 0 2)" gradientUnits="userSpaceOnUse">
					<stop  offset="0.8258" style="stop-color:#5A4037"/>
					<stop  offset="1" style="stop-color:#000000"/>
				</radialGradient>
				<polygon style="fill:url(#SVGID_34_);" points="42.143,41.99 41.871,42.461 41.534,42.267 41.806,41.796 				"/>
			</g>
			<g>
				
					<radialGradient id="SVGID_35_" cx="38.7971" cy="57.8444" r="30.5531" gradientTransform="matrix(1 0 0 1 0 2)" gradientUnits="userSpaceOnUse">
					<stop  offset="0.8258" style="stop-color:#5A4037"/>
					<stop  offset="1" style="stop-color:#000000"/>
				</radialGradient>
				<polygon style="fill:url(#SVGID_35_);" points="33.247,51.085 32.776,51.357 32.582,51.02 33.052,50.748 				"/>
				
					<radialGradient id="SVGID_36_" cx="38.7994" cy="57.8446" r="30.5569" gradientTransform="matrix(1 0 0 1 0 2)" gradientUnits="userSpaceOnUse">
					<stop  offset="0.8258" style="stop-color:#5A4037"/>
					<stop  offset="1" style="stop-color:#000000"/>
				</radialGradient>
				<polygon style="fill:url(#SVGID_36_);" points="44.562,44.552 44.092,44.824 43.897,44.487 44.368,44.215 				"/>
			</g>
			<g>
				
					<radialGradient id="SVGID_37_" cx="38.7999" cy="57.8437" r="30.5558" gradientTransform="matrix(1 0 0 1 0 2)" gradientUnits="userSpaceOnUse">
					<stop  offset="0.8258" style="stop-color:#5A4037"/>
					<stop  offset="1" style="stop-color:#000000"/>
				</radialGradient>
				<rect x="31.767" y="47.592" style="fill:url(#SVGID_37_);" width="0.543" height="0.389"/>
				
					<radialGradient id="SVGID_38_" cx="38.8003" cy="57.8437" r="30.5546" gradientTransform="matrix(1 0 0 1 0 2)" gradientUnits="userSpaceOnUse">
					<stop  offset="0.8258" style="stop-color:#5A4037"/>
					<stop  offset="1" style="stop-color:#000000"/>
				</radialGradient>
				<rect x="44.833" y="47.592" style="fill:url(#SVGID_38_);" width="0.543" height="0.389"/>
			</g>
		</g>
		<g>
			<g>
				
					<radialGradient id="SVGID_39_" cx="38.8" cy="57.8426" r="30.5524" gradientTransform="matrix(1 0 0 1 0 2)" gradientUnits="userSpaceOnUse">
					<stop  offset="0.8258" style="stop-color:#5A4037"/>
					<stop  offset="1" style="stop-color:#000000"/>
				</radialGradient>
				<polygon style="fill:url(#SVGID_39_);" points="44.792,48.507 45.331,48.578 45.306,48.771 44.767,48.7 				"/>
				
					<radialGradient id="SVGID_40_" cx="38.8024" cy="57.8434" r="30.5574" gradientTransform="matrix(1 0 0 1 0 2)" gradientUnits="userSpaceOnUse">
					<stop  offset="0.8258" style="stop-color:#5A4037"/>
					<stop  offset="1" style="stop-color:#000000"/>
				</radialGradient>
				<polygon style="fill:url(#SVGID_40_);" points="31.839,46.802 32.377,46.873 32.352,47.065 31.813,46.994 				"/>
			</g>
			<g>
				
					<radialGradient id="SVGID_41_" cx="38.802" cy="57.8432" r="30.5506" gradientTransform="matrix(1 0 0 1 0 2)" gradientUnits="userSpaceOnUse">
					<stop  offset="0.8258" style="stop-color:#5A4037"/>
					<stop  offset="1" style="stop-color:#000000"/>
				</radialGradient>
				<polygon style="fill:url(#SVGID_41_);" points="44.645,49.313 45.17,49.454 45.12,49.641 44.595,49.501 				"/>
				
					<radialGradient id="SVGID_42_" cx="38.8" cy="57.8438" r="30.556" gradientTransform="matrix(1 0 0 1 0 2)" gradientUnits="userSpaceOnUse">
					<stop  offset="0.8258" style="stop-color:#5A4037"/>
					<stop  offset="1" style="stop-color:#000000"/>
				</radialGradient>
				<polygon style="fill:url(#SVGID_42_);" points="32.024,45.931 32.549,46.072 32.499,46.259 31.975,46.119 				"/>
			</g>
			<g>
				
					<radialGradient id="SVGID_43_" cx="38.7979" cy="57.8441" r="30.5584" gradientTransform="matrix(1 0 0 1 0 2)" gradientUnits="userSpaceOnUse">
					<stop  offset="0.8258" style="stop-color:#5A4037"/>
					<stop  offset="1" style="stop-color:#000000"/>
				</radialGradient>
				<polygon style="fill:url(#SVGID_43_);" points="44.394,50.092 44.896,50.3 44.821,50.48 44.32,50.272 				"/>
				
					<radialGradient id="SVGID_44_" cx="38.802" cy="57.8448" r="30.5592" gradientTransform="matrix(1 0 0 1 0 2)" gradientUnits="userSpaceOnUse">
					<stop  offset="0.8258" style="stop-color:#5A4037"/>
					<stop  offset="1" style="stop-color:#000000"/>
				</radialGradient>
				<polygon style="fill:url(#SVGID_44_);" points="32.323,45.092 32.825,45.301 32.75,45.48 32.248,45.272 				"/>
			</g>
			<g>
				
					<radialGradient id="SVGID_45_" cx="38.8016" cy="57.8443" r="30.5527" gradientTransform="matrix(1 0 0 1 0 2)" gradientUnits="userSpaceOnUse">
					<stop  offset="0.8258" style="stop-color:#5A4037"/>
					<stop  offset="1" style="stop-color:#000000"/>
				</radialGradient>
				<polygon style="fill:url(#SVGID_45_);" points="44.043,50.832 44.513,51.104 44.416,51.273 43.946,51.001 				"/>
				
					<radialGradient id="SVGID_46_" cx="38.8001" cy="57.8452" r="30.5584" gradientTransform="matrix(1 0 0 1 0 2)" gradientUnits="userSpaceOnUse">
					<stop  offset="0.8258" style="stop-color:#5A4037"/>
					<stop  offset="1" style="stop-color:#000000"/>
				</radialGradient>
				<polygon style="fill:url(#SVGID_46_);" points="32.727,44.3 33.198,44.572 33.101,44.74 32.631,44.468 				"/>
			</g>
			<g>
				
					<radialGradient id="SVGID_47_" cx="38.7979" cy="57.8441" r="30.5589" gradientTransform="matrix(1 0 0 1 0 2)" gradientUnits="userSpaceOnUse">
					<stop  offset="0.8258" style="stop-color:#5A4037"/>
					<stop  offset="1" style="stop-color:#000000"/>
				</radialGradient>
				<polygon style="fill:url(#SVGID_47_);" points="43.598,51.521 44.03,51.851 43.911,52.006 43.48,51.675 				"/>
				
					<radialGradient id="SVGID_48_" cx="38.7993" cy="57.8463" r="30.5598" gradientTransform="matrix(1 0 0 1 0 2)" gradientUnits="userSpaceOnUse">
					<stop  offset="0.8258" style="stop-color:#5A4037"/>
					<stop  offset="1" style="stop-color:#000000"/>
				</radialGradient>
				<polygon style="fill:url(#SVGID_48_);" points="33.233,43.567 33.664,43.898 33.545,44.052 33.114,43.721 				"/>
			</g>
			<g>
				
					<radialGradient id="SVGID_49_" cx="38.8012" cy="57.8441" r="30.5526" gradientTransform="matrix(1 0 0 1 0 2)" gradientUnits="userSpaceOnUse">
					<stop  offset="0.8258" style="stop-color:#5A4037"/>
					<stop  offset="1" style="stop-color:#000000"/>
				</radialGradient>
				<polygon style="fill:url(#SVGID_49_);" points="43.068,52.144 43.452,52.529 43.314,52.667 42.931,52.282 				"/>
				
					<radialGradient id="SVGID_50_" cx="38.801" cy="57.8433" r="30.5554" gradientTransform="matrix(1 0 0 1 0 2)" gradientUnits="userSpaceOnUse">
					<stop  offset="0.8258" style="stop-color:#5A4037"/>
					<stop  offset="1" style="stop-color:#000000"/>
				</radialGradient>
				<polygon style="fill:url(#SVGID_50_);" points="33.829,42.906 34.213,43.291 34.076,43.427 33.692,43.044 				"/>
			</g>
			<g>
				
					<radialGradient id="SVGID_51_" cx="38.7996" cy="57.8439" r="30.5547" gradientTransform="matrix(1 0 0 1 0 2)" gradientUnits="userSpaceOnUse">
					<stop  offset="0.8258" style="stop-color:#5A4037"/>
					<stop  offset="1" style="stop-color:#000000"/>
				</radialGradient>
				<polygon style="fill:url(#SVGID_51_);" points="42.461,52.694 42.791,53.125 42.637,53.244 42.306,52.813 				"/>
				
					<radialGradient id="SVGID_52_" cx="38.8009" cy="57.8437" r="30.556" gradientTransform="matrix(1 0 0 1 0 2)" gradientUnits="userSpaceOnUse">
					<stop  offset="0.8258" style="stop-color:#5A4037"/>
					<stop  offset="1" style="stop-color:#000000"/>
				</radialGradient>
				<polygon style="fill:url(#SVGID_52_);" points="34.506,42.329 34.837,42.76 34.683,42.878 34.353,42.447 				"/>
			</g>
			<g>
				
					<radialGradient id="SVGID_53_" cx="38.7974" cy="57.8446" r="30.5622" gradientTransform="matrix(1 0 0 1 0 2)" gradientUnits="userSpaceOnUse">
					<stop  offset="0.8258" style="stop-color:#5A4037"/>
					<stop  offset="1" style="stop-color:#000000"/>
				</radialGradient>
				<polygon style="fill:url(#SVGID_53_);" points="41.787,53.16 42.059,53.63 41.89,53.728 41.618,53.257 				"/>
				
					<radialGradient id="SVGID_54_" cx="38.7997" cy="57.8424" r="30.5533" gradientTransform="matrix(1 0 0 1 0 2)" gradientUnits="userSpaceOnUse">
					<stop  offset="0.8258" style="stop-color:#5A4037"/>
					<stop  offset="1" style="stop-color:#000000"/>
				</radialGradient>
				<polygon style="fill:url(#SVGID_54_);" points="35.254,41.845 35.525,42.315 35.357,42.412 35.086,41.942 				"/>
			</g>
			<g>
				
					<radialGradient id="SVGID_55_" cx="38.7983" cy="57.844" r="30.5582" gradientTransform="matrix(1 0 0 1 0 2)" gradientUnits="userSpaceOnUse">
					<stop  offset="0.8258" style="stop-color:#5A4037"/>
					<stop  offset="1" style="stop-color:#000000"/>
				</radialGradient>
				<polygon style="fill:url(#SVGID_55_);" points="41.058,53.533 41.266,54.035 41.086,54.11 40.878,53.608 				"/>
				
					<radialGradient id="SVGID_56_" cx="38.801" cy="57.8428" r="30.5543" gradientTransform="matrix(1 0 0 1 0 2)" gradientUnits="userSpaceOnUse">
					<stop  offset="0.8258" style="stop-color:#5A4037"/>
					<stop  offset="1" style="stop-color:#000000"/>
				</radialGradient>
				<polygon style="fill:url(#SVGID_56_);" points="36.058,41.462 36.265,41.965 36.086,42.039 35.878,41.537 				"/>
			</g>
			<g>
				
					<radialGradient id="SVGID_57_" cx="38.799" cy="57.8443" r="30.5576" gradientTransform="matrix(1 0 0 1 0 2)" gradientUnits="userSpaceOnUse">
					<stop  offset="0.8258" style="stop-color:#5A4037"/>
					<stop  offset="1" style="stop-color:#000000"/>
				</radialGradient>
				<polygon style="fill:url(#SVGID_57_);" points="40.286,53.809 40.427,54.334 40.239,54.384 40.099,53.859 				"/>
				
					<radialGradient id="SVGID_58_" cx="38.7994" cy="57.8435" r="30.5551" gradientTransform="matrix(1 0 0 1 0 2)" gradientUnits="userSpaceOnUse">
					<stop  offset="0.8258" style="stop-color:#5A4037"/>
					<stop  offset="1" style="stop-color:#000000"/>
				</radialGradient>
				<polygon style="fill:url(#SVGID_58_);" points="36.904,41.188 37.045,41.713 36.858,41.763 36.717,41.239 				"/>
			</g>
			<g>
				
					<radialGradient id="SVGID_59_" cx="38.7996" cy="57.844" r="30.5553" gradientTransform="matrix(1 0 0 1 0 2)" gradientUnits="userSpaceOnUse">
					<stop  offset="0.8258" style="stop-color:#5A4037"/>
					<stop  offset="1" style="stop-color:#000000"/>
				</radialGradient>
				<polygon style="fill:url(#SVGID_59_);" points="39.486,53.981 39.557,54.52 39.364,54.545 39.293,54.006 				"/>
				
					<radialGradient id="SVGID_60_" cx="38.7993" cy="57.8429" r="30.5541" gradientTransform="matrix(1 0 0 1 0 2)" gradientUnits="userSpaceOnUse">
					<stop  offset="0.8258" style="stop-color:#5A4037"/>
					<stop  offset="1" style="stop-color:#000000"/>
				</radialGradient>
				<polygon style="fill:url(#SVGID_60_);" points="37.78,41.027 37.851,41.566 37.659,41.591 37.587,41.052 				"/>
			</g>
			<g>
				
					<radialGradient id="SVGID_61_" cx="38.7995" cy="57.8439" r="30.5551" gradientTransform="matrix(1 0 0 1 0 2)" gradientUnits="userSpaceOnUse">
					<stop  offset="0.8258" style="stop-color:#5A4037"/>
					<stop  offset="1" style="stop-color:#000000"/>
				</radialGradient>
				<rect x="38.475" y="54.048" style="fill:url(#SVGID_61_);" width="0.194" height="0.543"/>
				
					<radialGradient id="SVGID_62_" cx="38.7996" cy="57.8435" r="30.5553" gradientTransform="matrix(1 0 0 1 0 2)" gradientUnits="userSpaceOnUse">
					<stop  offset="0.8258" style="stop-color:#5A4037"/>
					<stop  offset="1" style="stop-color:#000000"/>
				</radialGradient>
				<polygon style="fill:url(#SVGID_62_);" points="38.669,40.981 38.669,41.525 38.475,41.525 38.475,40.981 				"/>
			</g>
			<g>
				
					<radialGradient id="SVGID_63_" cx="38.7992" cy="57.8437" r="30.554" gradientTransform="matrix(1 0 0 1 0 2)" gradientUnits="userSpaceOnUse">
					<stop  offset="0.8258" style="stop-color:#5A4037"/>
					<stop  offset="1" style="stop-color:#000000"/>
				</radialGradient>
				<polygon style="fill:url(#SVGID_63_);" points="37.851,54.006 37.78,54.545 37.587,54.52 37.658,53.981 				"/>
				
					<radialGradient id="SVGID_64_" cx="38.7996" cy="57.8429" r="30.5541" gradientTransform="matrix(1 0 0 1 0 2)" gradientUnits="userSpaceOnUse">
					<stop  offset="0.8258" style="stop-color:#5A4037"/>
					<stop  offset="1" style="stop-color:#000000"/>
				</radialGradient>
				<polygon style="fill:url(#SVGID_64_);" points="39.557,41.052 39.485,41.591 39.293,41.566 39.364,41.027 				"/>
			</g>
			<g>
				
					<radialGradient id="SVGID_65_" cx="38.7994" cy="57.8445" r="30.5577" gradientTransform="matrix(1 0 0 1 0 2)" gradientUnits="userSpaceOnUse">
					<stop  offset="0.8258" style="stop-color:#5A4037"/>
					<stop  offset="1" style="stop-color:#000000"/>
				</radialGradient>
				<polygon style="fill:url(#SVGID_65_);" points="37.045,53.859 36.904,54.384 36.717,54.334 36.858,53.809 				"/>
				
					<radialGradient id="SVGID_66_" cx="38.7983" cy="57.8435" r="30.5553" gradientTransform="matrix(1 0 0 1 0 2)" gradientUnits="userSpaceOnUse">
					<stop  offset="0.8258" style="stop-color:#5A4037"/>
					<stop  offset="1" style="stop-color:#000000"/>
				</radialGradient>
				<polygon style="fill:url(#SVGID_66_);" points="40.427,41.239 40.286,41.763 40.099,41.713 40.239,41.188 				"/>
			</g>
			<g>
				
					<radialGradient id="SVGID_67_" cx="38.8008" cy="57.8442" r="30.559" gradientTransform="matrix(1 0 0 1 0 2)" gradientUnits="userSpaceOnUse">
					<stop  offset="0.8258" style="stop-color:#5A4037"/>
					<stop  offset="1" style="stop-color:#000000"/>
				</radialGradient>
				<polygon style="fill:url(#SVGID_67_);" points="36.266,53.608 36.058,54.11 35.878,54.035 36.086,53.534 				"/>
				
					<radialGradient id="SVGID_68_" cx="38.7994" cy="57.843" r="30.5543" gradientTransform="matrix(1 0 0 1 0 2)" gradientUnits="userSpaceOnUse">
					<stop  offset="0.8258" style="stop-color:#5A4037"/>
					<stop  offset="1" style="stop-color:#000000"/>
				</radialGradient>
				<polygon style="fill:url(#SVGID_68_);" points="41.266,41.537 41.058,42.038 40.878,41.964 41.086,41.462 				"/>
			</g>
			<g>
				
					<radialGradient id="SVGID_69_" cx="38.7995" cy="57.8446" r="30.5577" gradientTransform="matrix(1 0 0 1 0 2)" gradientUnits="userSpaceOnUse">
					<stop  offset="0.8258" style="stop-color:#5A4037"/>
					<stop  offset="1" style="stop-color:#000000"/>
				</radialGradient>
				<polygon style="fill:url(#SVGID_69_);" points="35.526,53.257 35.254,53.728 35.086,53.63 35.357,53.16 				"/>
				
					<radialGradient id="SVGID_70_" cx="38.7994" cy="57.8428" r="30.5541" gradientTransform="matrix(1 0 0 1 0 2)" gradientUnits="userSpaceOnUse">
					<stop  offset="0.8258" style="stop-color:#5A4037"/>
					<stop  offset="1" style="stop-color:#000000"/>
				</radialGradient>
				<polygon style="fill:url(#SVGID_70_);" points="42.059,41.942 41.787,42.412 41.619,42.315 41.89,41.845 				"/>
			</g>
			<g>
				
					<radialGradient id="SVGID_71_" cx="38.7992" cy="57.8445" r="30.5565" gradientTransform="matrix(1 0 0 1 0 2)" gradientUnits="userSpaceOnUse">
					<stop  offset="0.8258" style="stop-color:#5A4037"/>
					<stop  offset="1" style="stop-color:#000000"/>
				</radialGradient>
				<polygon style="fill:url(#SVGID_71_);" points="34.838,52.813 34.506,53.244 34.353,53.125 34.683,52.694 				"/>
				
					<radialGradient id="SVGID_72_" cx="38.7997" cy="57.8454" r="30.5581" gradientTransform="matrix(1 0 0 1 0 2)" gradientUnits="userSpaceOnUse">
					<stop  offset="0.8258" style="stop-color:#5A4037"/>
					<stop  offset="1" style="stop-color:#000000"/>
				</radialGradient>
				<polygon style="fill:url(#SVGID_72_);" points="42.792,42.447 42.461,42.878 42.307,42.759 42.637,42.328 				"/>
			</g>
			<g>
				
					<radialGradient id="SVGID_73_" cx="38.7991" cy="57.8442" r="30.5558" gradientTransform="matrix(1 0 0 1 0 2)" gradientUnits="userSpaceOnUse">
					<stop  offset="0.8258" style="stop-color:#5A4037"/>
					<stop  offset="1" style="stop-color:#000000"/>
				</radialGradient>
				<polygon style="fill:url(#SVGID_73_);" points="34.213,52.282 33.829,52.667 33.692,52.529 34.076,52.145 				"/>
				
					<radialGradient id="SVGID_74_" cx="38.7998" cy="57.8447" r="30.557" gradientTransform="matrix(1 0 0 1 0 2)" gradientUnits="userSpaceOnUse">
					<stop  offset="0.8258" style="stop-color:#5A4037"/>
					<stop  offset="1" style="stop-color:#000000"/>
				</radialGradient>
				<polygon style="fill:url(#SVGID_74_);" points="43.453,43.043 43.068,43.427 42.931,43.29 43.315,42.906 				"/>
			</g>
			<g>
				
					<radialGradient id="SVGID_75_" cx="38.7975" cy="57.8445" r="30.5536" gradientTransform="matrix(1 0 0 1 0 2)" gradientUnits="userSpaceOnUse">
					<stop  offset="0.8258" style="stop-color:#5A4037"/>
					<stop  offset="1" style="stop-color:#000000"/>
				</radialGradient>
				<polygon style="fill:url(#SVGID_75_);" points="33.664,51.675 33.233,52.006 33.114,51.851 33.545,51.521 				"/>
				
					<radialGradient id="SVGID_76_" cx="38.8012" cy="57.8448" r="30.5562" gradientTransform="matrix(1 0 0 1 0 2)" gradientUnits="userSpaceOnUse">
					<stop  offset="0.8258" style="stop-color:#5A4037"/>
					<stop  offset="1" style="stop-color:#000000"/>
				</radialGradient>
				<polygon style="fill:url(#SVGID_76_);" points="44.03,43.721 43.598,44.051 43.48,43.897 43.911,43.567 				"/>
			</g>
			<g>
				
					<radialGradient id="SVGID_77_" cx="38.7999" cy="57.8437" r="30.5558" gradientTransform="matrix(1 0 0 1 0 2)" gradientUnits="userSpaceOnUse">
					<stop  offset="0.8258" style="stop-color:#5A4037"/>
					<stop  offset="1" style="stop-color:#000000"/>
				</radialGradient>
				<polygon style="fill:url(#SVGID_77_);" points="33.198,51.001 32.727,51.273 32.63,51.104 33.101,50.833 				"/>
				
					<radialGradient id="SVGID_78_" cx="38.7972" cy="57.8452" r="30.5596" gradientTransform="matrix(1 0 0 1 0 2)" gradientUnits="userSpaceOnUse">
					<stop  offset="0.8258" style="stop-color:#5A4037"/>
					<stop  offset="1" style="stop-color:#000000"/>
				</radialGradient>
				<polygon style="fill:url(#SVGID_78_);" points="44.514,44.468 44.043,44.739 43.946,44.571 44.416,44.299 				"/>
			</g>
			<g>
				
					<radialGradient id="SVGID_79_" cx="38.8018" cy="57.8445" r="30.5602" gradientTransform="matrix(1 0 0 1 0 2)" gradientUnits="userSpaceOnUse">
					<stop  offset="0.8258" style="stop-color:#5A4037"/>
					<stop  offset="1" style="stop-color:#000000"/>
				</radialGradient>
				<polygon style="fill:url(#SVGID_79_);" points="32.825,50.272 32.323,50.48 32.248,50.3 32.75,50.092 				"/>
				
					<radialGradient id="SVGID_80_" cx="38.8017" cy="57.8448" r="30.5555" gradientTransform="matrix(1 0 0 1 0 2)" gradientUnits="userSpaceOnUse">
					<stop  offset="0.8258" style="stop-color:#5A4037"/>
					<stop  offset="1" style="stop-color:#000000"/>
				</radialGradient>
				<polygon style="fill:url(#SVGID_80_);" points="44.896,45.272 44.394,45.48 44.32,45.3 44.822,45.092 				"/>
			</g>
			<g>
				
					<radialGradient id="SVGID_81_" cx="38.7997" cy="57.8435" r="30.555" gradientTransform="matrix(1 0 0 1 0 2)" gradientUnits="userSpaceOnUse">
					<stop  offset="0.8258" style="stop-color:#5A4037"/>
					<stop  offset="1" style="stop-color:#000000"/>
				</radialGradient>
				<polygon style="fill:url(#SVGID_81_);" points="32.549,49.501 32.024,49.641 31.974,49.453 32.499,49.313 				"/>
				
					<radialGradient id="SVGID_82_" cx="38.7992" cy="57.8436" r="30.5554" gradientTransform="matrix(1 0 0 1 0 2)" gradientUnits="userSpaceOnUse">
					<stop  offset="0.8258" style="stop-color:#5A4037"/>
					<stop  offset="1" style="stop-color:#000000"/>
				</radialGradient>
				<polygon style="fill:url(#SVGID_82_);" points="45.17,46.119 44.645,46.259 44.595,46.072 45.12,45.931 				"/>
			</g>
			<g>
				
					<radialGradient id="SVGID_83_" cx="38.8022" cy="57.843" r="30.5569" gradientTransform="matrix(1 0 0 1 0 2)" gradientUnits="userSpaceOnUse">
					<stop  offset="0.8258" style="stop-color:#5A4037"/>
					<stop  offset="1" style="stop-color:#000000"/>
				</radialGradient>
				<polygon style="fill:url(#SVGID_83_);" points="32.377,48.7 31.839,48.771 31.813,48.578 32.352,48.507 				"/>
				
					<radialGradient id="SVGID_84_" cx="38.797" cy="57.8432" r="30.5568" gradientTransform="matrix(1 0 0 1 0 2)" gradientUnits="userSpaceOnUse">
					<stop  offset="0.8258" style="stop-color:#5A4037"/>
					<stop  offset="1" style="stop-color:#000000"/>
				</radialGradient>
				<polygon style="fill:url(#SVGID_84_);" points="45.331,46.994 44.793,47.065 44.767,46.872 45.306,46.801 				"/>
			</g>
			<g>
				
					<radialGradient id="SVGID_85_" cx="38.7973" cy="57.8428" r="30.5513" gradientTransform="matrix(1 0 0 1 0 2)" gradientUnits="userSpaceOnUse">
					<stop  offset="0.8258" style="stop-color:#5A4037"/>
					<stop  offset="1" style="stop-color:#000000"/>
				</radialGradient>
				<rect x="31.767" y="47.689" style="fill:url(#SVGID_85_);" width="0.543" height="0.194"/>
				
					<radialGradient id="SVGID_86_" cx="38.8001" cy="57.8428" r="30.5526" gradientTransform="matrix(1 0 0 1 0 2)" gradientUnits="userSpaceOnUse">
					<stop  offset="0.8258" style="stop-color:#5A4037"/>
					<stop  offset="1" style="stop-color:#000000"/>
				</radialGradient>
				<rect x="44.833" y="47.689" style="fill:url(#SVGID_86_);" width="0.543" height="0.194"/>
			</g>
		</g>
		<g>
			<g>
				
					<radialGradient id="SVGID_87_" cx="38.8004" cy="57.8443" r="30.5552" gradientTransform="matrix(1 0 0 1 0 2)" gradientUnits="userSpaceOnUse">
					<stop  offset="0.8258" style="stop-color:#5A4037"/>
					<stop  offset="1" style="stop-color:#000000"/>
				</radialGradient>
				<polygon style="fill:url(#SVGID_87_);" points="44.262,49.21 45.17,49.453 45.12,49.641 44.211,49.398 				"/>
				
					<radialGradient id="SVGID_88_" cx="38.8004" cy="57.8426" r="30.5542" gradientTransform="matrix(1 0 0 1 0 2)" gradientUnits="userSpaceOnUse">
					<stop  offset="0.8258" style="stop-color:#5A4037"/>
					<stop  offset="1" style="stop-color:#000000"/>
				</radialGradient>
				<polygon style="fill:url(#SVGID_88_);" points="32.024,45.931 32.933,46.174 32.883,46.362 31.974,46.119 				"/>
			</g>
			<g>
				
					<radialGradient id="SVGID_89_" cx="38.7982" cy="57.8443" r="30.5594" gradientTransform="matrix(1 0 0 1 0 2)" gradientUnits="userSpaceOnUse">
					<stop  offset="0.8258" style="stop-color:#5A4037"/>
					<stop  offset="1" style="stop-color:#000000"/>
				</radialGradient>
				<polygon style="fill:url(#SVGID_89_);" points="42.787,51.864 43.453,52.529 43.315,52.666 42.65,52.001 				"/>
				
					<radialGradient id="SVGID_90_" cx="38.8003" cy="57.8438" r="30.556" gradientTransform="matrix(1 0 0 1 0 2)" gradientUnits="userSpaceOnUse">
					<stop  offset="0.8258" style="stop-color:#5A4037"/>
					<stop  offset="1" style="stop-color:#000000"/>
				</radialGradient>
				<polygon style="fill:url(#SVGID_90_);" points="33.829,42.906 34.495,43.571 34.357,43.708 33.692,43.043 				"/>
			</g>
			<g>
				
					<radialGradient id="SVGID_91_" cx="38.7995" cy="57.8445" r="30.5578" gradientTransform="matrix(1 0 0 1 0 2)" gradientUnits="userSpaceOnUse">
					<stop  offset="0.8258" style="stop-color:#5A4037"/>
					<stop  offset="1" style="stop-color:#000000"/>
				</radialGradient>
				<polygon style="fill:url(#SVGID_91_);" points="40.184,53.425 40.427,54.334 40.239,54.384 39.996,53.476 				"/>
				
					<radialGradient id="SVGID_92_" cx="38.7994" cy="57.8434" r="30.5549" gradientTransform="matrix(1 0 0 1 0 2)" gradientUnits="userSpaceOnUse">
					<stop  offset="0.8258" style="stop-color:#5A4037"/>
					<stop  offset="1" style="stop-color:#000000"/>
				</radialGradient>
				<polygon style="fill:url(#SVGID_92_);" points="36.904,41.188 37.148,42.096 36.96,42.147 36.717,41.239 				"/>
			</g>
			<g>
				
					<radialGradient id="SVGID_93_" cx="38.7997" cy="57.8442" r="30.5566" gradientTransform="matrix(1 0 0 1 0 2)" gradientUnits="userSpaceOnUse">
					<stop  offset="0.8258" style="stop-color:#5A4037"/>
					<stop  offset="1" style="stop-color:#000000"/>
				</radialGradient>
				<polygon style="fill:url(#SVGID_93_);" points="37.148,53.476 36.904,54.384 36.717,54.334 36.96,53.425 				"/>
				
					<radialGradient id="SVGID_94_" cx="38.7993" cy="57.8435" r="30.5551" gradientTransform="matrix(1 0 0 1 0 2)" gradientUnits="userSpaceOnUse">
					<stop  offset="0.8258" style="stop-color:#5A4037"/>
					<stop  offset="1" style="stop-color:#000000"/>
				</radialGradient>
				<polygon style="fill:url(#SVGID_94_);" points="40.427,41.238 40.184,42.147 39.996,42.096 40.239,41.188 				"/>
			</g>
			<g>
				
					<radialGradient id="SVGID_95_" cx="38.7992" cy="57.8441" r="30.5557" gradientTransform="matrix(1 0 0 1 0 2)" gradientUnits="userSpaceOnUse">
					<stop  offset="0.8258" style="stop-color:#5A4037"/>
					<stop  offset="1" style="stop-color:#000000"/>
				</radialGradient>
				<polygon style="fill:url(#SVGID_95_);" points="34.494,52.001 33.829,52.667 33.692,52.529 34.357,51.864 				"/>
				
					<radialGradient id="SVGID_96_" cx="38.7992" cy="57.8435" r="30.5553" gradientTransform="matrix(1 0 0 1 0 2)" gradientUnits="userSpaceOnUse">
					<stop  offset="0.8258" style="stop-color:#5A4037"/>
					<stop  offset="1" style="stop-color:#000000"/>
				</radialGradient>
				<polygon style="fill:url(#SVGID_96_);" points="43.453,43.043 42.787,43.708 42.65,43.571 43.315,42.906 				"/>
			</g>
			<g>
				
					<radialGradient id="SVGID_97_" cx="38.7979" cy="57.8437" r="30.5536" gradientTransform="matrix(1 0 0 1 0 2)" gradientUnits="userSpaceOnUse">
					<stop  offset="0.8258" style="stop-color:#5A4037"/>
					<stop  offset="1" style="stop-color:#000000"/>
				</radialGradient>
				<polygon style="fill:url(#SVGID_97_);" points="32.933,49.398 32.024,49.641 31.974,49.454 32.883,49.21 				"/>
				
					<radialGradient id="SVGID_98_" cx="38.7991" cy="57.8433" r="30.5549" gradientTransform="matrix(1 0 0 1 0 2)" gradientUnits="userSpaceOnUse">
					<stop  offset="0.8258" style="stop-color:#5A4037"/>
					<stop  offset="1" style="stop-color:#000000"/>
				</radialGradient>
				<polygon style="fill:url(#SVGID_98_);" points="45.17,46.119 44.262,46.362 44.211,46.175 45.12,45.931 				"/>
			</g>
		</g>
		<g>
			
				<radialGradient id="SVGID_99_" cx="38.7996" cy="57.8445" r="30.5569" gradientTransform="matrix(1 0 0 1 0 2)" gradientUnits="userSpaceOnUse">
				<stop  offset="0.8258" style="stop-color:#5A4037"/>
				<stop  offset="1" style="stop-color:#000000"/>
			</radialGradient>
			<path style="fill:url(#SVGID_99_);" d="M38.248,41.793v1.549h-0.28v-1.066h-0.356v-0.212h0.037c0.233,0,0.36-0.122,0.395-0.271
				H38.248z"/>
			
				<radialGradient id="SVGID_100_" cx="38.7994" cy="57.8441" r="30.5562" gradientTransform="matrix(1 0 0 1 0 2)" gradientUnits="userSpaceOnUse">
				<stop  offset="0.8258" style="stop-color:#5A4037"/>
				<stop  offset="1" style="stop-color:#000000"/>
			</radialGradient>
			<path style="fill:url(#SVGID_100_);" d="M39.32,43.341h-0.858v-0.081c0-0.432,0.323-0.633,0.452-0.762
				c0.138-0.137,0.162-0.194,0.162-0.297c0-0.142-0.059-0.197-0.157-0.197c-0.099,0-0.157,0.057-0.157,0.238v0.085h-0.28v-0.092
				c0-0.321,0.225-0.472,0.437-0.472c0.242,0,0.437,0.16,0.437,0.413c0,0.164-0.074,0.33-0.208,0.459
				c-0.162,0.155-0.345,0.275-0.367,0.465h0.54L39.32,43.341L39.32,43.341z"/>
		</g>
		<g>
			
				<radialGradient id="SVGID_101_" cx="38.7988" cy="57.8445" r="30.557" gradientTransform="matrix(1 0 0 1 0 2)" gradientUnits="userSpaceOnUse">
				<stop  offset="0.8258" style="stop-color:#5A4037"/>
				<stop  offset="1" style="stop-color:#000000"/>
			</radialGradient>
			<path style="fill:url(#SVGID_101_);" d="M41.441,42.652v1.549h-0.28v-1.066h-0.356v-0.212h0.037c0.233,0,0.36-0.122,0.395-0.271
				H41.441z"/>
		</g>
		<g>
			
				<radialGradient id="SVGID_102_" cx="38.7983" cy="57.844" r="30.5555" gradientTransform="matrix(1 0 0 1 0 2)" gradientUnits="userSpaceOnUse">
				<stop  offset="0.8258" style="stop-color:#5A4037"/>
				<stop  offset="1" style="stop-color:#000000"/>
			</radialGradient>
			<path style="fill:url(#SVGID_102_);" d="M35.634,42.592v1.549h-0.279v-1.066h-0.356v-0.212h0.037
				c0.234,0,0.361-0.122,0.396-0.271H35.634L35.634,42.592z"/>
			
				<radialGradient id="SVGID_103_" cx="38.7994" cy="57.844" r="30.5559" gradientTransform="matrix(1 0 0 1 0 2)" gradientUnits="userSpaceOnUse">
				<stop  offset="0.8258" style="stop-color:#5A4037"/>
				<stop  offset="1" style="stop-color:#000000"/>
			</radialGradient>
			<path style="fill:url(#SVGID_103_);" d="M36.451,42.592v1.549h-0.28v-1.066h-0.356v-0.212h0.037c0.233,0,0.36-0.122,0.395-0.271
				H36.451L36.451,42.592z"/>
		</g>
		<g>
			
				<radialGradient id="SVGID_104_" cx="38.7994" cy="57.8443" r="30.5565" gradientTransform="matrix(1 0 0 1 0 2)" gradientUnits="userSpaceOnUse">
				<stop  offset="0.8258" style="stop-color:#5A4037"/>
				<stop  offset="1" style="stop-color:#000000"/>
			</radialGradient>
			<path style="fill:url(#SVGID_104_);" d="M43.757,46.003h-0.858v-0.081c0-0.432,0.323-0.633,0.452-0.762
				c0.138-0.137,0.162-0.194,0.162-0.297c0-0.142-0.059-0.197-0.157-0.197c-0.098,0-0.157,0.057-0.157,0.238v0.085h-0.28v-0.092
				c0-0.321,0.225-0.472,0.437-0.472c0.242,0,0.437,0.16,0.437,0.413c0,0.164-0.074,0.33-0.207,0.459
				c-0.161,0.155-0.345,0.275-0.367,0.465h0.54L43.757,46.003L43.757,46.003z"/>
		</g>
		<g>
			
				<radialGradient id="SVGID_105_" cx="38.7977" cy="57.8435" r="30.5539" gradientTransform="matrix(1 0 0 1 0 2)" gradientUnits="userSpaceOnUse">
				<stop  offset="0.8258" style="stop-color:#5A4037"/>
				<stop  offset="1" style="stop-color:#000000"/>
			</radialGradient>
			<path style="fill:url(#SVGID_105_);" d="M33.774,44.616v1.549h-0.279v-1.066h-0.356v-0.212h0.037
				c0.234,0,0.361-0.122,0.396-0.271H33.774z"/>
			
				<radialGradient id="SVGID_106_" cx="38.7993" cy="57.8441" r="30.5562" gradientTransform="matrix(1 0 0 1 0 2)" gradientUnits="userSpaceOnUse">
				<stop  offset="0.8258" style="stop-color:#5A4037"/>
				<stop  offset="1" style="stop-color:#000000"/>
			</radialGradient>
			<path style="fill:url(#SVGID_106_);" d="M34.887,44.999v0.784c0,0.253-0.168,0.419-0.43,0.419c-0.243,0-0.437-0.17-0.437-0.419
				v-0.784c0-0.249,0.194-0.411,0.437-0.411C34.718,44.588,34.887,44.745,34.887,44.999z M34.299,44.972v0.837
				c0,0.094,0.075,0.153,0.157,0.153c0.078,0,0.151-0.068,0.151-0.162v-0.83c0-0.094-0.072-0.142-0.151-0.142
				C34.374,44.828,34.299,44.881,34.299,44.972z"/>
		</g>
		<g>
			
				<radialGradient id="SVGID_107_" cx="38.7993" cy="57.8441" r="30.5562" gradientTransform="matrix(1 0 0 1 0 2)" gradientUnits="userSpaceOnUse">
				<stop  offset="0.8258" style="stop-color:#5A4037"/>
				<stop  offset="1" style="stop-color:#000000"/>
			</radialGradient>
			<path style="fill:url(#SVGID_107_);" d="M43.558,49.622v0.996h0.139v0.24h-0.139v0.312h-0.28v-0.312h-0.49v-0.28l0.437-0.957
				L43.558,49.622L43.558,49.622z M43.278,49.978l-0.286,0.64h0.286V49.978z"/>
		</g>
		<g>
			
				<radialGradient id="SVGID_108_" cx="38.7983" cy="57.8444" r="30.5554" gradientTransform="matrix(1 0 0 1 0 2)" gradientUnits="userSpaceOnUse">
				<stop  offset="0.8258" style="stop-color:#5A4037"/>
				<stop  offset="1" style="stop-color:#000000"/>
			</radialGradient>
			<path style="fill:url(#SVGID_108_);" d="M33.529,50.058c0-0.267,0.175-0.385,0.404-0.385c0.229,0,0.404,0.118,0.404,0.385
				c0,0.21-0.076,0.308-0.175,0.36c0.14,0.063,0.203,0.179,0.203,0.389c0,0.338-0.133,0.481-0.435,0.481
				c-0.295,0-0.43-0.142-0.43-0.481c0-0.212,0.096-0.321,0.212-0.389C33.617,50.366,33.529,50.267,33.529,50.058z M33.781,50.752
				v0.083c0,0.144,0.055,0.218,0.153,0.218c0.098,0,0.153-0.076,0.153-0.22v-0.085c0-0.135-0.05-0.207-0.153-0.207
				C33.831,50.54,33.781,50.617,33.781,50.752z M33.798,50.117c0,0.133,0.043,0.203,0.135,0.203c0.094,0,0.135-0.07,0.135-0.203
				c0-0.149-0.037-0.21-0.135-0.21C33.84,49.907,33.798,49.966,33.798,50.117z"/>
		</g>
		<g>
			
				<radialGradient id="SVGID_109_" cx="38.7994" cy="57.8441" r="30.556" gradientTransform="matrix(1 0 0 1 0 2)" gradientUnits="userSpaceOnUse">
				<stop  offset="0.8258" style="stop-color:#5A4037"/>
				<stop  offset="1" style="stop-color:#000000"/>
			</radialGradient>
			<path style="fill:url(#SVGID_109_);" d="M41.811,51.494v0.234H41.3l-0.018,0.334c0.07-0.072,0.142-0.101,0.218-0.101
				c0.256,0,0.38,0.17,0.38,0.454v0.151c0,0.352-0.129,0.513-0.428,0.513c-0.282,0-0.446-0.153-0.446-0.439v-0.07h0.275
				c0,0.223,0.052,0.275,0.157,0.275c0.112,0,0.162-0.05,0.162-0.258v-0.164c0-0.149-0.061-0.223-0.168-0.223
				c-0.068,0-0.12,0.044-0.14,0.112h-0.269l0.033-0.819L41.811,51.494L41.811,51.494z"/>
		</g>
		<g>
			
				<radialGradient id="SVGID_110_" cx="38.7988" cy="57.8441" r="30.5552" gradientTransform="matrix(1 0 0 1 0 2)" gradientUnits="userSpaceOnUse">
				<stop  offset="0.8258" style="stop-color:#5A4037"/>
				<stop  offset="1" style="stop-color:#000000"/>
			</radialGradient>
			<path style="fill:url(#SVGID_110_);" d="M36.139,51.494v0.223c-0.164,0.321-0.336,0.747-0.374,1.326h-0.31
				c0.052-0.478,0.216-0.992,0.398-1.308h-0.607v-0.24H36.139z"/>
		</g>
		<g>
			
				<radialGradient id="SVGID_111_" cx="38.7994" cy="57.8441" r="30.5561" gradientTransform="matrix(1 0 0 1 0 2)" gradientUnits="userSpaceOnUse">
				<stop  offset="0.8258" style="stop-color:#5A4037"/>
				<stop  offset="1" style="stop-color:#000000"/>
			</radialGradient>
			<path style="fill:url(#SVGID_111_);" d="M38.857,52.618c0-0.09-0.05-0.133-0.142-0.133c-0.094,0-0.142,0.052-0.142,0.21v0.183
				c0.052-0.061,0.162-0.109,0.245-0.109c0.183,0,0.319,0.122,0.319,0.349v0.371c0,0.26-0.186,0.376-0.43,0.376
				c-0.214,0-0.413-0.111-0.413-0.378v-0.804c0-0.243,0.144-0.433,0.415-0.433c0.256,0,0.428,0.14,0.428,0.367L38.857,52.618
				L38.857,52.618z M38.573,53.164v0.31c0,0.105,0.044,0.157,0.134,0.157c0.089,0,0.151-0.052,0.151-0.159v-0.312
				c0-0.098-0.072-0.151-0.142-0.151C38.641,53.009,38.573,53.055,38.573,53.164z"/>
		</g>
		<g>
			
				<radialGradient id="SVGID_112_" cx="38.7994" cy="57.8441" r="30.5561" gradientTransform="matrix(1 0 0 1 0 2)" gradientUnits="userSpaceOnUse">
				<stop  offset="0.8258" style="stop-color:#5A4037"/>
				<stop  offset="1" style="stop-color:#000000"/>
			</radialGradient>
			<path style="fill:url(#SVGID_112_);" d="M43.983,47.74h0.083c0.194,0,0.207-0.157,0.207-0.258c0-0.102-0.037-0.162-0.14-0.162
				c-0.096,0-0.151,0.065-0.151,0.186v0.052h-0.265v-0.066c0-0.236,0.155-0.406,0.415-0.406c0.262,0,0.42,0.142,0.42,0.387
				c0,0.21-0.081,0.306-0.221,0.356c0.164,0.037,0.244,0.173,0.244,0.395c0,0.339-0.159,0.476-0.452,0.476
				c-0.288,0-0.406-0.19-0.406-0.426v-0.09h0.265v0.055c0,0.131,0.039,0.227,0.151,0.227c0.14,0,0.155-0.107,0.155-0.251
				c0-0.197-0.05-0.264-0.181-0.264h-0.124L43.983,47.74L43.983,47.74z"/>
		</g>
		<g>
			
				<radialGradient id="SVGID_113_" cx="38.7997" cy="57.8441" r="30.5564" gradientTransform="matrix(1 0 0 1 0 2)" gradientUnits="userSpaceOnUse">
				<stop  offset="0.8258" style="stop-color:#5A4037"/>
				<stop  offset="1" style="stop-color:#000000"/>
			</radialGradient>
			<path style="fill:url(#SVGID_113_);" d="M33.6,47.465v0.804c0,0.243-0.144,0.432-0.415,0.432c-0.256,0-0.428-0.14-0.428-0.367
				h0.28c0,0.09,0.05,0.133,0.142,0.133c0.094,0,0.142-0.052,0.142-0.21v-0.183c-0.052,0.061-0.162,0.109-0.245,0.109
				c-0.183,0-0.319-0.122-0.319-0.35v-0.371c0-0.26,0.186-0.376,0.43-0.376C33.402,47.087,33.6,47.198,33.6,47.465z M33.037,47.48
				v0.312c0,0.098,0.072,0.151,0.142,0.151c0.074,0,0.142-0.046,0.142-0.155v-0.31c0-0.105-0.044-0.157-0.134-0.157
				C33.098,47.321,33.037,47.373,33.037,47.48z"/>
		</g>
	</g>
	
		<radialGradient id="SVGID_114_" cx="38.7995" cy="57.8441" r="30.5561" gradientTransform="matrix(1 0 0 1 0 2)" gradientUnits="userSpaceOnUse">
		<stop  offset="0.8258" style="stop-color:#5A4037"/>
		<stop  offset="1" style="stop-color:#000000"/>
	</radialGradient>
	<path style="fill:url(#SVGID_114_);" d="M36.522,52.93c0.601-1.973,1.598-5.247,1.598-5.247l0.908,0.347
		c0,0-1.44,3.104-2.308,4.976L36.522,52.93z"/>
	
		<radialGradient id="SVGID_115_" cx="38.7994" cy="57.8441" r="30.556" gradientTransform="matrix(1 0 0 1 0 2)" gradientUnits="userSpaceOnUse">
		<stop  offset="0.8258" style="stop-color:#5A4037"/>
		<stop  offset="1" style="stop-color:#000000"/>
	</radialGradient>
	<path style="fill:url(#SVGID_115_);" d="M39.273,47.786c0,0.387-0.314,0.701-0.701,0.701s-0.701-0.314-0.701-0.701
		c0-0.387,0.314-0.701,0.701-0.701S39.273,47.399,39.273,47.786z"/>
</g>
<path d="M17.115,43.174c3.852,3.282,15.14,12.898,15.14,12.898s2.989,1.941,5.44,3.534l0.405-0.519
	c-2.135-1.996-4.739-4.43-4.739-4.43S21.312,46.014,17.2,43.065L17.115,43.174z"/>
<path d="M41.785,59.329c0,1.747-1.439,3.162-3.214,3.162c-1.775,0-3.213-1.416-3.213-3.162c0-1.746,1.439-3.162,3.213-3.162
	C40.347,56.167,41.785,57.583,41.785,59.329z"/>
<path d="M55.373,48.628c-3.048,1.584-11.981,6.227-11.981,6.227s-1.749,1.717-3.182,3.125l0.561,0.865
	c1.87-0.735,4.151-1.632,4.151-1.632s7.881-6.265,10.57-8.402L55.373,48.628z"/>
<radialGradient id="SVGID_116_" cx="-26.551" cy="-24.637" r="2.8528" gradientTransform="matrix(0.9382 0 0 0.9372 63.4822 82.4611)" gradientUnits="userSpaceOnUse">
	<stop  offset="0.2865" style="stop-color:#000000"/>
	<stop  offset="0.8202" style="stop-color:#517382"/>
	<stop  offset="1" style="stop-color:#000000"/>
</radialGradient>
<path style="fill:url(#SVGID_116_);" d="M41.27,59.371c0,1.465-1.208,2.652-2.698,2.652c-1.49,0-2.698-1.187-2.698-2.652
	c0-1.465,1.208-2.652,2.698-2.652C40.062,56.719,41.27,57.906,41.27,59.371z"/>
<linearGradient id="SVGID_117_" gradientUnits="userSpaceOnUse" x1="12.9366" y1="87.6978" x2="17.8268" y2="90.6523" gradientTransform="matrix(1 0 0 1 0 2)">
	<stop  offset="0.0112" style="stop-color:#000000"/>
	<stop  offset="0.118" style="stop-color:#ADB9B1"/>
	<stop  offset="0.2528" style="stop-color:#FFFFFF"/>
	<stop  offset="0.2865" style="stop-color:#F3F4F4"/>
	<stop  offset="0.3402" style="stop-color:#DDE0DE"/>
	<stop  offset="0.4068" style="stop-color:#BBC0BE"/>
	<stop  offset="0.4607" style="stop-color:#9CA3A1"/>
	<stop  offset="0.6461" style="stop-color:#000000"/>
</linearGradient>
<path style="fill:url(#SVGID_117_);" d="M13.117,89.772c0,0,0.878,0.338,2.043,1.005s2.523,1.592,2.523,1.592
	s-1.539-0.381-3.168-1.456C12.886,89.838,13.117,89.772,13.117,89.772"/>
<path d="M6.09,34.047c-0.11-0.167-0.216-0.339-0.319-0.513c-3.792-6.455,1.038-11.969,8.439-16.317
	c7.401-4.348,14.569-5.883,18.361,0.572c0.102,0.174,0.2,0.351,0.293,0.528L6.09,34.047z"/>
<radialGradient id="SVGID_118_" cx="5.9094" cy="22.1898" r="8.4962" gradientTransform="matrix(1 0 0 1 0 2)" gradientUnits="userSpaceOnUse">
	<stop  offset="0.1348" style="stop-color:#DFE0E5"/>
	<stop  offset="0.1422" style="stop-color:#DCDEE2"/>
	<stop  offset="0.39" style="stop-color:#A2A4A8"/>
	<stop  offset="0.6081" style="stop-color:#747578"/>
	<stop  offset="0.7885" style="stop-color:#4E4F51"/>
	<stop  offset="0.9243" style="stop-color:#262526"/>
	<stop  offset="1" style="stop-color:#000000"/>
</radialGradient>
<path style="fill:url(#SVGID_118_);" d="M6.248,34.204c-0.11-0.167-0.216-0.339-0.319-0.513c-3.792-6.455,1.038-11.969,8.439-16.317
	c7.401-4.348,14.569-5.883,18.361,0.572c0.102,0.174,0.2,0.351,0.293,0.528L6.248,34.204z"/>
<radialGradient id="SVGID_119_" cx="7.2502" cy="22.4443" r="8.7677" gradientTransform="matrix(1 0 0 1 0 2)" gradientUnits="userSpaceOnUse">
	<stop  offset="0" style="stop-color:#FFFFFF"/>
	<stop  offset="0.4831" style="stop-color:#E2E4E7"/>
	<stop  offset="0.5553" style="stop-color:#CACFD2"/>
	<stop  offset="0.707" style="stop-color:#949FA0"/>
	<stop  offset="0.9241" style="stop-color:#4B5959"/>
	<stop  offset="1" style="stop-color:#303E3D"/>
</radialGradient>
<path style="fill:url(#SVGID_119_);" d="M7.967,28.393c0.957-3.755,3.182-6.988,6.198-9.112c-0.215-0.147-0.437-0.293-0.663-0.439
	c-3.769,1.684-6.712,4.924-8.174,8.915C6.229,28.007,7.111,28.219,7.967,28.393z"/>
<radialGradient id="SVGID_120_" cx="108.5352" cy="2194.1094" r="17.5673" gradientTransform="matrix(0.5235 0.852 -0.852 0.5235 1862.0031 -1226.7222)" gradientUnits="userSpaceOnUse">
	<stop  offset="0" style="stop-color:#FFFFFF"/>
	<stop  offset="0.2022" style="stop-color:#E2E4E7"/>
	<stop  offset="0.2752" style="stop-color:#CACFD2"/>
	<stop  offset="0.4286" style="stop-color:#949FA0"/>
	<stop  offset="0.648" style="stop-color:#4B5959"/>
	<stop  offset="0.7247" style="stop-color:#303E3D"/>
</radialGradient>
<path style="fill:url(#SVGID_120_);" d="M63.006,18.474c-0.567-0.504-1.362-1.118-1.874-1.448c-3.407-2.33-9.446-4.296-12.616-2.456
	c1.615,1.701,1.802,2.727,1.802,2.727c4.174-2.36,9.676-1.09,14.59,3.533L63.006,18.474z"/>
<radialGradient id="SVGID_121_" cx="752.8514" cy="-714.2078" r="10.7198" gradientTransform="matrix(0.8788 -0.4771 0.4771 0.8788 -292.8424 1011.4341)" gradientUnits="userSpaceOnUse">
	<stop  offset="0" style="stop-color:#FFFFFF"/>
	<stop  offset="0.2865" style="stop-color:#E2E4E7"/>
	<stop  offset="0.3516" style="stop-color:#CACFD2"/>
	<stop  offset="0.4885" style="stop-color:#949FA0"/>
	<stop  offset="0.6843" style="stop-color:#4B5959"/>
	<stop  offset="0.7528" style="stop-color:#303E3D"/>
</radialGradient>
<path style="fill:url(#SVGID_121_);" d="M31.773,19.216c-2.555-4.62-7.732-3.646-9.271-2.81c-1.539,0.836,1.134,1.221,3.617,5.88
	L31.773,19.216z"/>
<radialGradient id="SVGID_122_" cx="-242.882" cy="1313.6155" r="10.7197" gradientTransform="matrix(0.8525 0.5227 -0.6493 1.0589 1121.9501 -1231.1915)" gradientUnits="userSpaceOnUse">
	<stop  offset="0" style="stop-color:#FFFFFF"/>
	<stop  offset="0.2865" style="stop-color:#E2E4E7"/>
	<stop  offset="0.3516" style="stop-color:#CACFD2"/>
	<stop  offset="0.4885" style="stop-color:#949FA0"/>
	<stop  offset="0.6843" style="stop-color:#4B5959"/>
	<stop  offset="0.7528" style="stop-color:#303E3D"/>
</radialGradient>
<path style="fill:url(#SVGID_122_);" d="M68.878,32.805c3.393-5.612,0.166-9.942-1.327-10.857c-1.493-0.916-0.695,1.925-4.158,7.494
	L68.878,32.805z"/>
<radialGradient id="SVGID_123_" cx="11.3153" cy="29.0493" r="6.3012" gradientTransform="matrix(1 0 0 1 0 2)" gradientUnits="userSpaceOnUse">
	<stop  offset="0.1348" style="stop-color:#DFE0E5"/>
	<stop  offset="0.1422" style="stop-color:#DCDEE2"/>
	<stop  offset="0.39" style="stop-color:#A2A4A8"/>
	<stop  offset="0.6081" style="stop-color:#747578"/>
	<stop  offset="0.7885" style="stop-color:#4E4F51"/>
	<stop  offset="0.9243" style="stop-color:#262526"/>
	<stop  offset="1" style="stop-color:#000000"/>
</radialGradient>
<path style="fill:url(#SVGID_123_);" d="M33.278,18.237c0.083,0.141,0.036,0.323-0.105,0.406L6.333,34.411
	c-0.141,0.083-0.322,0.035-0.405-0.106l0,0c-0.083-0.141-0.036-0.322,0.105-0.405l26.84-15.768
	C33.014,18.049,33.195,18.096,33.278,18.237L33.278,18.237z"/>
<radialGradient id="SVGID_124_" cx="-1402.9889" cy="-2299.1702" r="6.3012" gradientTransform="matrix(0.8214 -0.2437 -0.2437 0.5497 604.2135 952.6074)" gradientUnits="userSpaceOnUse">
	<stop  offset="0.427" style="stop-color:#DFE0E5"/>
	<stop  offset="0.512" style="stop-color:#DCDDE1"/>
	<stop  offset="0.5858" style="stop-color:#D5D6DA"/>
	<stop  offset="0.6555" style="stop-color:#C9CBCF"/>
	<stop  offset="0.7226" style="stop-color:#B9BBBF"/>
	<stop  offset="0.788" style="stop-color:#A3A5A9"/>
	<stop  offset="0.852" style="stop-color:#888A8D"/>
	<stop  offset="0.9149" style="stop-color:#696A6D"/>
	<stop  offset="0.9754" style="stop-color:#3D3D3F"/>
	<stop  offset="1" style="stop-color:#000000"/>
</radialGradient>
<path style="fill:url(#SVGID_124_);" d="M33.267,18.266c0.034,0.057-0.049,0.169-0.185,0.249L7.193,33.723
	c-0.136,0.08-0.273,0.098-0.307,0.041l0,0c-0.034-0.057,0.05-0.168,0.186-0.248L32.96,18.307
	C33.096,18.227,33.233,18.208,33.267,18.266L33.267,18.266z"/>
<radialGradient id="SVGID_125_" cx="50.5038" cy="20.2231" r="8.8264" gradientTransform="matrix(1 0 0 1 0 2)" gradientUnits="userSpaceOnUse">
	<stop  offset="0.1348" style="stop-color:#DFE0E5"/>
	<stop  offset="0.1422" style="stop-color:#DCDEE2"/>
	<stop  offset="0.39" style="stop-color:#A2A4A8"/>
	<stop  offset="0.6081" style="stop-color:#747578"/>
	<stop  offset="0.7885" style="stop-color:#4E4F51"/>
	<stop  offset="0.9243" style="stop-color:#262526"/>
	<stop  offset="1" style="stop-color:#000000"/>
</radialGradient>
<path style="fill:url(#SVGID_125_);" d="M43.866,18.237c-0.083,0.141-0.036,0.323,0.105,0.406l26.84,15.768
	c0.141,0.083,0.322,0.035,0.405-0.106l0,0c0.083-0.141,0.036-0.322-0.105-0.405l-26.84-15.768
	C44.13,18.049,43.949,18.096,43.866,18.237L43.866,18.237z"/>
<radialGradient id="SVGID_126_" cx="50.3228" cy="20.1173" r="8.3338" gradientTransform="matrix(1 0 0 1 0 2)" gradientUnits="userSpaceOnUse">
	<stop  offset="0.5393" style="stop-color:#DFE0E5"/>
	<stop  offset="0.5433" style="stop-color:#DCDEE2"/>
	<stop  offset="0.6752" style="stop-color:#A2A4A8"/>
	<stop  offset="0.7913" style="stop-color:#747578"/>
	<stop  offset="0.8874" style="stop-color:#4E4F51"/>
	<stop  offset="0.9597" style="stop-color:#262526"/>
	<stop  offset="1" style="stop-color:#000000"/>
</radialGradient>
<path style="fill:url(#SVGID_126_);" d="M44.029,18.295c-0.079,0.134,0.027,0.139,0.161,0.218l25.372,14.953
	c0.133,0.078,0.305,0.188,0.384,0.055l0,0c0.078-0.134-0.096-0.256-0.229-0.335L44.413,18.398
	C44.279,18.32,44.107,18.161,44.029,18.295L44.029,18.295z"/>
<g>
	
		<linearGradient id="SVGID_127_" gradientUnits="userSpaceOnUse" x1="35.1867" y1="14.4021" x2="35.1867" y2="17.7816" gradientTransform="matrix(1 0 0 1 0 2)">
		<stop  offset="0" style="stop-color:#65766A"/>
		<stop  offset="0.0135" style="stop-color:#77887C"/>
		<stop  offset="0.0412" style="stop-color:#9BA89F"/>
		<stop  offset="0.0697" style="stop-color:#BBC5BE"/>
		<stop  offset="0.099" style="stop-color:#D5DCD7"/>
		<stop  offset="0.1291" style="stop-color:#E9EDEA"/>
		<stop  offset="0.1609" style="stop-color:#F8F9F8"/>
		<stop  offset="0.1966" style="stop-color:#FFFFFF"/>
		<stop  offset="0.3826" style="stop-color:#FBFCFB"/>
		<stop  offset="0.465" style="stop-color:#F2F3F3"/>
		<stop  offset="0.527" style="stop-color:#E6E8E7"/>
		<stop  offset="0.5788" style="stop-color:#D5D9D7"/>
		<stop  offset="0.6242" style="stop-color:#C0C5C3"/>
		<stop  offset="0.6644" style="stop-color:#A7AEAB"/>
		<stop  offset="0.6798" style="stop-color:#9CA3A1"/>
		<stop  offset="1" style="stop-color:#000000"/>
	</linearGradient>
	<polygon style="fill:url(#SVGID_127_);" points="36.08,18.047 34.591,19.782 34.293,19.475 34.293,16.709 34.591,16.402 	"/>
	
		<linearGradient id="SVGID_128_" gradientUnits="userSpaceOnUse" x1="4062.999" y1="14.4021" x2="4062.999" y2="17.7816" gradientTransform="matrix(-1 0 0 1 4103.6523 2)">
		<stop  offset="0" style="stop-color:#65766A"/>
		<stop  offset="0.0135" style="stop-color:#77887C"/>
		<stop  offset="0.0412" style="stop-color:#9BA89F"/>
		<stop  offset="0.0697" style="stop-color:#BBC5BE"/>
		<stop  offset="0.099" style="stop-color:#D5DCD7"/>
		<stop  offset="0.1291" style="stop-color:#E9EDEA"/>
		<stop  offset="0.1609" style="stop-color:#F8F9F8"/>
		<stop  offset="0.1966" style="stop-color:#FFFFFF"/>
		<stop  offset="0.3826" style="stop-color:#FBFCFB"/>
		<stop  offset="0.465" style="stop-color:#F2F3F3"/>
		<stop  offset="0.527" style="stop-color:#E6E8E7"/>
		<stop  offset="0.5788" style="stop-color:#D5D9D7"/>
		<stop  offset="0.6242" style="stop-color:#C0C5C3"/>
		<stop  offset="0.6644" style="stop-color:#A7AEAB"/>
		<stop  offset="0.6798" style="stop-color:#9CA3A1"/>
		<stop  offset="1" style="stop-color:#000000"/>
	</linearGradient>
	<polygon style="fill:url(#SVGID_128_);" points="39.759,18.047 41.25,19.782 41.547,19.475 41.547,16.709 41.25,16.402 	"/>
	
		<linearGradient id="SVGID_129_" gradientUnits="userSpaceOnUse" x1="37.9201" y1="14.4021" x2="37.9201" y2="17.7816" gradientTransform="matrix(1 0 0 1 0 2)">
		<stop  offset="0.0056" style="stop-color:#000000"/>
		<stop  offset="0.191" style="stop-color:#65766A"/>
		<stop  offset="0.1945" style="stop-color:#748479"/>
		<stop  offset="0.2024" style="stop-color:#93A198"/>
		<stop  offset="0.211" style="stop-color:#B1BCB4"/>
		<stop  offset="0.2203" style="stop-color:#CAD3CC"/>
		<stop  offset="0.2308" style="stop-color:#DEE4E0"/>
		<stop  offset="0.2429" style="stop-color:#EEF1EF"/>
		<stop  offset="0.2581" style="stop-color:#FAFBFA"/>
		<stop  offset="0.2865" style="stop-color:#FFFFFF"/>
		<stop  offset="0.3605" style="stop-color:#FAFBFA"/>
		<stop  offset="0.409" style="stop-color:#F0F2F1"/>
		<stop  offset="0.4502" style="stop-color:#E1E4E3"/>
		<stop  offset="0.4873" style="stop-color:#CED3D1"/>
		<stop  offset="0.5214" style="stop-color:#B6BCBA"/>
		<stop  offset="0.5506" style="stop-color:#9CA3A1"/>
		<stop  offset="0.8034" style="stop-color:#000000"/>
	</linearGradient>
	<rect x="34.591" y="16.402" style="fill:url(#SVGID_129_);" width="6.659" height="3.379"/>
	
		<linearGradient id="SVGID_130_" gradientUnits="userSpaceOnUse" x1="36.4636" y1="14.1955" x2="40.301" y2="17.8351" gradientTransform="matrix(1 0 0 1 0 2)">
		<stop  offset="0.2865" style="stop-color:#FFFFFF"/>
		<stop  offset="0.4439" style="stop-color:#EAECEB"/>
		<stop  offset="0.7578" style="stop-color:#BFC4C2"/>
		<stop  offset="1" style="stop-color:#9CA3A1"/>
	</linearGradient>
	<path style="fill:url(#SVGID_130_);" d="M41.25,18.936c0,0-0.987-0.83-2.364-1.285c-2.548-0.842-4.295,0.443-4.295,0.443v-1.219
		c0,0,1.609,0.437,3.719,0.111c1.135-0.175,1.861-0.584,2.94,0.074L41.25,18.936L41.25,18.936z"/>
</g>
</svg>
