<?xml version="1.0" encoding="utf-8"?>
<!-- Generator: Adobe Illustrator 23.0.1, SVG Export Plug-In . SVG Version: 6.00 Build 0)  -->
<svg version="1.1" id="Layer_1" xmlns="http://www.w3.org/2000/svg" xmlns:xlink="http://www.w3.org/1999/xlink" x="0px" y="0px"
	 viewBox="0 0 850 1100" enable-background="new 0 0 850 1100" xml:space="preserve">
<linearGradient id="SVGID_1_" gradientUnits="userSpaceOnUse" x1="620.1768" y1="830.5084" x2="654.1711" y2="811.665" gradientTransform="matrix(1 0 0 -1 0 1102)">
	<stop  offset="0" style="stop-color:#000000"/>
	<stop  offset="8.988760e-02" style="stop-color:#65766A"/>
	<stop  offset="0.264" style="stop-color:#FFFFFF"/>
	<stop  offset="0.5112" style="stop-color:#9CA3A1"/>
	<stop  offset="0.7865" style="stop-color:#000000"/>
</linearGradient>
<polygon fill="url(#SVGID_1_)" points="574.7,359.6 606.4,376.6 699.6,202.2 668,185.3 "/>
<linearGradient id="SVGID_2_" gradientUnits="userSpaceOnUse" x1="200.7966" y1="812.5408" x2="232.9228" y2="829.6226" gradientTransform="matrix(1 0 0 -1 0 1102)">
	<stop  offset="0" style="stop-color:#000000"/>
	<stop  offset="8.988760e-02" style="stop-color:#65766A"/>
	<stop  offset="0.264" style="stop-color:#FFFFFF"/>
	<stop  offset="0.5112" style="stop-color:#9CA3A1"/>
	<stop  offset="0.7865" style="stop-color:#000000"/>
</linearGradient>
<polygon fill="url(#SVGID_2_)" points="279.3,359.6 247.6,376.6 154.4,202.2 186,185.3 "/>
<radialGradient id="SVGID_3_" cx="427" cy="448.3" r="355.8" gradientTransform="matrix(1 0 0 -1 0 1102)" gradientUnits="userSpaceOnUse">
	<stop  offset="0.6854" style="stop-color:#E4E6D4"/>
	<stop  offset="0.8441" style="stop-color:#E0E2D0"/>
	<stop  offset="0.9012" style="stop-color:#D4D8C5"/>
	<stop  offset="0.942" style="stop-color:#C4C9B5"/>
	<stop  offset="0.9747" style="stop-color:#AEB59F"/>
	<stop  offset="1" style="stop-color:#96A088"/>
</radialGradient>
<circle fill="url(#SVGID_3_)" cx="427" cy="653.7" r="355.8"/>
<g>
	
		<radialGradient id="SVGID_4_" cx="425.7" cy="449.35" r="355.775" gradientTransform="matrix(1 0 0 -1 0 1102)" gradientUnits="userSpaceOnUse">
		<stop  offset="0.2753" style="stop-color:#E4E6D4"/>
		<stop  offset="0.569" style="stop-color:#DEE0CF"/>
		<stop  offset="0.7389" style="stop-color:#D0D4C2"/>
		<stop  offset="0.8767" style="stop-color:#BCC2AE"/>
		<stop  offset="0.9973" style="stop-color:#A1AA94"/>
		<stop  offset="1" style="stop-color:#A0A994"/>
	</radialGradient>
	<path fill="url(#SVGID_4_)" d="M425.7,296.9c-196.5,0-355.8,159.3-355.8,355.8c0,196.4,159.3,355.7,355.8,355.7
		s355.8-159.3,355.8-355.8C781.4,456.2,622.2,296.9,425.7,296.9z M398.5,651.4C114.8,911.2,38.1,684.8,117.7,512.9
		c43.4-93.8,159.8-200.1,308-202.5c179.7-2.9,293.6,145.4,320.5,245.2C805.6,776.1,507.8,551.3,398.5,651.4z"/>
</g>
<g>
	<path d="M475.7,203.8c-3.2-0.6-6.4,1.6-6.9,4.9l-6.5,36.9c-0.6,3.2-3.7,5.8-7,5.7l-15.6-0.6c-3.3-0.1-6.1,2.5-6.2,5.8l-0.1,2.1
		c-0.1,3.3,2.5,6.1,5.8,6.2l13.6,0.5c3.3,0.1,5.5,2.9,4.9,6.1l-0.1,0.3c-0.6,3.2,1.6,6.4,4.9,6.9l2.1,0.4c3.2,0.6,6.4-1.6,6.9-4.9
		l11.1-63c0.6-3.2-1.6-6.4-4.9-6.9L475.7,203.8z"/>
</g>
<linearGradient id="SVGID_5_" gradientUnits="userSpaceOnUse" x1="410.9417" y1="854.25" x2="425.0237" y2="854.25" gradientTransform="matrix(1 0 0 -1 0 1102)">
	<stop  offset="0.1517" style="stop-color:#517382"/>
	<stop  offset="0.9551" style="stop-color:#000000"/>
</linearGradient>
<rect x="410.9" y="219.6" fill="url(#SVGID_5_)" width="14.1" height="56.3"/>
<radialGradient id="SVGID_6_" cx="701.9627" cy="956.0435" r="22.0256" gradientTransform="matrix(1 0 0 -1 0 1102)" gradientUnits="userSpaceOnUse">
	<stop  offset="0" style="stop-color:#FFFFFF"/>
	<stop  offset="0.3652" style="stop-color:#9CA3A1"/>
	<stop  offset="0.4608" style="stop-color:#888A89"/>
	<stop  offset="0.6617" style="stop-color:#585454"/>
	<stop  offset="0.8708" style="stop-color:#000000"/>
</radialGradient>
<path fill="url(#SVGID_6_)" d="M686.7,155.1c0,9.7,7.9,17.6,17.6,17.6c9.7,0,17.6-7.9,17.6-17.6c0-9.7-7.9-17.6-17.6-17.6
	C694.6,137.6,686.7,145.4,686.7,155.1z"/>
<linearGradient id="SVGID_7_" gradientUnits="userSpaceOnUse" x1="674.8266" y1="930.0765" x2="706.6733" y2="912.4235" gradientTransform="matrix(1 0 0 -1 0 1102)">
	<stop  offset="0" style="stop-color:#000000"/>
	<stop  offset="8.988760e-02" style="stop-color:#65766A"/>
	<stop  offset="0.264" style="stop-color:#FFFFFF"/>
	<stop  offset="0.5112" style="stop-color:#9CA3A1"/>
	<stop  offset="0.7865" style="stop-color:#000000"/>
</linearGradient>
<polygon fill="url(#SVGID_7_)" points="667.2,186.7 698.9,203.6 714.3,174.8 682.6,157.9 "/>
<radialGradient id="SVGID_8_" cx="138.6403" cy="953.9731" r="31.1881" gradientTransform="matrix(1 0 0 -1 0 1102)" gradientUnits="userSpaceOnUse">
	<stop  offset="0" style="stop-color:#FFFFFF"/>
	<stop  offset="0.2978" style="stop-color:#9CA3A1"/>
	<stop  offset="0.3891" style="stop-color:#888A89"/>
	<stop  offset="0.5811" style="stop-color:#585454"/>
	<stop  offset="0.7809" style="stop-color:#000000"/>
</radialGradient>
<path fill="url(#SVGID_8_)" d="M167.3,155.1c0,9.7-7.9,17.6-17.6,17.6c-9.7,0-17.6-7.9-17.6-17.6c0-9.7,7.9-17.6,17.6-17.6
	C159.4,137.6,167.3,145.4,167.3,155.1z"/>
<linearGradient id="SVGID_9_" gradientUnits="userSpaceOnUse" x1="147.3569" y1="912.7994" x2="179.1431" y2="929.7005" gradientTransform="matrix(1 0 0 -1 0 1102)">
	<stop  offset="0" style="stop-color:#000000"/>
	<stop  offset="8.988760e-02" style="stop-color:#65766A"/>
	<stop  offset="0.264" style="stop-color:#FFFFFF"/>
	<stop  offset="0.5112" style="stop-color:#9CA3A1"/>
	<stop  offset="0.7865" style="stop-color:#000000"/>
</linearGradient>
<polygon fill="url(#SVGID_9_)" points="186.8,186.7 155.1,203.6 139.7,174.8 171.4,157.9 "/>
<g>
	
		<radialGradient id="SVGID_10_" cx="300.1482" cy="898.4603" r="208.5967" gradientTransform="matrix(1.0282 0 0 -0.8705 -68.3103 850.9291)" gradientUnits="userSpaceOnUse">
		<stop  offset="0" style="stop-color:#9CA3A1"/>
		<stop  offset="0.1465" style="stop-color:#7C7C7B"/>
		<stop  offset="0.3547" style="stop-color:#555051"/>
		<stop  offset="0.5383" style="stop-color:#362F30"/>
		<stop  offset="0.6886" style="stop-color:#151111"/>
		<stop  offset="0.7865" style="stop-color:#000000"/>
	</radialGradient>
	<path fill="url(#SVGID_10_)" d="M740.7,221.5c3.5-7.5-4.3-11.3-6.2-12c-7.6-2.8-15.3-5.5-22.8-8.1c-25.8-9-48.1-19-57.2-26.6
		c-12.4-10.5-11.9-32.9-11.8-47.6c0.1-11.9,0.2-24.1-5.8-35.5c-21.8-41.4-91.5-62.5-207.2-62.5s-185.4,21-207.2,62.5
		c-6,11.3-5.9,23.6-5.8,35.5c0.1,14.6,0.7,37-11.8,47.6c-9,7.7-31.4,17.6-57.2,26.6c-7.5,2.6-15.1,5.3-22.7,8.1
		c-2,0.7-7.9,5.4-5.4,11.6c3.3,8,11.9,6.8,13.9,6.1c7.2-2.6,14.5-5.2,21.7-7.7c33.7-11.8,62.7-21.9,75.4-36.3
		c16.8-19,16.6-39.6,16.4-56.1c-0.1-10-0.2-18.6,3.1-24.8c16-30.4,79.8-47.2,179.4-47.2c99.7,0,163.4,16.8,179.4,47.2
		c3.3,6.2,3.2,14.8,3.1,24.8c-0.1,16.5-0.3,37.1,16.4,56.1c12.7,14.4,41.7,24.5,75.4,36.3c6.9,2.4,13.9,4.9,20.8,7.4
		C727.3,227.7,736.6,230.3,740.7,221.5z"/>
	
		<radialGradient id="SVGID_11_" cx="291.402" cy="922.9796" r="207.3831" gradientTransform="matrix(1.0235 0 0 -0.892 -56.883 892.6826)" gradientUnits="userSpaceOnUse">
		<stop  offset="0" style="stop-color:#ABB1AF"/>
		<stop  offset="5.912214e-02" style="stop-color:#9FA2A0"/>
		<stop  offset="0.2959" style="stop-color:#767373"/>
		<stop  offset="0.5046" style="stop-color:#5B5455"/>
		<stop  offset="0.6752" style="stop-color:#494142"/>
		<stop  offset="0.7865" style="stop-color:#423A3B"/>
	</radialGradient>
	<path fill="url(#SVGID_11_)" d="M224.2,92.2c-5.8,11.1-5.7,23.1-5.6,34.9c0,0.3,0,0.8,0,1c0.1,14.5,0.3,35.9-11.5,46.6
		c-1.6,1.4-3.5,2.9-5.8,4.4c-10.9,7.2-30.4,15.5-50.9,22.7c-3.7,1.3-7.4,2.6-11,3.9c-3.2,1.1-8.4,3-11.6,4.2
		c-1.4,0.5-6.8,3.9-6.7,7.8c-0.1,0.5-0.1,1.1,0.1,1.7c0.1,0.4,0.3,0.8,0.4,1.1c0.1,0.2,0.2,0.4,0.3,0.5c3.5,5.9,13.3,3.8,14.9,3.3
		c7.2-2.6,14.5-5.2,21.6-7.7C180,209,199.4,202,213,194c8-4.8,14.3-9.9,18.5-15.4c7.3-9.5,10.8-19.3,12.5-28.8
		c1.8-10,1.8-19.4,2.3-27.8c0.6-9.4,1.4-17.6,5.2-23.7c18.3-29,81.1-45,178.3-45c98.2,0,161.4,16.2,179.2,45.8
		c2.7,4.4,3.7,9.9,4.3,16.1c0.2,2.6,0.4,5.2,0.5,8c0.2,6.6,0.1,13.8,1,21.4c1.3,11.3,4.6,23.3,13.8,34.9c3.3,4.1,7.7,8,13.2,11.6
		c14.1,9.4,36,17.2,60.7,25.8c4.8,1.7,9.6,3.4,14.4,5.1c0.1,0,0.3,0.1,0.4,0.1c1.7,0.6,4.3,1.5,5.9,2.1c1.7,0.6,10.9,3.4,14.6-2
		c0.4-0.4,0.9-0.9,1.2-1.5c0.2-0.4,0.4-0.7,0.5-1.2c0.1-0.2,0.1-0.4,0.2-0.5c0.1-0.5,0.1-1,0-1.4c0.1-4.5-5.6-7.1-7.7-7.9
		c-4.2-1.5-8.4-3-11.6-4.2c-3.6-1.3-7.3-2.6-11-3.9c-20.8-7.3-40.4-15.7-51.3-23c-2.1-1.4-3.9-2.8-5.3-4.1
		c-12.1-11-11.6-33-11.5-47.6c0-0.3,0-0.8,0-1.2c0.1-11.5,0-23.2-5.6-33.9C614,51.3,544.8,30.6,429.9,30.6
		C314.9,30.6,245.7,51.3,224.2,92.2z"/>
	
		<radialGradient id="SVGID_12_" cx="282.5298" cy="946.3124" r="206.3334" gradientTransform="matrix(1.0188 0 0 -0.9136 -45.5191 934.5515)" gradientUnits="userSpaceOnUse">
		<stop  offset="0" style="stop-color:#BAC0BE"/>
		<stop  offset="0.214" style="stop-color:#989797"/>
		<stop  offset="0.4567" style="stop-color:#7B7677"/>
		<stop  offset="0.6563" style="stop-color:#6A6365"/>
		<stop  offset="0.7865" style="stop-color:#645C5E"/>
	</radialGradient>
	<path fill="url(#SVGID_12_)" d="M225.6,92.6c-5.7,10.8-5.6,22.6-5.5,34.3c0,0.2,0,0.8,0,1.1c0.1,14.4,0.3,35.4-11.1,46.7
		c-1.5,1.5-3.4,3.1-5.6,4.6c-10.9,7.5-30.8,16-50.6,23.1c-3.8,1.3-7.5,2.7-11,3.9c-2.6,0.9-9,3.2-11.6,4.2c-1.1,0.4-7.5,3.9-7.4,7
		c-0.1,0.5-0.3,1.1-0.1,1.7c0.2,0.5,0.3,0.8,0.5,1.1c0.1,0.2,0.3,0.3,0.4,0.4c3.4,4.5,14.9,1.6,16.2,1.1c7.2-2.6,14.4-5.1,21.5-7.6
		c21.9-7.8,41.2-14.9,53.8-23.3c7.6-5.1,13.3-10.6,17.1-16.4c6.5-9.7,9.3-19.6,10.6-29.2c1.4-10.2,1.5-19.6,2.7-27.9
		c1.3-8.8,2.9-16.6,7.3-22.6C273.4,67.2,335.2,52,430,52c96.7,0,159.4,15.7,179.1,44.5c3,4.3,4.4,9.6,5.4,15.5
		c0.4,2.5,0.7,5.2,0.9,7.9c0.4,6.5,0.4,13.7,1,21.3c1,11.4,3.6,23.5,12.1,35.2c3.1,4.3,7.2,8.3,12.4,12.2c13.1,9.7,35,17.6,60,26.4
		c4.7,1.7,9.5,3.3,14.3,5c0.1,0,0.3,0.1,0.4,0.1c1.3,0.5,4.6,1.6,5.9,2.1c1.4,0.5,11.7,3.8,14.7-0.6c0.5-0.3,1-0.7,1.4-1.1
		c0.2-0.3,0.4-0.7,0.6-1.2c0.1-0.2,0.1-0.4,0.2-0.5c0-0.4-0.1-0.9-0.2-1.3c0-3.6-5.6-6.1-8.4-7.1c-4.5-1.6-9-3.2-11.6-4.1
		c-3.5-1.2-7.2-2.6-11-3.9c-20-7.1-40.1-15.7-50.9-23.3c-2-1.4-3.7-2.8-5.2-4.2c-11.7-11.5-11.3-33.2-11.2-47.6c0-0.3,0-0.9,0-1.2
		c0.1-11.5,0.1-23-5.5-33.5c-21.6-40.3-90.3-60.8-204.6-60.8C315.6,31.8,246.9,52.3,225.6,92.6z"/>
	
		<radialGradient id="SVGID_13_" cx="273.5618" cy="968.5303" r="205.3936" gradientTransform="matrix(1.0141 0 0 -0.9352 -34.1552 976.4114)" gradientUnits="userSpaceOnUse">
		<stop  offset="0" style="stop-color:#CACFCD"/>
		<stop  offset="8.579090e-02" style="stop-color:#BEC0BF"/>
		<stop  offset="0.383" style="stop-color:#9E9A9B"/>
		<stop  offset="0.6272" style="stop-color:#8B8587"/>
		<stop  offset="0.7865" style="stop-color:#857E80"/>
	</radialGradient>
	<path fill="url(#SVGID_13_)" d="M227.1,93c-5.5,10.5-5.4,22.1-5.3,33.8c0,0.2,0,0.9,0,1.1c0.1,14.2,0.3,35-10.8,46.8
		c-1.5,1.6-3.3,3.2-5.5,4.7c-10.8,7.8-31.2,16.5-50.3,23.4c-3.8,1.4-7.5,2.7-11,3.9c-1.9,0.7-9.7,3.4-11.6,4.1
		c-0.8,0.3-8.2,3.8-8.1,6.2c-0.2,0.4-0.5,1.1-0.3,1.6c0.2,0.6,0.4,0.9,0.5,1.1c0.1,0.1,0.3,0.2,0.5,0.3c3.4,3.1,16.5-0.7,17.5-1.1
		c7.2-2.6,14.4-5.1,21.3-7.6c22.2-7.9,41.4-15.3,52.9-24c7.2-5.5,12.3-11.4,15.7-17.4c5.6-9.9,7.7-20,8.7-29.5
		c1.1-10.4,1.1-19.8,3-28c1.9-8.3,4.3-15.6,9.4-21.4c22.8-26.2,83.8-40.6,176-40.6c95.3,0,157.5,15.2,178.9,43.1
		c3.3,4.3,5.2,9.3,6.6,14.9c0.6,2.5,1.1,5.1,1.3,7.8c0.7,6.4,0.6,13.5,1.1,21.2c0.7,11.4,2.7,23.7,10.3,35.6
		c2.8,4.4,6.6,8.7,11.6,12.8c12.2,9.9,34,18,59.3,26.9c4.7,1.6,9.5,3.3,14.3,5c0.1,0,0.3,0.1,0.4,0.1c1,0.4,4.8,1.7,5.8,2.1
		c1,0.4,12.5,4.2,14.7,0.9c0.5-0.1,1.2-0.4,1.5-0.8c0.2-0.3,0.4-0.6,0.6-1.1c0.1-0.2,0.1-0.4,0.2-0.5c0-0.4-0.3-0.9-0.5-1.2
		c-0.2-2.8-5.7-5.1-9.1-6.3c-4.8-1.7-9.6-3.4-11.6-4.1c-3.5-1.2-7.2-2.5-11-3.9c-19.3-6.9-39.8-15.7-50.6-23.6
		c-1.9-1.4-3.6-2.9-5-4.4c-11.4-11.9-11-33.3-10.9-47.6c0-0.2,0-0.9,0-1.1c0.1-11.5,0.1-22.8-5.3-33.2c-21-39.8-89.2-60-202.7-60
		C316.3,33,248.1,53.2,227.1,93z"/>
	
		<radialGradient id="SVGID_14_" cx="264.5085" cy="989.7032" r="204.5393" gradientTransform="matrix(1.0094 0 0 -0.9568 -22.7913 1018.2713)" gradientUnits="userSpaceOnUse">
		<stop  offset="0" style="stop-color:#DADDDC"/>
		<stop  offset="0.2509" style="stop-color:#C4C2C3"/>
		<stop  offset="0.5747" style="stop-color:#B0ABAC"/>
		<stop  offset="0.7865" style="stop-color:#A8A3A4"/>
	</radialGradient>
	<path fill="url(#SVGID_14_)" d="M228.5,93.4c-5.4,10.2-5.3,21.6-5.2,33.2c0,0.1,0,0.9,0,1.1c0.1,14.1,0.3,34.6-10.4,47
		c-1.5,1.7-3.3,3.4-5.3,4.9c-10.7,8.2-31.6,17.1-50,23.8c-3.9,1.4-7.6,2.7-11,3.9c-1.3,0.5-10.3,3.7-11.6,4.1
		c-0.5,0.2-8.9,3.8-8.9,5.3c-0.2,0.4-0.6,1-0.4,1.6s0.5,0.9,0.5,1.1c0.1,0.1,0.3,0.2,0.5,0.2c3.3,1.7,18.1-3,18.8-3.2
		c7.2-2.6,14.3-5,21.2-7.5c22.5-8.1,41.5-15.6,52.1-24.8c6.8-5.9,11.3-12.1,14.3-18.5c4.8-10.1,6.2-20.3,6.8-29.9
		c0.7-10.5,0.7-19.9,3.3-28c2.4-7.7,5.8-14.6,11.5-20.3C279.8,62.5,340,49,429.8,49c93.8,0,155.6,14.6,178.7,41.7
		c3.6,4.2,6,9,7.7,14.3c0.8,2.4,1.4,5,1.8,7.7c0.9,6.3,0.9,13.4,1.2,21.1c0.4,11.5,1.7,23.8,8.6,35.9c2.6,4.6,6.1,9.1,10.8,13.4
		c11.2,10.2,33,18.5,58.6,27.5c4.6,1.6,9.4,3.3,14.2,5l0.4,0.1c0.7,0.2,5.1,1.8,5.8,2.1s13.3,4.5,14.7,2.3c0.6,0,1.3-0.1,1.7-0.4
		c0.2-0.2,0.4-0.6,0.6-1.1c0.1-0.2,0.1-0.4,0.2-0.5c-0.1-0.4-0.4-0.8-0.7-1.1c-0.4-1.9-5.7-4.1-9.7-5.5c-5.1-1.8-10.2-3.6-11.5-4.1
		c-3.4-1.2-7.1-2.5-10.9-3.9c-18.5-6.8-39.6-15.7-50.2-23.9c-1.9-1.4-3.5-3-4.9-4.5c-11-12.4-10.8-33.4-10.6-47.6c0-0.1,0-1,0-1.1
		c0.1-11.5,0.1-22.7-5.2-32.8c-20.7-39.4-88.5-59.3-201.3-59.3S249.2,54.2,228.5,93.4z"/>
	
		<radialGradient id="SVGID_15_" cx="255.3786" cy="1009.8936" r="203.7654" gradientTransform="matrix(1.0047 0 0 -0.9784 -11.3639 1060.1401)" gradientUnits="userSpaceOnUse">
		<stop  offset="0" style="stop-color:#EAECEB"/>
		<stop  offset="0.4417" style="stop-color:#D7D5D5"/>
		<stop  offset="0.7865" style="stop-color:#CFCCCC"/>
	</radialGradient>
	<path fill="url(#SVGID_15_)" d="M230,93.9c-5.2,10-5.1,21-5,32.6c0,0.1,0,1,0,1.1c0.1,14,0.3,34.2-10.1,47.1
		c-1.5,1.8-3.2,3.5-5.1,5.1c-10.5,8.5-32,17.6-49.7,24.1c-3.9,1.5-7.6,2.8-10.9,3.9c-0.6,0.2-10.9,3.9-11.6,4.1
		c-0.3,0.1-9.6,3.7-9.6,4.5c-0.3,0.3-0.8,1-0.6,1.5c0.3,0.7,0.5,0.9,0.6,1s0.4,0.1,0.6,0.1c3.3,0.3,19.8-5.3,20.1-5.4
		c7.2-2.6,14.3-5,21-7.4c22.8-8.2,41.7-16,51.2-25.5c6.3-6.3,10.4-12.9,12.9-19.5c4-10.3,4.6-20.6,4.9-30.3
		c0.3-10.7,0.3-20.1,3.6-28.1c3-7.1,7.3-13.6,13.7-19.2c27-23.5,86.5-36.2,173.8-36.2c92.3,0,153.7,14,178.5,40.4
		c3.9,4.1,6.8,8.7,8.9,13.7c1,2.4,1.7,4.9,2.2,7.5c1.2,6.3,1.1,13.3,1.2,20.9c0.2,11.5,0.8,24,6.9,36.3c2.4,4.7,5.6,9.4,10.1,13.9
		c10.3,10.4,32,18.9,57.9,28.1c4.6,1.6,9.3,3.3,14.1,5l0.4,0.1c0.3,0.1,5.4,1.9,5.8,2c0.3,0.1,14,4.9,14.8,3.8
		c0.7,0.1,1.5,0.1,1.8,0c0.1-0.2,0.4-0.5,0.7-1.1c0.1-0.3,0.2-0.4,0.2-0.5c-0.1-0.3-0.6-0.7-1-1c-0.5-1.1-5.8-3.1-10.4-4.7
		c-5.4-1.9-10.8-3.8-11.5-4.1c-3.3-1.2-7-2.5-10.9-3.9c-17.8-6.6-39.3-15.7-49.9-24.2c-1.8-1.4-3.4-3-4.8-4.7
		c-10.7-12.8-10.5-33.5-10.3-47.6c0-0.1,0-1,0-1.1c0.1-11.5,0.2-22.5-5-32.4c-20.4-38.7-87.6-58.3-199.7-58.3
		C317.6,35.5,250.4,55.1,230,93.9z"/>
	<path fill="#FFFFFF" d="M730.4,216.2c-1.4-0.5-22.4-7.9-22.5-8c-17-5.9-47.5-17.5-60.3-28.4c-15-12.7-14.8-36.6-14.7-52.4v-1.1
		c0.1-11.5,0.2-22.3-4.9-32c-20.1-38.2-86.8-57.6-198.3-57.6S251.5,56.1,231.4,94.3c-5.1,9.7-5,20.5-4.9,32v1.1
		c0.1,15.8,0.4,39.7-14.7,52.4c-12.9,10.9-43.3,22.5-60.3,28.4l-21.8,7.7c-0.4,0.3-1,1-0.8,1.5c0.3,0.8,0.6,1,0.6,1
		c0.1,0,0.4,0,0.7,0c3.2-1.1,21.4-7.6,21.4-7.6c32.3-11.3,60.2-21,71.3-33.6c14.8-16.8,14.6-35,14.5-51.1c-0.1-10.9-0.2-20.3,4-28.2
		c18-34.1,83.1-52.1,188.4-52.1s170.4,18,188.4,52.1c4.2,7.9,4.1,17.3,4,28.2c-0.1,16.1-0.3,34.3,14.5,51.1
		c11,12.5,38.9,22.3,71.3,33.6l0.4,0.1l20.4,7.5c0.7,0.3,1.6,0.4,2,0.3c0.1-0.1,0.4-0.5,0.7-1.1c0.1-0.3,0.2-0.4,0.2-0.5
		C731.5,216.8,730.9,216.4,730.4,216.2z"/>
</g>
<g>
	<path d="M728,1058.5c0,0,0.3,4.8-9.7,9.7c-9.9,4.8-13.3,3.2-13.3,3.2l4.2-16.6L728,1058.5z"/>
	
		<linearGradient id="SVGID_16_" gradientUnits="userSpaceOnUse" x1="4352.0415" y1="115.6249" x2="4435.4917" y2="61.7776" gradientTransform="matrix(-1 0 0 -1 5066.8975 1102)">
		<stop  offset="0" style="stop-color:#65766A"/>
		<stop  offset="0.2809" style="stop-color:#9CA3A1"/>
		<stop  offset="1" style="stop-color:#000000"/>
	</linearGradient>
	<path fill="url(#SVGID_16_)" d="M728,1058.5c-14.9-39.8-30.4-81.2-30.4-81.2s-21.9-18.2-39.9-33.2l-17.9,10.1
		c4.1,22.8,9.2,50.7,9.2,50.7s28.5,33.9,56,66.5L728,1058.5z"/>
	<g>
		
			<linearGradient id="SVGID_17_" gradientUnits="userSpaceOnUse" x1="4350.7275" y1="84.2928" x2="4399.1621" y2="62.7282" gradientTransform="matrix(-1 0 0 -1 5066.8975 1102)">
			<stop  offset="0" style="stop-color:#65766A"/>
			<stop  offset="0.264" style="stop-color:#FFFFFF"/>
			<stop  offset="0.5112" style="stop-color:#9CA3A1"/>
			<stop  offset="0.7865" style="stop-color:#000000"/>
		</linearGradient>
		<path fill="url(#SVGID_17_)" d="M728,1058.5l-23,12.9c-27.5-32.6-56-66.5-56-66.5l48.5-27.6C697.5,977.3,713.1,1018.7,728,1058.5z
			"/>
		
			<linearGradient id="SVGID_18_" gradientUnits="userSpaceOnUse" x1="4388.4409" y1="145.9065" x2="4424.0845" y2="110.8089" gradientTransform="matrix(-1 0 0 -1 5066.8975 1102)">
			<stop  offset="0" style="stop-color:#65766A"/>
			<stop  offset="0.309" style="stop-color:#FFFFFF"/>
			<stop  offset="0.5112" style="stop-color:#9CA3A1"/>
			<stop  offset="0.7865" style="stop-color:#000000"/>
		</linearGradient>
		<path fill="url(#SVGID_18_)" d="M657.6,944.1c18,15,39.9,33.2,39.9,33.2l-48.5,27.6c0,0-5-27.8-9.2-50.7L657.6,944.1z"/>
	</g>
	
		<linearGradient id="SVGID_19_" gradientUnits="userSpaceOnUse" x1="4367.4365" y1="125.5007" x2="4419.4082" y2="94.101" gradientTransform="matrix(-1 0 0 -1 5066.8975 1102)">
		<stop  offset="1.123600e-02" style="stop-color:#000000"/>
		<stop  offset="0.118" style="stop-color:#ADB9B1"/>
		<stop  offset="0.2528" style="stop-color:#FFFFFF"/>
		<stop  offset="0.2865" style="stop-color:#F3F4F4"/>
		<stop  offset="0.3402" style="stop-color:#DDE0DE"/>
		<stop  offset="0.4068" style="stop-color:#BBC0BE"/>
		<stop  offset="0.4607" style="stop-color:#9CA3A1"/>
		<stop  offset="0.6461" style="stop-color:#000000"/>
	</linearGradient>
	<path fill="url(#SVGID_19_)" d="M697.5,977.3c0,0-9.3,3.6-21.7,10.7c-12.4,7.1-26.8,16.9-26.8,16.9s16.4-4.1,33.7-15.5
		C700,978,697.5,977.3,697.5,977.3"/>
</g>
<path d="M126,1058.5c0,0-0.3,4.8,9.7,9.7c9.9,4.8,13.3,3.2,13.3,3.2l-4.2-16.6L126,1058.5z"/>
<linearGradient id="SVGID_20_" gradientUnits="userSpaceOnUse" x1="139.1253" y1="115.6045" x2="222.5757" y2="61.7572" gradientTransform="matrix(1 0 0 -1 0 1102)">
	<stop  offset="0" style="stop-color:#65766A"/>
	<stop  offset="0.2809" style="stop-color:#9CA3A1"/>
	<stop  offset="1" style="stop-color:#000000"/>
</linearGradient>
<path fill="url(#SVGID_20_)" d="M126,1058.5c14.9-39.8,30.4-81.2,30.4-81.2s21.9-18.2,39.9-33.2l17.8,10.1
	c-4.1,22.8-9.2,50.7-9.2,50.7s-28.5,33.9-56,66.5L126,1058.5z"/>
<g>
	
		<linearGradient id="SVGID_21_" gradientUnits="userSpaceOnUse" x1="137.8241" y1="84.2954" x2="186.2589" y2="62.7309" gradientTransform="matrix(1 0 0 -1 0 1102)">
		<stop  offset="0" style="stop-color:#65766A"/>
		<stop  offset="0.264" style="stop-color:#FFFFFF"/>
		<stop  offset="0.5112" style="stop-color:#9CA3A1"/>
		<stop  offset="0.7865" style="stop-color:#000000"/>
	</linearGradient>
	<path fill="url(#SVGID_21_)" d="M126,1058.5l23,12.9c27.5-32.6,56-66.5,56-66.5l-48.5-27.6C156.5,977.3,140.9,1018.7,126,1058.5z"
		/>
	
		<linearGradient id="SVGID_22_" gradientUnits="userSpaceOnUse" x1="175.54" y1="145.9096" x2="211.1837" y2="110.8122" gradientTransform="matrix(1 0 0 -1 0 1102)">
		<stop  offset="0" style="stop-color:#65766A"/>
		<stop  offset="0.309" style="stop-color:#FFFFFF"/>
		<stop  offset="0.5112" style="stop-color:#9CA3A1"/>
		<stop  offset="0.7865" style="stop-color:#000000"/>
	</linearGradient>
	<path fill="url(#SVGID_22_)" d="M196.4,944.1c-18,15-39.9,33.2-39.9,33.2l48.5,27.6c0,0,5-27.8,9.2-50.7L196.4,944.1z"/>
</g>
<radialGradient id="SVGID_23_" cx="638.0875" cy="827.5922" r="131.8821" gradientTransform="matrix(1 0 0 -1 0 1102)" gradientUnits="userSpaceOnUse">
	<stop  offset="0.1348" style="stop-color:#DFE0E5"/>
	<stop  offset="0.1422" style="stop-color:#DCDEE2"/>
	<stop  offset="0.39" style="stop-color:#A2A4A8"/>
	<stop  offset="0.6081" style="stop-color:#747578"/>
	<stop  offset="0.7885" style="stop-color:#4E4F51"/>
	<stop  offset="0.9243" style="stop-color:#262526"/>
	<stop  offset="1" style="stop-color:#000000"/>
</radialGradient>
<path fill="url(#SVGID_23_)" d="M771.6,383.9c1.2-1.8,2.3-3.6,3.4-5.5c40.3-68.6-11-127.2-89.7-173.4s-154.8-62.5-195.1,6.1
	c-1.1,1.9-2.1,3.7-3.1,5.6L771.6,383.9z"/>
<radialGradient id="SVGID_24_" cx="542.8206" cy="931.9387" r="78.8963" gradientTransform="matrix(1 0 0 -1 0 1102)" gradientUnits="userSpaceOnUse">
	<stop  offset="0.1348" style="stop-color:#DFE0E5"/>
	<stop  offset="0.1422" style="stop-color:#DCDEE2"/>
	<stop  offset="0.39" style="stop-color:#A2A4A8"/>
	<stop  offset="0.6081" style="stop-color:#747578"/>
	<stop  offset="0.7885" style="stop-color:#4E4F51"/>
	<stop  offset="0.9243" style="stop-color:#262526"/>
	<stop  offset="1" style="stop-color:#000000"/>
</radialGradient>
<path fill="url(#SVGID_24_)" d="M770.5,386.7c1.2-1.8,2.3-3.6,3.4-5.5c40.3-68.6-11-127.2-89.7-173.4s-154.8-62.5-195.1,6.1
	c-1.1,1.9-2.1,3.7-3.1,5.6L770.5,386.7z"/>
<radialGradient id="SVGID_25_" cx="427" cy="448.3" r="397.8" gradientTransform="matrix(1 0 0 -1 0 1102)" gradientUnits="userSpaceOnUse">
	<stop  offset="0.8876" style="stop-color:#000000"/>
	<stop  offset="0.9326" style="stop-color:#517382"/>
	<stop  offset="1" style="stop-color:#000000"/>
</radialGradient>
<path fill="url(#SVGID_25_)" d="M824.8,653.7c0,219.7-178.1,397.8-397.8,397.8S29.2,873.4,29.2,653.7S207.3,255.9,427,255.9
	S824.8,434,824.8,653.7z M427,298C230.5,298,71.2,457.3,71.2,653.8s159.3,355.8,355.8,355.8s355.8-159.3,355.8-355.8
	C782.8,457.2,623.5,298,427,298z"/>
<radialGradient id="SVGID_26_" cx="427" cy="448.2999" r="319.7" gradientTransform="matrix(1 0 0 -1 0 1102)" gradientUnits="userSpaceOnUse">
	<stop  offset="0.8258" style="stop-color:#5A4037"/>
	<stop  offset="1" style="stop-color:#000000"/>
</radialGradient>
<path fill="url(#SVGID_26_)" d="M653.1,427.6C592.7,367.2,512.4,334,427,334s-165.7,33.3-226.1,93.6
	c-60.4,60.4-93.6,140.7-93.6,226.1c0,176.3,143.4,319.7,319.7,319.7S746.7,830,746.7,653.7C746.7,568.3,713.5,488,653.1,427.6z
	 M741.8,619.9l-21.6,2.3c-1-9.8-2.6-19.5-4.6-29l21.3-4.5C739,598.9,740.6,609.3,741.8,619.9z M720.3,653.7
	c0,39.6-7.8,78-23.1,114.2c-14.8,34.9-35.9,66.3-62.9,93.2C607.4,888,576,909.2,541.1,924c-36.2,15.3-74.6,23-114.2,23
	s-78-7.8-114.2-23c-34.9-14.8-66.3-35.9-93.2-62.9c-26.9-26.9-48.1-58.3-62.9-93.2c-15.3-36.2-23-74.6-23-114.2s7.8-78,23-114.2
	c14.8-34.9,35.9-66.3,62.9-93.2c26.9-26.9,58.3-48.1,93.2-62.9c36.2-15.3,74.6-23,114.2-23s78,7.8,114.2,23
	c34.9,14.8,66.3,35.9,93.2,62.9c26.9,26.9,48.1,58.3,62.9,93.2C712.6,575.7,720.3,614.1,720.3,653.7z M736.6,587.2l-21.3,4.5
	c-2-9.6-4.6-19-7.6-28.4l20.8-6.7C731.6,566.6,734.4,576.8,736.6,587.2z M728,555.2l-20.8,6.7c-2.5-7.7-5.4-15.4-8.6-22.9
	c-0.6-1.5-1.3-3-2-4.5l20-8.9C720.9,535.2,724.7,545.1,728,555.2z M697.4,489l-12.6,15.9l20.1-3c4,7.3,7.7,14.7,11.1,22.3l-20,8.9
	c-8.3-18.4-18.3-35.8-30.1-52.1l17.6-12.8C688.5,475,693.1,481.9,697.4,489z M682.7,467l-17.6,12.8c-5.8-7.9-11.9-15.5-18.5-22.8
	l16.2-14.6C669.8,450.4,676.5,458.6,682.7,467z M650.8,429.9c3.7,3.7,7.4,7.6,10.9,11.5L645.5,456c-3.3-3.6-6.7-7.2-10.1-10.6
	c-3.5-3.5-7-6.9-10.6-10.1l14.6-16.2C643.3,422.5,647.1,426.1,650.8,429.9z M638.3,418l-14.6,16.2c-7.3-6.6-14.9-12.7-22.8-18.5
	l12.8-17.6C622.2,404.2,630.4,410.9,638.3,418z M578.8,375.8l-3,20.1l15.9-12.6c7.1,4.3,14,8.9,20.7,13.8l-12.8,17.6
	c-16.3-11.8-33.7-21.8-52.1-30.1l8.9-20C564.1,368.1,571.5,371.8,578.8,375.8z M555.1,364.1l-8.9,20c-1.5-0.7-3-1.3-4.5-2
	c-7.5-3.2-15.2-6-22.9-8.6l6.8-20.8C535.6,356,545.5,359.8,555.1,364.1z M524.2,352.3l-6.8,20.8c-9.3-3-18.8-5.5-28.4-7.6l4.5-21.3
	C503.9,346.4,514.1,349.1,524.2,352.3z M492.1,343.8l-4.5,21.3c-9.6-2-19.3-3.5-29-4.6l2.3-21.7
	C471.4,340.1,481.8,341.7,492.1,343.8z M419.6,337.3L427,356l7.4-18.7c8.4,0.2,16.7,0.7,24.9,1.5l-2.3,21.6c-9.9-1-20-1.5-30.1-1.5
	s-20.1,0.5-30.1,1.5l-2.3-21.6C402.9,338,411.2,337.4,419.6,337.3z M393.2,339l2.3,21.7c-9.8,1-19.5,2.6-29,4.6L362,344
	C372.2,341.7,382.6,340.1,393.2,339z M360.4,344.2l4.5,21.3c-9.6,2.1-19,4.6-28.4,7.6l-6.8-20.8
	C339.9,349.1,350.1,346.4,360.4,344.2z M328.4,352.7l6.8,20.8c-7.7,2.5-15.4,5.4-22.9,8.6c-1.5,0.6-3,1.3-4.5,2l-8.9-20
	C308.5,359.8,318.4,356,328.4,352.7z M262.2,383.3l15.9,12.6l-3-20.1c7.3-4,14.7-7.7,22.3-11.1l8.9,20
	c-18.4,8.3-35.8,18.3-52.1,30.1l-12.8-17.6C248.2,392.2,255.2,387.6,262.2,383.3z M240.3,398l12.8,17.6
	c-7.9,5.8-15.5,11.9-22.8,18.5l-14.6-16.2C223.6,410.9,231.8,404.2,240.3,398z M203.2,429.9c3.7-3.7,7.6-7.4,11.5-10.9l14.6,16.2
	c-3.6,3.3-7.2,6.7-10.6,10.1c-3.5,3.5-6.8,7-10.1,10.6l-16.2-14.6C195.8,437.4,199.4,433.6,203.2,429.9z M191.3,442.5l16.2,14.6
	c-6.6,7.3-12.7,14.9-18.5,22.8l-17.6-12.8C177.5,458.6,184.2,450.4,191.3,442.5z M149.1,501.9l20.1,3L156.6,489
	c4.3-7.1,8.9-14,13.8-20.7l17.6,12.8c-11.8,16.3-21.9,33.7-30.1,52.1l-20-8.9C141.4,516.6,145.1,509.2,149.1,501.9z M137.3,525.6
	l20,8.9c-0.7,1.5-1.3,3-2,4.5c-3.2,7.5-6,15.2-8.6,22.9l-20.8-6.8C129.3,545.1,133.1,535.2,137.3,525.6z M125.6,556.6l20.8,6.7
	c-3,9.3-5.5,18.8-7.6,28.4l-21.3-4.5C119.6,576.8,122.3,566.6,125.6,556.6z M117.1,588.6l21.3,4.5c-2,9.6-3.5,19.3-4.6,29l-21.6-2.3
	C113.3,609.3,115,598.9,117.1,588.6z M110.5,661.2l18.7-7.4l-18.7-7.4c0.2-8.4,0.7-16.7,1.5-24.9l21.6,2.3c-1,9.9-1.5,20-1.5,30.1
	s0.5,20.1,1.5,30.1l-21.6,2.3C111.2,677.9,110.7,669.5,110.5,661.2z M112.2,687.5l21.6-2.3c1,9.8,2.6,19.5,4.6,29l-21.3,4.5
	C115,708.6,113.4,698.1,112.2,687.5z M117.5,720.3l21.3-4.5c2.1,9.6,4.6,19,7.6,28.4l-20.6,6.7C122.5,740.9,119.7,730.7,117.5,720.3
	z M126.2,752.2l20.6-6.7c2.5,7.7,5.4,15.4,8.6,22.9c0.6,1.5,1.3,3,2,4.5l-19.8,8.8C133.3,772.2,129.5,762.3,126.2,752.2z
	 M156.7,818.3l12.5-15.7l-19.9,2.9c-4-7.3-7.7-14.7-11.1-22.4l19.8-8.8c8.3,18.4,18.3,35.8,30.1,52.1l-17.5,12.7
	C165.7,832.4,161.1,825.5,156.7,818.3z M171.4,840.3l17.5-12.7c5.8,7.9,11.9,15.5,18.5,22.8l-16.1,14.5
	C184.3,857,177.7,848.8,171.4,840.3z M192.4,866l16.1-14.5c3.3,3.6,6.7,7.2,10.1,10.6c3.5,3.5,7,6.8,10.6,10.1l-14.5,16.2
	C206.9,881.3,199.4,873.8,192.4,866z M215.8,889.3l14.5-16.1c7.3,6.6,14.9,12.7,22.8,18.5l-12.7,17.5
	C231.9,903,223.7,896.4,215.8,889.3z M275.2,931.5l2.9-19.9l-15.8,12.5c-7.1-4.4-14-9-20.8-13.9l12.7-17.5
	c16.3,11.8,33.7,21.9,52.1,30.1l-8.8,19.8C290,939.2,282.5,935.4,275.2,931.5z M298.9,943.2l8.8-19.8c1.5,0.7,3,1.3,4.5,2
	c7.5,3.2,15.2,6,22.9,8.6l-6.7,20.6C318.4,951.3,308.5,947.5,298.9,943.2z M329.9,955l6.7-20.6c9.3,3,18.8,5.5,28.4,7.6l-4.5,21.3
	C350.1,961,339.9,958.2,329.9,955z M361.9,963.5l4.5-21.3c9.6,2,19.3,3.5,29,4.6l-2.3,21.6C382.6,967.3,372.2,965.7,361.9,963.5z
	 M434.4,970.2l-7.4-18.7l-7.4,18.7c-8.4-0.2-16.7-0.7-24.9-1.5l2.3-21.6c9.9,1,20,1.5,30.1,1.5s20.1-0.5,30.1-1.5l2.3,21.6
	C451.1,969.5,442.8,970,434.4,970.2z M460.8,968.5l-2.3-21.6c9.8-1,19.5-2.6,29-4.6l4.5,21.3C481.8,965.7,471.4,967.3,460.8,968.5z
	 M493.5,963.2l-4.5-21.3c9.6-2.1,19-4.6,28.4-7.6l6.7,20.6C514.1,958.2,503.9,961,493.5,963.2z M525.5,954.6l-6.7-20.6
	c7.7-2.5,15.4-5.4,22.9-8.6c1.5-0.6,3-1.3,4.5-2l8.8,19.8C545.5,947.5,535.6,951.3,525.5,954.6z M591.6,924l-15.8-12.5l2.9,19.9
	c-7.3,4-14.7,7.7-22.4,11.1l-8.8-19.8c18.4-8.3,35.8-18.3,52.1-30.1l12.7,17.5C605.7,915,598.7,919.7,591.6,924z M613.6,909.3
	l-12.7-17.5c7.9-5.8,15.5-11.9,22.8-18.5l14.5,16.1C630.3,896.4,622.1,903,613.6,909.3z M639.3,888.4l-14.5-16.1
	c3.6-3.3,7.2-6.7,10.6-10.1c3.5-3.5,6.8-7,10.1-10.6l16.1,14.5C654.6,873.8,647.1,881.3,639.3,888.4z M662.6,864.9l-16-14.5
	c6.6-7.3,12.7-14.9,18.5-22.8l17.5,12.7C676.3,848.8,669.7,857,662.6,864.9z M704.7,805.5l-19.9-2.9l12.5,15.8
	c-4.4,7.1-9,14-13.9,20.8l-17.5-12.8c11.8-16.3,21.9-33.7,30.1-52.1l19.8,8.8C712.4,790.8,708.7,798.2,704.7,805.5z M716.5,781.8
	l-19.8-8.8c0.7-1.5,1.3-3,2-4.5c3.2-7.5,6-15.2,8.6-22.9l20.6,6.7C724.5,762.3,720.7,772.2,716.5,781.8z M728.3,750.8l-20.6-6.7
	c3-9.3,5.5-18.8,7.6-28.4l21.2,4.5C734.3,730.7,731.5,740.9,728.3,750.8z M736.8,718.8l-21.3-4.5c2-9.6,3.5-19.3,4.6-29l21.6,2.3
	C740.6,698.1,739,708.6,736.8,718.8z M741.9,686.1l-21.6-2.3c1-9.9,1.5-20,1.5-30.1s-0.5-20.1-1.5-30.1l21.6-2.3
	c0.8,8.2,1.3,16.6,1.5,24.9l-18.7,7.4l18.7,7.4C743.3,669.5,742.8,677.9,741.9,686.1z M452.4,412.6c6.7-5.4,13.9-11.8,13.9-21.2
	c0-10.2-10-16.7-19.4-16.7c-8.8,0-18.6,6.3-18.6,15.9c0,3.5,2,6.8,5.7,6.8c2.7,0,4.8-2.3,4.8-4.8c0-3-2.5-4.6-2.5-7.6
	c0-4.7,4.8-7.2,9.1-7.2c7,0,11.5,6.5,11.5,13.2c0,8.3-5.8,15.3-11.2,21c-7.1,7.8-14.3,15.4-19.3,24.9l0.2,1.2
	c-3.1,0-6.7-0.3-8.8-2.7c-1.9-2.2-1.9-5.9-1.9-10.9v-49.6h-2.8c-4.2,5.6-11.5,8.1-18.2,7.9v3c7.3,0,10.6,0.5,11.7,2.6
	c1.3,2.4,1.3,7.7,1.3,10.4v25.8c0,4.8,0,9.5-2.8,11.9c-2,1.7-6.7,1.7-9.6,1.7v3h66.6l4-17.1l-2.7-0.7c-2.3,5.5-4.8,8.4-7.6,9.5
	c-3.3,1.2-8.2,1.2-13.9,1.2h-9C440,423.1,442.2,420.6,452.4,412.6z M559.4,422.5c1.3,2.4,1.3,7.7,1.3,10.4v25.8
	c0,4.8,0,9.5-2.8,11.9c-2,1.7-6.7,1.7-9.6,1.7v3h32.5v-3c-3.3,0-7.7,0-10.1-2.7c-1.9-2.2-1.9-5.9-1.9-10.9v-49.6H566
	c-4.2,5.6-11.5,8.1-18.2,7.9v3C555,419.9,558.3,420.5,559.4,422.5z M276.2,470.6c-2,1.7-6.7,1.7-9.6,1.7v3h32.5v-3
	c-3.3,0-7.7,0-10.1-2.7c-1.9-2.2-1.9-5.9-1.9-10.9v-49.6h-2.8c-4.2,5.6-11.5,8.1-18.2,7.9v3c7.3,0,10.6,0.5,11.7,2.6
	c1.3,2.4,1.3,7.7,1.3,10.4v25.8C279,463.5,279,468.2,276.2,470.6z M323.6,458.7v-49.6h-2.8c-4.2,5.6-11.5,8.1-18.2,7.9v3
	c7.3,0,10.6,0.5,11.7,2.6c1.3,2.4,1.3,7.7,1.3,10.4v25.8c0,4.8,0,9.5-2.8,11.9c-2,1.7-6.7,1.7-9.6,1.7v3h32.5v-3
	c-3.3,0-7.7,0-10.1-2.7C323.6,467.4,323.6,463.7,323.6,458.7z M663.6,541.6l-2.7-0.7c-2.3,5.5-4.8,8.4-7.6,9.5
	c-3.3,1.2-8.2,1.2-13.9,1.2h-9c7-10.8,9.2-13.3,19.4-21.2c6.7-5.4,13.9-11.8,13.9-21.2c0-10.2-10-16.7-19.4-16.7
	c-8.8,0-18.6,6.3-18.6,15.9c0,3.5,2,6.8,5.7,6.8c2.7,0,4.8-2.3,4.8-4.8c0-3-2.5-4.6-2.5-7.6c0-4.7,4.8-7.2,9.1-7.2
	c7,0,11.5,6.5,11.5,13.2c0,8.3-5.8,15.3-11.2,21c-7.1,7.8-14.3,15.4-19.3,24.9l0.5,4.2h34.9L663.6,541.6z M240.9,492.5
	c-7.6,0-12.9,6.5-16.1,12.7c-3,6.2-4.4,13.9-4.4,20.9c0,7.3,1.4,14.7,4.8,21.3c3.2,6.3,8.1,12.3,15.7,12.3c7.8,0,13.3-7,16.3-13.4
	c2.9-6.4,4.2-13.8,4.2-20.8c0-7.4-1.4-14.8-4.9-21.4C253.2,498.2,247.9,492.5,240.9,492.5z M241.5,556.7
	c-11.5,0-12.3-22.3-12.3-30.4c0-7.5,0.9-30.9,11.8-30.9c10.7,0,11.8,22.9,11.8,30.4C252.8,535.6,250.8,556.7,241.5,556.7z
	 M209.5,542.1v-49.6h-2.8c-4.2,5.6-11.5,8.1-18.2,7.9v3c7.3,0,10.6,0.5,11.7,2.6c1.3,2.4,1.3,7.7,1.3,10.4v25.8
	c0,4.8,0,9.5-2.8,11.9c-2,1.7-6.7,1.7-9.6,1.7v3h32.5v-3c-3.3,0-7.7,0-10.1-2.7C209.5,550.8,209.5,547.1,209.5,542.1z M668.9,630.8
	c0,2.7,2.2,5.3,5.1,5.3c2.7,0,4.7-2.3,4.7-4.9c0-1.5-0.4-2.9-0.4-4.4c0-3.9,4.3-6,7.9-6c6.9,0,9.7,7.6,9.7,13.5c0,4.5-2.7,13-8.3,13
	c-1.6,0-3.5-0.7-5.5-0.7c-1.8,0-3.5,0.7-3.5,2.7c0,1.8,1.6,2.6,3.2,2.6c2.1,0,4.1-0.8,6.3-0.8c7.4,0,10,8.4,10,14.5
	c0,7.6-3,16.5-12.1,16.5c-3.5,0-8.4-1.6-8.4-5.9c0-1.2,0.5-2.6,0.5-3.7c0-3-1.7-5.4-5-5.4c-3.4,0-4.8,3-4.8,6
	c0,9,10.5,12.1,17.7,12.1c10.6,0,21.7-7,21.7-18.6c0-9.9-8.5-16.1-17.5-17.4v-0.1c7-1.8,14.9-7.9,14.9-15.5c0-10-9.2-15.7-18.4-15.7
	C679.4,617.7,668.9,621.8,668.9,630.8z M185.9,647.7c0-13-5-30-20.8-30c-11.8,0-19.8,12.2-19.8,23c0,9.2,6,18.9,16.1,18.9
	c7,0,11.7-4.2,15.9-9.4c0.7,8.3-3.7,31.7-14.3,31.7c-4,0-5.1-3.6-5.8-6.9c-0.5-2.4-1.2-4.2-4.1-4.2c-3,0-5.1,1.9-5.1,4.9
	c0,6,8.3,9.2,13.3,9.2c8.7,0,15.5-6.6,19.3-13.9C184.1,664.1,185.9,655.4,185.9,647.7z M164.6,655.3c-8.3,0-10.7-8.9-10.7-15.7
	c0-7.4,1.9-18.8,11.4-18.8c11.3,0,11.5,16,11.9,24.2C174.5,649.2,170.4,655.3,164.6,655.3z M662.2,740.6h-4l-27.1,45.8v4.2h23.1v3.1
	c0,3.3,0,5.8-0.6,7.4c-0.7,2-2.8,2.7-7.3,2.7v3h23.1v-3c-3.8,0.2-5.7-1-6.4-2.9c-0.7-2-0.7-4.9-0.7-8v-2.3h10.1v-4.2h-10.1
	L662.2,740.6L662.2,740.6z M654.2,786.4h-18.6l18.6-31.7V786.4z M206.5,770.1c5.5-3.6,11.3-7.7,11.3-14.9c0-8.6-9-14.6-16.9-14.6
	c-10.3,0-18.2,7.5-18.2,18c0,7.3,5.4,12.2,11.7,15.2c-6.9,2.8-15.2,8.5-15.2,16.8c0,10.7,9.9,17.3,19.7,17.3
	c5.6,0,11.4-1.8,15.3-5.9c3.4-3.4,5.9-8.9,5.9-13.6C220.2,779.9,213.7,773.6,206.5,770.1z M189.1,755.2c0-6.4,4.7-11.6,11.2-11.6
	c6.8,0,10.9,5.4,10.9,12c0,5.7-3,10.1-7.8,13.1C197.9,766.6,189.1,761.9,189.1,755.2z M200.5,804.9c-8,0-13.2-6.8-13.2-14.5
	c0-6.6,4-12.3,9.9-15.3c6.7,4,16.3,6.8,16.3,16.2C213.5,798.6,208,804.9,200.5,804.9z M566.2,857.2c-4.8,0-9.1,1.7-13,4.5l1.5-21.2
	h25.1l1.4-6.5h-30.5l-2,32.2l3.1,1.4c2.7-3.9,6.3-6.4,11.2-6.4c9.2,0,13,8.7,13,16.8c0,8.4-3.8,19.3-14,19.3c-3.7,0-7.2-2.1-7.2-6
	c0-1.7,0.6-3.4,0.6-5.1c0-2.7-2.1-5-4.8-5c-3.5,0-5,3.3-5,6.3c0,8.1,10.5,12.9,17.5,12.9c12.3,0,21.7-10.4,21.7-22.5
	C584.7,867.4,577.5,857.2,566.2,857.2z M278.7,834l-3.7,17.6l2.7,0.6c1-3.5,2.6-7.2,5.3-9.7c3.7-3.1,8-2.5,12.4-2.5h14.4
	c-3.8,6.4-12.2,20.1-15.6,27c-5,10-9,20.2-9,27.6c0,3.1,1.1,5.7,4.8,5.7c5.2,0,4.8-5.6,4.8-9.2c0-18.6,10.3-36.8,19.9-51.9l-0.5-5.1
	L278.7,834L278.7,834z M431.5,893.7c-6.8,0-11.7,4.6-15.8,9.3c0-8,3.6-31.5,14.3-31.5c8.2,0,3.6,11.2,10.2,11.2
	c2.9,0,5.2-2.2,5.2-5.1c0-5.8-8.2-9.1-13.2-9.1c-9.1,0-16,6.7-19.8,14.4c-3.6,7-5.2,15.5-5.2,23.3c0,16,7.3,29.5,20.7,29.5
	c12,0,20-12,20-23.3C447.9,903.3,441.5,893.7,431.5,893.7z M427.7,932.7c-10.5,0-11.4-14.8-11.8-22.6v-1.8
	c2.4-4.3,7.4-10.2,12.7-10.2c7,0,10.6,7,10.6,15.5C439.2,920.8,436.9,932.7,427.7,932.7z"/>
<linearGradient id="SVGID_27_" gradientUnits="userSpaceOnUse" x1="154.534" y1="125.5036" x2="206.5067" y2="94.1034" gradientTransform="matrix(1 0 0 -1 0 1102)">
	<stop  offset="1.123600e-02" style="stop-color:#000000"/>
	<stop  offset="0.118" style="stop-color:#ADB9B1"/>
	<stop  offset="0.2528" style="stop-color:#FFFFFF"/>
	<stop  offset="0.2865" style="stop-color:#F3F4F4"/>
	<stop  offset="0.3402" style="stop-color:#DDE0DE"/>
	<stop  offset="0.4068" style="stop-color:#BBC0BE"/>
	<stop  offset="0.4607" style="stop-color:#9CA3A1"/>
	<stop  offset="0.6461" style="stop-color:#000000"/>
</linearGradient>
<path fill="url(#SVGID_27_)" d="M156.5,977.3c0,0,9.3,3.6,21.7,10.7c12.4,7.1,26.8,16.9,26.8,16.9s-16.4-4.1-33.7-15.5
	C154,978,156.5,977.3,156.5,977.3"/>
<path d="M81.8,385c-1.2-1.8-2.3-3.6-3.4-5.5c-40.3-68.6,11-127.2,89.7-173.4s154.8-62.5,195.1,6.1c1.1,1.9,2.1,3.7,3.1,5.6L81.8,385
	z"/>
<radialGradient id="SVGID_28_" cx="79.864" cy="821.7325" r="90.2963" gradientTransform="matrix(1 0 0 -1 0 1102)" gradientUnits="userSpaceOnUse">
	<stop  offset="0.1348" style="stop-color:#DFE0E5"/>
	<stop  offset="0.1422" style="stop-color:#DCDEE2"/>
	<stop  offset="0.39" style="stop-color:#A2A4A8"/>
	<stop  offset="0.6081" style="stop-color:#747578"/>
	<stop  offset="0.7885" style="stop-color:#4E4F51"/>
	<stop  offset="0.9243" style="stop-color:#262526"/>
	<stop  offset="1" style="stop-color:#000000"/>
</radialGradient>
<path fill="url(#SVGID_28_)" d="M83.5,386.7c-1.2-1.8-2.3-3.6-3.4-5.5c-40.3-68.6,11-127.2,89.7-173.4s154.8-62.5,195.1,6.1
	c1.1,1.9,2.1,3.7,3.1,5.6L83.5,386.7z"/>
<radialGradient id="SVGID_29_" cx="94.1145" cy="819.0275" r="93.1813" gradientTransform="matrix(1 0 0 -1 0 1102)" gradientUnits="userSpaceOnUse">
	<stop  offset="0" style="stop-color:#FFFFFF"/>
	<stop  offset="0.4831" style="stop-color:#E2E4E7"/>
	<stop  offset="0.5553" style="stop-color:#CACFD2"/>
	<stop  offset="0.707" style="stop-color:#949FA0"/>
	<stop  offset="0.9241" style="stop-color:#4B5959"/>
	<stop  offset="1" style="stop-color:#303E3D"/>
</radialGradient>
<path fill="url(#SVGID_29_)" d="M101.7,324.9c10.2-39.9,33.8-74.3,65.9-96.8c-2.3-1.6-4.6-3.1-7-4.7c-40.1,17.9-71.3,52.3-86.9,94.7
	C83.3,320.8,92.6,323.1,101.7,324.9z"/>
<radialGradient id="SVGID_30_" cx="2361.2563" cy="-252.6855" r="186.7012" gradientTransform="matrix(0.5235 0.852 0.852 -0.5235 -478.3132 -1968.2719)" gradientUnits="userSpaceOnUse">
	<stop  offset="0" style="stop-color:#FFFFFF"/>
	<stop  offset="0.2022" style="stop-color:#E2E4E7"/>
	<stop  offset="0.2752" style="stop-color:#CACFD2"/>
	<stop  offset="0.4286" style="stop-color:#949FA0"/>
	<stop  offset="0.648" style="stop-color:#4B5959"/>
	<stop  offset="0.7247" style="stop-color:#303E3D"/>
</radialGradient>
<path fill="url(#SVGID_30_)" d="M686.7,219.5c-6-5.4-14.5-11.9-19.9-15.4c-36.2-24.8-100.4-45.7-134.1-26.1
	c17.2,18.1,19.2,29,19.2,29c44.4-25.1,102.8-11.6,155.1,37.6L686.7,219.5z"/>
<radialGradient id="SVGID_31_" cx="25.7818" cy="1907.8129" r="113.9282" gradientTransform="matrix(0.8788 -0.4771 -0.4771 -0.8788 1202.4922 1973.5167)" gradientUnits="userSpaceOnUse">
	<stop  offset="0" style="stop-color:#FFFFFF"/>
	<stop  offset="0.2865" style="stop-color:#E2E4E7"/>
	<stop  offset="0.3516" style="stop-color:#CACFD2"/>
	<stop  offset="0.4885" style="stop-color:#949FA0"/>
	<stop  offset="0.6843" style="stop-color:#4B5959"/>
	<stop  offset="0.7528" style="stop-color:#303E3D"/>
</radialGradient>
<path fill="url(#SVGID_31_)" d="M354.7,227.4c-27.2-49.1-82.2-38.7-98.5-29.9c-16.4,8.9,12,13,38.4,62.5L354.7,227.4z"/>
<radialGradient id="SVGID_32_" cx="1527.8544" cy="211.3854" r="113.9271" gradientTransform="matrix(0.8525 0.5227 0.6493 -1.0589 -764.1463 -202.5227)" gradientUnits="userSpaceOnUse">
	<stop  offset="0" style="stop-color:#FFFFFF"/>
	<stop  offset="0.2865" style="stop-color:#E2E4E7"/>
	<stop  offset="0.3516" style="stop-color:#CACFD2"/>
	<stop  offset="0.4885" style="stop-color:#949FA0"/>
	<stop  offset="0.6843" style="stop-color:#4B5959"/>
	<stop  offset="0.7528" style="stop-color:#303E3D"/>
</radialGradient>
<path fill="url(#SVGID_32_)" d="M749.1,371.8c36.1-59.6,1.8-105.7-14.1-115.4c-15.9-9.7-7.4,20.5-44.2,79.6L749.1,371.8z"/>
<radialGradient id="SVGID_33_" cx="137.3171" cy="748.8317" r="66.9674" gradientTransform="matrix(1 0 0 -1 0 1102)" gradientUnits="userSpaceOnUse">
	<stop  offset="0.1348" style="stop-color:#DFE0E5"/>
	<stop  offset="0.1422" style="stop-color:#DCDEE2"/>
	<stop  offset="0.39" style="stop-color:#A2A4A8"/>
	<stop  offset="0.6081" style="stop-color:#747578"/>
	<stop  offset="0.7885" style="stop-color:#4E4F51"/>
	<stop  offset="0.9243" style="stop-color:#262526"/>
	<stop  offset="1" style="stop-color:#000000"/>
</radialGradient>
<path fill="url(#SVGID_33_)" d="M370.7,217c0.9,1.5,0.4,3.4-1.1,4.3L84.4,388.9c-1.5,0.9-3.4,0.4-4.3-1.1l0,0
	c-0.9-1.5-0.4-3.4,1.1-4.3l285.2-167.6C367.9,215,369.9,215.5,370.7,217L370.7,217z"/>
<radialGradient id="SVGID_34_" cx="-20.1941" cy="850.8687" r="66.9678" gradientTransform="matrix(0.8214 -0.2437 0.2437 -0.5497 -45.0628 811.8414)" gradientUnits="userSpaceOnUse">
	<stop  offset="0.427" style="stop-color:#DFE0E5"/>
	<stop  offset="0.512" style="stop-color:#DCDDE1"/>
	<stop  offset="0.5858" style="stop-color:#D5D6DA"/>
	<stop  offset="0.6555" style="stop-color:#C9CBCF"/>
	<stop  offset="0.7226" style="stop-color:#B9BBBF"/>
	<stop  offset="0.788" style="stop-color:#A3A5A9"/>
	<stop  offset="0.852" style="stop-color:#888A8D"/>
	<stop  offset="0.9149" style="stop-color:#696A6D"/>
	<stop  offset="0.9754" style="stop-color:#3D3D3F"/>
	<stop  offset="1" style="stop-color:#000000"/>
</radialGradient>
<path fill="url(#SVGID_34_)" d="M370.6,217.3c0.4,0.6-0.5,1.8-2,2.6L93.5,381.6c-1.4,0.8-2.9,1-3.3,0.4l0,0c-0.4-0.6,0.5-1.8,2-2.6
	l275.1-161.6C368.8,216.9,370.3,216.7,370.6,217.3L370.6,217.3z"/>
<radialGradient id="SVGID_35_" cx="553.8049" cy="842.6345" r="93.8053" gradientTransform="matrix(1 0 0 -1 0 1102)" gradientUnits="userSpaceOnUse">
	<stop  offset="0.1348" style="stop-color:#DFE0E5"/>
	<stop  offset="0.1422" style="stop-color:#DCDEE2"/>
	<stop  offset="0.39" style="stop-color:#A2A4A8"/>
	<stop  offset="0.6081" style="stop-color:#747578"/>
	<stop  offset="0.7885" style="stop-color:#4E4F51"/>
	<stop  offset="0.9243" style="stop-color:#262526"/>
	<stop  offset="1" style="stop-color:#000000"/>
</radialGradient>
<path fill="url(#SVGID_35_)" d="M483.3,217c-0.9,1.5-0.4,3.4,1.1,4.3l285.2,167.6c1.5,0.9,3.4,0.4,4.3-1.1l0,0
	c0.9-1.5,0.4-3.4-1.1-4.3L487.6,215.9C486.1,215,484.1,215.5,483.3,217L483.3,217z"/>
<radialGradient id="SVGID_36_" cx="551.8812" cy="843.7584" r="88.5698" gradientTransform="matrix(1 0 0 -1 0 1102)" gradientUnits="userSpaceOnUse">
	<stop  offset="0.5393" style="stop-color:#DFE0E5"/>
	<stop  offset="0.5433" style="stop-color:#DCDEE2"/>
	<stop  offset="0.6752" style="stop-color:#A2A4A8"/>
	<stop  offset="0.7913" style="stop-color:#747578"/>
	<stop  offset="0.8874" style="stop-color:#4E4F51"/>
	<stop  offset="0.9597" style="stop-color:#262526"/>
	<stop  offset="1" style="stop-color:#000000"/>
</radialGradient>
<path fill="url(#SVGID_36_)" d="M485,217.6c-0.8,1.4,0.3,1.5,1.7,2.3l269.6,158.9c1.4,0.8,3.2,2,4.1,0.6l0,0c0.8-1.4-1-2.7-2.4-3.6
	L489.1,218.7C487.6,217.9,485.8,216.2,485,217.6L485,217.6z"/>
<g>
	
		<linearGradient id="SVGID_37_" gradientUnits="userSpaceOnUse" x1="391" y1="904.5" x2="391" y2="868.6" gradientTransform="matrix(1 0 0 -1 0 1102)">
		<stop  offset="0" style="stop-color:#65766A"/>
		<stop  offset="1.353998e-02" style="stop-color:#77887C"/>
		<stop  offset="4.119457e-02" style="stop-color:#9BA89F"/>
		<stop  offset="6.974103e-02" style="stop-color:#BBC5BE"/>
		<stop  offset="9.896567e-02" style="stop-color:#D5DCD7"/>
		<stop  offset="0.1291" style="stop-color:#E9EDEA"/>
		<stop  offset="0.1609" style="stop-color:#F8F9F8"/>
		<stop  offset="0.1966" style="stop-color:#FFFFFF"/>
		<stop  offset="0.3826" style="stop-color:#FBFCFB"/>
		<stop  offset="0.465" style="stop-color:#F2F3F3"/>
		<stop  offset="0.527" style="stop-color:#E6E8E7"/>
		<stop  offset="0.5788" style="stop-color:#D5D9D7"/>
		<stop  offset="0.6242" style="stop-color:#C0C5C3"/>
		<stop  offset="0.6644" style="stop-color:#A7AEAB"/>
		<stop  offset="0.6798" style="stop-color:#9CA3A1"/>
		<stop  offset="1" style="stop-color:#000000"/>
	</linearGradient>
	<polygon fill="url(#SVGID_37_)" points="400.5,215 384.7,233.4 381.5,230.2 381.5,200.8 384.7,197.5 	"/>
	
		<linearGradient id="SVGID_38_" gradientUnits="userSpaceOnUse" x1="4606.9458" y1="904.5" x2="4606.9458" y2="868.6" gradientTransform="matrix(-1 0 0 -1 5056.0459 1102)">
		<stop  offset="0" style="stop-color:#65766A"/>
		<stop  offset="1.353998e-02" style="stop-color:#77887C"/>
		<stop  offset="4.119457e-02" style="stop-color:#9BA89F"/>
		<stop  offset="6.974103e-02" style="stop-color:#BBC5BE"/>
		<stop  offset="9.896567e-02" style="stop-color:#D5DCD7"/>
		<stop  offset="0.1291" style="stop-color:#E9EDEA"/>
		<stop  offset="0.1609" style="stop-color:#F8F9F8"/>
		<stop  offset="0.1966" style="stop-color:#FFFFFF"/>
		<stop  offset="0.3826" style="stop-color:#FBFCFB"/>
		<stop  offset="0.465" style="stop-color:#F2F3F3"/>
		<stop  offset="0.527" style="stop-color:#E6E8E7"/>
		<stop  offset="0.5788" style="stop-color:#D5D9D7"/>
		<stop  offset="0.6242" style="stop-color:#C0C5C3"/>
		<stop  offset="0.6644" style="stop-color:#A7AEAB"/>
		<stop  offset="0.6798" style="stop-color:#9CA3A1"/>
		<stop  offset="1" style="stop-color:#000000"/>
	</linearGradient>
	<polygon fill="url(#SVGID_38_)" points="439.6,215 455.5,233.4 458.6,230.2 458.6,200.8 455.5,197.5 	"/>
	
		<linearGradient id="SVGID_39_" gradientUnits="userSpaceOnUse" x1="420.1" y1="904.5" x2="420.1" y2="868.6" gradientTransform="matrix(1 0 0 -1 0 1102)">
		<stop  offset="5.617980e-03" style="stop-color:#000000"/>
		<stop  offset="0.191" style="stop-color:#65766A"/>
		<stop  offset="0.1945" style="stop-color:#748479"/>
		<stop  offset="0.2024" style="stop-color:#93A198"/>
		<stop  offset="0.211" style="stop-color:#B1BCB4"/>
		<stop  offset="0.2203" style="stop-color:#CAD3CC"/>
		<stop  offset="0.2308" style="stop-color:#DEE4E0"/>
		<stop  offset="0.2429" style="stop-color:#EEF1EF"/>
		<stop  offset="0.2581" style="stop-color:#FAFBFA"/>
		<stop  offset="0.2865" style="stop-color:#FFFFFF"/>
		<stop  offset="0.3605" style="stop-color:#FAFBFA"/>
		<stop  offset="0.409" style="stop-color:#F0F2F1"/>
		<stop  offset="0.4502" style="stop-color:#E1E4E3"/>
		<stop  offset="0.4873" style="stop-color:#CED3D1"/>
		<stop  offset="0.5214" style="stop-color:#B6BCBA"/>
		<stop  offset="0.5506" style="stop-color:#9CA3A1"/>
		<stop  offset="0.8034" style="stop-color:#000000"/>
	</linearGradient>
	<rect x="384.7" y="197.5" fill="url(#SVGID_39_)" width="70.8" height="35.9"/>
	
		<linearGradient id="SVGID_40_" gradientUnits="userSpaceOnUse" x1="404.671" y1="906.7814" x2="445.4538" y2="868.0999" gradientTransform="matrix(1 0 0 -1 0 1102)">
		<stop  offset="0.2865" style="stop-color:#FFFFFF"/>
		<stop  offset="0.4439" style="stop-color:#EAECEB"/>
		<stop  offset="0.7578" style="stop-color:#BFC4C2"/>
		<stop  offset="1" style="stop-color:#9CA3A1"/>
	</linearGradient>
	<path fill="url(#SVGID_40_)" d="M455.5,224.4c0,0-10.5-8.8-25.1-13.7c-27.1-8.9-45.6,4.7-45.6,4.7v-13c0,0,17.1,4.6,39.5,1.2
		c12.1-1.9,19.8-6.2,31.2,0.8V224.4z"/>
</g>
</svg>
