<?xml version="1.0" encoding="utf-8"?>
<!-- Generator: Adobe Illustrator 23.0.1, SVG Export Plug-In . SVG Version: 6.00 Build 0)  -->
<svg version="1.1" id="Layer_1" xmlns="http://www.w3.org/2000/svg" xmlns:xlink="http://www.w3.org/1999/xlink" x="0px" y="0px"
	 viewBox="0 0 795.6 1042.3" enable-background="new 0 0 795.6 1042.3" xml:space="preserve">
<linearGradient id="SVGID_1_" gradientUnits="userSpaceOnUse" x1="590.9568" y1="242.1681" x2="624.9387" y2="261.0046">
	<stop  offset="0" style="stop-color:#000000"/>
	<stop  offset="8.988760e-02" style="stop-color:#65766A"/>
	<stop  offset="0.264" style="stop-color:#FFFFFF"/>
	<stop  offset="0.5112" style="stop-color:#9CA3A1"/>
	<stop  offset="0.7865" style="stop-color:#000000"/>
</linearGradient>
<polygon fill="url(#SVGID_1_)" points="545.5,330.3 577.1,347.2 670.4,172.9 638.8,155.9 "/>
<linearGradient id="SVGID_2_" gradientUnits="userSpaceOnUse" x1="171.5329" y1="260.1317" x2="203.6781" y2="243.0397">
	<stop  offset="0" style="stop-color:#000000"/>
	<stop  offset="8.988760e-02" style="stop-color:#65766A"/>
	<stop  offset="0.264" style="stop-color:#FFFFFF"/>
	<stop  offset="0.5112" style="stop-color:#9CA3A1"/>
	<stop  offset="0.7865" style="stop-color:#000000"/>
</linearGradient>
<polygon fill="url(#SVGID_2_)" points="250.1,330.3 218.4,347.2 125.1,172.9 156.8,155.9 "/>
<radialGradient id="SVGID_3_" cx="397.7781" cy="624.3996" r="355.7571" gradientUnits="userSpaceOnUse">
	<stop  offset="0.6854" style="stop-color:#E4E6D4"/>
	<stop  offset="0.8441" style="stop-color:#E0E2D0"/>
	<stop  offset="0.9012" style="stop-color:#D4D8C5"/>
	<stop  offset="0.942" style="stop-color:#C4C9B5"/>
	<stop  offset="0.9747" style="stop-color:#AEB59F"/>
	<stop  offset="1" style="stop-color:#96A088"/>
</radialGradient>
<circle fill="url(#SVGID_3_)" cx="397.8" cy="624.4" r="355.8"/>
<g>
	<radialGradient id="SVGID_4_" cx="396.4715" cy="623.3242" r="355.7572" gradientUnits="userSpaceOnUse">
		<stop  offset="0.2753" style="stop-color:#E4E6D4"/>
		<stop  offset="0.569" style="stop-color:#DEE0CF"/>
		<stop  offset="0.7389" style="stop-color:#D0D4C2"/>
		<stop  offset="0.8767" style="stop-color:#BCC2AE"/>
		<stop  offset="0.9973" style="stop-color:#A1AA94"/>
		<stop  offset="1" style="stop-color:#A0A994"/>
	</radialGradient>
	<path fill="url(#SVGID_4_)" d="M396.5,267.6C200,267.6,40.7,426.8,40.7,623.3c0,196.5,159.3,355.8,355.8,355.8
		c196.5,0,355.8-159.3,355.8-355.8C752.2,426.8,593,267.6,396.5,267.6z M369.2,622.1C85.6,881.9,8.9,655.5,88.5,483.5
		c43.4-93.8,159.8-200.1,308-202.5c179.7-2.9,293.6,145.4,320.5,245.2C776.4,746.8,478.5,522,369.2,622.1z"/>
</g>
<path fill="#CDCFC0" d="M169.7,483.9c40.9,32,160.9,125.7,160.9,125.7s31.8,18.9,57.8,34.4l4.3-5.1c-22.7-19.4-50.4-43.2-50.4-43.2
	s-128.1-84.2-171.7-112.9L169.7,483.9z"/>
<path fill="#CDCFC0" d="M576.3,537C543.9,552.5,449,597.7,449,597.7s-18.6,16.7-33.8,30.4l6,8.4c19.9-7.2,44.1-15.9,44.1-15.9
	s83.8-61,112.3-81.9L576.3,537z"/>
<g>
	<path d="M446.5,174.4c-3.2-0.6-6.4,1.6-6.9,4.9l-6.5,36.9c-0.6,3.2-3.7,5.8-7,5.7l-15.6-0.6c-3.3-0.1-6.1,2.5-6.2,5.8l-0.1,2.1
		c-0.1,3.3,2.5,6.1,5.8,6.2l13.6,0.5c3.3,0.1,5.5,2.9,4.9,6.1l-0.1,0.3c-0.6,3.2,1.6,6.4,4.9,6.9l2.1,0.4c3.2,0.6,6.4-1.6,6.9-4.9
		l11.1-63c0.6-3.2-1.6-6.4-4.9-6.9L446.5,174.4z"/>
</g>
<linearGradient id="SVGID_5_" gradientUnits="userSpaceOnUse" x1="381.7212" y1="218.4775" x2="395.8032" y2="218.4775">
	<stop  offset="0.1517" style="stop-color:#517382"/>
	<stop  offset="0.9551" style="stop-color:#000000"/>
</linearGradient>
<rect x="381.7" y="190.3" fill="url(#SVGID_5_)" width="14.1" height="56.3"/>
<radialGradient id="SVGID_6_" cx="672.7422" cy="116.6338" r="22.0256" gradientUnits="userSpaceOnUse">
	<stop  offset="0" style="stop-color:#FFFFFF"/>
	<stop  offset="0.3652" style="stop-color:#9CA3A1"/>
	<stop  offset="0.4608" style="stop-color:#888A89"/>
	<stop  offset="0.6617" style="stop-color:#585454"/>
	<stop  offset="0.8708" style="stop-color:#000000"/>
</radialGradient>
<path fill="url(#SVGID_6_)" d="M657.5,125.8c0,9.7,7.9,17.6,17.6,17.6c9.7,0,17.6-7.9,17.6-17.6s-7.9-17.6-17.6-17.6
	C665.4,108.3,657.5,116.1,657.5,125.8z"/>
<linearGradient id="SVGID_7_" gradientUnits="userSpaceOnUse" x1="645.6179" y1="142.6119" x2="677.4418" y2="160.2522">
	<stop  offset="0" style="stop-color:#000000"/>
	<stop  offset="8.988760e-02" style="stop-color:#65766A"/>
	<stop  offset="0.264" style="stop-color:#FFFFFF"/>
	<stop  offset="0.5112" style="stop-color:#9CA3A1"/>
	<stop  offset="0.7865" style="stop-color:#000000"/>
</linearGradient>
<polygon fill="url(#SVGID_7_)" points="638,157.4 669.6,174.3 685.1,145.5 653.4,128.5 "/>
<radialGradient id="SVGID_8_" cx="109.4199" cy="118.7041" r="31.1881" gradientUnits="userSpaceOnUse">
	<stop  offset="0" style="stop-color:#FFFFFF"/>
	<stop  offset="0.2978" style="stop-color:#9CA3A1"/>
	<stop  offset="0.3891" style="stop-color:#888A89"/>
	<stop  offset="0.5811" style="stop-color:#585454"/>
	<stop  offset="0.7809" style="stop-color:#000000"/>
</radialGradient>
<path fill="url(#SVGID_8_)" d="M138.1,125.8c0,9.7-7.9,17.6-17.6,17.6c-9.7,0-17.6-7.9-17.6-17.6s7.9-17.6,17.6-17.6
	C130.2,108.3,138.1,116.1,138.1,125.8z"/>
<linearGradient id="SVGID_9_" gradientUnits="userSpaceOnUse" x1="118.1378" y1="159.8783" x2="149.9102" y2="142.9846">
	<stop  offset="0" style="stop-color:#000000"/>
	<stop  offset="8.988760e-02" style="stop-color:#65766A"/>
	<stop  offset="0.264" style="stop-color:#FFFFFF"/>
	<stop  offset="0.5112" style="stop-color:#9CA3A1"/>
	<stop  offset="0.7865" style="stop-color:#000000"/>
</linearGradient>
<polygon fill="url(#SVGID_9_)" points="157.6,157.4 125.9,174.3 110.5,145.5 142.1,128.5 "/>
<g>
	
		<radialGradient id="SVGID_10_" cx="241.6865" cy="-42.0147" r="208.5967" gradientTransform="matrix(1.0282 0 0 0.8705 -37.4217 76.059)" gradientUnits="userSpaceOnUse">
		<stop  offset="0" style="stop-color:#9CA3A1"/>
		<stop  offset="0.1465" style="stop-color:#7C7C7B"/>
		<stop  offset="0.3547" style="stop-color:#555051"/>
		<stop  offset="0.5383" style="stop-color:#362F30"/>
		<stop  offset="0.6886" style="stop-color:#151111"/>
		<stop  offset="0.7865" style="stop-color:#000000"/>
	</radialGradient>
	<path fill="url(#SVGID_10_)" d="M711.5,192.2c3.5-7.5-4.3-11.3-6.2-12c-7.6-2.8-15.3-5.5-22.8-8.1c-25.8-9-48.1-19-57.2-26.6
		c-12.4-10.5-11.9-32.9-11.8-47.6c0.1-11.9,0.2-24.1-5.8-35.5C586.1,21,516.3,0,400.7,0C285,0,215.3,21,193.5,62.5
		c-6,11.3-5.9,23.6-5.8,35.5c0.1,14.6,0.7,37-11.8,47.6c-9,7.7-31.4,17.6-57.2,26.6c-7.5,2.6-15.1,5.3-22.7,8.1
		c-2,0.7-7.9,5.4-5.4,11.6c3.3,8,11.9,6.8,13.9,6.1c7.2-2.6,14.5-5.2,21.7-7.7c33.7-11.8,62.7-21.9,75.4-36.3
		c16.8-19,16.6-39.6,16.4-56.1c-0.1-10-0.2-18.6,3.1-24.8c16-30.4,79.8-47.2,179.4-47.2c99.7,0,163.4,16.8,179.4,47.2
		c3.3,6.2,3.2,14.8,3.1,24.8c-0.1,16.5-0.3,37.1,16.4,56.1c12.7,14.4,41.7,24.5,75.4,36.3c6.9,2.4,13.9,4.9,20.8,7.4
		C698.1,198.3,707.4,201,711.5,192.2z"/>
	
		<radialGradient id="SVGID_11_" cx="237.6939" cy="-26.1314" r="207.3831" gradientTransform="matrix(1.0235 0 0 0.892 -31.1337 63.3799)" gradientUnits="userSpaceOnUse">
		<stop  offset="0" style="stop-color:#ABB1AF"/>
		<stop  offset="5.912214e-02" style="stop-color:#9FA2A0"/>
		<stop  offset="0.2959" style="stop-color:#767373"/>
		<stop  offset="0.5046" style="stop-color:#5B5455"/>
		<stop  offset="0.6752" style="stop-color:#494142"/>
		<stop  offset="0.7865" style="stop-color:#423A3B"/>
	</radialGradient>
	<path fill="url(#SVGID_11_)" d="M194.9,62.9c-5.8,11.1-5.7,23.1-5.6,34.9c0,0.3,0,0.8,0,1c0.1,14.5,0.3,35.9-11.5,46.6
		c-1.6,1.4-3.5,2.9-5.8,4.4c-10.9,7.2-30.4,15.5-50.9,22.7c-3.7,1.3-7.4,2.6-11,3.9c-3.2,1.1-8.4,3-11.6,4.2
		c-1.4,0.5-6.8,3.9-6.7,7.8c-0.1,0.5-0.1,1.1,0.1,1.7c0.1,0.4,0.3,0.8,0.4,1.1c0.1,0.2,0.2,0.4,0.3,0.5c3.5,5.9,13.3,3.8,14.9,3.3
		c7.2-2.6,14.5-5.2,21.6-7.7c21.6-7.6,41-14.6,54.6-22.6c8-4.8,14.3-9.9,18.5-15.4c7.3-9.5,10.8-19.3,12.5-28.8
		c1.8-10,1.8-19.4,2.3-27.8c0.6-9.4,1.4-17.6,5.2-23.7c18.3-29,81.1-45,178.3-45c98.2,0,161.4,16.2,179.2,45.8
		c2.7,4.4,3.7,9.9,4.3,16.1c0.2,2.6,0.4,5.2,0.5,8c0.2,6.6,0.1,13.8,1,21.4c1.3,11.3,4.6,23.3,13.8,34.9c3.3,4.1,7.7,8,13.2,11.6
		c14.1,9.4,36,17.2,60.7,25.8c4.8,1.7,9.6,3.4,14.4,5.1c0.1,0,0.3,0.1,0.4,0.1c1.7,0.6,4.3,1.5,5.9,2.1c1.7,0.6,10.9,3.4,14.6-2
		c0.4-0.4,0.9-0.9,1.2-1.5c0.2-0.4,0.4-0.7,0.5-1.2c0.1-0.2,0.1-0.4,0.2-0.5c0.1-0.5,0.1-1,0-1.4c0.1-4.5-5.6-7.1-7.7-7.9
		c-4.2-1.5-8.4-3-11.6-4.2c-3.6-1.3-7.3-2.6-11-3.9c-20.8-7.3-40.4-15.7-51.3-23c-2.1-1.4-3.9-2.8-5.3-4.1
		c-12.1-11-11.6-33-11.5-47.6c0-0.3,0-0.8,0-1.2c0.1-11.5,0-23.2-5.6-33.9C584.8,22,515.6,1.2,400.7,1.2
		C285.7,1.2,216.5,22,194.9,62.9z"/>
	
		<radialGradient id="SVGID_12_" cx="233.6314" cy="-10.9732" r="206.3334" gradientTransform="matrix(1.0188 0 0 0.9136 -24.9223 50.7085)" gradientUnits="userSpaceOnUse">
		<stop  offset="0" style="stop-color:#BAC0BE"/>
		<stop  offset="0.214" style="stop-color:#989797"/>
		<stop  offset="0.4567" style="stop-color:#7B7677"/>
		<stop  offset="0.6563" style="stop-color:#6A6365"/>
		<stop  offset="0.7865" style="stop-color:#645C5E"/>
	</radialGradient>
	<path fill="url(#SVGID_12_)" d="M196.4,63.3c-5.7,10.8-5.6,22.6-5.5,34.3c0,0.2,0,0.8,0,1.1c0.1,14.4,0.3,35.4-11.1,46.7
		c-1.5,1.5-3.4,3.1-5.6,4.6c-10.9,7.5-30.8,16-50.6,23.1c-3.8,1.3-7.5,2.7-11,3.9c-2.6,0.9-9,3.2-11.6,4.2c-1.1,0.4-7.5,3.9-7.4,7
		c-0.1,0.5-0.3,1.1-0.1,1.7c0.2,0.5,0.3,0.8,0.5,1.1c0.1,0.2,0.3,0.3,0.4,0.4c3.4,4.5,14.9,1.6,16.2,1.1c7.2-2.6,14.4-5.1,21.5-7.6
		c21.9-7.8,41.2-14.9,53.8-23.3c7.6-5.1,13.3-10.6,17.1-16.4c6.5-9.7,9.3-19.6,10.6-29.2c1.4-10.2,1.5-19.6,2.7-27.9
		c1.3-8.8,2.9-16.6,7.3-22.6c20.6-27.6,82.4-42.8,177.2-42.8c96.7,0,159.4,15.7,179.1,44.5c3,4.3,4.4,9.6,5.4,15.5
		c0.4,2.5,0.7,5.2,0.9,7.9c0.4,6.5,0.4,13.7,1,21.3c1,11.4,3.6,23.5,12.1,35.2c3.1,4.3,7.2,8.3,12.4,12.2c13.1,9.7,35,17.6,60,26.4
		c4.7,1.7,9.5,3.3,14.3,5c0.1,0,0.3,0.1,0.4,0.1c1.3,0.5,4.6,1.6,5.9,2.1c1.4,0.5,11.7,3.8,14.7-0.6c0.5-0.3,1-0.7,1.4-1.1
		c0.2-0.3,0.4-0.7,0.6-1.2c0.1-0.2,0.1-0.4,0.2-0.5c0-0.4-0.1-0.9-0.2-1.3c0-3.6-5.6-6.1-8.4-7.1c-4.5-1.6-9-3.2-11.6-4.1
		c-3.5-1.2-7.2-2.6-11-3.9c-20-7.1-40.1-15.7-50.9-23.3c-2-1.4-3.7-2.8-5.2-4.2c-11.7-11.5-11.3-33.2-11.2-47.6c0-0.3,0-0.9,0-1.2
		c0.1-11.5,0.1-23-5.5-33.5c-21.2-40.4-90-60.8-204.2-60.8C286.4,2.5,217.7,22.9,196.4,63.3z"/>
	
		<radialGradient id="SVGID_13_" cx="229.5176" cy="3.521" r="205.3936" gradientTransform="matrix(1.0141 0 0 0.9352 -18.7108 38.0295)" gradientUnits="userSpaceOnUse">
		<stop  offset="0" style="stop-color:#CACFCD"/>
		<stop  offset="8.579090e-02" style="stop-color:#BEC0BF"/>
		<stop  offset="0.383" style="stop-color:#9E9A9B"/>
		<stop  offset="0.6272" style="stop-color:#8B8587"/>
		<stop  offset="0.7865" style="stop-color:#857E80"/>
	</radialGradient>
	<path fill="url(#SVGID_13_)" d="M197.9,63.7c-5.5,10.5-5.4,22.1-5.3,33.8c0,0.2,0,0.9,0,1.1c0.1,14.2,0.3,35-10.8,46.8
		c-1.5,1.6-3.3,3.2-5.5,4.7c-10.8,7.8-31.2,16.5-50.3,23.4c-3.8,1.4-7.5,2.7-11,3.9c-1.9,0.7-9.7,3.4-11.6,4.1
		c-0.8,0.3-8.2,3.8-8.1,6.2c-0.2,0.4-0.5,1.1-0.3,1.6c0.2,0.6,0.4,0.9,0.5,1.1c0.1,0.1,0.3,0.2,0.5,0.3c3.4,3.1,16.5-0.7,17.5-1.1
		c7.2-2.6,14.4-5.1,21.3-7.6c22.2-7.9,41.4-15.3,52.9-24c7.2-5.5,12.3-11.4,15.7-17.4c5.6-9.9,7.7-20,8.7-29.5
		c1.1-10.4,1.1-19.8,3-28c1.9-8.3,4.3-15.6,9.4-21.4c22.8-26.2,83.8-40.6,176-40.6c95.3,0,157.5,15.2,178.9,43.1
		c3.3,4.3,5.2,9.3,6.6,14.9c0.6,2.5,1.1,5.1,1.3,7.8c0.7,6.4,0.6,13.5,1.1,21.2c0.7,11.4,2.7,23.7,10.3,35.6
		c2.8,4.4,6.6,8.7,11.6,12.8c12.2,9.9,34,18,59.3,26.9c4.7,1.6,9.5,3.3,14.3,5c0.1,0,0.3,0.1,0.4,0.1c1,0.4,4.8,1.7,5.8,2.1
		c1,0.4,12.5,4.2,14.7,0.9c0.5-0.1,1.2-0.4,1.5-0.8c0.2-0.3,0.4-0.6,0.6-1.1c0.1-0.2,0.1-0.4,0.2-0.5c0-0.4-0.3-0.9-0.5-1.2
		c-0.2-2.8-5.7-5.1-9.1-6.3c-4.8-1.7-9.6-3.4-11.6-4.1c-3.5-1.2-7.2-2.5-11-3.9c-19.3-6.9-39.8-15.7-50.6-23.6
		c-1.9-1.4-3.6-2.9-5-4.4c-11.4-11.9-11-33.3-10.9-47.6c0-0.2,0-0.9,0-1.1c0.1-11.5,0.1-22.8-5.3-33.2c-21-39.8-89.2-60-202.7-60
		C287,3.7,218.8,23.9,197.9,63.7z"/>
	
		<radialGradient id="SVGID_14_" cx="225.3638" cy="17.4033" r="204.5393" gradientTransform="matrix(1.0094 0 0 0.9568 -12.4995 25.3505)" gradientUnits="userSpaceOnUse">
		<stop  offset="0" style="stop-color:#DADDDC"/>
		<stop  offset="0.2509" style="stop-color:#C4C2C3"/>
		<stop  offset="0.5747" style="stop-color:#B0ABAC"/>
		<stop  offset="0.7865" style="stop-color:#A8A3A4"/>
	</radialGradient>
	<path fill="url(#SVGID_14_)" d="M199.3,64.1c-5.4,10.2-5.3,21.6-5.2,33.2c0,0.1,0,0.9,0,1.1c0.1,14.1,0.3,34.6-10.4,47
		c-1.5,1.7-3.3,3.4-5.3,4.9c-10.7,8.2-31.6,17.1-50,23.8c-3.9,1.4-7.6,2.7-11,3.9c-1.3,0.5-10.3,3.7-11.6,4.1
		c-0.5,0.2-8.9,3.8-8.9,5.3c-0.2,0.4-0.6,1-0.4,1.6c0.2,0.6,0.5,0.9,0.5,1.1c0.1,0.1,0.3,0.2,0.5,0.2c3.3,1.7,18.1-3,18.8-3.2
		c7.2-2.6,14.3-5,21.2-7.5c22.5-8.1,41.5-15.6,52.1-24.8c6.8-5.9,11.3-12.1,14.3-18.5c4.8-10.1,6.2-20.3,6.8-29.9
		c0.7-10.5,0.7-19.9,3.3-28c2.4-7.7,5.8-14.6,11.5-20.3c24.9-24.9,85.1-38.5,174.9-38.5c93.8,0,155.6,14.6,178.7,41.7
		c3.6,4.2,6,9,7.7,14.3c0.8,2.4,1.4,5,1.8,7.7c0.9,6.3,0.9,13.4,1.2,21.1c0.4,11.5,1.7,23.8,8.6,35.9c2.6,4.6,6.1,9.1,10.8,13.4
		c11.2,10.2,33,18.5,58.6,27.5c4.6,1.6,9.4,3.3,14.2,5c0,0,0.4,0.1,0.4,0.1c0.7,0.2,5.1,1.8,5.8,2.1c0.7,0.3,13.3,4.5,14.7,2.3
		c0.6,0,1.3-0.1,1.7-0.4c0.2-0.2,0.4-0.6,0.6-1.1c0.1-0.2,0.1-0.4,0.2-0.5c-0.1-0.4-0.4-0.8-0.7-1.1c-0.4-1.9-5.7-4.1-9.7-5.5
		c-5.1-1.8-10.2-3.6-11.5-4.1c-3.4-1.2-7.1-2.5-10.9-3.9c-18.5-6.8-39.6-15.7-50.2-23.9c-1.9-1.4-3.5-3-4.9-4.5
		c-11-12.4-10.8-33.4-10.6-47.6c0-0.1,0-1,0-1.1c0.1-11.5,0.1-22.7-5.2-32.8C581.1,24.8,513.4,4.9,400.6,4.9S220,24.8,199.3,64.1z"
		/>
	
		<radialGradient id="SVGID_15_" cx="221.1665" cy="30.7226" r="203.7654" gradientTransform="matrix(1.0047 0 0 0.9784 -6.2115 12.679)" gradientUnits="userSpaceOnUse">
		<stop  offset="0" style="stop-color:#EAECEB"/>
		<stop  offset="0.4417" style="stop-color:#D7D5D5"/>
		<stop  offset="0.7865" style="stop-color:#CFCCCC"/>
	</radialGradient>
	<path fill="url(#SVGID_15_)" d="M200.8,64.5c-5.2,10-5.1,21-5,32.6c0,0.1,0,1,0,1.1c0.1,14,0.3,34.2-10.1,47.1
		c-1.5,1.8-3.2,3.5-5.1,5.1c-10.5,8.5-32,17.6-49.7,24.1c-3.9,1.5-7.6,2.8-10.9,3.9c-0.6,0.2-10.9,3.9-11.6,4.1
		c-0.3,0.1-9.6,3.7-9.6,4.5c-0.3,0.3-0.8,1-0.6,1.5c0.3,0.7,0.5,0.9,0.6,1c0.1,0.1,0.4,0.1,0.6,0.1c3.3,0.3,19.8-5.3,20.1-5.4
		c7.2-2.6,14.3-5,21-7.4c22.8-8.2,41.7-16,51.2-25.5c6.3-6.3,10.4-12.9,12.9-19.5c4-10.3,4.6-20.6,4.9-30.3
		c0.3-10.7,0.3-20.1,3.6-28.1c3-7.1,7.3-13.6,13.7-19.2c27-23.6,86.4-36.3,173.7-36.3c92.3,0,153.7,14,178.5,40.4
		c3.9,4.1,6.8,8.7,8.9,13.7c1,2.4,1.7,4.9,2.2,7.5c1.2,6.3,1.1,13.3,1.2,20.9c0.2,11.5,0.8,24,6.9,36.3c2.4,4.7,5.6,9.4,10.1,13.9
		c10.3,10.4,32,18.9,57.9,28.1c4.6,1.6,9.3,3.3,14.1,5c0,0,0.4,0.1,0.4,0.1c0.3,0.1,5.4,1.9,5.8,2c0.3,0.1,14,4.9,14.8,3.8
		c0.7,0.1,1.5,0.1,1.8,0c0.1-0.2,0.4-0.5,0.7-1.1c0.1-0.3,0.2-0.4,0.2-0.5c-0.1-0.3-0.6-0.7-1-1c-0.5-1.1-5.8-3.1-10.4-4.7
		c-5.4-1.9-10.8-3.8-11.5-4.1c-3.3-1.2-7-2.5-10.9-3.9c-17.8-6.6-39.3-15.7-49.9-24.2c-1.8-1.4-3.4-3-4.8-4.7
		c-10.7-12.8-10.5-33.5-10.3-47.6c0-0.1,0-1,0-1.1c0.1-11.5,0.2-22.5-5-32.4C579.9,25.8,512.7,6.2,400.5,6.2
		C288.4,6.2,221.2,25.8,200.8,64.5z"/>
	<path fill="#FFFFFF" d="M701.2,186.9c-1.4-0.5-22.4-7.9-22.5-8c-17-5.9-47.5-17.5-60.3-28.4c-15-12.7-14.8-36.6-14.7-52.4
		c0,0,0-1.1,0-1.1c0.1-11.5,0.2-22.3-4.9-32C578.7,26.8,512,7.4,400.5,7.4C289.1,7.4,222.4,26.8,202.2,65c-5.1,9.7-5,20.5-4.9,32
		l0,1.1c0.1,15.8,0.4,39.7-14.7,52.4c-12.9,10.9-43.3,22.5-60.3,28.4l-21.8,7.7c-0.4,0.3-1,1-0.8,1.5c0.3,0.8,0.6,1,0.6,1
		c0.1,0,0.4,0,0.7,0c3.2-1.1,21.4-7.6,21.4-7.6c32.3-11.3,60.2-21,71.3-33.6c14.8-16.8,14.6-35,14.5-51.1c-0.1-10.9-0.2-20.3,4-28.2
		c18-34.1,83.1-52.1,188.4-52.1c105.3,0,170.4,18,188.4,52.1c4.2,7.9,4.1,17.3,4,28.2c-0.1,16.1-0.3,34.3,14.5,51.1
		c11,12.5,38.9,22.3,71.3,33.6l0.4,0.1l20.6,7.3c0.7,0.3,1.6,0.4,2,0.3c0.1-0.1,0.4-0.5,0.7-1.1c0.1-0.3,0.2-0.4,0.2-0.5
		C702.2,187.5,701.6,187.1,701.2,186.9z"/>
</g>
<g>
	<path d="M698.7,1029.2c0,0,0.3,4.8-9.7,9.7c-9.9,4.8-13.3,3.2-13.3,3.2l4.2-16.6L698.7,1029.2z"/>
	
		<linearGradient id="SVGID_16_" gradientUnits="userSpaceOnUse" x1="2188.7229" y1="957.0471" x2="2272.1733" y2="1010.8943" gradientTransform="matrix(-1 0 0 1 2874.3555 0)">
		<stop  offset="0" style="stop-color:#65766A"/>
		<stop  offset="0.2809" style="stop-color:#9CA3A1"/>
		<stop  offset="1" style="stop-color:#000000"/>
	</linearGradient>
	<path fill="url(#SVGID_16_)" d="M698.7,1029.2c-14.9-39.8-30.4-81.2-30.4-81.2s-21.9-18.2-39.9-33.2l-17.8,10.1
		c4.1,22.8,9.2,50.7,9.2,50.7s28.5,33.9,56,66.5L698.7,1029.2z"/>
	<g>
		
			<linearGradient id="SVGID_17_" gradientUnits="userSpaceOnUse" x1="2187.4141" y1="988.366" x2="2235.8489" y2="1009.9306" gradientTransform="matrix(-1 0 0 1 2874.3555 0)">
			<stop  offset="0" style="stop-color:#65766A"/>
			<stop  offset="0.264" style="stop-color:#FFFFFF"/>
			<stop  offset="0.5112" style="stop-color:#9CA3A1"/>
			<stop  offset="0.7865" style="stop-color:#000000"/>
		</linearGradient>
		<path fill="url(#SVGID_17_)" d="M698.7,1029.2l-23,12.9c-27.5-32.6-56-66.5-56-66.5l48.5-27.6
			C668.3,947.9,683.8,989.4,698.7,1029.2z"/>
		
			<linearGradient id="SVGID_18_" gradientUnits="userSpaceOnUse" x1="2225.1167" y1="926.7734" x2="2260.7605" y2="961.8708" gradientTransform="matrix(-1 0 0 1 2874.3555 0)">
			<stop  offset="0" style="stop-color:#65766A"/>
			<stop  offset="0.309" style="stop-color:#FFFFFF"/>
			<stop  offset="0.5112" style="stop-color:#9CA3A1"/>
			<stop  offset="0.7865" style="stop-color:#000000"/>
		</linearGradient>
		<path fill="url(#SVGID_18_)" d="M628.4,914.7c18,15,39.9,33.2,39.9,33.2l-48.5,27.6c0,0-5-27.8-9.2-50.7L628.4,914.7z"/>
	</g>
	
		<linearGradient id="SVGID_19_" gradientUnits="userSpaceOnUse" x1="2204.1306" y1="947.1503" x2="2256.1025" y2="978.5499" gradientTransform="matrix(-1 0 0 1 2874.3555 0)">
		<stop  offset="1.123600e-02" style="stop-color:#000000"/>
		<stop  offset="0.118" style="stop-color:#ADB9B1"/>
		<stop  offset="0.2528" style="stop-color:#FFFFFF"/>
		<stop  offset="0.2865" style="stop-color:#F3F4F4"/>
		<stop  offset="0.3402" style="stop-color:#DDE0DE"/>
		<stop  offset="0.4068" style="stop-color:#BBC0BE"/>
		<stop  offset="0.4607" style="stop-color:#9CA3A1"/>
		<stop  offset="0.6461" style="stop-color:#000000"/>
	</linearGradient>
	<path fill="url(#SVGID_19_)" d="M668.3,947.9c0,0-9.3,3.6-21.7,10.7c-12.4,7.1-26.8,16.9-26.8,16.9s16.4-4.1,33.7-15.5
		C670.8,948.6,668.3,947.9,668.3,947.9"/>
</g>
<path d="M96.8,1029.2c0,0-0.3,4.8,9.7,9.7c9.9,4.8,13.3,3.2,13.3,3.2l-4.2-16.6L96.8,1029.2z"/>
<linearGradient id="SVGID_20_" gradientUnits="userSpaceOnUse" x1="109.921" y1="957.0479" x2="193.3713" y2="1010.8952">
	<stop  offset="0" style="stop-color:#65766A"/>
	<stop  offset="0.2809" style="stop-color:#9CA3A1"/>
	<stop  offset="1" style="stop-color:#000000"/>
</linearGradient>
<path fill="url(#SVGID_20_)" d="M96.8,1029.2c14.9-39.8,30.4-81.2,30.4-81.2s21.9-18.2,39.9-33.2l17.8,10.1
	c-4.1,22.8-9.2,50.7-9.2,50.7s-28.5,33.9-56,66.5L96.8,1029.2z"/>
<g>
	<linearGradient id="SVGID_21_" gradientUnits="userSpaceOnUse" x1="108.6108" y1="988.3658" x2="157.0456" y2="1009.9304">
		<stop  offset="0" style="stop-color:#65766A"/>
		<stop  offset="0.264" style="stop-color:#FFFFFF"/>
		<stop  offset="0.5112" style="stop-color:#9CA3A1"/>
		<stop  offset="0.7865" style="stop-color:#000000"/>
	</linearGradient>
	<path fill="url(#SVGID_21_)" d="M96.8,1029.2l23,12.9c27.5-32.6,56-66.5,56-66.5l-48.5-27.6C127.2,947.9,111.7,989.4,96.8,1029.2z"
		/>
	<linearGradient id="SVGID_22_" gradientUnits="userSpaceOnUse" x1="146.3138" y1="926.7736" x2="181.9574" y2="961.8711">
		<stop  offset="0" style="stop-color:#65766A"/>
		<stop  offset="0.309" style="stop-color:#FFFFFF"/>
		<stop  offset="0.5112" style="stop-color:#9CA3A1"/>
		<stop  offset="0.7865" style="stop-color:#000000"/>
	</linearGradient>
	<path fill="url(#SVGID_22_)" d="M167.1,914.7c-18,15-39.9,33.2-39.9,33.2l48.5,27.6c0,0,5-27.8,9.2-50.7L167.1,914.7z"/>
</g>
<radialGradient id="SVGID_23_" cx="608.8509" cy="245.089" r="131.8874" gradientUnits="userSpaceOnUse">
	<stop  offset="0.1348" style="stop-color:#DFE0E5"/>
	<stop  offset="0.1422" style="stop-color:#DCDEE2"/>
	<stop  offset="0.39" style="stop-color:#A2A4A8"/>
	<stop  offset="0.6081" style="stop-color:#747578"/>
	<stop  offset="0.7885" style="stop-color:#4E4F51"/>
	<stop  offset="0.9243" style="stop-color:#262526"/>
	<stop  offset="1" style="stop-color:#000000"/>
</radialGradient>
<path fill="url(#SVGID_23_)" d="M742.4,354.6c1.2-1.8,2.3-3.6,3.4-5.5c40.3-68.6-11-127.2-89.7-173.4
	c-78.7-46.2-154.8-62.5-195.1,6.1c-1.1,1.9-2.1,3.7-3.1,5.6L742.4,354.6z"/>
<radialGradient id="SVGID_24_" cx="513.6001" cy="140.7387" r="78.8963" gradientUnits="userSpaceOnUse">
	<stop  offset="0.1348" style="stop-color:#DFE0E5"/>
	<stop  offset="0.1422" style="stop-color:#DCDEE2"/>
	<stop  offset="0.39" style="stop-color:#A2A4A8"/>
	<stop  offset="0.6081" style="stop-color:#747578"/>
	<stop  offset="0.7885" style="stop-color:#4E4F51"/>
	<stop  offset="0.9243" style="stop-color:#262526"/>
	<stop  offset="1" style="stop-color:#000000"/>
</radialGradient>
<path fill="url(#SVGID_24_)" d="M741.3,357.4c1.2-1.8,2.3-3.6,3.4-5.5c40.3-68.6-11-127.2-89.7-173.4
	c-78.7-46.2-154.8-62.5-195.1,6.1c-1.1,1.9-2.1,3.7-3.1,5.6L741.3,357.4z"/>
<radialGradient id="SVGID_25_" cx="397.7764" cy="624.3992" r="397.7758" gradientUnits="userSpaceOnUse">
	<stop  offset="0.8876" style="stop-color:#000000"/>
	<stop  offset="0.9326" style="stop-color:#517382"/>
	<stop  offset="1" style="stop-color:#000000"/>
</radialGradient>
<path fill="url(#SVGID_25_)" d="M795.6,624.4c0,219.7-178.1,397.8-397.8,397.8C178.1,1022.2,0,844.1,0,624.4
	c0-219.7,178.1-397.8,397.8-397.8C617.5,226.6,795.6,404.7,795.6,624.4z M397.8,268.6C201.3,268.6,42,427.9,42,624.4
	c0,196.5,159.3,355.8,355.8,355.8c196.5,0,355.8-159.3,355.8-355.8C753.5,427.9,594.3,268.6,397.8,268.6z"/>
<radialGradient id="SVGID_26_" cx="397.7762" cy="624.3986" r="319.7273" gradientUnits="userSpaceOnUse">
	<stop  offset="0.8258" style="stop-color:#5A4037"/>
	<stop  offset="1" style="stop-color:#000000"/>
</radialGradient>
<path fill="url(#SVGID_26_)" d="M623.9,398.3c-60.4-60.4-140.7-93.6-226.1-93.6c-85.4,0-165.7,33.3-226.1,93.6
	C111.3,458.7,78,539,78,624.4c0,176.3,143.4,319.7,319.7,319.7c176.3,0,319.7-143.4,319.7-319.7C717.5,539,684.2,458.7,623.9,398.3z
	 M712.5,590.6l-21.6,2.3c-1-9.8-2.6-19.5-4.6-29l21.3-4.5C709.8,569.6,711.4,580,712.5,590.6z M691.1,624.4
	c0,39.6-7.8,78-23.1,114.2c-14.8,34.9-35.9,66.3-62.9,93.2c-26.9,26.9-58.3,48.1-93.2,62.9c-36.2,15.3-74.6,23-114.2,23
	c-39.6,0-78-7.8-114.2-23c-34.9-14.8-66.3-35.9-93.2-62.9c-26.9-26.9-48.1-58.3-62.9-93.2c-15.3-36.2-23-74.6-23-114.2
	c0-39.6,7.8-78,23-114.2c14.8-34.9,35.9-66.3,62.9-93.2c26.9-26.9,58.3-48.1,93.2-62.9c36.2-15.3,74.6-23,114.2-23
	c39.6,0,78,7.8,114.2,23c34.9,14.8,66.3,35.9,93.2,62.9c26.9,26.9,48.1,58.3,62.9,93.2C683.3,546.4,691.1,584.8,691.1,624.4z
	 M707.3,557.8l-21.3,4.5c-2-9.6-4.6-19-7.6-28.4l20.8-6.7C702.4,537.3,705.1,547.5,707.3,557.8z M698.8,525.8l-20.8,6.7
	c-2.5-7.7-5.4-15.4-8.6-22.9c-0.6-1.5-1.3-3-2-4.5l20-8.9C691.7,505.9,695.5,515.8,698.8,525.8z M668.2,459.6l-12.6,15.9l20.1-3
	c4,7.3,7.7,14.7,11.1,22.3l-20,8.9c-8.3-18.4-18.3-35.8-30.1-52.1l17.6-12.8C659.3,445.6,663.9,452.6,668.2,459.6z M653.5,437.7
	l-17.6,12.8c-5.8-7.9-11.9-15.5-18.5-22.8l16.2-14.6C640.6,421,647.3,429.2,653.5,437.7z M621.6,400.6c3.7,3.7,7.4,7.6,10.9,11.5
	l-16.2,14.6c-3.3-3.6-6.7-7.2-10.1-10.6c-3.5-3.5-7-6.9-10.6-10.1l14.6-16.2C614,393.2,617.9,396.8,621.6,400.6z M609,388.7
	l-14.6,16.2c-7.3-6.6-14.9-12.7-22.8-18.5l12.8-17.6C592.9,374.9,601.1,381.6,609,388.7z M549.6,346.5l-3,20.1l15.9-12.6
	c7.1,4.3,14,8.9,20.7,13.8l-12.8,17.6c-16.3-11.8-33.7-21.8-52.1-30.1l8.9-20C534.8,338.8,542.3,342.5,549.6,346.5z M525.9,334.8
	l-8.9,20c-1.5-0.7-3-1.3-4.5-2c-7.5-3.2-15.2-6-22.9-8.6l6.8-20.8C506.4,326.7,516.3,330.5,525.9,334.8z M494.9,323l-6.8,20.8
	c-9.3-3-18.8-5.5-28.4-7.6l4.5-21.3C474.7,317,484.9,319.8,494.9,323z M462.9,314.5l-4.5,21.3c-9.6-2-19.3-3.5-29-4.6l2.3-21.7
	C442.2,310.7,452.6,312.4,462.9,314.5z M390.3,307.9l7.4,18.7l7.4-18.7c8.4,0.2,16.7,0.7,24.9,1.5l-2.3,21.6c-9.9-1-20-1.5-30.1-1.5
	c-10.1,0-20.1,0.5-30.1,1.5l-2.3-21.6C373.7,308.6,382,308.1,390.3,307.9z M363.9,309.6l2.3,21.7c-9.8,1-19.5,2.6-29,4.6l-4.5-21.3
	C343,312.4,353.4,310.7,363.9,309.6z M331.2,314.8l4.5,21.3c-9.6,2.1-19,4.6-28.4,7.6l-6.8-20.8C310.6,319.8,320.9,317,331.2,314.8z
	 M299.2,323.4l6.8,20.8c-7.7,2.5-15.4,5.4-22.9,8.6c-1.5,0.6-3,1.3-4.5,2l-8.9-20C279.3,330.5,289.2,326.7,299.2,323.4z M233,354
	l15.9,12.6l-3-20.1c7.3-4,14.7-7.7,22.3-11.1l8.9,20c-18.4,8.3-35.8,18.3-52.1,30.1l-12.8-17.6C219,362.9,225.9,358.3,233,354z
	 M211.1,368.7l12.8,17.6c-7.9,5.8-15.5,11.9-22.8,18.5l-14.6-16.2C194.4,381.6,202.6,374.9,211.1,368.7z M173.9,400.6
	c3.7-3.7,7.6-7.4,11.5-10.9l14.6,16.2c-3.6,3.3-7.2,6.7-10.6,10.1c-3.5,3.5-6.8,7-10.1,10.6L163,412
	C166.5,408.1,170.2,404.3,173.9,400.6z M162,413.1l16.2,14.6c-6.6,7.3-12.7,14.9-18.5,22.8l-17.6-12.8
	C148.3,429.2,154.9,421,162,413.1z M119.9,472.6l20.1,3l-12.6-15.9c4.3-7.1,8.9-14,13.8-20.7l17.6,12.8
	c-11.8,16.3-21.9,33.7-30.1,52.1l-20-8.9C112.1,487.3,115.9,479.9,119.9,472.6z M108.1,496.2l20,8.9c-0.7,1.5-1.3,3-2,4.5
	c-3.2,7.5-6,15.2-8.6,22.9l-20.8-6.8C100.1,515.8,103.9,505.9,108.1,496.2z M96.4,527.2l20.8,6.7c-3,9.3-5.5,18.8-7.6,28.4
	l-21.3-4.5C90.4,547.5,93.1,537.3,96.4,527.2z M87.9,559.3l21.3,4.5c-2,9.6-3.5,19.3-4.6,29L83,590.6
	C84.1,580,85.8,569.6,87.9,559.3z M81.3,631.8l18.7-7.4L81.3,617c0.2-8.4,0.7-16.7,1.5-24.9l21.6,2.3c-1,9.9-1.5,20-1.5,30.1
	c0,10.1,0.5,20.1,1.5,30.1l-21.6,2.3C82,648.5,81.5,640.2,81.3,631.8z M83,658.2l21.6-2.3c1,9.8,2.6,19.5,4.6,29L88,689.5
	C85.8,679.2,84.2,668.8,83,658.2z M88.3,690.9l21.3-4.5c2.1,9.6,4.6,19,7.6,28.4l-20.6,6.7C93.3,711.5,90.5,701.3,88.3,690.9z
	 M96.9,722.9l20.6-6.7c2.5,7.7,5.4,15.4,8.6,22.9c0.6,1.5,1.3,3,2,4.5l-19.8,8.8C104,742.9,100.2,733,96.9,722.9z M127.5,789
	l12.5-15.7l-19.9,2.9c-4-7.3-7.7-14.7-11.1-22.4l19.8-8.8c8.3,18.4,18.3,35.8,30.1,52.1l-17.5,12.7
	C136.5,803.1,131.8,796.1,127.5,789z M142.2,811l17.5-12.7c5.8,7.9,11.9,15.5,18.5,22.8l-16.1,14.5
	C155.1,827.7,148.5,819.5,142.2,811z M163.1,836.7l16.1-14.5c3.3,3.6,6.7,7.2,10.1,10.6c3.5,3.5,7,6.8,10.6,10.1L185.5,859
	C177.7,852,170.2,844.5,163.1,836.7z M186.6,860l14.5-16.1c7.3,6.6,14.9,12.7,22.8,18.5L211.2,880
	C202.7,873.7,194.5,867.1,186.6,860z M246,902.1l2.9-19.9l-15.8,12.5c-7.1-4.4-14-9-20.8-13.9l12.7-17.5
	c16.3,11.8,33.7,21.9,52.1,30.1l-8.8,19.8C260.7,909.8,253.3,906.1,246,902.1z M269.7,913.9l8.8-19.8c1.5,0.7,3,1.3,4.5,2
	c7.5,3.2,15.2,6,22.9,8.6l-6.7,20.6C289.2,921.9,279.3,918.1,269.7,913.9z M300.7,925.7l6.7-20.6c9.3,3,18.8,5.5,28.4,7.6l-4.5,21.3
	C320.8,931.7,310.6,928.9,300.7,925.7z M332.7,934.2l4.5-21.3c9.6,2,19.3,3.5,29,4.6l-2.3,21.6C353.4,938,342.9,936.4,332.7,934.2z
	 M405.2,940.9l-7.4-18.7l-7.4,18.7c-8.4-0.2-16.7-0.7-24.9-1.5l2.3-21.6c9.9,1,20,1.5,30.1,1.5c10.1,0,20.1-0.5,30.1-1.5l2.3,21.6
	C421.9,940.2,413.6,940.7,405.2,940.9z M431.6,939.2l-2.3-21.6c9.8-1,19.5-2.6,29-4.6l4.5,21.3C452.6,936.4,442.2,938,431.6,939.2z
	 M464.3,933.9l-4.5-21.3c9.6-2.1,19-4.6,28.4-7.6l6.7,20.6C484.9,928.9,474.7,931.7,464.3,933.9z M496.3,925.2l-6.7-20.6
	c7.7-2.5,15.4-5.4,22.9-8.6c1.5-0.6,3-1.3,4.5-2l8.8,19.8C516.2,918.1,506.4,921.9,496.3,925.2z M562.4,894.7l-15.8-12.5l2.9,19.9
	c-7.3,4-14.7,7.7-22.4,11.1l-8.8-19.8c18.4-8.3,35.8-18.3,52.1-30.1l12.7,17.5C576.4,885.7,569.5,890.3,562.4,894.7z M584.4,880
	l-12.7-17.5c7.9-5.8,15.5-11.9,22.8-18.5l14.5,16.1C601.1,867.1,592.9,873.7,584.4,880z M610,859L595.6,843
	c3.6-3.3,7.2-6.7,10.6-10.1c3.5-3.5,6.8-7,10.1-10.6l16.1,14.5C625.3,844.5,617.9,852,610,859z M633.4,835.6l-16.1-14.5
	c6.6-7.3,12.7-14.9,18.5-22.8l17.5,12.7C647.1,819.5,640.4,827.7,633.4,835.6z M675.5,776.2l-19.9-2.9l12.5,15.8
	c-4.4,7.1-9,14-13.9,20.8l-17.5-12.7c11.8-16.3,21.9-33.7,30.1-52.1l19.8,8.8C683.2,761.4,679.5,768.9,675.5,776.2z M687.2,752.5
	l-19.8-8.8c0.7-1.5,1.3-3,2-4.5c3.2-7.5,6-15.2,8.6-22.9l20.6,6.7C695.3,733,691.5,742.9,687.2,752.5z M699.1,721.5l-20.6-6.7
	c3-9.3,5.5-18.8,7.6-28.4l21.2,4.5C705,701.3,702.3,711.5,699.1,721.5z M707.6,689.5l-21.3-4.5c2-9.6,3.5-19.3,4.6-29l21.6,2.3
	C711.4,668.8,709.7,679.2,707.6,689.5z M712.7,656.8l-21.6-2.3c1-9.9,1.5-20,1.5-30.1c0-10.1-0.5-20.1-1.5-30.1l21.6-2.3
	c0.8,8.2,1.3,16.6,1.5,24.9l-18.7,7.4l18.7,7.4C714,640.2,713.5,648.5,712.7,656.8z M423.2,383.3c6.7-5.4,13.9-11.8,13.9-21.2
	c0-10.2-10-16.7-19.4-16.7c-8.8,0-18.6,6.3-18.6,15.9c0,3.5,2,6.8,5.7,6.8c2.7,0,4.8-2.3,4.8-4.8c0-3-2.5-4.6-2.5-7.6
	c0-4.7,4.8-7.2,9.1-7.2c7,0,11.5,6.5,11.5,13.2c0,8.3-5.8,15.3-11.2,21c-7.1,7.8-14.3,15.4-19.3,24.9l0.2,1.2
	c-3.1,0-6.7-0.3-8.8-2.7c-1.9-2.2-1.9-5.9-1.9-10.9v-49.6h-2.8c-4.2,5.6-11.5,8.1-18.2,7.9v3c7.3,0,10.6,0.5,11.7,2.6
	c1.3,2.4,1.3,7.7,1.3,10.4V395c0,4.8,0,9.5-2.8,11.9c-2,1.7-6.7,1.7-9.6,1.7v3h66.6l4-17.1l-2.7-0.7c-2.3,5.5-4.8,8.4-7.6,9.5
	c-3.3,1.2-8.2,1.2-13.9,1.2h-9C410.8,393.7,413,391.3,423.2,383.3z M530.2,393.1c1.3,2.4,1.3,7.7,1.3,10.4v25.8
	c0,4.8,0,9.5-2.8,11.9c-2,1.7-6.7,1.7-9.6,1.7v3h32.5v-3c-3.3,0-7.7,0-10.1-2.7c-1.9-2.2-1.9-5.9-1.9-10.9v-49.6h-2.8
	c-4.2,5.6-11.5,8.1-18.2,7.9v3C525.8,390.6,529.1,391.1,530.2,393.1z M246.9,441.2c-2,1.7-6.7,1.7-9.6,1.7v3h32.5v-3
	c-3.3,0-7.7,0-10.1-2.7c-1.9-2.2-1.9-5.9-1.9-10.9v-49.6H255c-4.2,5.6-11.5,8.1-18.2,7.9v3c7.3,0,10.6,0.5,11.7,2.6
	c1.3,2.4,1.3,7.7,1.3,10.4v25.8C249.8,434.2,249.8,438.9,246.9,441.2z M294.4,429.4v-49.6h-2.8c-4.2,5.6-11.5,8.1-18.2,7.9v3
	c7.3,0,10.6,0.5,11.7,2.6c1.3,2.4,1.3,7.7,1.3,10.4v25.8c0,4.8,0,9.5-2.8,11.9c-2,1.7-6.7,1.7-9.6,1.7v3h32.5v-3
	c-3.3,0-7.7,0-10.1-2.7C294.4,438,294.4,434.4,294.4,429.4z M634.4,512.3l-2.7-0.7c-2.3,5.5-4.8,8.4-7.6,9.5
	c-3.3,1.2-8.2,1.2-13.9,1.2h-9c7-10.8,9.2-13.3,19.4-21.2c6.7-5.4,13.9-11.8,13.9-21.2c0-10.2-10-16.7-19.4-16.7
	c-8.8,0-18.6,6.3-18.6,15.9c0,3.5,2,6.8,5.7,6.8c2.7,0,4.8-2.3,4.8-4.8c0-3-2.5-4.6-2.5-7.6c0-4.7,4.8-7.2,9.1-7.2
	c7,0,11.5,6.5,11.5,13.2c0,8.3-5.8,15.3-11.2,21c-7.1,7.8-14.3,15.4-19.3,24.9l0.5,4.2h34.9L634.4,512.3z M211.7,463.1
	c-7.6,0-12.9,6.5-16.1,12.7c-3,6.2-4.4,13.9-4.4,20.9c0,7.3,1.4,14.7,4.8,21.3c3.2,6.3,8.1,12.3,15.7,12.3c7.8,0,13.3-7,16.3-13.4
	c2.9-6.4,4.2-13.8,4.2-20.8c0-7.4-1.4-14.8-4.9-21.4C223.9,468.9,218.7,463.1,211.7,463.1z M212.2,527.4
	c-11.5,0-12.3-22.3-12.3-30.4c0-7.5,0.9-30.9,11.8-30.9c10.7,0,11.8,22.9,11.8,30.4C223.6,506.3,221.6,527.4,212.2,527.4z
	 M180.2,512.8v-49.6h-2.8c-4.2,5.6-11.5,8.1-18.2,7.9v3c7.3,0,10.6,0.5,11.7,2.6c1.3,2.4,1.3,7.7,1.3,10.4v25.8
	c0,4.8,0,9.5-2.8,11.9c-2,1.7-6.7,1.7-9.6,1.7v3h32.5v-3c-3.3,0-7.7,0-10.1-2.7C180.2,521.5,180.2,517.8,180.2,512.8z M639.7,601.4
	c0,2.7,2.2,5.3,5.1,5.3c2.7,0,4.7-2.3,4.7-4.9c0-1.5-0.4-2.9-0.4-4.4c0-3.9,4.3-6,7.9-6c6.9,0,9.7,7.6,9.7,13.5c0,4.5-2.7,13-8.3,13
	c-1.6,0-3.5-0.7-5.5-0.7c-1.8,0-3.5,0.7-3.5,2.7c0,1.8,1.6,2.6,3.2,2.6c2.1,0,4.1-0.8,6.3-0.8c7.4,0,10,8.4,10,14.5
	c0,7.6-3,16.5-12.1,16.5c-3.5,0-8.4-1.6-8.4-5.9c0-1.2,0.5-2.6,0.5-3.7c0-3-1.7-5.4-5-5.4c-3.4,0-4.8,3-4.8,6
	c0,9,10.5,12.1,17.7,12.1c10.6,0,21.7-7,21.7-18.6c0-9.9-8.5-16.1-17.5-17.4v-0.1c7-1.8,14.9-7.9,14.9-15.5c0-10-9.2-15.7-18.4-15.7
	C650.2,588.4,639.7,592.5,639.7,601.4z M156.7,618.3c0-13-5-30-20.8-30c-11.8,0-19.8,12.2-19.8,23c0,9.2,6,18.9,16.1,18.9
	c7,0,11.7-4.2,15.9-9.4c0.7,8.3-3.7,31.7-14.3,31.7c-4,0-5.1-3.6-5.8-6.9c-0.5-2.4-1.2-4.2-4.1-4.2c-3,0-5.1,1.9-5.1,4.9
	c0,6,8.3,9.2,13.3,9.2c8.7,0,15.5-6.6,19.3-13.9C154.9,634.8,156.7,626.1,156.7,618.3z M135.4,625.9c-8.3,0-10.7-8.9-10.7-15.7
	c0-7.4,1.9-18.8,11.4-18.8c11.3,0,11.5,16,11.9,24.2C145.3,619.9,141.2,625.9,135.4,625.9z M633,711.3h-4l-27.2,45.8v4.2H625v3.1
	c0,3.3,0,5.8-0.6,7.4c-0.7,2-2.8,2.7-7.3,2.7v3h23.1v-3c-3.8,0.2-5.7-1-6.4-2.9c-0.7-2-0.7-4.9-0.7-8v-2.3h10.1v-4.2H633V711.3z
	 M625,757.1h-18.6l18.6-31.7V757.1z M177.3,740.8c5.5-3.6,11.3-7.7,11.3-14.9c0-8.6-9-14.6-16.9-14.6c-10.3,0-18.2,7.5-18.2,18
	c0,7.3,5.4,12.2,11.7,15.2c-6.9,2.8-15.2,8.5-15.2,16.8c0,10.7,9.9,17.3,19.7,17.3c5.6,0,11.4-1.8,15.3-5.9
	c3.4-3.4,5.9-8.9,5.9-13.6C191,750.6,184.5,744.3,177.3,740.8z M159.8,725.9c0-6.4,4.7-11.6,11.2-11.6c6.8,0,10.9,5.4,10.9,12
	c0,5.7-3,10.1-7.8,13.1C168.7,737.2,159.8,732.6,159.8,725.9z M171.3,775.5c-8,0-13.2-6.8-13.2-14.5c0-6.6,4-12.3,9.9-15.3
	c6.7,4,16.3,6.8,16.3,16.2C184.3,769.2,178.8,775.5,171.3,775.5z M537,827.9c-4.8,0-9.1,1.7-13,4.5l1.5-21.2h25.1l1.4-6.5h-30.5
	l-2,32.2l3.1,1.4c2.7-3.9,6.3-6.4,11.2-6.4c9.2,0,13,8.7,13,16.8c0,8.4-3.8,19.3-14,19.3c-3.7,0-7.2-2.1-7.2-6
	c0-1.7,0.6-3.4,0.6-5.1c0-2.7-2.1-5-4.8-5c-3.5,0-5,3.3-5,6.3c0,8.1,10.5,12.9,17.5,12.9c12.3,0,21.7-10.4,21.7-22.5
	C555.5,838.1,548.3,827.9,537,827.9z M249.4,804.7l-3.7,17.6l2.7,0.6c1-3.5,2.6-7.2,5.3-9.7c3.7-3.1,8-2.5,12.4-2.5h14.5
	c-3.8,6.4-12.2,20.1-15.6,27c-5,10-9,20.2-9,27.6c0,3.1,1.1,5.7,4.8,5.7c5.2,0,4.8-5.6,4.8-9.2c0-18.6,10.3-36.8,19.9-51.9l-0.5-5.1
	H249.4z M402.3,864.4c-6.8,0-11.7,4.6-15.8,9.3c0-8,3.6-31.5,14.3-31.5c8.2,0,3.6,11.2,10.2,11.2c2.9,0,5.2-2.2,5.2-5.1
	c0-5.8-8.2-9.1-13.2-9.1c-9.1,0-16,6.7-19.8,14.4c-3.6,7-5.2,15.5-5.2,23.3c0,16,7.3,29.5,20.7,29.5c12,0,20-12,20-23.3
	C418.6,874,412.2,864.4,402.3,864.4z M398.4,903.4c-10.5,0-11.4-14.8-11.8-22.6V879c2.4-4.3,7.4-10.2,12.7-10.2
	c7,0,10.6,7,10.6,15.5C410,891.4,407.7,903.4,398.4,903.4z"/>
<g>
	<g>
		<g>
			<g>
				<radialGradient id="SVGID_27_" cx="400.2075" cy="629.8745" r="324.7245" gradientUnits="userSpaceOnUse">
					<stop  offset="0.8258" style="stop-color:#5A4037"/>
					<stop  offset="1" style="stop-color:#000000"/>
				</radialGradient>
				<polygon fill="url(#SVGID_27_)" points="456.4,533.2 461.4,536.1 459.4,539.7 454.4,536.8 				"/>
				<radialGradient id="SVGID_28_" cx="400.2105" cy="629.8764" r="324.7638" gradientUnits="userSpaceOnUse">
					<stop  offset="0.8258" style="stop-color:#5A4037"/>
					<stop  offset="1" style="stop-color:#000000"/>
				</radialGradient>
				<polygon fill="url(#SVGID_28_)" points="336.2,463.8 341.2,466.7 339.1,470.2 334.1,467.4 				"/>
			</g>
			<g>
				<radialGradient id="SVGID_29_" cx="400.1958" cy="629.8715" r="324.7318" gradientUnits="userSpaceOnUse">
					<stop  offset="0.8258" style="stop-color:#5A4037"/>
					<stop  offset="1" style="stop-color:#000000"/>
				</radialGradient>
				<polygon fill="url(#SVGID_29_)" points="432.8,558.3 435.7,563.3 432.1,565.4 429.3,560.4 				"/>
				<radialGradient id="SVGID_30_" cx="400.1821" cy="629.8696" r="324.7383" gradientUnits="userSpaceOnUse">
					<stop  offset="0.8258" style="stop-color:#5A4037"/>
					<stop  offset="1" style="stop-color:#000000"/>
				</radialGradient>
				<polygon fill="url(#SVGID_30_)" points="363.4,438.1 366.3,443.1 362.7,445.1 359.8,440.1 				"/>
			</g>
			<g>
				<radialGradient id="SVGID_31_" cx="400.1909" cy="629.8696" r="324.7344" gradientUnits="userSpaceOnUse">
					<stop  offset="0.8258" style="stop-color:#5A4037"/>
					<stop  offset="1" style="stop-color:#000000"/>
				</radialGradient>
				<rect x="395.7" y="568.3" fill="url(#SVGID_31_)" width="4.1" height="5.8"/>
				<radialGradient id="SVGID_32_" cx="400.1909" cy="629.8794" r="324.7576" gradientUnits="userSpaceOnUse">
					<stop  offset="0.8258" style="stop-color:#5A4037"/>
					<stop  offset="1" style="stop-color:#000000"/>
				</radialGradient>
				<rect x="395.7" y="429.4" fill="url(#SVGID_32_)" width="4.1" height="5.8"/>
			</g>
			<g>
				<radialGradient id="SVGID_33_" cx="400.1939" cy="629.8715" r="324.7414" gradientUnits="userSpaceOnUse">
					<stop  offset="0.8258" style="stop-color:#5A4037"/>
					<stop  offset="1" style="stop-color:#000000"/>
				</radialGradient>
				<polygon fill="url(#SVGID_33_)" points="366.3,560.4 363.4,565.4 359.8,563.3 362.7,558.3 				"/>
				<radialGradient id="SVGID_34_" cx="400.1958" cy="629.8715" r="324.7421" gradientUnits="userSpaceOnUse">
					<stop  offset="0.8258" style="stop-color:#5A4037"/>
					<stop  offset="1" style="stop-color:#000000"/>
				</radialGradient>
				<polygon fill="url(#SVGID_34_)" points="435.7,440.1 432.8,445.1 429.3,443.1 432.1,438.1 				"/>
			</g>
			<g>
				<radialGradient id="SVGID_35_" cx="400.1675" cy="629.8745" r="324.7119" gradientUnits="userSpaceOnUse">
					<stop  offset="0.8258" style="stop-color:#5A4037"/>
					<stop  offset="1" style="stop-color:#000000"/>
				</radialGradient>
				<polygon fill="url(#SVGID_35_)" points="341.2,536.8 336.2,539.7 334.1,536.1 339.1,533.2 				"/>
				<radialGradient id="SVGID_36_" cx="400.1919" cy="629.8764" r="324.7523" gradientUnits="userSpaceOnUse">
					<stop  offset="0.8258" style="stop-color:#5A4037"/>
					<stop  offset="1" style="stop-color:#000000"/>
				</radialGradient>
				<polygon fill="url(#SVGID_36_)" points="461.4,467.4 456.4,470.2 454.4,466.7 459.4,463.8 				"/>
			</g>
			<g>
				<radialGradient id="SVGID_37_" cx="400.1978" cy="629.8676" r="324.7412" gradientUnits="userSpaceOnUse">
					<stop  offset="0.8258" style="stop-color:#5A4037"/>
					<stop  offset="1" style="stop-color:#000000"/>
				</radialGradient>
				<rect x="325.5" y="499.7" fill="url(#SVGID_37_)" width="5.8" height="4.1"/>
				<radialGradient id="SVGID_38_" cx="400.2017" cy="629.8676" r="324.728" gradientUnits="userSpaceOnUse">
					<stop  offset="0.8258" style="stop-color:#5A4037"/>
					<stop  offset="1" style="stop-color:#000000"/>
				</radialGradient>
				<rect x="464.3" y="499.7" fill="url(#SVGID_38_)" width="5.8" height="4.1"/>
			</g>
		</g>
		<g>
			<g>
				<radialGradient id="SVGID_39_" cx="400.1987" cy="629.8559" r="324.7052" gradientUnits="userSpaceOnUse">
					<stop  offset="0.8258" style="stop-color:#5A4037"/>
					<stop  offset="1" style="stop-color:#000000"/>
				</radialGradient>
				<polygon fill="url(#SVGID_39_)" points="463.9,509.4 469.6,510.1 469.3,512.2 463.6,511.4 				"/>
				<radialGradient id="SVGID_40_" cx="400.2241" cy="629.8637" r="324.7574" gradientUnits="userSpaceOnUse">
					<stop  offset="0.8258" style="stop-color:#5A4037"/>
					<stop  offset="1" style="stop-color:#000000"/>
				</radialGradient>
				<polygon fill="url(#SVGID_40_)" points="326.2,491.3 331.9,492 331.7,494.1 325.9,493.3 				"/>
			</g>
			<g>
				<radialGradient id="SVGID_41_" cx="400.2202" cy="629.8618" r="324.686" gradientUnits="userSpaceOnUse">
					<stop  offset="0.8258" style="stop-color:#5A4037"/>
					<stop  offset="1" style="stop-color:#000000"/>
				</radialGradient>
				<polygon fill="url(#SVGID_41_)" points="462.3,517.9 467.9,519.4 467.4,521.4 461.8,519.9 				"/>
				<radialGradient id="SVGID_42_" cx="400.1987" cy="629.8686" r="324.7427" gradientUnits="userSpaceOnUse">
					<stop  offset="0.8258" style="stop-color:#5A4037"/>
					<stop  offset="1" style="stop-color:#000000"/>
				</radialGradient>
				<polygon fill="url(#SVGID_42_)" points="328.2,482 333.8,483.5 333.2,485.5 327.7,484 				"/>
			</g>
			<g>
				<radialGradient id="SVGID_43_" cx="400.1763" cy="629.8715" r="324.7683" gradientUnits="userSpaceOnUse">
					<stop  offset="0.8258" style="stop-color:#5A4037"/>
					<stop  offset="1" style="stop-color:#000000"/>
				</radialGradient>
				<polygon fill="url(#SVGID_43_)" points="459.6,526.2 465,528.4 464.2,530.4 458.9,528.1 				"/>
				<radialGradient id="SVGID_44_" cx="400.2202" cy="629.8794" r="324.7766" gradientUnits="userSpaceOnUse">
					<stop  offset="0.8258" style="stop-color:#5A4037"/>
					<stop  offset="1" style="stop-color:#000000"/>
				</radialGradient>
				<polygon fill="url(#SVGID_44_)" points="331.4,473.1 336.7,475.3 335.9,477.2 330.6,475 				"/>
			</g>
			<g>
				<radialGradient id="SVGID_45_" cx="400.2154" cy="629.8735" r="324.7083" gradientUnits="userSpaceOnUse">
					<stop  offset="0.8258" style="stop-color:#5A4037"/>
					<stop  offset="1" style="stop-color:#000000"/>
				</radialGradient>
				<polygon fill="url(#SVGID_45_)" points="455.9,534.1 460.9,537 459.9,538.8 454.9,535.9 				"/>
				<radialGradient id="SVGID_46_" cx="400.1997" cy="629.8833" r="324.7683" gradientUnits="userSpaceOnUse">
					<stop  offset="0.8258" style="stop-color:#5A4037"/>
					<stop  offset="1" style="stop-color:#000000"/>
				</radialGradient>
				<polygon fill="url(#SVGID_46_)" points="335.7,464.7 340.7,467.6 339.6,469.3 334.6,466.5 				"/>
			</g>
			<g>
				<radialGradient id="SVGID_47_" cx="400.1763" cy="629.8715" r="324.7742" gradientUnits="userSpaceOnUse">
					<stop  offset="0.8258" style="stop-color:#5A4037"/>
					<stop  offset="1" style="stop-color:#000000"/>
				</radialGradient>
				<polygon fill="url(#SVGID_47_)" points="451.2,541.4 455.8,544.9 454.5,546.6 449.9,543.1 				"/>
				<radialGradient id="SVGID_48_" cx="400.1909" cy="629.895" r="324.7832" gradientUnits="userSpaceOnUse">
					<stop  offset="0.8258" style="stop-color:#5A4037"/>
					<stop  offset="1" style="stop-color:#000000"/>
				</radialGradient>
				<polygon fill="url(#SVGID_48_)" points="341,456.9 345.6,460.4 344.4,462 339.8,458.5 				"/>
			</g>
			<g>
				<radialGradient id="SVGID_49_" cx="400.2114" cy="629.8715" r="324.7074" gradientUnits="userSpaceOnUse">
					<stop  offset="0.8258" style="stop-color:#5A4037"/>
					<stop  offset="1" style="stop-color:#000000"/>
				</radialGradient>
				<polygon fill="url(#SVGID_49_)" points="445.6,548 449.6,552.1 448.2,553.6 444.1,549.5 				"/>
				<radialGradient id="SVGID_50_" cx="400.2095" cy="629.8628" r="324.7366" gradientUnits="userSpaceOnUse">
					<stop  offset="0.8258" style="stop-color:#5A4037"/>
					<stop  offset="1" style="stop-color:#000000"/>
				</radialGradient>
				<polygon fill="url(#SVGID_50_)" points="347.4,449.9 351.5,453.9 350,455.4 345.9,451.3 				"/>
			</g>
			<g>
				<radialGradient id="SVGID_51_" cx="400.1948" cy="629.8696" r="324.7289" gradientUnits="userSpaceOnUse">
					<stop  offset="0.8258" style="stop-color:#5A4037"/>
					<stop  offset="1" style="stop-color:#000000"/>
				</radialGradient>
				<polygon fill="url(#SVGID_51_)" points="439.1,553.9 442.6,558.5 441,559.7 437.5,555.1 				"/>
				<radialGradient id="SVGID_52_" cx="400.2085" cy="629.8676" r="324.7429" gradientUnits="userSpaceOnUse">
					<stop  offset="0.8258" style="stop-color:#5A4037"/>
					<stop  offset="1" style="stop-color:#000000"/>
				</radialGradient>
				<polygon fill="url(#SVGID_52_)" points="354.6,443.7 358.1,448.3 356.4,449.6 352.9,445 				"/>
			</g>
			<g>
				<radialGradient id="SVGID_53_" cx="400.1714" cy="629.8764" r="324.8089" gradientUnits="userSpaceOnUse">
					<stop  offset="0.8258" style="stop-color:#5A4037"/>
					<stop  offset="1" style="stop-color:#000000"/>
				</radialGradient>
				<polygon fill="url(#SVGID_53_)" points="431.9,558.8 434.8,563.8 433,564.9 430.2,559.9 				"/>
				<radialGradient id="SVGID_54_" cx="400.1958" cy="629.854" r="324.7148" gradientUnits="userSpaceOnUse">
					<stop  offset="0.8258" style="stop-color:#5A4037"/>
					<stop  offset="1" style="stop-color:#000000"/>
				</radialGradient>
				<polygon fill="url(#SVGID_54_)" points="362.5,438.6 365.4,443.6 363.6,444.6 360.7,439.6 				"/>
			</g>
			<g>
				<radialGradient id="SVGID_55_" cx="400.1802" cy="629.8706" r="324.766" gradientUnits="userSpaceOnUse">
					<stop  offset="0.8258" style="stop-color:#5A4037"/>
					<stop  offset="1" style="stop-color:#000000"/>
				</radialGradient>
				<polygon fill="url(#SVGID_55_)" points="424.2,562.8 426.4,568.1 424.5,568.9 422.3,563.6 				"/>
				<radialGradient id="SVGID_56_" cx="400.2095" cy="629.8579" r="324.7247" gradientUnits="userSpaceOnUse">
					<stop  offset="0.8258" style="stop-color:#5A4037"/>
					<stop  offset="1" style="stop-color:#000000"/>
				</radialGradient>
				<polygon fill="url(#SVGID_56_)" points="371.1,434.5 373.3,439.9 371.4,440.6 369.1,435.3 				"/>
			</g>
			<g>
				<radialGradient id="SVGID_57_" cx="400.188" cy="629.8735" r="324.7603" gradientUnits="userSpaceOnUse">
					<stop  offset="0.8258" style="stop-color:#5A4037"/>
					<stop  offset="1" style="stop-color:#000000"/>
				</radialGradient>
				<polygon fill="url(#SVGID_57_)" points="416,565.7 417.5,571.3 415.5,571.8 414,566.3 				"/>
				<radialGradient id="SVGID_58_" cx="400.1929" cy="629.8657" r="324.7333" gradientUnits="userSpaceOnUse">
					<stop  offset="0.8258" style="stop-color:#5A4037"/>
					<stop  offset="1" style="stop-color:#000000"/>
				</radialGradient>
				<polygon fill="url(#SVGID_58_)" points="380.1,431.6 381.5,437.2 379.6,437.7 378.1,432.1 				"/>
			</g>
			<g>
				<radialGradient id="SVGID_59_" cx="400.1948" cy="629.8706" r="324.7351" gradientUnits="userSpaceOnUse">
					<stop  offset="0.8258" style="stop-color:#5A4037"/>
					<stop  offset="1" style="stop-color:#000000"/>
				</radialGradient>
				<polygon fill="url(#SVGID_59_)" points="407.5,567.6 408.2,573.3 406.2,573.6 405.4,567.8 				"/>
				<radialGradient id="SVGID_60_" cx="400.1909" cy="629.8588" r="324.7234" gradientUnits="userSpaceOnUse">
					<stop  offset="0.8258" style="stop-color:#5A4037"/>
					<stop  offset="1" style="stop-color:#000000"/>
				</radialGradient>
				<polygon fill="url(#SVGID_60_)" points="389.4,429.9 390.1,435.6 388.1,435.9 387.3,430.2 				"/>
			</g>
			<g>
				<radialGradient id="SVGID_61_" cx="400.1939" cy="629.8696" r="324.7338" gradientUnits="userSpaceOnUse">
					<stop  offset="0.8258" style="stop-color:#5A4037"/>
					<stop  offset="1" style="stop-color:#000000"/>
				</radialGradient>
				<rect x="396.7" y="568.3" fill="url(#SVGID_61_)" width="2.1" height="5.8"/>
				<radialGradient id="SVGID_62_" cx="400.1948" cy="629.8657" r="324.7354" gradientUnits="userSpaceOnUse">
					<stop  offset="0.8258" style="stop-color:#5A4037"/>
					<stop  offset="1" style="stop-color:#000000"/>
				</radialGradient>
				<polygon fill="url(#SVGID_62_)" points="398.8,429.4 398.8,435.2 396.7,435.2 396.7,429.4 				"/>
			</g>
			<g>
				<radialGradient id="SVGID_63_" cx="400.19" cy="629.8676" r="324.7221" gradientUnits="userSpaceOnUse">
					<stop  offset="0.8258" style="stop-color:#5A4037"/>
					<stop  offset="1" style="stop-color:#000000"/>
				</radialGradient>
				<polygon fill="url(#SVGID_63_)" points="390.1,567.8 389.4,573.6 387.3,573.3 388.1,567.6 				"/>
				<radialGradient id="SVGID_64_" cx="400.1948" cy="629.8588" r="324.7233" gradientUnits="userSpaceOnUse">
					<stop  offset="0.8258" style="stop-color:#5A4037"/>
					<stop  offset="1" style="stop-color:#000000"/>
				</radialGradient>
				<polygon fill="url(#SVGID_64_)" points="408.2,430.2 407.5,435.9 405.4,435.6 406.2,429.9 				"/>
			</g>
			<g>
				<radialGradient id="SVGID_65_" cx="400.1919" cy="629.8755" r="324.7607" gradientUnits="userSpaceOnUse">
					<stop  offset="0.8258" style="stop-color:#5A4037"/>
					<stop  offset="1" style="stop-color:#000000"/>
				</radialGradient>
				<polygon fill="url(#SVGID_65_)" points="381.6,566.3 380.1,571.8 378.1,571.3 379.6,565.7 				"/>
				<radialGradient id="SVGID_66_" cx="400.1802" cy="629.8657" r="324.7356" gradientUnits="userSpaceOnUse">
					<stop  offset="0.8258" style="stop-color:#5A4037"/>
					<stop  offset="1" style="stop-color:#000000"/>
				</radialGradient>
				<polygon fill="url(#SVGID_66_)" points="417.5,432.1 416,437.7 414,437.2 415.5,431.6 				"/>
			</g>
			<g>
				<radialGradient id="SVGID_67_" cx="400.2075" cy="629.8725" r="324.7744" gradientUnits="userSpaceOnUse">
					<stop  offset="0.8258" style="stop-color:#5A4037"/>
					<stop  offset="1" style="stop-color:#000000"/>
				</radialGradient>
				<polygon fill="url(#SVGID_67_)" points="373.3,563.6 371.1,568.9 369.1,568.1 371.4,562.8 				"/>
				<radialGradient id="SVGID_68_" cx="400.1919" cy="629.8598" r="324.725" gradientUnits="userSpaceOnUse">
					<stop  offset="0.8258" style="stop-color:#5A4037"/>
					<stop  offset="1" style="stop-color:#000000"/>
				</radialGradient>
				<polygon fill="url(#SVGID_68_)" points="426.4,435.3 424.2,440.6 422.3,439.8 424.5,434.5 				"/>
			</g>
			<g>
				<radialGradient id="SVGID_69_" cx="400.1939" cy="629.8764" r="324.7614" gradientUnits="userSpaceOnUse">
					<stop  offset="0.8258" style="stop-color:#5A4037"/>
					<stop  offset="1" style="stop-color:#000000"/>
				</radialGradient>
				<polygon fill="url(#SVGID_69_)" points="365.4,559.9 362.5,564.9 360.7,563.8 363.6,558.8 				"/>
				<radialGradient id="SVGID_70_" cx="400.1919" cy="629.8579" r="324.7223" gradientUnits="userSpaceOnUse">
					<stop  offset="0.8258" style="stop-color:#5A4037"/>
					<stop  offset="1" style="stop-color:#000000"/>
				</radialGradient>
				<polygon fill="url(#SVGID_70_)" points="434.8,439.6 431.9,444.6 430.2,443.6 433,438.6 				"/>
			</g>
			<g>
				<radialGradient id="SVGID_71_" cx="400.19" cy="629.8755" r="324.7487" gradientUnits="userSpaceOnUse">
					<stop  offset="0.8258" style="stop-color:#5A4037"/>
					<stop  offset="1" style="stop-color:#000000"/>
				</radialGradient>
				<polygon fill="url(#SVGID_71_)" points="358.1,555.1 354.6,559.7 352.9,558.5 356.4,553.9 				"/>
				<radialGradient id="SVGID_72_" cx="400.1958" cy="629.8852" r="324.7652" gradientUnits="userSpaceOnUse">
					<stop  offset="0.8258" style="stop-color:#5A4037"/>
					<stop  offset="1" style="stop-color:#000000"/>
				</radialGradient>
				<polygon fill="url(#SVGID_72_)" points="442.6,445 439.1,449.6 437.5,448.3 441,443.7 				"/>
			</g>
			<g>
				<radialGradient id="SVGID_73_" cx="400.189" cy="629.8725" r="324.7412" gradientUnits="userSpaceOnUse">
					<stop  offset="0.8258" style="stop-color:#5A4037"/>
					<stop  offset="1" style="stop-color:#000000"/>
				</radialGradient>
				<polygon fill="url(#SVGID_73_)" points="351.5,549.5 347.4,553.6 345.9,552.1 350,548 				"/>
				<radialGradient id="SVGID_74_" cx="400.1968" cy="629.8774" r="324.7535" gradientUnits="userSpaceOnUse">
					<stop  offset="0.8258" style="stop-color:#5A4037"/>
					<stop  offset="1" style="stop-color:#000000"/>
				</radialGradient>
				<polygon fill="url(#SVGID_74_)" points="449.6,451.3 445.6,455.4 444.1,453.9 448.2,449.9 				"/>
			</g>
			<g>
				<radialGradient id="SVGID_75_" cx="400.1724" cy="629.8755" r="324.7177" gradientUnits="userSpaceOnUse">
					<stop  offset="0.8258" style="stop-color:#5A4037"/>
					<stop  offset="1" style="stop-color:#000000"/>
				</radialGradient>
				<polygon fill="url(#SVGID_75_)" points="345.6,543.1 341,546.6 339.8,544.9 344.4,541.4 				"/>
				<radialGradient id="SVGID_76_" cx="400.2114" cy="629.8794" r="324.7449" gradientUnits="userSpaceOnUse">
					<stop  offset="0.8258" style="stop-color:#5A4037"/>
					<stop  offset="1" style="stop-color:#000000"/>
				</radialGradient>
				<polygon fill="url(#SVGID_76_)" points="455.8,458.5 451.2,462 449.9,460.4 454.5,456.9 				"/>
			</g>
			<g>
				<radialGradient id="SVGID_77_" cx="400.1978" cy="629.8676" r="324.7412" gradientUnits="userSpaceOnUse">
					<stop  offset="0.8258" style="stop-color:#5A4037"/>
					<stop  offset="1" style="stop-color:#000000"/>
				</radialGradient>
				<polygon fill="url(#SVGID_77_)" points="340.7,535.9 335.7,538.8 334.6,537 339.6,534.1 				"/>
				<radialGradient id="SVGID_78_" cx="400.1695" cy="629.8833" r="324.7818" gradientUnits="userSpaceOnUse">
					<stop  offset="0.8258" style="stop-color:#5A4037"/>
					<stop  offset="1" style="stop-color:#000000"/>
				</radialGradient>
				<polygon fill="url(#SVGID_78_)" points="460.9,466.5 455.9,469.3 454.9,467.6 459.9,464.7 				"/>
			</g>
			<g>
				<radialGradient id="SVGID_79_" cx="400.2183" cy="629.8755" r="324.7872" gradientUnits="userSpaceOnUse">
					<stop  offset="0.8258" style="stop-color:#5A4037"/>
					<stop  offset="1" style="stop-color:#000000"/>
				</radialGradient>
				<polygon fill="url(#SVGID_79_)" points="336.7,528.1 331.4,530.4 330.6,528.4 335.9,526.2 				"/>
				<radialGradient id="SVGID_80_" cx="400.2163" cy="629.8794" r="324.7375" gradientUnits="userSpaceOnUse">
					<stop  offset="0.8258" style="stop-color:#5A4037"/>
					<stop  offset="1" style="stop-color:#000000"/>
				</radialGradient>
				<polygon fill="url(#SVGID_80_)" points="465,475 459.6,477.2 458.9,475.3 464.2,473.1 				"/>
			</g>
			<g>
				<radialGradient id="SVGID_81_" cx="400.1958" cy="629.8647" r="324.7321" gradientUnits="userSpaceOnUse">
					<stop  offset="0.8258" style="stop-color:#5A4037"/>
					<stop  offset="1" style="stop-color:#000000"/>
				</radialGradient>
				<polygon fill="url(#SVGID_81_)" points="333.8,519.9 328.2,521.4 327.7,519.4 333.2,517.9 				"/>
				<radialGradient id="SVGID_82_" cx="400.19" cy="629.8667" r="324.7368" gradientUnits="userSpaceOnUse">
					<stop  offset="0.8258" style="stop-color:#5A4037"/>
					<stop  offset="1" style="stop-color:#000000"/>
				</radialGradient>
				<polygon fill="url(#SVGID_82_)" points="467.9,484 462.3,485.5 461.8,483.5 467.4,482 				"/>
			</g>
			<g>
				<radialGradient id="SVGID_83_" cx="400.2222" cy="629.8598" r="324.7527" gradientUnits="userSpaceOnUse">
					<stop  offset="0.8258" style="stop-color:#5A4037"/>
					<stop  offset="1" style="stop-color:#000000"/>
				</radialGradient>
				<polygon fill="url(#SVGID_83_)" points="331.9,511.4 326.2,512.2 325.9,510.1 331.7,509.4 				"/>
				<radialGradient id="SVGID_84_" cx="400.1665" cy="629.8618" r="324.7517" gradientUnits="userSpaceOnUse">
					<stop  offset="0.8258" style="stop-color:#5A4037"/>
					<stop  offset="1" style="stop-color:#000000"/>
				</radialGradient>
				<polygon fill="url(#SVGID_84_)" points="469.6,493.3 463.9,494.1 463.6,492 469.3,491.3 				"/>
			</g>
			<g>
				<radialGradient id="SVGID_85_" cx="400.1704" cy="629.8579" r="324.6929" gradientUnits="userSpaceOnUse">
					<stop  offset="0.8258" style="stop-color:#5A4037"/>
					<stop  offset="1" style="stop-color:#000000"/>
				</radialGradient>
				<rect x="325.5" y="500.7" fill="url(#SVGID_85_)" width="5.8" height="2.1"/>
				<radialGradient id="SVGID_86_" cx="400.1997" cy="629.8579" r="324.707" gradientUnits="userSpaceOnUse">
					<stop  offset="0.8258" style="stop-color:#5A4037"/>
					<stop  offset="1" style="stop-color:#000000"/>
				</radialGradient>
				<rect x="464.3" y="500.7" fill="url(#SVGID_86_)" width="5.8" height="2.1"/>
			</g>
		</g>
		<g>
			<g>
				<radialGradient id="SVGID_87_" cx="400.2027" cy="629.8735" r="324.7342" gradientUnits="userSpaceOnUse">
					<stop  offset="0.8258" style="stop-color:#5A4037"/>
					<stop  offset="1" style="stop-color:#000000"/>
				</radialGradient>
				<polygon fill="url(#SVGID_87_)" points="458.2,516.9 467.9,519.4 467.4,521.4 457.7,518.8 				"/>
				<radialGradient id="SVGID_88_" cx="400.2036" cy="629.8559" r="324.7236" gradientUnits="userSpaceOnUse">
					<stop  offset="0.8258" style="stop-color:#5A4037"/>
					<stop  offset="1" style="stop-color:#000000"/>
				</radialGradient>
				<polygon fill="url(#SVGID_88_)" points="328.2,482 337.8,484.6 337.3,486.6 327.7,484 				"/>
			</g>
			<g>
				<radialGradient id="SVGID_89_" cx="400.1792" cy="629.8735" r="324.7792" gradientUnits="userSpaceOnUse">
					<stop  offset="0.8258" style="stop-color:#5A4037"/>
					<stop  offset="1" style="stop-color:#000000"/>
				</radialGradient>
				<polygon fill="url(#SVGID_89_)" points="442.6,545.1 449.6,552.1 448.2,553.6 441.1,546.5 				"/>
				<radialGradient id="SVGID_90_" cx="400.2017" cy="629.8686" r="324.7427" gradientUnits="userSpaceOnUse">
					<stop  offset="0.8258" style="stop-color:#5A4037"/>
					<stop  offset="1" style="stop-color:#000000"/>
				</radialGradient>
				<polygon fill="url(#SVGID_90_)" points="347.4,449.9 354.4,456.9 353,458.4 345.9,451.3 				"/>
			</g>
			<g>
				<radialGradient id="SVGID_91_" cx="400.1939" cy="629.8755" r="324.7622" gradientUnits="userSpaceOnUse">
					<stop  offset="0.8258" style="stop-color:#5A4037"/>
					<stop  offset="1" style="stop-color:#000000"/>
				</radialGradient>
				<polygon fill="url(#SVGID_91_)" points="414.9,561.7 417.5,571.3 415.5,571.8 412.9,562.2 				"/>
				<radialGradient id="SVGID_92_" cx="400.1929" cy="629.8637" r="324.7319" gradientUnits="userSpaceOnUse">
					<stop  offset="0.8258" style="stop-color:#5A4037"/>
					<stop  offset="1" style="stop-color:#000000"/>
				</radialGradient>
				<polygon fill="url(#SVGID_92_)" points="380.1,431.6 382.6,441.3 380.6,441.8 378.1,432.1 				"/>
			</g>
			<g>
				<radialGradient id="SVGID_93_" cx="400.1958" cy="629.8725" r="324.7489" gradientUnits="userSpaceOnUse">
					<stop  offset="0.8258" style="stop-color:#5A4037"/>
					<stop  offset="1" style="stop-color:#000000"/>
				</radialGradient>
				<polygon fill="url(#SVGID_93_)" points="382.6,562.2 380.1,571.8 378.1,571.3 380.6,561.7 				"/>
				<radialGradient id="SVGID_94_" cx="400.1909" cy="629.8657" r="324.7338" gradientUnits="userSpaceOnUse">
					<stop  offset="0.8258" style="stop-color:#5A4037"/>
					<stop  offset="1" style="stop-color:#000000"/>
				</radialGradient>
				<polygon fill="url(#SVGID_94_)" points="417.5,432.1 414.9,441.8 412.9,441.3 415.5,431.6 				"/>
			</g>
			<g>
				<radialGradient id="SVGID_95_" cx="400.19" cy="629.8715" r="324.7403" gradientUnits="userSpaceOnUse">
					<stop  offset="0.8258" style="stop-color:#5A4037"/>
					<stop  offset="1" style="stop-color:#000000"/>
				</radialGradient>
				<polygon fill="url(#SVGID_95_)" points="354.4,546.5 347.4,553.6 345.9,552.1 353,545.1 				"/>
				<radialGradient id="SVGID_96_" cx="400.19" cy="629.8657" r="324.7351" gradientUnits="userSpaceOnUse">
					<stop  offset="0.8258" style="stop-color:#5A4037"/>
					<stop  offset="1" style="stop-color:#000000"/>
				</radialGradient>
				<polygon fill="url(#SVGID_96_)" points="449.6,451.3 442.6,458.4 441.1,456.9 448.2,449.9 				"/>
			</g>
			<g>
				<radialGradient id="SVGID_97_" cx="400.1763" cy="629.8676" r="324.7171" gradientUnits="userSpaceOnUse">
					<stop  offset="0.8258" style="stop-color:#5A4037"/>
					<stop  offset="1" style="stop-color:#000000"/>
				</radialGradient>
				<polygon fill="url(#SVGID_97_)" points="337.8,518.8 328.2,521.4 327.7,519.4 337.3,516.9 				"/>
				<radialGradient id="SVGID_98_" cx="400.189" cy="629.8628" r="324.7307" gradientUnits="userSpaceOnUse">
					<stop  offset="0.8258" style="stop-color:#5A4037"/>
					<stop  offset="1" style="stop-color:#000000"/>
				</radialGradient>
				<polygon fill="url(#SVGID_98_)" points="467.9,484 458.2,486.6 457.7,484.6 467.4,482 				"/>
			</g>
		</g>
		<g>
			<radialGradient id="SVGID_99_" cx="400.1948" cy="629.8755" r="324.7521" gradientUnits="userSpaceOnUse">
				<stop  offset="0.8258" style="stop-color:#5A4037"/>
				<stop  offset="1" style="stop-color:#000000"/>
			</radialGradient>
			<path fill="url(#SVGID_99_)" d="M394.3,438v16.5h-3v-11.3h-3.8v-2.3h0.4c2.5,0,3.8-1.3,4.2-2.9H394.3z"/>
			<radialGradient id="SVGID_100_" cx="400.1929" cy="629.8715" r="324.7448" gradientUnits="userSpaceOnUse">
				<stop  offset="0.8258" style="stop-color:#5A4037"/>
				<stop  offset="1" style="stop-color:#000000"/>
			</radialGradient>
			<path fill="url(#SVGID_100_)" d="M405.7,454.5h-9.1v-0.9c0-4.6,3.4-6.7,4.8-8.1c1.5-1.5,1.7-2.1,1.7-3.2c0-1.5-0.6-2.1-1.7-2.1
				c-1,0-1.7,0.6-1.7,2.5v0.9h-3v-1c0-3.4,2.4-5,4.6-5c2.6,0,4.6,1.7,4.6,4.4c0,1.7-0.8,3.5-2.2,4.9c-1.7,1.6-3.7,2.9-3.9,4.9h5.7
				V454.5z"/>
		</g>
		<g>
			<radialGradient id="SVGID_101_" cx="400.1861" cy="629.8755" r="324.7538" gradientUnits="userSpaceOnUse">
				<stop  offset="0.8258" style="stop-color:#5A4037"/>
				<stop  offset="1" style="stop-color:#000000"/>
			</radialGradient>
			<path fill="url(#SVGID_101_)" d="M428.3,447.2v16.5h-3v-11.3h-3.8V450h0.4c2.5,0,3.8-1.3,4.2-2.9H428.3z"/>
		</g>
		<g>
			<radialGradient id="SVGID_102_" cx="400.1812" cy="629.8706" r="324.738" gradientUnits="userSpaceOnUse">
				<stop  offset="0.8258" style="stop-color:#5A4037"/>
				<stop  offset="1" style="stop-color:#000000"/>
			</radialGradient>
			<path fill="url(#SVGID_102_)" d="M366.6,446.5V463h-3v-11.3h-3.8v-2.3h0.4c2.5,0,3.8-1.3,4.2-2.9H366.6z"/>
			<radialGradient id="SVGID_103_" cx="400.1929" cy="629.8706" r="324.7416" gradientUnits="userSpaceOnUse">
				<stop  offset="0.8258" style="stop-color:#5A4037"/>
				<stop  offset="1" style="stop-color:#000000"/>
			</radialGradient>
			<path fill="url(#SVGID_103_)" d="M375.2,446.5V463h-3v-11.3h-3.8v-2.3h0.4c2.5,0,3.8-1.3,4.2-2.9H375.2z"/>
		</g>
		<g>
			<radialGradient id="SVGID_104_" cx="400.1919" cy="629.8735" r="324.7484" gradientUnits="userSpaceOnUse">
				<stop  offset="0.8258" style="stop-color:#5A4037"/>
				<stop  offset="1" style="stop-color:#000000"/>
			</radialGradient>
			<path fill="url(#SVGID_104_)" d="M452.9,482.8h-9.1v-0.9c0-4.6,3.4-6.7,4.8-8.1c1.5-1.5,1.7-2.1,1.7-3.2c0-1.5-0.6-2.1-1.7-2.1
				c-1,0-1.7,0.6-1.7,2.5v0.9h-3v-1c0-3.4,2.4-5,4.6-5c2.6,0,4.6,1.7,4.6,4.4c0,1.7-0.8,3.5-2.2,4.9c-1.7,1.6-3.7,2.9-3.9,4.9h5.7
				V482.8z"/>
		</g>
		<g>
			<radialGradient id="SVGID_105_" cx="400.1743" cy="629.8657" r="324.7212" gradientUnits="userSpaceOnUse">
				<stop  offset="0.8258" style="stop-color:#5A4037"/>
				<stop  offset="1" style="stop-color:#000000"/>
			</radialGradient>
			<path fill="url(#SVGID_105_)" d="M346.8,468v16.5h-3v-11.3H340v-2.3h0.4c2.5,0,3.8-1.3,4.2-2.9H346.8z"/>
			<radialGradient id="SVGID_106_" cx="400.1909" cy="629.8715" r="324.7449" gradientUnits="userSpaceOnUse">
				<stop  offset="0.8258" style="stop-color:#5A4037"/>
				<stop  offset="1" style="stop-color:#000000"/>
			</radialGradient>
			<path fill="url(#SVGID_106_)" d="M358.6,472.1v8.3c0,2.7-1.8,4.5-4.6,4.5c-2.6,0-4.6-1.8-4.6-4.5v-8.3c0-2.6,2.1-4.4,4.6-4.4
				C356.8,467.7,358.6,469.4,358.6,472.1z M352.4,471.8v8.9c0,1,0.8,1.6,1.7,1.6c0.8,0,1.6-0.7,1.6-1.7v-8.8c0-1-0.8-1.5-1.6-1.5
				C353.2,470.3,352.4,470.8,352.4,471.8z"/>
		</g>
		<g>
			<radialGradient id="SVGID_107_" cx="400.1909" cy="629.8715" r="324.7445" gradientUnits="userSpaceOnUse">
				<stop  offset="0.8258" style="stop-color:#5A4037"/>
				<stop  offset="1" style="stop-color:#000000"/>
			</radialGradient>
			<path fill="url(#SVGID_107_)" d="M450.8,521.2v10.6h1.5v2.6h-1.5v3.3h-3v-3.3h-5.2v-3l4.6-10.2H450.8z M447.8,525l-3,6.8h3V525z"
				/>
		</g>
		<g>
			<radialGradient id="SVGID_108_" cx="400.1812" cy="629.8745" r="324.7365" gradientUnits="userSpaceOnUse">
				<stop  offset="0.8258" style="stop-color:#5A4037"/>
				<stop  offset="1" style="stop-color:#000000"/>
			</radialGradient>
			<path fill="url(#SVGID_108_)" d="M344.2,525.9c0-2.8,1.9-4.1,4.3-4.1c2.4,0,4.3,1.3,4.3,4.1c0,2.2-0.8,3.3-1.9,3.8
				c1.5,0.7,2.2,1.9,2.2,4.1c0,3.6-1.4,5.1-4.6,5.1c-3.1,0-4.6-1.5-4.6-5.1c0-2.3,1-3.4,2.3-4.1
				C345.1,529.1,344.2,528.1,344.2,525.9z M346.9,533.2v0.9c0,1.5,0.6,2.3,1.6,2.3s1.6-0.8,1.6-2.3v-0.9c0-1.4-0.5-2.2-1.6-2.2
				C347.4,531,346.9,531.8,346.9,533.2z M347,526.5c0,1.4,0.5,2.2,1.4,2.2c1,0,1.4-0.7,1.4-2.2c0-1.6-0.4-2.2-1.4-2.2
				C347.5,524.3,347,524.9,347,526.5z"/>
		</g>
		<g>
			<radialGradient id="SVGID_109_" cx="400.1919" cy="629.8715" r="324.7434" gradientUnits="userSpaceOnUse">
				<stop  offset="0.8258" style="stop-color:#5A4037"/>
				<stop  offset="1" style="stop-color:#000000"/>
			</radialGradient>
			<path fill="url(#SVGID_109_)" d="M432.2,541.1v2.5h-5.4l-0.2,3.6c0.7-0.8,1.5-1.1,2.3-1.1c2.7,0,4,1.8,4,4.8v1.6
				c0,3.7-1.4,5.5-4.6,5.5c-3,0-4.7-1.6-4.7-4.7v-0.7h2.9c0,2.4,0.6,2.9,1.7,2.9c1.2,0,1.7-0.5,1.7-2.7V551c0-1.6-0.6-2.4-1.8-2.4
				c-0.7,0-1.3,0.5-1.5,1.2h-2.9l0.3-8.7H432.2z"/>
		</g>
		<g>
			<radialGradient id="SVGID_110_" cx="400.1861" cy="629.8715" r="324.7341" gradientUnits="userSpaceOnUse">
				<stop  offset="0.8258" style="stop-color:#5A4037"/>
				<stop  offset="1" style="stop-color:#000000"/>
			</radialGradient>
			<path fill="url(#SVGID_110_)" d="M371.9,541.1v2.4c-1.7,3.4-3.6,7.9-4,14.1h-3.3c0.6-5.1,2.3-10.5,4.2-13.9h-6.5v-2.6H371.9z"/>
		</g>
		<g>
			<radialGradient id="SVGID_111_" cx="400.1919" cy="629.8715" r="324.7442" gradientUnits="userSpaceOnUse">
				<stop  offset="0.8258" style="stop-color:#5A4037"/>
				<stop  offset="1" style="stop-color:#000000"/>
			</radialGradient>
			<path fill="url(#SVGID_111_)" d="M400.8,553.1c0-1-0.5-1.4-1.5-1.4c-1,0-1.5,0.6-1.5,2.2v1.9c0.6-0.6,1.7-1.2,2.6-1.2
				c2,0,3.4,1.3,3.4,3.7v3.9c0,2.8-2,4-4.6,4c-2.3,0-4.4-1.2-4.4-4v-8.5c0-2.6,1.5-4.6,4.4-4.6c2.7,0,4.6,1.5,4.6,3.9H400.8z
				 M397.8,558.9v3.3c0,1.1,0.5,1.7,1.4,1.7c0.9,0,1.6-0.6,1.6-1.7v-3.3c0-1-0.8-1.6-1.5-1.6C398.5,557.2,397.8,557.7,397.8,558.9z"
				/>
		</g>
		<g>
			<radialGradient id="SVGID_112_" cx="400.1929" cy="629.8715" r="324.7441" gradientUnits="userSpaceOnUse">
				<stop  offset="0.8258" style="stop-color:#5A4037"/>
				<stop  offset="1" style="stop-color:#000000"/>
			</radialGradient>
			<path fill="url(#SVGID_112_)" d="M455.3,501.2h0.9c2.1,0,2.2-1.7,2.2-2.7c0-1.1-0.4-1.7-1.5-1.7c-1,0-1.6,0.7-1.6,2v0.6h-2.8
				v-0.7c0-2.5,1.6-4.3,4.4-4.3c2.8,0,4.5,1.5,4.5,4.1c0,2.2-0.9,3.3-2.3,3.8c1.7,0.4,2.6,1.8,2.6,4.2c0,3.6-1.7,5.1-4.8,5.1
				c-3.1,0-4.3-2-4.3-4.5v-1h2.8v0.6c0,1.4,0.4,2.4,1.6,2.4c1.5,0,1.6-1.1,1.6-2.7c0-2.1-0.5-2.8-1.9-2.8h-1.3V501.2z"/>
		</g>
		<g>
			<radialGradient id="SVGID_113_" cx="400.1958" cy="629.8715" r="324.7469" gradientUnits="userSpaceOnUse">
				<stop  offset="0.8258" style="stop-color:#5A4037"/>
				<stop  offset="1" style="stop-color:#000000"/>
			</radialGradient>
			<path fill="url(#SVGID_113_)" d="M344.9,498.3v8.5c0,2.6-1.5,4.6-4.4,4.6c-2.7,0-4.6-1.5-4.6-3.9h3c0,1,0.5,1.4,1.5,1.4
				c1,0,1.5-0.6,1.5-2.2v-2c-0.6,0.6-1.7,1.2-2.6,1.2c-1.9,0-3.4-1.3-3.4-3.7v-3.9c0-2.8,2-4,4.6-4
				C342.8,494.3,344.9,495.5,344.9,498.3z M338.9,498.5v3.3c0,1,0.8,1.6,1.5,1.6c0.8,0,1.5-0.5,1.5-1.6v-3.3c0-1.1-0.5-1.7-1.4-1.7
				C339.6,496.8,338.9,497.3,338.9,498.5z"/>
		</g>
	</g>
	<radialGradient id="SVGID_114_" cx="400.1939" cy="629.8715" r="324.7444" gradientUnits="userSpaceOnUse">
		<stop  offset="0.8258" style="stop-color:#5A4037"/>
		<stop  offset="1" style="stop-color:#000000"/>
	</radialGradient>
	<path fill="url(#SVGID_114_)" d="M376,556.4c6.4-21,17-55.8,17-55.8l9.7,3.7c0,0-15.3,33-24.5,52.9L376,556.4z"/>
	<radialGradient id="SVGID_115_" cx="400.1919" cy="629.8715" r="324.7425" gradientUnits="userSpaceOnUse">
		<stop  offset="0.8258" style="stop-color:#5A4037"/>
		<stop  offset="1" style="stop-color:#000000"/>
	</radialGradient>
	<path fill="url(#SVGID_115_)" d="M405.2,501.7c0,4.1-3.3,7.5-7.4,7.5c-4.1,0-7.4-3.3-7.4-7.5c0-4.1,3.3-7.4,7.4-7.4
		C401.9,494.3,405.2,497.6,405.2,501.7z"/>
</g>
<path d="M169.7,452.7c40.9,34.9,160.9,137.1,160.9,137.1s31.8,20.6,57.8,37.6l4.3-5.5c-22.7-21.2-50.4-47.1-50.4-47.1
	s-128.1-91.9-171.7-123.2L169.7,452.7z"/>
<path d="M431.9,624.4c0,18.6-15.3,33.6-34.2,33.6c-18.9,0-34.2-15-34.2-33.6c0-18.6,15.3-33.6,34.2-33.6
	C416.6,590.8,431.9,605.8,431.9,624.4z"/>
<path d="M576.3,510.7C543.9,527.5,449,576.8,449,576.8s-18.6,18.2-33.8,33.2l6,9.2c19.9-7.8,44.1-17.3,44.1-17.3
	s83.8-66.6,112.3-89.3L576.3,510.7z"/>
<radialGradient id="SVGID_116_" cx="397.11" cy="613.4838" r="30.317" gradientTransform="matrix(0.9382 0 0 0.9372 25.1934 49.8708)" gradientUnits="userSpaceOnUse">
	<stop  offset="0.2865" style="stop-color:#000000"/>
	<stop  offset="0.8202" style="stop-color:#517382"/>
	<stop  offset="1" style="stop-color:#000000"/>
</radialGradient>
<path fill="url(#SVGID_116_)" d="M426.4,624.8c0,15.6-12.8,28.2-28.7,28.2c-15.8,0-28.7-12.6-28.7-28.2c0-15.6,12.8-28.2,28.7-28.2
	C413.6,596.7,426.4,609.3,426.4,624.8z"/>
<linearGradient id="SVGID_117_" gradientUnits="userSpaceOnUse" x1="125.3281" y1="947.1497" x2="177.3009" y2="978.5499">
	<stop  offset="1.123600e-02" style="stop-color:#000000"/>
	<stop  offset="0.118" style="stop-color:#ADB9B1"/>
	<stop  offset="0.2528" style="stop-color:#FFFFFF"/>
	<stop  offset="0.2865" style="stop-color:#F3F4F4"/>
	<stop  offset="0.3402" style="stop-color:#DDE0DE"/>
	<stop  offset="0.4068" style="stop-color:#BBC0BE"/>
	<stop  offset="0.4607" style="stop-color:#9CA3A1"/>
	<stop  offset="0.6461" style="stop-color:#000000"/>
</linearGradient>
<path fill="url(#SVGID_117_)" d="M127.2,947.9c0,0,9.3,3.6,21.7,10.7c12.4,7.1,26.8,16.9,26.8,16.9s-16.4-4.1-33.7-15.5
	C124.8,948.6,127.2,947.9,127.2,947.9"/>
<path d="M52.6,355.7c-1.2-1.8-2.3-3.6-3.4-5.5c-40.3-68.6,11-127.2,89.7-173.4c78.7-46.2,154.8-62.5,195.1,6.1
	c1.1,1.9,2.1,3.7,3.1,5.6L52.6,355.7z"/>
<radialGradient id="SVGID_118_" cx="50.6436" cy="250.9448" r="90.2963" gradientUnits="userSpaceOnUse">
	<stop  offset="0.1348" style="stop-color:#DFE0E5"/>
	<stop  offset="0.1422" style="stop-color:#DCDEE2"/>
	<stop  offset="0.39" style="stop-color:#A2A4A8"/>
	<stop  offset="0.6081" style="stop-color:#747578"/>
	<stop  offset="0.7885" style="stop-color:#4E4F51"/>
	<stop  offset="0.9243" style="stop-color:#262526"/>
	<stop  offset="1" style="stop-color:#000000"/>
</radialGradient>
<path fill="url(#SVGID_118_)" d="M54.2,357.4c-1.2-1.8-2.3-3.6-3.4-5.5c-40.3-68.6,11-127.2,89.7-173.4
	c78.7-46.2,154.8-62.5,195.1,6.1c1.1,1.9,2.1,3.7,3.1,5.6L54.2,357.4z"/>
<radialGradient id="SVGID_119_" cx="64.8941" cy="253.6499" r="93.1813" gradientUnits="userSpaceOnUse">
	<stop  offset="0" style="stop-color:#FFFFFF"/>
	<stop  offset="0.4831" style="stop-color:#E2E4E7"/>
	<stop  offset="0.5553" style="stop-color:#CACFD2"/>
	<stop  offset="0.707" style="stop-color:#949FA0"/>
	<stop  offset="0.9241" style="stop-color:#4B5959"/>
	<stop  offset="1" style="stop-color:#303E3D"/>
</radialGradient>
<path fill="url(#SVGID_119_)" d="M72.5,295.6c10.2-39.9,33.8-74.3,65.9-96.8c-2.3-1.6-4.6-3.1-7-4.7C91.3,212,60,246.4,44.5,288.9
	C54,291.5,63.4,293.8,72.5,295.6z"/>
<radialGradient id="SVGID_120_" cx="585.6094" cy="1108.5337" r="186.7012" gradientTransform="matrix(0.5235 0.852 -0.852 0.5235 1151.1104 -932.7037)" gradientUnits="userSpaceOnUse">
	<stop  offset="0" style="stop-color:#FFFFFF"/>
	<stop  offset="0.2022" style="stop-color:#E2E4E7"/>
	<stop  offset="0.2752" style="stop-color:#CACFD2"/>
	<stop  offset="0.4286" style="stop-color:#949FA0"/>
	<stop  offset="0.648" style="stop-color:#4B5959"/>
	<stop  offset="0.7247" style="stop-color:#303E3D"/>
</radialGradient>
<path fill="url(#SVGID_120_)" d="M657.5,190.2c-6-5.4-14.5-11.9-19.9-15.4c-36.2-24.8-100.4-45.7-134.1-26.1
	c17.2,18.1,19.2,29,19.2,29c44.4-25.1,102.8-11.6,155.1,37.6L657.5,190.2z"/>
<radialGradient id="SVGID_121_" cx="560.4551" cy="-149.9571" r="113.9282" gradientTransform="matrix(0.8788 -0.4771 0.4771 0.8788 -135.3302 654.4895)" gradientUnits="userSpaceOnUse">
	<stop  offset="0" style="stop-color:#FFFFFF"/>
	<stop  offset="0.2865" style="stop-color:#E2E4E7"/>
	<stop  offset="0.3516" style="stop-color:#CACFD2"/>
	<stop  offset="0.4885" style="stop-color:#949FA0"/>
	<stop  offset="0.6843" style="stop-color:#4B5959"/>
	<stop  offset="0.7528" style="stop-color:#303E3D"/>
</radialGradient>
<path fill="url(#SVGID_121_)" d="M325.5,198.1c-27.2-49.1-82.2-38.7-98.5-29.9c-16.4,8.9,12,13,38.4,62.5L325.5,198.1z"/>
<radialGradient id="SVGID_122_" cx="581.8321" cy="868.0083" r="113.9271" gradientTransform="matrix(0.8525 0.5227 -0.6493 1.0589 713.9956 -880.3081)" gradientUnits="userSpaceOnUse">
	<stop  offset="0" style="stop-color:#FFFFFF"/>
	<stop  offset="0.2865" style="stop-color:#E2E4E7"/>
	<stop  offset="0.3516" style="stop-color:#CACFD2"/>
	<stop  offset="0.4885" style="stop-color:#949FA0"/>
	<stop  offset="0.6843" style="stop-color:#4B5959"/>
	<stop  offset="0.7528" style="stop-color:#303E3D"/>
</radialGradient>
<path fill="url(#SVGID_122_)" d="M719.9,342.5c36.1-59.6,1.8-105.7-14.1-115.4c-15.9-9.7-7.4,20.5-44.2,79.6L719.9,342.5z"/>
<radialGradient id="SVGID_123_" cx="108.0967" cy="323.8457" r="66.9674" gradientUnits="userSpaceOnUse">
	<stop  offset="0.1348" style="stop-color:#DFE0E5"/>
	<stop  offset="0.1422" style="stop-color:#DCDEE2"/>
	<stop  offset="0.39" style="stop-color:#A2A4A8"/>
	<stop  offset="0.6081" style="stop-color:#747578"/>
	<stop  offset="0.7885" style="stop-color:#4E4F51"/>
	<stop  offset="0.9243" style="stop-color:#262526"/>
	<stop  offset="1" style="stop-color:#000000"/>
</radialGradient>
<path fill="url(#SVGID_123_)" d="M341.5,187.7c0.9,1.5,0.4,3.4-1.1,4.3L55.1,359.6c-1.5,0.9-3.4,0.4-4.3-1.1l0,0
	c-0.9-1.5-0.4-3.4,1.1-4.3l285.2-167.6C338.7,185.7,340.6,186.2,341.5,187.7L341.5,187.7z"/>
<radialGradient id="SVGID_124_" cx="-523.6274" cy="-705.5684" r="66.9678" gradientTransform="matrix(0.8214 -0.2437 -0.2437 0.5497 374.6096 579.9337)" gradientUnits="userSpaceOnUse">
	<stop  offset="0.427" style="stop-color:#DFE0E5"/>
	<stop  offset="0.512" style="stop-color:#DCDDE1"/>
	<stop  offset="0.5858" style="stop-color:#D5D6DA"/>
	<stop  offset="0.6555" style="stop-color:#C9CBCF"/>
	<stop  offset="0.7226" style="stop-color:#B9BBBF"/>
	<stop  offset="0.788" style="stop-color:#A3A5A9"/>
	<stop  offset="0.852" style="stop-color:#888A8D"/>
	<stop  offset="0.9149" style="stop-color:#696A6D"/>
	<stop  offset="0.9754" style="stop-color:#3D3D3F"/>
	<stop  offset="1" style="stop-color:#000000"/>
</radialGradient>
<path fill="url(#SVGID_124_)" d="M341.4,188c0.4,0.6-0.5,1.8-2,2.6L64.3,352.3c-1.4,0.8-2.9,1-3.3,0.4l0,0c-0.4-0.6,0.5-1.8,2-2.6
	l275.1-161.6C339.6,187.6,341,187.4,341.4,188L341.4,188z"/>
<radialGradient id="SVGID_125_" cx="524.5845" cy="230.0429" r="93.8053" gradientUnits="userSpaceOnUse">
	<stop  offset="0.1348" style="stop-color:#DFE0E5"/>
	<stop  offset="0.1422" style="stop-color:#DCDEE2"/>
	<stop  offset="0.39" style="stop-color:#A2A4A8"/>
	<stop  offset="0.6081" style="stop-color:#747578"/>
	<stop  offset="0.7885" style="stop-color:#4E4F51"/>
	<stop  offset="0.9243" style="stop-color:#262526"/>
	<stop  offset="1" style="stop-color:#000000"/>
</radialGradient>
<path fill="url(#SVGID_125_)" d="M454,187.7c-0.9,1.5-0.4,3.4,1.1,4.3l285.2,167.6c1.5,0.9,3.4,0.4,4.3-1.1l0,0
	c0.9-1.5,0.4-3.4-1.1-4.3L458.3,186.6C456.8,185.7,454.9,186.2,454,187.7L454,187.7z"/>
<radialGradient id="SVGID_126_" cx="522.6607" cy="228.9189" r="88.5698" gradientUnits="userSpaceOnUse">
	<stop  offset="0.5393" style="stop-color:#DFE0E5"/>
	<stop  offset="0.5433" style="stop-color:#DCDEE2"/>
	<stop  offset="0.6752" style="stop-color:#A2A4A8"/>
	<stop  offset="0.7913" style="stop-color:#747578"/>
	<stop  offset="0.8874" style="stop-color:#4E4F51"/>
	<stop  offset="0.9597" style="stop-color:#262526"/>
	<stop  offset="1" style="stop-color:#000000"/>
</radialGradient>
<path fill="url(#SVGID_126_)" d="M455.8,188.3c-0.8,1.4,0.3,1.5,1.7,2.3l269.6,158.9c1.4,0.8,3.2,2,4.1,0.6l0,0
	c0.8-1.4-1-2.7-2.4-3.6L459.8,189.4C458.4,188.6,456.6,186.9,455.8,188.3L455.8,188.3z"/>
<g>
	<linearGradient id="SVGID_127_" gradientUnits="userSpaceOnUse" x1="361.7974" y1="168.1787" x2="361.7974" y2="204.0947">
		<stop  offset="0" style="stop-color:#65766A"/>
		<stop  offset="1.353998e-02" style="stop-color:#77887C"/>
		<stop  offset="4.119457e-02" style="stop-color:#9BA89F"/>
		<stop  offset="6.974103e-02" style="stop-color:#BBC5BE"/>
		<stop  offset="9.896567e-02" style="stop-color:#D5DCD7"/>
		<stop  offset="0.1291" style="stop-color:#E9EDEA"/>
		<stop  offset="0.1609" style="stop-color:#F8F9F8"/>
		<stop  offset="0.1966" style="stop-color:#FFFFFF"/>
		<stop  offset="0.3826" style="stop-color:#FBFCFB"/>
		<stop  offset="0.465" style="stop-color:#F2F3F3"/>
		<stop  offset="0.527" style="stop-color:#E6E8E7"/>
		<stop  offset="0.5788" style="stop-color:#D5D9D7"/>
		<stop  offset="0.6242" style="stop-color:#C0C5C3"/>
		<stop  offset="0.6644" style="stop-color:#A7AEAB"/>
		<stop  offset="0.6798" style="stop-color:#9CA3A1"/>
		<stop  offset="1" style="stop-color:#000000"/>
	</linearGradient>
	<polygon fill="url(#SVGID_127_)" points="371.3,185.7 355.5,204.1 352.3,200.8 352.3,171.4 355.5,168.2 	"/>
	
		<linearGradient id="SVGID_128_" gradientUnits="userSpaceOnUse" x1="2443.6074" y1="168.1787" x2="2443.6074" y2="204.0947" gradientTransform="matrix(-1 0 0 1 2863.5039 0)">
		<stop  offset="0" style="stop-color:#65766A"/>
		<stop  offset="1.353998e-02" style="stop-color:#77887C"/>
		<stop  offset="4.119457e-02" style="stop-color:#9BA89F"/>
		<stop  offset="6.974103e-02" style="stop-color:#BBC5BE"/>
		<stop  offset="9.896567e-02" style="stop-color:#D5DCD7"/>
		<stop  offset="0.1291" style="stop-color:#E9EDEA"/>
		<stop  offset="0.1609" style="stop-color:#F8F9F8"/>
		<stop  offset="0.1966" style="stop-color:#FFFFFF"/>
		<stop  offset="0.3826" style="stop-color:#FBFCFB"/>
		<stop  offset="0.465" style="stop-color:#F2F3F3"/>
		<stop  offset="0.527" style="stop-color:#E6E8E7"/>
		<stop  offset="0.5788" style="stop-color:#D5D9D7"/>
		<stop  offset="0.6242" style="stop-color:#C0C5C3"/>
		<stop  offset="0.6644" style="stop-color:#A7AEAB"/>
		<stop  offset="0.6798" style="stop-color:#9CA3A1"/>
		<stop  offset="1" style="stop-color:#000000"/>
	</linearGradient>
	<polygon fill="url(#SVGID_128_)" points="410.4,185.7 426.2,204.1 429.4,200.8 429.4,171.4 426.2,168.2 	"/>
	<linearGradient id="SVGID_129_" gradientUnits="userSpaceOnUse" x1="390.8458" y1="168.1787" x2="390.8458" y2="204.0947">
		<stop  offset="5.617980e-03" style="stop-color:#000000"/>
		<stop  offset="0.191" style="stop-color:#65766A"/>
		<stop  offset="0.1945" style="stop-color:#748479"/>
		<stop  offset="0.2024" style="stop-color:#93A198"/>
		<stop  offset="0.211" style="stop-color:#B1BCB4"/>
		<stop  offset="0.2203" style="stop-color:#CAD3CC"/>
		<stop  offset="0.2308" style="stop-color:#DEE4E0"/>
		<stop  offset="0.2429" style="stop-color:#EEF1EF"/>
		<stop  offset="0.2581" style="stop-color:#FAFBFA"/>
		<stop  offset="0.2865" style="stop-color:#FFFFFF"/>
		<stop  offset="0.3605" style="stop-color:#FAFBFA"/>
		<stop  offset="0.409" style="stop-color:#F0F2F1"/>
		<stop  offset="0.4502" style="stop-color:#E1E4E3"/>
		<stop  offset="0.4873" style="stop-color:#CED3D1"/>
		<stop  offset="0.5214" style="stop-color:#B6BCBA"/>
		<stop  offset="0.5506" style="stop-color:#9CA3A1"/>
		<stop  offset="0.8034" style="stop-color:#000000"/>
	</linearGradient>
	<rect x="355.5" y="168.2" fill="url(#SVGID_129_)" width="70.8" height="35.9"/>
	<linearGradient id="SVGID_130_" gradientUnits="userSpaceOnUse" x1="375.3669" y1="165.9841" x2="416.1497" y2="204.6657">
		<stop  offset="0.2865" style="stop-color:#FFFFFF"/>
		<stop  offset="0.4439" style="stop-color:#EAECEB"/>
		<stop  offset="0.7578" style="stop-color:#BFC4C2"/>
		<stop  offset="1" style="stop-color:#9CA3A1"/>
	</linearGradient>
	<path fill="url(#SVGID_130_)" d="M426.2,195.1c0,0-10.5-8.8-25.1-13.7c-27.1-8.9-45.6,4.7-45.6,4.7v-13c0,0,17.1,4.6,39.5,1.2
		c12.1-1.9,19.8-6.2,31.2,0.8V195.1z"/>
</g>
</svg>
